<?xml version="1.0" encoding="UTF-8" standalone="no"?>
<!DOCTYPE svg PUBLIC "-//W3C//DTD SVG 1.1//EN"
 "http://www.w3.org/Graphics/SVG/1.1/DTD/svg11.dtd">
<!-- Generated by graphviz version 2.50.0 (0)
 -->
<!-- Title: classes_ldm.modules.distributions.distributions Pages: 1 -->
<svg width="410pt" height="320pt"
 viewBox="0.00 0.00 409.50 320.00" xmlns="http://www.w3.org/2000/svg" xmlns:xlink="http://www.w3.org/1999/xlink">
<g id="graph0" class="graph" transform="scale(1 1) rotate(0) translate(4 316)">
<title>classes_ldm.modules.distributions.distributions</title>
<polygon fill="white" stroke="transparent" points="-4,4 -4,-316 405.5,-316 405.5,4 -4,4"/>
<!-- distributions.distributions.AbstractDistribution -->
<g id="node1" class="node">
<title>distributions.distributions.AbstractDistribution</title>
<polygon fill="none" stroke="black" points="0,-226.5 0,-311.5 164,-311.5 164,-226.5 0,-226.5"/>
<text text-anchor="middle" x="82" y="-296.3" font-family="Times,serif" font-size="14.00">AbstractDistribution</text>
<polyline fill="none" stroke="black" points="0,-288.5 164,-288.5 "/>
<polyline fill="none" stroke="black" points="0,-264.5 164,-264.5 "/>
<text text-anchor="start" x="8" y="-249.3" font-family="Times,serif" font-size="14.00">mode()</text>
<text text-anchor="start" x="8" y="-234.3" font-family="Times,serif" font-size="14.00">sample()</text>
</g>
<!-- distributions.distributions.DiagonalGaussianDistribution -->
<g id="node2" class="node">
<title>distributions.distributions.DiagonalGaussianDistribution</title>
<polygon fill="none" stroke="black" points="170.5,-0.5 170.5,-189.5 401.5,-189.5 401.5,-0.5 170.5,-0.5"/>
<text text-anchor="middle" x="286" y="-174.3" font-family="Times,serif" font-size="14.00">DiagonalGaussianDistribution</text>
<polyline fill="none" stroke="black" points="170.5,-166.5 401.5,-166.5 "/>
<text text-anchor="start" x="178.5" y="-151.3" font-family="Times,serif" font-size="14.00">deterministic : bool</text>
<text text-anchor="start" x="178.5" y="-136.3" font-family="Times,serif" font-size="14.00">logvar</text>
<text text-anchor="start" x="178.5" y="-121.3" font-family="Times,serif" font-size="14.00">mean</text>
<text text-anchor="start" x="178.5" y="-106.3" font-family="Times,serif" font-size="14.00">parameters</text>
<text text-anchor="start" x="178.5" y="-91.3" font-family="Times,serif" font-size="14.00">std</text>
<text text-anchor="start" x="178.5" y="-76.3" font-family="Times,serif" font-size="14.00">var</text>
<polyline fill="none" stroke="black" points="170.5,-68.5 401.5,-68.5 "/>
<text text-anchor="start" x="178.5" y="-53.3" font-family="Times,serif" font-size="14.00">kl(other)</text>
<text text-anchor="start" x="178.5" y="-38.3" font-family="Times,serif" font-size="14.00">mode()</text>
<text text-anchor="start" x="178.5" y="-23.3" font-family="Times,serif" font-size="14.00">nll(sample, dims)</text>
<text text-anchor="start" x="178.5" y="-8.3" font-family="Times,serif" font-size="14.00">sample()</text>
</g>
<!-- distributions.distributions.DiracDistribution -->
<g id="node3" class="node">
<title>distributions.distributions.DiracDistribution</title>
<polygon fill="none" stroke="black" points="11.5,-53 11.5,-137 152.5,-137 152.5,-53 11.5,-53"/>
<text text-anchor="middle" x="82" y="-121.8" font-family="Times,serif" font-size="14.00">DiracDistribution</text>
<polyline fill="none" stroke="black" points="11.5,-114 152.5,-114 "/>
<text text-anchor="start" x="19.5" y="-98.8" font-family="Times,serif" font-size="14.00">value</text>
<polyline fill="none" stroke="black" points="11.5,-91 152.5,-91 "/>
<text text-anchor="start" x="19.5" y="-75.8" font-family="Times,serif" font-size="14.00">mode()</text>
<text text-anchor="start" x="19.5" y="-60.8" font-family="Times,serif" font-size="14.00">sample()</text>
</g>
<!-- distributions.distributions.DiracDistribution&#45;&gt;distributions.distributions.AbstractDistribution -->
<g id="edge1" class="edge">
<title>distributions.distributions.DiracDistribution&#45;&gt;distributions.distributions.AbstractDistribution</title>
<path fill="none" stroke="black" d="M82,-137.2C82,-160.87 82,-190.82 82,-216.09"/>
<polygon fill="none" stroke="black" points="78.5,-216.24 82,-226.24 85.5,-216.24 78.5,-216.24"/>
</g>
</g>
</svg>
