<?xml version="1.0" encoding="UTF-8" standalone="no"?>
<!DOCTYPE svg PUBLIC "-//W3C//DTD SVG 1.1//EN"
 "http://www.w3.org/Graphics/SVG/1.1/DTD/svg11.dtd">
<!-- Generated by graphviz version 2.50.0 (0)
 -->
<!-- Title: classes_ldm.data.imagenet Pages: 1 -->
<svg width="759pt" height="574pt"
 viewBox="0.00 0.00 758.50 574.00" xmlns="http://www.w3.org/2000/svg" xmlns:xlink="http://www.w3.org/1999/xlink">
<g id="graph0" class="graph" transform="scale(1 1) rotate(0) translate(4 570)">
<title>classes_ldm.data.imagenet</title>
<polygon fill="white" stroke="transparent" points="-4,4 -4,-570 754.5,-570 754.5,4 -4,4"/>
<!-- data.imagenet.ImageNetBase -->
<g id="node1" class="node">
<title>data.imagenet.ImageNetBase</title>
<polygon fill="none" stroke="black" points="122.5,-286.5 122.5,-565.5 322.5,-565.5 322.5,-286.5 122.5,-286.5"/>
<text text-anchor="middle" x="222.5" y="-550.3" font-family="Times,serif" font-size="14.00">ImageNetBase</text>
<polyline fill="none" stroke="black" points="122.5,-542.5 322.5,-542.5 "/>
<text text-anchor="start" x="130.5" y="-527.3" font-family="Times,serif" font-size="14.00">abspaths</text>
<text text-anchor="start" x="130.5" y="-512.3" font-family="Times,serif" font-size="14.00">class_labels</text>
<text text-anchor="start" x="130.5" y="-497.3" font-family="Times,serif" font-size="14.00">config</text>
<text text-anchor="start" x="130.5" y="-482.3" font-family="Times,serif" font-size="14.00">data</text>
<text text-anchor="start" x="130.5" y="-467.3" font-family="Times,serif" font-size="14.00">human2integer</text>
<text text-anchor="start" x="130.5" y="-452.3" font-family="Times,serif" font-size="14.00">human2integer_dict : dict</text>
<text text-anchor="start" x="130.5" y="-437.3" font-family="Times,serif" font-size="14.00">human_dict</text>
<text text-anchor="start" x="130.5" y="-422.3" font-family="Times,serif" font-size="14.00">human_labels</text>
<text text-anchor="start" x="130.5" y="-407.3" font-family="Times,serif" font-size="14.00">idx2syn</text>
<text text-anchor="start" x="130.5" y="-392.3" font-family="Times,serif" font-size="14.00">keep_orig_class_label</text>
<text text-anchor="start" x="130.5" y="-377.3" font-family="Times,serif" font-size="14.00">process_images : bool</text>
<text text-anchor="start" x="130.5" y="-362.3" font-family="Times,serif" font-size="14.00">relpaths : list</text>
<text text-anchor="start" x="130.5" y="-347.3" font-family="Times,serif" font-size="14.00">size</text>
<text text-anchor="start" x="130.5" y="-332.3" font-family="Times,serif" font-size="14.00">synset2idx : dict</text>
<text text-anchor="start" x="130.5" y="-317.3" font-family="Times,serif" font-size="14.00">synsets</text>
<polyline fill="none" stroke="black" points="122.5,-309.5 322.5,-309.5 "/>
<text text-anchor="middle" x="222.5" y="-294.3" font-family="Times,serif" font-size="14.00"> </text>
</g>
<!-- data.imagenet.ImageNetSR -->
<g id="node2" class="node">
<title>data.imagenet.ImageNetSR</title>
<polygon fill="none" stroke="black" points="423,-324 423,-528 648,-528 648,-324 423,-324"/>
<text text-anchor="middle" x="535.5" y="-512.8" font-family="Times,serif" font-size="14.00">ImageNetSR</text>
<polyline fill="none" stroke="black" points="423,-505 648,-505 "/>
<text text-anchor="start" x="431" y="-489.8" font-family="Times,serif" font-size="14.00">LR_size : int</text>
<text text-anchor="start" x="431" y="-474.8" font-family="Times,serif" font-size="14.00">base</text>
<text text-anchor="start" x="431" y="-459.8" font-family="Times,serif" font-size="14.00">center_crop : bool</text>
<text text-anchor="start" x="431" y="-444.8" font-family="Times,serif" font-size="14.00">cropper</text>
<text text-anchor="start" x="431" y="-429.8" font-family="Times,serif" font-size="14.00">degradation_process : partial</text>
<text text-anchor="start" x="431" y="-414.8" font-family="Times,serif" font-size="14.00">image_rescaler</text>
<text text-anchor="start" x="431" y="-399.8" font-family="Times,serif" font-size="14.00">max_crop_f : float</text>
<text text-anchor="start" x="431" y="-384.8" font-family="Times,serif" font-size="14.00">min_crop_f : float</text>
<text text-anchor="start" x="431" y="-369.8" font-family="Times,serif" font-size="14.00">pil_interpolation : bool</text>
<text text-anchor="start" x="431" y="-354.8" font-family="Times,serif" font-size="14.00">size : NoneType</text>
<polyline fill="none" stroke="black" points="423,-347 648,-347 "/>
<text text-anchor="middle" x="535.5" y="-331.8" font-family="Times,serif" font-size="14.00"> </text>
</g>
<!-- data.imagenet.ImageNetSRTrain -->
<g id="node3" class="node">
<title>data.imagenet.ImageNetSRTrain</title>
<polygon fill="none" stroke="black" points="409,-90 409,-160 554,-160 554,-90 409,-90"/>
<text text-anchor="middle" x="481.5" y="-144.8" font-family="Times,serif" font-size="14.00">ImageNetSRTrain</text>
<polyline fill="none" stroke="black" points="409,-137 554,-137 "/>
<polyline fill="none" stroke="black" points="409,-113 554,-113 "/>
<text text-anchor="start" x="417" y="-97.8" font-family="Times,serif" font-size="14.00">get_base()</text>
</g>
<!-- data.imagenet.ImageNetSRTrain&#45;&gt;data.imagenet.ImageNetSR -->
<g id="edge1" class="edge">
<title>data.imagenet.ImageNetSRTrain&#45;&gt;data.imagenet.ImageNetSR</title>
<path fill="none" stroke="black" d="M487.64,-160.01C494.38,-197.33 505.56,-259.2 515.41,-313.77"/>
<polygon fill="none" stroke="black" points="512.01,-314.65 517.24,-323.87 518.9,-313.41 512.01,-314.65"/>
</g>
<!-- data.imagenet.ImageNetSRValidation -->
<g id="node4" class="node">
<title>data.imagenet.ImageNetSRValidation</title>
<polygon fill="none" stroke="black" points="572.5,-90 572.5,-160 750.5,-160 750.5,-90 572.5,-90"/>
<text text-anchor="middle" x="661.5" y="-144.8" font-family="Times,serif" font-size="14.00">ImageNetSRValidation</text>
<polyline fill="none" stroke="black" points="572.5,-137 750.5,-137 "/>
<polyline fill="none" stroke="black" points="572.5,-113 750.5,-113 "/>
<text text-anchor="start" x="580.5" y="-97.8" font-family="Times,serif" font-size="14.00">get_base()</text>
</g>
<!-- data.imagenet.ImageNetSRValidation&#45;&gt;data.imagenet.ImageNetSR -->
<g id="edge2" class="edge">
<title>data.imagenet.ImageNetSRValidation&#45;&gt;data.imagenet.ImageNetSR</title>
<path fill="none" stroke="black" d="M647.17,-160.01C631.38,-197.48 605.15,-259.71 582.08,-314.45"/>
<polygon fill="none" stroke="black" points="578.77,-313.3 578.12,-323.87 585.22,-316.02 578.77,-313.3"/>
</g>
<!-- data.imagenet.ImageNetTrain -->
<g id="node5" class="node">
<title>data.imagenet.ImageNetTrain</title>
<polygon fill="none" stroke="black" points="0,-8 0,-242 173,-242 173,-8 0,-8"/>
<text text-anchor="middle" x="86.5" y="-226.8" font-family="Times,serif" font-size="14.00">ImageNetTrain</text>
<polyline fill="none" stroke="black" points="0,-219 173,-219 "/>
<text text-anchor="start" x="8" y="-203.8" font-family="Times,serif" font-size="14.00">AT_HASH : str</text>
<text text-anchor="start" x="8" y="-188.8" font-family="Times,serif" font-size="14.00">FILES : list</text>
<text text-anchor="start" x="8" y="-173.8" font-family="Times,serif" font-size="14.00">NAME : str</text>
<text text-anchor="start" x="8" y="-158.8" font-family="Times,serif" font-size="14.00">SIZES : list</text>
<text text-anchor="start" x="8" y="-143.8" font-family="Times,serif" font-size="14.00">URL : str</text>
<text text-anchor="start" x="8" y="-128.8" font-family="Times,serif" font-size="14.00">data_root : NoneType</text>
<text text-anchor="start" x="8" y="-113.8" font-family="Times,serif" font-size="14.00">datadir</text>
<text text-anchor="start" x="8" y="-98.8" font-family="Times,serif" font-size="14.00">expected_length : int</text>
<text text-anchor="start" x="8" y="-83.8" font-family="Times,serif" font-size="14.00">process_images : bool</text>
<text text-anchor="start" x="8" y="-68.8" font-family="Times,serif" font-size="14.00">random_crop</text>
<text text-anchor="start" x="8" y="-53.8" font-family="Times,serif" font-size="14.00">root</text>
<text text-anchor="start" x="8" y="-38.8" font-family="Times,serif" font-size="14.00">txt_filelist</text>
<polyline fill="none" stroke="black" points="0,-31 173,-31 "/>
<text text-anchor="middle" x="86.5" y="-15.8" font-family="Times,serif" font-size="14.00"> </text>
</g>
<!-- data.imagenet.ImageNetTrain&#45;&gt;data.imagenet.ImageNetBase -->
<g id="edge3" class="edge">
<title>data.imagenet.ImageNetTrain&#45;&gt;data.imagenet.ImageNetBase</title>
<path fill="none" stroke="black" d="M139.28,-242.03C144.49,-253.49 149.83,-265.23 155.16,-276.96"/>
<polygon fill="none" stroke="black" points="152.11,-278.7 159.44,-286.36 158.48,-275.81 152.11,-278.7"/>
</g>
<!-- data.imagenet.ImageNetValidation -->
<g id="node6" class="node">
<title>data.imagenet.ImageNetValidation</title>
<polygon fill="none" stroke="black" points="191,-0.5 191,-249.5 364,-249.5 364,-0.5 191,-0.5"/>
<text text-anchor="middle" x="277.5" y="-234.3" font-family="Times,serif" font-size="14.00">ImageNetValidation</text>
<polyline fill="none" stroke="black" points="191,-226.5 364,-226.5 "/>
<text text-anchor="start" x="199" y="-211.3" font-family="Times,serif" font-size="14.00">AT_HASH : str</text>
<text text-anchor="start" x="199" y="-196.3" font-family="Times,serif" font-size="14.00">FILES : list</text>
<text text-anchor="start" x="199" y="-181.3" font-family="Times,serif" font-size="14.00">NAME : str</text>
<text text-anchor="start" x="199" y="-166.3" font-family="Times,serif" font-size="14.00">SIZES : list</text>
<text text-anchor="start" x="199" y="-151.3" font-family="Times,serif" font-size="14.00">URL : str</text>
<text text-anchor="start" x="199" y="-136.3" font-family="Times,serif" font-size="14.00">VS_URL : str</text>
<text text-anchor="start" x="199" y="-121.3" font-family="Times,serif" font-size="14.00">data_root : NoneType</text>
<text text-anchor="start" x="199" y="-106.3" font-family="Times,serif" font-size="14.00">datadir</text>
<text text-anchor="start" x="199" y="-91.3" font-family="Times,serif" font-size="14.00">expected_length : int</text>
<text text-anchor="start" x="199" y="-76.3" font-family="Times,serif" font-size="14.00">process_images : bool</text>
<text text-anchor="start" x="199" y="-61.3" font-family="Times,serif" font-size="14.00">random_crop</text>
<text text-anchor="start" x="199" y="-46.3" font-family="Times,serif" font-size="14.00">root</text>
<text text-anchor="start" x="199" y="-31.3" font-family="Times,serif" font-size="14.00">txt_filelist</text>
<polyline fill="none" stroke="black" points="191,-23.5 364,-23.5 "/>
<text text-anchor="middle" x="277.5" y="-8.3" font-family="Times,serif" font-size="14.00"> </text>
</g>
<!-- data.imagenet.ImageNetValidation&#45;&gt;data.imagenet.ImageNetBase -->
<g id="edge4" class="edge">
<title>data.imagenet.ImageNetValidation&#45;&gt;data.imagenet.ImageNetBase</title>
<path fill="none" stroke="black" d="M254.73,-249.77C253.12,-258.53 251.49,-267.4 249.86,-276.28"/>
<polygon fill="none" stroke="black" points="246.38,-275.82 248.02,-286.28 253.27,-277.08 246.38,-275.82"/>
</g>
</g>
</svg>
