<?xml version="1.0" encoding="UTF-8" standalone="no"?>
<!DOCTYPE svg PUBLIC "-//W3C//DTD SVG 1.1//EN"
 "http://www.w3.org/Graphics/SVG/1.1/DTD/svg11.dtd">
<!-- Generated by graphviz version 2.50.0 (0)
 -->
<!-- Title: classes_ldm.data Pages: 1 -->
<svg width="2134pt" height="574pt"
 viewBox="0.00 0.00 2134.00 574.00" xmlns="http://www.w3.org/2000/svg" xmlns:xlink="http://www.w3.org/1999/xlink">
<g id="graph0" class="graph" transform="scale(1 1) rotate(0) translate(4 570)">
<title>classes_ldm.data</title>
<polygon fill="white" stroke="transparent" points="-4,4 -4,-570 2130,-570 2130,4 -4,4"/>
<!-- data.imagenet.ImageNetBase -->
<g id="node1" class="node">
<title>data.imagenet.ImageNetBase</title>
<polygon fill="none" stroke="black" points="122.5,-286.5 122.5,-565.5 322.5,-565.5 322.5,-286.5 122.5,-286.5"/>
<text text-anchor="middle" x="222.5" y="-550.3" font-family="Times,serif" font-size="14.00">ImageNetBase</text>
<polyline fill="none" stroke="black" points="122.5,-542.5 322.5,-542.5 "/>
<text text-anchor="start" x="130.5" y="-527.3" font-family="Times,serif" font-size="14.00">abspaths</text>
<text text-anchor="start" x="130.5" y="-512.3" font-family="Times,serif" font-size="14.00">class_labels</text>
<text text-anchor="start" x="130.5" y="-497.3" font-family="Times,serif" font-size="14.00">config</text>
<text text-anchor="start" x="130.5" y="-482.3" font-family="Times,serif" font-size="14.00">data</text>
<text text-anchor="start" x="130.5" y="-467.3" font-family="Times,serif" font-size="14.00">human2integer</text>
<text text-anchor="start" x="130.5" y="-452.3" font-family="Times,serif" font-size="14.00">human2integer_dict : dict</text>
<text text-anchor="start" x="130.5" y="-437.3" font-family="Times,serif" font-size="14.00">human_dict</text>
<text text-anchor="start" x="130.5" y="-422.3" font-family="Times,serif" font-size="14.00">human_labels</text>
<text text-anchor="start" x="130.5" y="-407.3" font-family="Times,serif" font-size="14.00">idx2syn</text>
<text text-anchor="start" x="130.5" y="-392.3" font-family="Times,serif" font-size="14.00">keep_orig_class_label</text>
<text text-anchor="start" x="130.5" y="-377.3" font-family="Times,serif" font-size="14.00">process_images : bool</text>
<text text-anchor="start" x="130.5" y="-362.3" font-family="Times,serif" font-size="14.00">relpaths : list</text>
<text text-anchor="start" x="130.5" y="-347.3" font-family="Times,serif" font-size="14.00">size</text>
<text text-anchor="start" x="130.5" y="-332.3" font-family="Times,serif" font-size="14.00">synset2idx : dict</text>
<text text-anchor="start" x="130.5" y="-317.3" font-family="Times,serif" font-size="14.00">synsets</text>
<polyline fill="none" stroke="black" points="122.5,-309.5 322.5,-309.5 "/>
<text text-anchor="middle" x="222.5" y="-294.3" font-family="Times,serif" font-size="14.00"> </text>
</g>
<!-- data.imagenet.ImageNetSR -->
<g id="node2" class="node">
<title>data.imagenet.ImageNetSR</title>
<polygon fill="none" stroke="black" points="423,-324 423,-528 648,-528 648,-324 423,-324"/>
<text text-anchor="middle" x="535.5" y="-512.8" font-family="Times,serif" font-size="14.00">ImageNetSR</text>
<polyline fill="none" stroke="black" points="423,-505 648,-505 "/>
<text text-anchor="start" x="431" y="-489.8" font-family="Times,serif" font-size="14.00">LR_size : int</text>
<text text-anchor="start" x="431" y="-474.8" font-family="Times,serif" font-size="14.00">base</text>
<text text-anchor="start" x="431" y="-459.8" font-family="Times,serif" font-size="14.00">center_crop : bool</text>
<text text-anchor="start" x="431" y="-444.8" font-family="Times,serif" font-size="14.00">cropper</text>
<text text-anchor="start" x="431" y="-429.8" font-family="Times,serif" font-size="14.00">degradation_process : partial</text>
<text text-anchor="start" x="431" y="-414.8" font-family="Times,serif" font-size="14.00">image_rescaler</text>
<text text-anchor="start" x="431" y="-399.8" font-family="Times,serif" font-size="14.00">max_crop_f : float</text>
<text text-anchor="start" x="431" y="-384.8" font-family="Times,serif" font-size="14.00">min_crop_f : float</text>
<text text-anchor="start" x="431" y="-369.8" font-family="Times,serif" font-size="14.00">pil_interpolation : bool</text>
<text text-anchor="start" x="431" y="-354.8" font-family="Times,serif" font-size="14.00">size : NoneType</text>
<polyline fill="none" stroke="black" points="423,-347 648,-347 "/>
<text text-anchor="middle" x="535.5" y="-331.8" font-family="Times,serif" font-size="14.00"> </text>
</g>
<!-- data.imagenet.ImageNetSRTrain -->
<g id="node3" class="node">
<title>data.imagenet.ImageNetSRTrain</title>
<polygon fill="none" stroke="black" points="409,-90 409,-160 554,-160 554,-90 409,-90"/>
<text text-anchor="middle" x="481.5" y="-144.8" font-family="Times,serif" font-size="14.00">ImageNetSRTrain</text>
<polyline fill="none" stroke="black" points="409,-137 554,-137 "/>
<polyline fill="none" stroke="black" points="409,-113 554,-113 "/>
<text text-anchor="start" x="417" y="-97.8" font-family="Times,serif" font-size="14.00">get_base()</text>
</g>
<!-- data.imagenet.ImageNetSRTrain&#45;&gt;data.imagenet.ImageNetSR -->
<g id="edge1" class="edge">
<title>data.imagenet.ImageNetSRTrain&#45;&gt;data.imagenet.ImageNetSR</title>
<path fill="none" stroke="black" d="M487.64,-160.01C494.38,-197.33 505.56,-259.2 515.41,-313.77"/>
<polygon fill="none" stroke="black" points="512.01,-314.65 517.24,-323.87 518.9,-313.41 512.01,-314.65"/>
</g>
<!-- data.imagenet.ImageNetSRValidation -->
<g id="node4" class="node">
<title>data.imagenet.ImageNetSRValidation</title>
<polygon fill="none" stroke="black" points="572.5,-90 572.5,-160 750.5,-160 750.5,-90 572.5,-90"/>
<text text-anchor="middle" x="661.5" y="-144.8" font-family="Times,serif" font-size="14.00">ImageNetSRValidation</text>
<polyline fill="none" stroke="black" points="572.5,-137 750.5,-137 "/>
<polyline fill="none" stroke="black" points="572.5,-113 750.5,-113 "/>
<text text-anchor="start" x="580.5" y="-97.8" font-family="Times,serif" font-size="14.00">get_base()</text>
</g>
<!-- data.imagenet.ImageNetSRValidation&#45;&gt;data.imagenet.ImageNetSR -->
<g id="edge2" class="edge">
<title>data.imagenet.ImageNetSRValidation&#45;&gt;data.imagenet.ImageNetSR</title>
<path fill="none" stroke="black" d="M647.17,-160.01C631.38,-197.48 605.15,-259.71 582.08,-314.45"/>
<polygon fill="none" stroke="black" points="578.77,-313.3 578.12,-323.87 585.22,-316.02 578.77,-313.3"/>
</g>
<!-- data.imagenet.ImageNetTrain -->
<g id="node5" class="node">
<title>data.imagenet.ImageNetTrain</title>
<polygon fill="none" stroke="black" points="0,-8 0,-242 173,-242 173,-8 0,-8"/>
<text text-anchor="middle" x="86.5" y="-226.8" font-family="Times,serif" font-size="14.00">ImageNetTrain</text>
<polyline fill="none" stroke="black" points="0,-219 173,-219 "/>
<text text-anchor="start" x="8" y="-203.8" font-family="Times,serif" font-size="14.00">AT_HASH : str</text>
<text text-anchor="start" x="8" y="-188.8" font-family="Times,serif" font-size="14.00">FILES : list</text>
<text text-anchor="start" x="8" y="-173.8" font-family="Times,serif" font-size="14.00">NAME : str</text>
<text text-anchor="start" x="8" y="-158.8" font-family="Times,serif" font-size="14.00">SIZES : list</text>
<text text-anchor="start" x="8" y="-143.8" font-family="Times,serif" font-size="14.00">URL : str</text>
<text text-anchor="start" x="8" y="-128.8" font-family="Times,serif" font-size="14.00">data_root : NoneType</text>
<text text-anchor="start" x="8" y="-113.8" font-family="Times,serif" font-size="14.00">datadir</text>
<text text-anchor="start" x="8" y="-98.8" font-family="Times,serif" font-size="14.00">expected_length : int</text>
<text text-anchor="start" x="8" y="-83.8" font-family="Times,serif" font-size="14.00">process_images : bool</text>
<text text-anchor="start" x="8" y="-68.8" font-family="Times,serif" font-size="14.00">random_crop</text>
<text text-anchor="start" x="8" y="-53.8" font-family="Times,serif" font-size="14.00">root</text>
<text text-anchor="start" x="8" y="-38.8" font-family="Times,serif" font-size="14.00">txt_filelist</text>
<polyline fill="none" stroke="black" points="0,-31 173,-31 "/>
<text text-anchor="middle" x="86.5" y="-15.8" font-family="Times,serif" font-size="14.00"> </text>
</g>
<!-- data.imagenet.ImageNetTrain&#45;&gt;data.imagenet.ImageNetBase -->
<g id="edge3" class="edge">
<title>data.imagenet.ImageNetTrain&#45;&gt;data.imagenet.ImageNetBase</title>
<path fill="none" stroke="black" d="M139.28,-242.03C144.49,-253.49 149.83,-265.23 155.16,-276.96"/>
<polygon fill="none" stroke="black" points="152.11,-278.7 159.44,-286.36 158.48,-275.81 152.11,-278.7"/>
</g>
<!-- data.imagenet.ImageNetValidation -->
<g id="node6" class="node">
<title>data.imagenet.ImageNetValidation</title>
<polygon fill="none" stroke="black" points="191,-0.5 191,-249.5 364,-249.5 364,-0.5 191,-0.5"/>
<text text-anchor="middle" x="277.5" y="-234.3" font-family="Times,serif" font-size="14.00">ImageNetValidation</text>
<polyline fill="none" stroke="black" points="191,-226.5 364,-226.5 "/>
<text text-anchor="start" x="199" y="-211.3" font-family="Times,serif" font-size="14.00">AT_HASH : str</text>
<text text-anchor="start" x="199" y="-196.3" font-family="Times,serif" font-size="14.00">FILES : list</text>
<text text-anchor="start" x="199" y="-181.3" font-family="Times,serif" font-size="14.00">NAME : str</text>
<text text-anchor="start" x="199" y="-166.3" font-family="Times,serif" font-size="14.00">SIZES : list</text>
<text text-anchor="start" x="199" y="-151.3" font-family="Times,serif" font-size="14.00">URL : str</text>
<text text-anchor="start" x="199" y="-136.3" font-family="Times,serif" font-size="14.00">VS_URL : str</text>
<text text-anchor="start" x="199" y="-121.3" font-family="Times,serif" font-size="14.00">data_root : NoneType</text>
<text text-anchor="start" x="199" y="-106.3" font-family="Times,serif" font-size="14.00">datadir</text>
<text text-anchor="start" x="199" y="-91.3" font-family="Times,serif" font-size="14.00">expected_length : int</text>
<text text-anchor="start" x="199" y="-76.3" font-family="Times,serif" font-size="14.00">process_images : bool</text>
<text text-anchor="start" x="199" y="-61.3" font-family="Times,serif" font-size="14.00">random_crop</text>
<text text-anchor="start" x="199" y="-46.3" font-family="Times,serif" font-size="14.00">root</text>
<text text-anchor="start" x="199" y="-31.3" font-family="Times,serif" font-size="14.00">txt_filelist</text>
<polyline fill="none" stroke="black" points="191,-23.5 364,-23.5 "/>
<text text-anchor="middle" x="277.5" y="-8.3" font-family="Times,serif" font-size="14.00"> </text>
</g>
<!-- data.imagenet.ImageNetValidation&#45;&gt;data.imagenet.ImageNetBase -->
<g id="edge4" class="edge">
<title>data.imagenet.ImageNetValidation&#45;&gt;data.imagenet.ImageNetBase</title>
<path fill="none" stroke="black" d="M254.73,-249.77C253.12,-258.53 251.49,-267.4 249.86,-276.28"/>
<polygon fill="none" stroke="black" points="246.38,-275.82 248.02,-286.28 253.27,-277.08 246.38,-275.82"/>
</g>
<!-- data.lsun.LSUNBase -->
<g id="node7" class="node">
<title>data.lsun.LSUNBase</title>
<polygon fill="none" stroke="black" points="1257.5,-346.5 1257.5,-505.5 1387.5,-505.5 1387.5,-346.5 1257.5,-346.5"/>
<text text-anchor="middle" x="1322.5" y="-490.3" font-family="Times,serif" font-size="14.00">LSUNBase</text>
<polyline fill="none" stroke="black" points="1257.5,-482.5 1387.5,-482.5 "/>
<text text-anchor="start" x="1265.5" y="-467.3" font-family="Times,serif" font-size="14.00">data_paths</text>
<text text-anchor="start" x="1265.5" y="-452.3" font-family="Times,serif" font-size="14.00">data_root</text>
<text text-anchor="start" x="1265.5" y="-437.3" font-family="Times,serif" font-size="14.00">flip</text>
<text text-anchor="start" x="1265.5" y="-422.3" font-family="Times,serif" font-size="14.00">image_paths</text>
<text text-anchor="start" x="1265.5" y="-407.3" font-family="Times,serif" font-size="14.00">interpolation</text>
<text text-anchor="start" x="1265.5" y="-392.3" font-family="Times,serif" font-size="14.00">labels : dict</text>
<text text-anchor="start" x="1265.5" y="-377.3" font-family="Times,serif" font-size="14.00">size : NoneType</text>
<polyline fill="none" stroke="black" points="1257.5,-369.5 1387.5,-369.5 "/>
<text text-anchor="middle" x="1322.5" y="-354.3" font-family="Times,serif" font-size="14.00"> </text>
</g>
<!-- data.lsun.LSUNBedroomsTrain -->
<g id="node8" class="node">
<title>data.lsun.LSUNBedroomsTrain</title>
<polygon fill="none" stroke="black" points="768,-90 768,-160 937,-160 937,-90 768,-90"/>
<text text-anchor="middle" x="852.5" y="-144.8" font-family="Times,serif" font-size="14.00">LSUNBedroomsTrain</text>
<polyline fill="none" stroke="black" points="768,-137 937,-137 "/>
<polyline fill="none" stroke="black" points="768,-113 937,-113 "/>
<text text-anchor="middle" x="852.5" y="-97.8" font-family="Times,serif" font-size="14.00"> </text>
</g>
<!-- data.lsun.LSUNBedroomsTrain&#45;&gt;data.lsun.LSUNBase -->
<g id="edge5" class="edge">
<title>data.lsun.LSUNBedroomsTrain&#45;&gt;data.lsun.LSUNBase</title>
<path fill="none" stroke="black" d="M871.67,-160.2C888.31,-187.4 914.56,-224.93 945.5,-250 1037.76,-324.75 1167.19,-375.71 1247.88,-402.58"/>
<polygon fill="none" stroke="black" points="1246.88,-405.94 1257.47,-405.74 1249.07,-399.29 1246.88,-405.94"/>
</g>
<!-- data.lsun.LSUNBedroomsValidation -->
<g id="node9" class="node">
<title>data.lsun.LSUNBedroomsValidation</title>
<polygon fill="none" stroke="black" points="955,-90 955,-160 1158,-160 1158,-90 955,-90"/>
<text text-anchor="middle" x="1056.5" y="-144.8" font-family="Times,serif" font-size="14.00">LSUNBedroomsValidation</text>
<polyline fill="none" stroke="black" points="955,-137 1158,-137 "/>
<polyline fill="none" stroke="black" points="955,-113 1158,-113 "/>
<text text-anchor="middle" x="1056.5" y="-97.8" font-family="Times,serif" font-size="14.00"> </text>
</g>
<!-- data.lsun.LSUNBedroomsValidation&#45;&gt;data.lsun.LSUNBase -->
<g id="edge6" class="edge">
<title>data.lsun.LSUNBedroomsValidation&#45;&gt;data.lsun.LSUNBase</title>
<path fill="none" stroke="black" d="M1086.83,-160.23C1108.91,-185.14 1139.54,-219.68 1166.5,-250 1193.81,-280.71 1223.85,-314.42 1250.21,-343.99"/>
<polygon fill="none" stroke="black" points="1247.92,-346.68 1257.19,-351.81 1253.14,-342.02 1247.92,-346.68"/>
</g>
<!-- data.lsun.LSUNCatsTrain -->
<g id="node10" class="node">
<title>data.lsun.LSUNCatsTrain</title>
<polygon fill="none" stroke="black" points="1176,-90 1176,-160 1305,-160 1305,-90 1176,-90"/>
<text text-anchor="middle" x="1240.5" y="-144.8" font-family="Times,serif" font-size="14.00">LSUNCatsTrain</text>
<polyline fill="none" stroke="black" points="1176,-137 1305,-137 "/>
<polyline fill="none" stroke="black" points="1176,-113 1305,-113 "/>
<text text-anchor="middle" x="1240.5" y="-97.8" font-family="Times,serif" font-size="14.00"> </text>
</g>
<!-- data.lsun.LSUNCatsTrain&#45;&gt;data.lsun.LSUNBase -->
<g id="edge7" class="edge">
<title>data.lsun.LSUNCatsTrain&#45;&gt;data.lsun.LSUNBase</title>
<path fill="none" stroke="black" d="M1249.83,-160.01C1261.52,-202.64 1281.99,-277.29 1298.24,-336.52"/>
<polygon fill="none" stroke="black" points="1294.89,-337.54 1300.91,-346.26 1301.64,-335.69 1294.89,-337.54"/>
</g>
<!-- data.lsun.LSUNCatsValidation -->
<g id="node11" class="node">
<title>data.lsun.LSUNCatsValidation</title>
<polygon fill="none" stroke="black" points="1323,-90 1323,-160 1486,-160 1486,-90 1323,-90"/>
<text text-anchor="middle" x="1404.5" y="-144.8" font-family="Times,serif" font-size="14.00">LSUNCatsValidation</text>
<polyline fill="none" stroke="black" points="1323,-137 1486,-137 "/>
<polyline fill="none" stroke="black" points="1323,-113 1486,-113 "/>
<text text-anchor="middle" x="1404.5" y="-97.8" font-family="Times,serif" font-size="14.00"> </text>
</g>
<!-- data.lsun.LSUNCatsValidation&#45;&gt;data.lsun.LSUNBase -->
<g id="edge8" class="edge">
<title>data.lsun.LSUNCatsValidation&#45;&gt;data.lsun.LSUNBase</title>
<path fill="none" stroke="black" d="M1395.17,-160.01C1383.48,-202.64 1363.01,-277.29 1346.76,-336.52"/>
<polygon fill="none" stroke="black" points="1343.36,-335.69 1344.09,-346.26 1350.11,-337.54 1343.36,-335.69"/>
</g>
<!-- data.lsun.LSUNChurchesTrain -->
<g id="node12" class="node">
<title>data.lsun.LSUNChurchesTrain</title>
<polygon fill="none" stroke="black" points="1504.5,-90 1504.5,-160 1668.5,-160 1668.5,-90 1504.5,-90"/>
<text text-anchor="middle" x="1586.5" y="-144.8" font-family="Times,serif" font-size="14.00">LSUNChurchesTrain</text>
<polyline fill="none" stroke="black" points="1504.5,-137 1668.5,-137 "/>
<polyline fill="none" stroke="black" points="1504.5,-113 1668.5,-113 "/>
<text text-anchor="middle" x="1586.5" y="-97.8" font-family="Times,serif" font-size="14.00"> </text>
</g>
<!-- data.lsun.LSUNChurchesTrain&#45;&gt;data.lsun.LSUNBase -->
<g id="edge9" class="edge">
<title>data.lsun.LSUNChurchesTrain&#45;&gt;data.lsun.LSUNBase</title>
<path fill="none" stroke="black" d="M1563.45,-160.17C1545.78,-185.66 1520.29,-220.95 1495.5,-250 1464.18,-286.71 1426.81,-325.1 1394.84,-356.53"/>
<polygon fill="none" stroke="black" points="1392.38,-354.04 1387.68,-363.54 1397.28,-359.04 1392.38,-354.04"/>
</g>
<!-- data.lsun.LSUNChurchesValidation -->
<g id="node13" class="node">
<title>data.lsun.LSUNChurchesValidation</title>
<polygon fill="none" stroke="black" points="1686.5,-90 1686.5,-160 1884.5,-160 1884.5,-90 1686.5,-90"/>
<text text-anchor="middle" x="1785.5" y="-144.8" font-family="Times,serif" font-size="14.00">LSUNChurchesValidation</text>
<polyline fill="none" stroke="black" points="1686.5,-137 1884.5,-137 "/>
<polyline fill="none" stroke="black" points="1686.5,-113 1884.5,-113 "/>
<text text-anchor="middle" x="1785.5" y="-97.8" font-family="Times,serif" font-size="14.00"> </text>
</g>
<!-- data.lsun.LSUNChurchesValidation&#45;&gt;data.lsun.LSUNBase -->
<g id="edge10" class="edge">
<title>data.lsun.LSUNChurchesValidation&#45;&gt;data.lsun.LSUNBase</title>
<path fill="none" stroke="black" d="M1761.72,-160.1C1741.64,-187.06 1710.87,-224.31 1677.5,-250 1590.04,-317.33 1472.57,-369.07 1397.18,-398.27"/>
<polygon fill="none" stroke="black" points="1395.83,-395.04 1387.75,-401.89 1398.34,-401.57 1395.83,-395.04"/>
</g>
<!-- data.base.Txt2ImgIterableBaseDataset -->
<g id="node14" class="node">
<title>data.base.Txt2ImgIterableBaseDataset</title>
<polygon fill="none" stroke="black" points="1903,-68 1903,-182 2126,-182 2126,-68 1903,-68"/>
<text text-anchor="middle" x="2014.5" y="-166.8" font-family="Times,serif" font-size="14.00">Txt2ImgIterableBaseDataset</text>
<polyline fill="none" stroke="black" points="1903,-159 2126,-159 "/>
<text text-anchor="start" x="1911" y="-143.8" font-family="Times,serif" font-size="14.00">num_records : int</text>
<text text-anchor="start" x="1911" y="-128.8" font-family="Times,serif" font-size="14.00">sample_ids : NoneType</text>
<text text-anchor="start" x="1911" y="-113.8" font-family="Times,serif" font-size="14.00">size : int</text>
<text text-anchor="start" x="1911" y="-98.8" font-family="Times,serif" font-size="14.00">valid_ids : NoneType</text>
<polyline fill="none" stroke="black" points="1903,-91 2126,-91 "/>
<text text-anchor="middle" x="2014.5" y="-75.8" font-family="Times,serif" font-size="14.00"> </text>
</g>
</g>
</svg>
