<?xml version="1.0" encoding="UTF-8" standalone="no"?>
<!DOCTYPE svg PUBLIC "-//W3C//DTD SVG 1.1//EN"
 "http://www.w3.org/Graphics/SVG/1.1/DTD/svg11.dtd">
<!-- Generated by graphviz version 2.50.0 (0)
 -->
<!-- Title: classes_ldm.data.lsun Pages: 1 -->
<svg width="1125pt" height="275pt"
 viewBox="0.00 0.00 1124.50 275.00" xmlns="http://www.w3.org/2000/svg" xmlns:xlink="http://www.w3.org/1999/xlink">
<g id="graph0" class="graph" transform="scale(1 1) rotate(0) translate(4 271)">
<title>classes_ldm.data.lsun</title>
<polygon fill="white" stroke="transparent" points="-4,4 -4,-271 1120.5,-271 1120.5,4 -4,4"/>
<!-- data.lsun.LSUNBase -->
<g id="node1" class="node">
<title>data.lsun.LSUNBase</title>
<polygon fill="none" stroke="black" points="489.5,-107.5 489.5,-266.5 619.5,-266.5 619.5,-107.5 489.5,-107.5"/>
<text text-anchor="middle" x="554.5" y="-251.3" font-family="Times,serif" font-size="14.00">LSUNBase</text>
<polyline fill="none" stroke="black" points="489.5,-243.5 619.5,-243.5 "/>
<text text-anchor="start" x="497.5" y="-228.3" font-family="Times,serif" font-size="14.00">data_paths</text>
<text text-anchor="start" x="497.5" y="-213.3" font-family="Times,serif" font-size="14.00">data_root</text>
<text text-anchor="start" x="497.5" y="-198.3" font-family="Times,serif" font-size="14.00">flip</text>
<text text-anchor="start" x="497.5" y="-183.3" font-family="Times,serif" font-size="14.00">image_paths</text>
<text text-anchor="start" x="497.5" y="-168.3" font-family="Times,serif" font-size="14.00">interpolation</text>
<text text-anchor="start" x="497.5" y="-153.3" font-family="Times,serif" font-size="14.00">labels : dict</text>
<text text-anchor="start" x="497.5" y="-138.3" font-family="Times,serif" font-size="14.00">size : NoneType</text>
<polyline fill="none" stroke="black" points="489.5,-130.5 619.5,-130.5 "/>
<text text-anchor="middle" x="554.5" y="-115.3" font-family="Times,serif" font-size="14.00"> </text>
</g>
<!-- data.lsun.LSUNBedroomsTrain -->
<g id="node2" class="node">
<title>data.lsun.LSUNBedroomsTrain</title>
<polygon fill="none" stroke="black" points="0,-0.5 0,-70.5 169,-70.5 169,-0.5 0,-0.5"/>
<text text-anchor="middle" x="84.5" y="-55.3" font-family="Times,serif" font-size="14.00">LSUNBedroomsTrain</text>
<polyline fill="none" stroke="black" points="0,-47.5 169,-47.5 "/>
<polyline fill="none" stroke="black" points="0,-23.5 169,-23.5 "/>
<text text-anchor="middle" x="84.5" y="-8.3" font-family="Times,serif" font-size="14.00"> </text>
</g>
<!-- data.lsun.LSUNBedroomsTrain&#45;&gt;data.lsun.LSUNBase -->
<g id="edge1" class="edge">
<title>data.lsun.LSUNBedroomsTrain&#45;&gt;data.lsun.LSUNBase</title>
<path fill="none" stroke="black" d="M169.07,-68.11C171.91,-69.1 174.73,-70.06 177.5,-71 281.43,-106.09 403.02,-142.33 479.41,-164.52"/>
<polygon fill="none" stroke="black" points="478.84,-168 489.42,-167.42 480.79,-161.27 478.84,-168"/>
</g>
<!-- data.lsun.LSUNBedroomsValidation -->
<g id="node3" class="node">
<title>data.lsun.LSUNBedroomsValidation</title>
<polygon fill="none" stroke="black" points="187,-0.5 187,-70.5 390,-70.5 390,-0.5 187,-0.5"/>
<text text-anchor="middle" x="288.5" y="-55.3" font-family="Times,serif" font-size="14.00">LSUNBedroomsValidation</text>
<polyline fill="none" stroke="black" points="187,-47.5 390,-47.5 "/>
<polyline fill="none" stroke="black" points="187,-23.5 390,-23.5 "/>
<text text-anchor="middle" x="288.5" y="-8.3" font-family="Times,serif" font-size="14.00"> </text>
</g>
<!-- data.lsun.LSUNBedroomsValidation&#45;&gt;data.lsun.LSUNBase -->
<g id="edge2" class="edge">
<title>data.lsun.LSUNBedroomsValidation&#45;&gt;data.lsun.LSUNBase</title>
<path fill="none" stroke="black" d="M349.19,-70.61C388.19,-92.53 439.11,-121.15 480.48,-144.4"/>
<polygon fill="none" stroke="black" points="478.99,-147.57 489.42,-149.42 482.42,-141.47 478.99,-147.57"/>
</g>
<!-- data.lsun.LSUNCatsTrain -->
<g id="node4" class="node">
<title>data.lsun.LSUNCatsTrain</title>
<polygon fill="none" stroke="black" points="408,-0.5 408,-70.5 537,-70.5 537,-0.5 408,-0.5"/>
<text text-anchor="middle" x="472.5" y="-55.3" font-family="Times,serif" font-size="14.00">LSUNCatsTrain</text>
<polyline fill="none" stroke="black" points="408,-47.5 537,-47.5 "/>
<polyline fill="none" stroke="black" points="408,-23.5 537,-23.5 "/>
<text text-anchor="middle" x="472.5" y="-8.3" font-family="Times,serif" font-size="14.00"> </text>
</g>
<!-- data.lsun.LSUNCatsTrain&#45;&gt;data.lsun.LSUNBase -->
<g id="edge3" class="edge">
<title>data.lsun.LSUNCatsTrain&#45;&gt;data.lsun.LSUNBase</title>
<path fill="none" stroke="black" d="M491.31,-70.8C495.95,-79.25 501.12,-88.68 506.46,-98.42"/>
<polygon fill="none" stroke="black" points="503.52,-100.33 511.4,-107.42 509.66,-96.97 503.52,-100.33"/>
</g>
<!-- data.lsun.LSUNCatsValidation -->
<g id="node5" class="node">
<title>data.lsun.LSUNCatsValidation</title>
<polygon fill="none" stroke="black" points="555,-0.5 555,-70.5 718,-70.5 718,-0.5 555,-0.5"/>
<text text-anchor="middle" x="636.5" y="-55.3" font-family="Times,serif" font-size="14.00">LSUNCatsValidation</text>
<polyline fill="none" stroke="black" points="555,-47.5 718,-47.5 "/>
<polyline fill="none" stroke="black" points="555,-23.5 718,-23.5 "/>
<text text-anchor="middle" x="636.5" y="-8.3" font-family="Times,serif" font-size="14.00"> </text>
</g>
<!-- data.lsun.LSUNCatsValidation&#45;&gt;data.lsun.LSUNBase -->
<g id="edge4" class="edge">
<title>data.lsun.LSUNCatsValidation&#45;&gt;data.lsun.LSUNBase</title>
<path fill="none" stroke="black" d="M617.69,-70.8C613.05,-79.25 607.88,-88.68 602.54,-98.42"/>
<polygon fill="none" stroke="black" points="599.34,-96.97 597.6,-107.42 605.48,-100.33 599.34,-96.97"/>
</g>
<!-- data.lsun.LSUNChurchesTrain -->
<g id="node6" class="node">
<title>data.lsun.LSUNChurchesTrain</title>
<polygon fill="none" stroke="black" points="736.5,-0.5 736.5,-70.5 900.5,-70.5 900.5,-0.5 736.5,-0.5"/>
<text text-anchor="middle" x="818.5" y="-55.3" font-family="Times,serif" font-size="14.00">LSUNChurchesTrain</text>
<polyline fill="none" stroke="black" points="736.5,-47.5 900.5,-47.5 "/>
<polyline fill="none" stroke="black" points="736.5,-23.5 900.5,-23.5 "/>
<text text-anchor="middle" x="818.5" y="-8.3" font-family="Times,serif" font-size="14.00"> </text>
</g>
<!-- data.lsun.LSUNChurchesTrain&#45;&gt;data.lsun.LSUNBase -->
<g id="edge5" class="edge">
<title>data.lsun.LSUNChurchesTrain&#45;&gt;data.lsun.LSUNBase</title>
<path fill="none" stroke="black" d="M758.26,-70.61C719.7,-92.45 669.4,-120.94 628.42,-144.14"/>
<polygon fill="none" stroke="black" points="626.53,-141.19 619.56,-149.16 629.98,-147.28 626.53,-141.19"/>
</g>
<!-- data.lsun.LSUNChurchesValidation -->
<g id="node7" class="node">
<title>data.lsun.LSUNChurchesValidation</title>
<polygon fill="none" stroke="black" points="918.5,-0.5 918.5,-70.5 1116.5,-70.5 1116.5,-0.5 918.5,-0.5"/>
<text text-anchor="middle" x="1017.5" y="-55.3" font-family="Times,serif" font-size="14.00">LSUNChurchesValidation</text>
<polyline fill="none" stroke="black" points="918.5,-47.5 1116.5,-47.5 "/>
<polyline fill="none" stroke="black" points="918.5,-23.5 1116.5,-23.5 "/>
<text text-anchor="middle" x="1017.5" y="-8.3" font-family="Times,serif" font-size="14.00"> </text>
</g>
<!-- data.lsun.LSUNChurchesValidation&#45;&gt;data.lsun.LSUNBase -->
<g id="edge6" class="edge">
<title>data.lsun.LSUNChurchesValidation&#45;&gt;data.lsun.LSUNBase</title>
<path fill="none" stroke="black" d="M918.46,-68.48C831.84,-96.45 707.94,-136.45 629.37,-161.82"/>
<polygon fill="none" stroke="black" points="627.99,-158.59 619.55,-165 630.14,-165.25 627.99,-158.59"/>
</g>
</g>
</svg>
