<?xml version="1.0" encoding="UTF-8" standalone="no"?>
<!DOCTYPE svg PUBLIC "-//W3C//DTD SVG 1.1//EN"
 "http://www.w3.org/Graphics/SVG/1.1/DTD/svg11.dtd">
<!-- Generated by graphviz version 2.50.0 (0)
 -->
<!-- Title: packages_ldm.data Pages: 1 -->
<svg width="405pt" height="44pt"
 viewBox="0.00 0.00 404.50 44.00" xmlns="http://www.w3.org/2000/svg" xmlns:xlink="http://www.w3.org/1999/xlink">
<g id="graph0" class="graph" transform="scale(1 1) rotate(0) translate(4 40)">
<title>packages_ldm.data</title>
<polygon fill="white" stroke="transparent" points="-4,4 -4,-40 400.5,-40 400.5,4 -4,4"/>
<!-- data -->
<g id="node1" class="node">
<title>data</title>
<polygon fill="none" stroke="black" points="54,-36 0,-36 0,0 54,0 54,-36"/>
<text text-anchor="middle" x="27" y="-14.3" font-family="Times,serif" font-size="14.00">data</text>
</g>
<!-- data.base -->
<g id="node2" class="node">
<title>data.base</title>
<polygon fill="none" stroke="black" points="158,-36 72,-36 72,0 158,0 158,-36"/>
<text text-anchor="middle" x="115" y="-14.3" font-family="Times,serif" font-size="14.00">data.base</text>
</g>
<!-- data.imagenet -->
<g id="node3" class="node">
<title>data.imagenet</title>
<polygon fill="none" stroke="black" points="295.5,-36 176.5,-36 176.5,0 295.5,0 295.5,-36"/>
<text text-anchor="middle" x="236" y="-14.3" font-family="Times,serif" font-size="14.00">data.imagenet</text>
</g>
<!-- data.lsun -->
<g id="node4" class="node">
<title>data.lsun</title>
<polygon fill="none" stroke="black" points="396.5,-36 313.5,-36 313.5,0 396.5,0 396.5,-36"/>
<text text-anchor="middle" x="355" y="-14.3" font-family="Times,serif" font-size="14.00">data.lsun</text>
</g>
</g>
</svg>
