<?xml version="1.0" encoding="UTF-8" standalone="no"?>
<!DOCTYPE svg PUBLIC "-//W3C//DTD SVG 1.1//EN"
 "http://www.w3.org/Graphics/SVG/1.1/DTD/svg11.dtd">
<!-- Generated by graphviz version 2.50.0 (0)
 -->
<!-- Title: packages_basicsr.metrics Pages: 1 -->
<svg width="415pt" height="188pt"
 viewBox="0.00 0.00 414.50 188.00" xmlns="http://www.w3.org/2000/svg" xmlns:xlink="http://www.w3.org/1999/xlink">
<g id="graph0" class="graph" transform="scale(1 1) rotate(0) translate(4 184)">
<title>packages_basicsr.metrics</title>
<polygon fill="white" stroke="transparent" points="-4,4 -4,-184 410.5,-184 410.5,4 -4,4"/>
<!-- basicsr.metrics -->
<g id="node1" class="node">
<title>basicsr.metrics</title>
<polygon fill="none" stroke="black" points="241.5,-36 116.5,-36 116.5,0 241.5,0 241.5,-36"/>
<text text-anchor="middle" x="179" y="-14.3" font-family="Times,serif" font-size="14.00">basicsr.metrics</text>
</g>
<!-- basicsr.metrics.niqe -->
<g id="node4" class="node">
<title>basicsr.metrics.niqe</title>
<polygon fill="none" stroke="black" points="160,-108 0,-108 0,-72 160,-72 160,-108"/>
<text text-anchor="middle" x="80" y="-86.3" font-family="Times,serif" font-size="14.00">basicsr.metrics.niqe</text>
</g>
<!-- basicsr.metrics&#45;&gt;basicsr.metrics.niqe -->
<g id="edge1" class="edge">
<title>basicsr.metrics&#45;&gt;basicsr.metrics.niqe</title>
<path fill="none" stroke="black" d="M154.78,-36.12C142.08,-45.11 126.34,-56.24 112.58,-65.97"/>
<polygon fill="black" stroke="black" points="104.31,-71.81 109.88,-62.36 108.39,-68.92 112.48,-66.04 112.48,-66.04 112.48,-66.04 108.39,-68.92 115.07,-69.71 104.31,-71.81 104.31,-71.81"/>
</g>
<!-- basicsr.metrics.psnr_ssim -->
<g id="node5" class="node">
<title>basicsr.metrics.psnr_ssim</title>
<polygon fill="none" stroke="black" points="379.5,-108 178.5,-108 178.5,-72 379.5,-72 379.5,-108"/>
<text text-anchor="middle" x="279" y="-86.3" font-family="Times,serif" font-size="14.00">basicsr.metrics.psnr_ssim</text>
</g>
<!-- basicsr.metrics&#45;&gt;basicsr.metrics.psnr_ssim -->
<g id="edge2" class="edge">
<title>basicsr.metrics&#45;&gt;basicsr.metrics.psnr_ssim</title>
<path fill="none" stroke="black" d="M203.46,-36.12C216.3,-45.11 232.2,-56.24 246.09,-65.97"/>
<polygon fill="black" stroke="black" points="254.44,-71.81 243.67,-69.76 250.35,-68.94 246.25,-66.08 246.25,-66.08 246.25,-66.08 250.35,-68.94 248.83,-62.39 254.44,-71.81 254.44,-71.81"/>
</g>
<!-- basicsr.metrics.fid -->
<g id="node2" class="node">
<title>basicsr.metrics.fid</title>
<polygon fill="none" stroke="black" points="406.5,-36 259.5,-36 259.5,0 406.5,0 406.5,-36"/>
<text text-anchor="middle" x="333" y="-14.3" font-family="Times,serif" font-size="14.00">basicsr.metrics.fid</text>
</g>
<!-- basicsr.metrics.metric_util -->
<g id="node3" class="node">
<title>basicsr.metrics.metric_util</title>
<polygon fill="none" stroke="black" points="282,-180 76,-180 76,-144 282,-144 282,-180"/>
<text text-anchor="middle" x="179" y="-158.3" font-family="Times,serif" font-size="14.00">basicsr.metrics.metric_util</text>
</g>
<!-- basicsr.metrics.niqe&#45;&gt;basicsr.metrics.metric_util -->
<g id="edge3" class="edge">
<title>basicsr.metrics.niqe&#45;&gt;basicsr.metrics.metric_util</title>
<path fill="none" stroke="black" d="M104.22,-108.12C116.92,-117.11 132.66,-128.24 146.42,-137.97"/>
<polygon fill="black" stroke="black" points="154.69,-143.81 143.93,-141.71 150.61,-140.92 146.52,-138.04 146.52,-138.04 146.52,-138.04 150.61,-140.92 149.12,-134.36 154.69,-143.81 154.69,-143.81"/>
</g>
<!-- basicsr.metrics.psnr_ssim&#45;&gt;basicsr.metrics.metric_util -->
<g id="edge4" class="edge">
<title>basicsr.metrics.psnr_ssim&#45;&gt;basicsr.metrics.metric_util</title>
<path fill="none" stroke="black" d="M254.54,-108.12C241.7,-117.11 225.8,-128.24 211.91,-137.97"/>
<polygon fill="black" stroke="black" points="203.56,-143.81 209.17,-134.39 207.65,-140.94 211.75,-138.08 211.75,-138.08 211.75,-138.08 207.65,-140.94 214.33,-141.76 203.56,-143.81 203.56,-143.81"/>
</g>
</g>
</svg>
