<?xml version="1.0" encoding="UTF-8" standalone="no"?>
<!DOCTYPE svg PUBLIC "-//W3C//DTD SVG 1.1//EN"
 "http://www.w3.org/Graphics/SVG/1.1/DTD/svg11.dtd">
<!-- Generated by graphviz version 2.50.0 (0)
 -->
<!-- Title: packages_ldm.models.diffusion Pages: 1 -->
<svg width="835pt" height="44pt"
 viewBox="0.00 0.00 834.50 44.00" xmlns="http://www.w3.org/2000/svg" xmlns:xlink="http://www.w3.org/1999/xlink">
<g id="graph0" class="graph" transform="scale(1 1) rotate(0) translate(4 40)">
<title>packages_ldm.models.diffusion</title>
<polygon fill="white" stroke="transparent" points="-4,4 -4,-40 830.5,-40 830.5,4 -4,4"/>
<!-- diffusion -->
<g id="node1" class="node">
<title>diffusion</title>
<polygon fill="none" stroke="black" points="78,-36 0,-36 0,0 78,0 78,-36"/>
<text text-anchor="middle" x="39" y="-14.3" font-family="Times,serif" font-size="14.00">diffusion</text>
</g>
<!-- diffusion.classifier -->
<g id="node2" class="node">
<title>diffusion.classifier</title>
<polygon fill="none" stroke="black" points="242,-36 96,-36 96,0 242,0 242,-36"/>
<text text-anchor="middle" x="169" y="-14.3" font-family="Times,serif" font-size="14.00">diffusion.classifier</text>
</g>
<!-- diffusion.ddim -->
<g id="node3" class="node">
<title>diffusion.ddim</title>
<polygon fill="none" stroke="black" points="379.5,-36 260.5,-36 260.5,0 379.5,0 379.5,-36"/>
<text text-anchor="middle" x="320" y="-14.3" font-family="Times,serif" font-size="14.00">diffusion.ddim</text>
</g>
<!-- diffusion.ddpm -->
<g id="node4" class="node">
<title>diffusion.ddpm</title>
<polygon fill="none" stroke="black" points="520.5,-36 397.5,-36 397.5,0 520.5,0 520.5,-36"/>
<text text-anchor="middle" x="459" y="-14.3" font-family="Times,serif" font-size="14.00">diffusion.ddpm</text>
</g>
<!-- diffusion.ddpm_inv -->
<g id="node5" class="node">
<title>diffusion.ddpm_inv</title>
<polygon fill="none" stroke="black" points="691,-36 539,-36 539,0 691,0 691,-36"/>
<text text-anchor="middle" x="615" y="-14.3" font-family="Times,serif" font-size="14.00">diffusion.ddpm_inv</text>
</g>
<!-- diffusion.plms -->
<g id="node6" class="node">
<title>diffusion.plms</title>
<polygon fill="none" stroke="black" points="826.5,-36 709.5,-36 709.5,0 826.5,0 826.5,-36"/>
<text text-anchor="middle" x="768" y="-14.3" font-family="Times,serif" font-size="14.00">diffusion.plms</text>
</g>
</g>
</svg>
