<?xml version="1.0" encoding="UTF-8" standalone="no"?>
<!DOCTYPE svg PUBLIC "-//W3C//DTD SVG 1.1//EN"
 "http://www.w3.org/Graphics/SVG/1.1/DTD/svg11.dtd">
<!-- Generated by graphviz version 2.50.0 (0)
 -->
<!-- Title: classes_basicsr.archs.hifacegan_util Pages: 1 -->
<svg width="661pt" height="364pt"
 viewBox="0.00 0.00 660.50 364.00" xmlns="http://www.w3.org/2000/svg" xmlns:xlink="http://www.w3.org/1999/xlink">
<g id="graph0" class="graph" transform="scale(1 1) rotate(0) translate(4 360)">
<title>classes_basicsr.archs.hifacegan_util</title>
<polygon fill="white" stroke="transparent" points="-4,4 -4,-360 656.5,-360 656.5,4 -4,4"/>
<!-- basicsr.archs.hifacegan_util.BaseNetwork -->
<g id="node1" class="node">
<title>basicsr.archs.hifacegan_util.BaseNetwork</title>
<polygon fill="none" stroke="black" points="0,-218.5 0,-303.5 216,-303.5 216,-218.5 0,-218.5"/>
<text text-anchor="middle" x="108" y="-288.3" font-family="Times,serif" font-size="14.00">BaseNetwork</text>
<polyline fill="none" stroke="black" points="0,-280.5 216,-280.5 "/>
<polyline fill="none" stroke="black" points="0,-256.5 216,-256.5 "/>
<text text-anchor="start" x="8" y="-241.3" font-family="Times,serif" font-size="14.00">forward(x)</text>
<text text-anchor="start" x="8" y="-226.3" font-family="Times,serif" font-size="14.00">init_weights(init_type, gain)</text>
</g>
<!-- basicsr.archs.hifacegan_util.LIPEncoder -->
<g id="node2" class="node">
<title>basicsr.archs.hifacegan_util.LIPEncoder</title>
<polygon fill="none" stroke="black" points="48,-0.5 48,-114.5 168,-114.5 168,-0.5 48,-0.5"/>
<text text-anchor="middle" x="108" y="-99.3" font-family="Times,serif" font-size="14.00">LIPEncoder</text>
<polyline fill="none" stroke="black" points="48,-91.5 168,-91.5 "/>
<text text-anchor="start" x="56" y="-76.3" font-family="Times,serif" font-size="14.00">max_ratio : int</text>
<text text-anchor="start" x="56" y="-61.3" font-family="Times,serif" font-size="14.00">model</text>
<text text-anchor="start" x="56" y="-46.3" font-family="Times,serif" font-size="14.00">sh</text>
<text text-anchor="start" x="56" y="-31.3" font-family="Times,serif" font-size="14.00">sw</text>
<polyline fill="none" stroke="black" points="48,-23.5 168,-23.5 "/>
<text text-anchor="start" x="56" y="-8.3" font-family="Times,serif" font-size="14.00">forward(x)</text>
</g>
<!-- basicsr.archs.hifacegan_util.LIPEncoder&#45;&gt;basicsr.archs.hifacegan_util.BaseNetwork -->
<g id="edge1" class="edge">
<title>basicsr.archs.hifacegan_util.LIPEncoder&#45;&gt;basicsr.archs.hifacegan_util.BaseNetwork</title>
<path fill="none" stroke="black" d="M108,-114.63C108,-143.88 108,-179.41 108,-208.03"/>
<polygon fill="none" stroke="black" points="104.5,-208.23 108,-218.23 111.5,-208.23 104.5,-208.23"/>
</g>
<!-- basicsr.archs.hifacegan_util.SPADE -->
<g id="node3" class="node">
<title>basicsr.archs.hifacegan_util.SPADE</title>
<polygon fill="none" stroke="black" points="234,-0.5 234,-114.5 390,-114.5 390,-0.5 234,-0.5"/>
<text text-anchor="middle" x="312" y="-99.3" font-family="Times,serif" font-size="14.00">SPADE</text>
<polyline fill="none" stroke="black" points="234,-91.5 390,-91.5 "/>
<text text-anchor="start" x="242" y="-76.3" font-family="Times,serif" font-size="14.00">mlp_beta</text>
<text text-anchor="start" x="242" y="-61.3" font-family="Times,serif" font-size="14.00">mlp_gamma</text>
<text text-anchor="start" x="242" y="-46.3" font-family="Times,serif" font-size="14.00">mlp_shared</text>
<text text-anchor="start" x="242" y="-31.3" font-family="Times,serif" font-size="14.00">param_free_norm</text>
<polyline fill="none" stroke="black" points="234,-23.5 390,-23.5 "/>
<text text-anchor="start" x="242" y="-8.3" font-family="Times,serif" font-size="14.00">forward(x, segmap)</text>
</g>
<!-- basicsr.archs.hifacegan_util.SPADEResnetBlock -->
<g id="node4" class="node">
<title>basicsr.archs.hifacegan_util.SPADEResnetBlock</title>
<polygon fill="none" stroke="black" points="234.5,-166.5 234.5,-355.5 389.5,-355.5 389.5,-166.5 234.5,-166.5"/>
<text text-anchor="middle" x="312" y="-340.3" font-family="Times,serif" font-size="14.00">SPADEResnetBlock</text>
<polyline fill="none" stroke="black" points="234.5,-332.5 389.5,-332.5 "/>
<text text-anchor="start" x="242.5" y="-317.3" font-family="Times,serif" font-size="14.00">conv_0</text>
<text text-anchor="start" x="242.5" y="-302.3" font-family="Times,serif" font-size="14.00">conv_1</text>
<text text-anchor="start" x="242.5" y="-287.3" font-family="Times,serif" font-size="14.00">conv_s</text>
<text text-anchor="start" x="242.5" y="-272.3" font-family="Times,serif" font-size="14.00">learned_shortcut</text>
<text text-anchor="start" x="242.5" y="-257.3" font-family="Times,serif" font-size="14.00">norm_0</text>
<text text-anchor="start" x="242.5" y="-242.3" font-family="Times,serif" font-size="14.00">norm_1</text>
<text text-anchor="start" x="242.5" y="-227.3" font-family="Times,serif" font-size="14.00">norm_s</text>
<polyline fill="none" stroke="black" points="234.5,-219.5 389.5,-219.5 "/>
<text text-anchor="start" x="242.5" y="-204.3" font-family="Times,serif" font-size="14.00">act(x)</text>
<text text-anchor="start" x="242.5" y="-189.3" font-family="Times,serif" font-size="14.00">forward(x, seg)</text>
<text text-anchor="start" x="242.5" y="-174.3" font-family="Times,serif" font-size="14.00">shortcut(x, seg)</text>
</g>
<!-- basicsr.archs.hifacegan_util.SPADE&#45;&gt;basicsr.archs.hifacegan_util.SPADEResnetBlock -->
<g id="edge2" class="edge">
<title>basicsr.archs.hifacegan_util.SPADE&#45;&gt;basicsr.archs.hifacegan_util.SPADEResnetBlock</title>
<path fill="none" stroke="black" d="M240.39,-114.74C234.71,-125 232.38,-136.21 236,-148 236.74,-150.41 237.55,-152.82 238.43,-155.22"/>
<polygon fill="black" stroke="black" points="238.45,-155.25 244.42,-159.3 242.98,-166.36 237.01,-162.32 238.45,-155.25"/>
<text text-anchor="middle" x="263" y="-136.8" font-family="Times,serif" font-size="14.00" fill="green">norm_0</text>
</g>
<!-- basicsr.archs.hifacegan_util.SPADE&#45;&gt;basicsr.archs.hifacegan_util.SPADEResnetBlock -->
<g id="edge3" class="edge">
<title>basicsr.archs.hifacegan_util.SPADE&#45;&gt;basicsr.archs.hifacegan_util.SPADEResnetBlock</title>
<path fill="none" stroke="black" d="M312,-114.63C312,-127.06 312,-140.62 312,-154.31"/>
<polygon fill="black" stroke="black" points="312,-154.34 316,-160.34 312,-166.34 308,-160.34 312,-154.34"/>
<text text-anchor="middle" x="339" y="-136.8" font-family="Times,serif" font-size="14.00" fill="green">norm_1</text>
</g>
<!-- basicsr.archs.hifacegan_util.SPADE&#45;&gt;basicsr.archs.hifacegan_util.SPADEResnetBlock -->
<g id="edge4" class="edge">
<title>basicsr.archs.hifacegan_util.SPADE&#45;&gt;basicsr.archs.hifacegan_util.SPADEResnetBlock</title>
<path fill="none" stroke="black" d="M358.86,-114.63C362.13,-120.57 364.94,-126.74 367,-133 369.31,-140.02 370.27,-147.18 370.17,-154.36"/>
<polygon fill="black" stroke="black" points="370.16,-154.47 373.6,-160.81 369.07,-166.42 365.63,-160.08 370.16,-154.47"/>
<text text-anchor="middle" x="395" y="-136.8" font-family="Times,serif" font-size="14.00" fill="green">norm_s</text>
</g>
<!-- basicsr.archs.hifacegan_util.SimplifiedLIP -->
<g id="node5" class="node">
<title>basicsr.archs.hifacegan_util.SimplifiedLIP</title>
<polygon fill="none" stroke="black" points="408.5,-15.5 408.5,-99.5 521.5,-99.5 521.5,-15.5 408.5,-15.5"/>
<text text-anchor="middle" x="465" y="-84.3" font-family="Times,serif" font-size="14.00">SimplifiedLIP</text>
<polyline fill="none" stroke="black" points="408.5,-76.5 521.5,-76.5 "/>
<text text-anchor="start" x="416.5" y="-61.3" font-family="Times,serif" font-size="14.00">logit</text>
<polyline fill="none" stroke="black" points="408.5,-53.5 521.5,-53.5 "/>
<text text-anchor="start" x="416.5" y="-38.3" font-family="Times,serif" font-size="14.00">forward(x)</text>
<text text-anchor="start" x="416.5" y="-23.3" font-family="Times,serif" font-size="14.00">init_layer()</text>
</g>
<!-- basicsr.archs.hifacegan_util.SoftGate -->
<g id="node6" class="node">
<title>basicsr.archs.hifacegan_util.SoftGate</title>
<polygon fill="none" stroke="black" points="539.5,-23 539.5,-92 652.5,-92 652.5,-23 539.5,-23"/>
<text text-anchor="middle" x="596" y="-76.8" font-family="Times,serif" font-size="14.00">SoftGate</text>
<polyline fill="none" stroke="black" points="539.5,-69 652.5,-69 "/>
<text text-anchor="start" x="547.5" y="-53.8" font-family="Times,serif" font-size="14.00">COEFF : float</text>
<polyline fill="none" stroke="black" points="539.5,-46 652.5,-46 "/>
<text text-anchor="start" x="547.5" y="-30.8" font-family="Times,serif" font-size="14.00">forward(x)</text>
</g>
</g>
</svg>
