<?xml version="1.0" encoding="UTF-8" standalone="no"?>
<!DOCTYPE svg PUBLIC "-//W3C//DTD SVG 1.1//EN"
 "http://www.w3.org/Graphics/SVG/1.1/DTD/svg11.dtd">
<!-- Generated by graphviz version 2.50.0 (0)
 -->
<!-- Title: classes_basicsr.archs.dfdnet_arch Pages: 1 -->
<svg width="538pt" height="454pt"
 viewBox="0.00 0.00 538.00 454.00" xmlns="http://www.w3.org/2000/svg" xmlns:xlink="http://www.w3.org/1999/xlink">
<g id="graph0" class="graph" transform="scale(1 1) rotate(0) translate(4 450)">
<title>classes_basicsr.archs.dfdnet_arch</title>
<polygon fill="white" stroke="transparent" points="-4,4 -4,-450 534,-450 534,4 -4,4"/>
<!-- basicsr.archs.dfdnet_arch.DFDNet -->
<g id="node1" class="node">
<title>basicsr.archs.dfdnet_arch.DFDNet</title>
<polygon fill="none" stroke="black" points="0,-166.5 0,-445.5 530,-445.5 530,-166.5 0,-166.5"/>
<text text-anchor="middle" x="265" y="-430.3" font-family="Times,serif" font-size="14.00">DFDNet</text>
<polyline fill="none" stroke="black" points="0,-422.5 530,-422.5 "/>
<text text-anchor="start" x="8" y="-407.3" font-family="Times,serif" font-size="14.00">attn_blocks</text>
<text text-anchor="start" x="8" y="-392.3" font-family="Times,serif" font-size="14.00">dict</text>
<text text-anchor="start" x="8" y="-377.3" font-family="Times,serif" font-size="14.00">feature_sizes : ndarray</text>
<text text-anchor="start" x="8" y="-362.3" font-family="Times,serif" font-size="14.00">flag_dict_device : bool</text>
<text text-anchor="start" x="8" y="-347.3" font-family="Times,serif" font-size="14.00">multi_scale_dilation</text>
<text text-anchor="start" x="8" y="-332.3" font-family="Times,serif" font-size="14.00">parts : list</text>
<text text-anchor="start" x="8" y="-317.3" font-family="Times,serif" font-size="14.00">upsample0</text>
<text text-anchor="start" x="8" y="-302.3" font-family="Times,serif" font-size="14.00">upsample1</text>
<text text-anchor="start" x="8" y="-287.3" font-family="Times,serif" font-size="14.00">upsample2</text>
<text text-anchor="start" x="8" y="-272.3" font-family="Times,serif" font-size="14.00">upsample3</text>
<text text-anchor="start" x="8" y="-257.3" font-family="Times,serif" font-size="14.00">upsample4</text>
<text text-anchor="start" x="8" y="-242.3" font-family="Times,serif" font-size="14.00">vgg_extractor</text>
<text text-anchor="start" x="8" y="-227.3" font-family="Times,serif" font-size="14.00">vgg_layers : list</text>
<polyline fill="none" stroke="black" points="0,-219.5 530,-219.5 "/>
<text text-anchor="start" x="8" y="-204.3" font-family="Times,serif" font-size="14.00">forward(x, part_locations)</text>
<text text-anchor="start" x="8" y="-189.3" font-family="Times,serif" font-size="14.00">put_dict_to_device(x)</text>
<text text-anchor="start" x="8" y="-174.3" font-family="Times,serif" font-size="14.00">swap_feat(vgg_feat, updated_feat, dict_feat, location, part_name, f_size)</text>
</g>
<!-- basicsr.archs.dfdnet_arch.SFTUpBlock -->
<g id="node2" class="node">
<title>basicsr.archs.dfdnet_arch.SFTUpBlock</title>
<polygon fill="none" stroke="black" points="168,-0.5 168,-114.5 362,-114.5 362,-0.5 168,-0.5"/>
<text text-anchor="middle" x="265" y="-99.3" font-family="Times,serif" font-size="14.00">SFTUpBlock</text>
<polyline fill="none" stroke="black" points="168,-91.5 362,-91.5 "/>
<text text-anchor="start" x="176" y="-76.3" font-family="Times,serif" font-size="14.00">conv1</text>
<text text-anchor="start" x="176" y="-61.3" font-family="Times,serif" font-size="14.00">convup</text>
<text text-anchor="start" x="176" y="-46.3" font-family="Times,serif" font-size="14.00">scale_block</text>
<text text-anchor="start" x="176" y="-31.3" font-family="Times,serif" font-size="14.00">shift_block</text>
<polyline fill="none" stroke="black" points="168,-23.5 362,-23.5 "/>
<text text-anchor="start" x="176" y="-8.3" font-family="Times,serif" font-size="14.00">forward(x, updated_feat)</text>
</g>
<!-- basicsr.archs.dfdnet_arch.SFTUpBlock&#45;&gt;basicsr.archs.dfdnet_arch.DFDNet -->
<g id="edge1" class="edge">
<title>basicsr.archs.dfdnet_arch.SFTUpBlock&#45;&gt;basicsr.archs.dfdnet_arch.DFDNet</title>
<path fill="none" stroke="black" d="M167.86,-86.43C146.17,-97.38 125.83,-112.43 113,-133 108.6,-140.06 105.92,-147.12 104.73,-154.12"/>
<polygon fill="black" stroke="black" points="104.72,-154.26 108.4,-160.46 104.09,-166.24 100.41,-160.04 104.72,-154.26"/>
<text text-anchor="middle" x="152.5" y="-136.8" font-family="Times,serif" font-size="14.00" fill="green">upsample0</text>
</g>
<!-- basicsr.archs.dfdnet_arch.SFTUpBlock&#45;&gt;basicsr.archs.dfdnet_arch.DFDNet -->
<g id="edge2" class="edge">
<title>basicsr.archs.dfdnet_arch.SFTUpBlock&#45;&gt;basicsr.archs.dfdnet_arch.DFDNet</title>
<path fill="none" stroke="black" d="M222.59,-114.52C219.53,-120.53 216.91,-126.74 215,-133 212.88,-139.96 211.57,-147.08 210.93,-154.27"/>
<polygon fill="black" stroke="black" points="210.92,-154.45 214.69,-160.6 210.47,-166.44 206.7,-160.29 210.92,-154.45"/>
<text text-anchor="middle" x="254.5" y="-136.8" font-family="Times,serif" font-size="14.00" fill="green">upsample1</text>
</g>
<!-- basicsr.archs.dfdnet_arch.SFTUpBlock&#45;&gt;basicsr.archs.dfdnet_arch.DFDNet -->
<g id="edge3" class="edge">
<title>basicsr.archs.dfdnet_arch.SFTUpBlock&#45;&gt;basicsr.archs.dfdnet_arch.DFDNet</title>
<path fill="none" stroke="black" d="M289.41,-114.81C291.28,-120.86 292.87,-127 294,-133 295.31,-139.96 296.13,-147.08 296.56,-154.28"/>
<polygon fill="black" stroke="black" points="296.56,-154.46 300.73,-160.34 296.9,-166.45 292.73,-160.57 296.56,-154.46"/>
<text text-anchor="middle" x="334.5" y="-136.8" font-family="Times,serif" font-size="14.00" fill="green">upsample2</text>
</g>
<!-- basicsr.archs.dfdnet_arch.SFTUpBlock&#45;&gt;basicsr.archs.dfdnet_arch.DFDNet -->
<g id="edge4" class="edge">
<title>basicsr.archs.dfdnet_arch.SFTUpBlock&#45;&gt;basicsr.archs.dfdnet_arch.DFDNet</title>
<path fill="none" stroke="black" d="M362.15,-101.68C376.05,-114.26 383.91,-129.66 378,-148 377.27,-150.28 376.48,-152.55 375.66,-154.82"/>
<polygon fill="black" stroke="black" points="375.62,-154.93 377.12,-161.98 371.19,-166.08 369.69,-159.03 375.62,-154.93"/>
<text text-anchor="middle" x="418.5" y="-136.8" font-family="Times,serif" font-size="14.00" fill="green">upsample3</text>
</g>
</g>
</svg>
