<?xml version="1.0" encoding="UTF-8" standalone="no"?>
<!DOCTYPE svg PUBLIC "-//W3C//DTD SVG 1.1//EN"
 "http://www.w3.org/Graphics/SVG/1.1/DTD/svg11.dtd">
<!-- Generated by graphviz version 2.50.0 (0)
 -->
<!-- Title: classes_basicsr.archs.stylegan2_arch Pages: 1 -->
<svg width="1571pt" height="936pt"
 viewBox="0.00 0.00 1570.50 936.00" xmlns="http://www.w3.org/2000/svg" xmlns:xlink="http://www.w3.org/1999/xlink">
<g id="graph0" class="graph" transform="scale(1 1) rotate(0) translate(4 932)">
<title>classes_basicsr.archs.stylegan2_arch</title>
<polygon fill="white" stroke="transparent" points="-4,4 -4,-932 1566.5,-932 1566.5,4 -4,4"/>
<!-- basicsr.archs.stylegan2_arch.ConstantInput -->
<g id="node1" class="node">
<title>basicsr.archs.stylegan2_arch.ConstantInput</title>
<polygon fill="none" stroke="black" points="190,-512.5 190,-581.5 313,-581.5 313,-512.5 190,-512.5"/>
<text text-anchor="middle" x="251.5" y="-566.3" font-family="Times,serif" font-size="14.00">ConstantInput</text>
<polyline fill="none" stroke="black" points="190,-558.5 313,-558.5 "/>
<text text-anchor="start" x="198" y="-543.3" font-family="Times,serif" font-size="14.00">weight</text>
<polyline fill="none" stroke="black" points="190,-535.5 313,-535.5 "/>
<text text-anchor="start" x="198" y="-520.3" font-family="Times,serif" font-size="14.00">forward(batch)</text>
</g>
<!-- basicsr.archs.stylegan2_arch.StyleGAN2Generator -->
<g id="node11" class="node">
<title>basicsr.archs.stylegan2_arch.StyleGAN2Generator</title>
<polygon fill="none" stroke="black" points="0,-648.5 0,-927.5 835,-927.5 835,-648.5 0,-648.5"/>
<text text-anchor="middle" x="417.5" y="-912.3" font-family="Times,serif" font-size="14.00">StyleGAN2Generator</text>
<polyline fill="none" stroke="black" points="0,-904.5 835,-904.5 "/>
<text text-anchor="start" x="8" y="-889.3" font-family="Times,serif" font-size="14.00">channels : dict</text>
<text text-anchor="start" x="8" y="-874.3" font-family="Times,serif" font-size="14.00">constant_input</text>
<text text-anchor="start" x="8" y="-859.3" font-family="Times,serif" font-size="14.00">log_size : int</text>
<text text-anchor="start" x="8" y="-844.3" font-family="Times,serif" font-size="14.00">noises</text>
<text text-anchor="start" x="8" y="-829.3" font-family="Times,serif" font-size="14.00">num_latent</text>
<text text-anchor="start" x="8" y="-814.3" font-family="Times,serif" font-size="14.00">num_layers</text>
<text text-anchor="start" x="8" y="-799.3" font-family="Times,serif" font-size="14.00">num_style_feat : int</text>
<text text-anchor="start" x="8" y="-784.3" font-family="Times,serif" font-size="14.00">style_conv1</text>
<text text-anchor="start" x="8" y="-769.3" font-family="Times,serif" font-size="14.00">style_convs</text>
<text text-anchor="start" x="8" y="-754.3" font-family="Times,serif" font-size="14.00">style_mlp</text>
<text text-anchor="start" x="8" y="-739.3" font-family="Times,serif" font-size="14.00">to_rgb1</text>
<text text-anchor="start" x="8" y="-724.3" font-family="Times,serif" font-size="14.00">to_rgbs</text>
<polyline fill="none" stroke="black" points="0,-716.5 835,-716.5 "/>
<text text-anchor="start" x="8" y="-701.3" font-family="Times,serif" font-size="14.00">forward(styles, input_is_latent, noise, randomize_noise, truncation, truncation_latent, inject_index, return_latents)</text>
<text text-anchor="start" x="8" y="-686.3" font-family="Times,serif" font-size="14.00">get_latent(x)</text>
<text text-anchor="start" x="8" y="-671.3" font-family="Times,serif" font-size="14.00">make_noise()</text>
<text text-anchor="start" x="8" y="-656.3" font-family="Times,serif" font-size="14.00">mean_latent(num_latent)</text>
</g>
<!-- basicsr.archs.stylegan2_arch.ConstantInput&#45;&gt;basicsr.archs.stylegan2_arch.StyleGAN2Generator -->
<g id="edge1" class="edge">
<title>basicsr.archs.stylegan2_arch.ConstantInput&#45;&gt;basicsr.archs.stylegan2_arch.StyleGAN2Generator</title>
<path fill="none" stroke="black" d="M274.3,-581.57C284.42,-596.44 296.52,-614.12 307.5,-630 309.39,-632.73 311.29,-635.48 313.22,-638.26"/>
<polygon fill="black" stroke="black" points="313.4,-638.51 320.1,-641.16 320.24,-648.37 313.53,-645.72 313.4,-638.51"/>
<text text-anchor="middle" x="360.5" y="-618.8" font-family="Times,serif" font-size="14.00" fill="green">constant_input</text>
</g>
<!-- basicsr.archs.stylegan2_arch.ConvLayer -->
<g id="node2" class="node">
<title>basicsr.archs.stylegan2_arch.ConvLayer</title>
<polygon fill="none" stroke="black" points="803,-53 803,-122 910,-122 910,-53 803,-53"/>
<text text-anchor="middle" x="856.5" y="-106.8" font-family="Times,serif" font-size="14.00">ConvLayer</text>
<polyline fill="none" stroke="black" points="803,-99 910,-99 "/>
<text text-anchor="start" x="811" y="-83.8" font-family="Times,serif" font-size="14.00">padding : int</text>
<polyline fill="none" stroke="black" points="803,-76 910,-76 "/>
<text text-anchor="middle" x="856.5" y="-60.8" font-family="Times,serif" font-size="14.00"> </text>
</g>
<!-- basicsr.archs.stylegan2_arch.ResBlock -->
<g id="node7" class="node">
<title>basicsr.archs.stylegan2_arch.ResBlock</title>
<polygon fill="none" stroke="black" points="766.5,-286.5 766.5,-385.5 858.5,-385.5 858.5,-286.5 766.5,-286.5"/>
<text text-anchor="middle" x="812.5" y="-370.3" font-family="Times,serif" font-size="14.00">ResBlock</text>
<polyline fill="none" stroke="black" points="766.5,-362.5 858.5,-362.5 "/>
<text text-anchor="start" x="774.5" y="-347.3" font-family="Times,serif" font-size="14.00">conv1</text>
<text text-anchor="start" x="774.5" y="-332.3" font-family="Times,serif" font-size="14.00">conv2</text>
<text text-anchor="start" x="774.5" y="-317.3" font-family="Times,serif" font-size="14.00">skip</text>
<polyline fill="none" stroke="black" points="766.5,-309.5 858.5,-309.5 "/>
<text text-anchor="start" x="774.5" y="-294.3" font-family="Times,serif" font-size="14.00">forward(x)</text>
</g>
<!-- basicsr.archs.stylegan2_arch.ConvLayer&#45;&gt;basicsr.archs.stylegan2_arch.ResBlock -->
<g id="edge2" class="edge">
<title>basicsr.archs.stylegan2_arch.ConvLayer&#45;&gt;basicsr.archs.stylegan2_arch.ResBlock</title>
<path fill="none" stroke="black" d="M817.56,-122.08C798.87,-140.81 778.42,-165.82 768.5,-193 758.75,-219.72 765.55,-249.74 776.45,-275.28"/>
<polygon fill="black" stroke="black" points="776.5,-275.4 782.65,-279.17 781.52,-286.3 775.38,-282.52 776.5,-275.4"/>
<text text-anchor="middle" x="790" y="-196.8" font-family="Times,serif" font-size="14.00" fill="green">conv1</text>
</g>
<!-- basicsr.archs.stylegan2_arch.ConvLayer&#45;&gt;basicsr.archs.stylegan2_arch.ResBlock -->
<g id="edge3" class="edge">
<title>basicsr.archs.stylegan2_arch.ConvLayer&#45;&gt;basicsr.archs.stylegan2_arch.ResBlock</title>
<path fill="none" stroke="black" d="M848.9,-122.29C844.43,-142.71 838.83,-169.29 834.5,-193 829.65,-219.57 824.96,-249.07 821.18,-274.27"/>
<polygon fill="black" stroke="black" points="821.16,-274.39 824.23,-280.91 819.39,-286.26 816.32,-279.73 821.16,-274.39"/>
<text text-anchor="middle" x="856" y="-196.8" font-family="Times,serif" font-size="14.00" fill="green">conv2</text>
</g>
<!-- basicsr.archs.stylegan2_arch.ConvLayer&#45;&gt;basicsr.archs.stylegan2_arch.ResBlock -->
<g id="edge4" class="edge">
<title>basicsr.archs.stylegan2_arch.ConvLayer&#45;&gt;basicsr.archs.stylegan2_arch.ResBlock</title>
<path fill="none" stroke="black" d="M870,-122.03C877.87,-146.15 884.92,-179.35 877.5,-208 875.2,-216.86 871.78,-217.91 867.5,-226 859.03,-241.98 850.1,-259.41 841.96,-275.56"/>
<polygon fill="black" stroke="black" points="841.85,-275.77 842.73,-282.93 836.46,-286.5 835.58,-279.34 841.85,-275.77"/>
<text text-anchor="middle" x="894.5" y="-196.8" font-family="Times,serif" font-size="14.00" fill="green">skip</text>
</g>
<!-- basicsr.archs.stylegan2_arch.StyleGAN2Discriminator -->
<g id="node10" class="node">
<title>basicsr.archs.stylegan2_arch.StyleGAN2Discriminator</title>
<polygon fill="none" stroke="black" points="876.5,-271.5 876.5,-400.5 1070.5,-400.5 1070.5,-271.5 876.5,-271.5"/>
<text text-anchor="middle" x="973.5" y="-385.3" font-family="Times,serif" font-size="14.00">StyleGAN2Discriminator</text>
<polyline fill="none" stroke="black" points="876.5,-377.5 1070.5,-377.5 "/>
<text text-anchor="start" x="884.5" y="-362.3" font-family="Times,serif" font-size="14.00">conv_body</text>
<text text-anchor="start" x="884.5" y="-347.3" font-family="Times,serif" font-size="14.00">final_conv</text>
<text text-anchor="start" x="884.5" y="-332.3" font-family="Times,serif" font-size="14.00">final_linear</text>
<text text-anchor="start" x="884.5" y="-317.3" font-family="Times,serif" font-size="14.00">stddev_feat : int</text>
<text text-anchor="start" x="884.5" y="-302.3" font-family="Times,serif" font-size="14.00">stddev_group : int</text>
<polyline fill="none" stroke="black" points="876.5,-294.5 1070.5,-294.5 "/>
<text text-anchor="start" x="884.5" y="-279.3" font-family="Times,serif" font-size="14.00">forward(x)</text>
</g>
<!-- basicsr.archs.stylegan2_arch.ConvLayer&#45;&gt;basicsr.archs.stylegan2_arch.StyleGAN2Discriminator -->
<g id="edge5" class="edge">
<title>basicsr.archs.stylegan2_arch.ConvLayer&#45;&gt;basicsr.archs.stylegan2_arch.StyleGAN2Discriminator</title>
<path fill="none" stroke="black" d="M876.11,-122.41C887.53,-142.64 901.91,-168.99 913.5,-193 923.9,-214.55 934.35,-238.37 943.56,-260.25"/>
<polygon fill="black" stroke="black" points="943.63,-260.41 949.63,-264.41 948.25,-271.49 942.24,-267.49 943.63,-260.41"/>
<text text-anchor="middle" x="954" y="-196.8" font-family="Times,serif" font-size="14.00" fill="green">final_conv</text>
</g>
<!-- basicsr.archs.stylegan2_arch.EqualConv2d -->
<g id="node3" class="node">
<title>basicsr.archs.stylegan2_arch.EqualConv2d</title>
<polygon fill="none" stroke="black" points="928.5,-0.5 928.5,-174.5 1040.5,-174.5 1040.5,-0.5 928.5,-0.5"/>
<text text-anchor="middle" x="984.5" y="-159.3" font-family="Times,serif" font-size="14.00">EqualConv2d</text>
<polyline fill="none" stroke="black" points="928.5,-151.5 1040.5,-151.5 "/>
<text text-anchor="start" x="936.5" y="-136.3" font-family="Times,serif" font-size="14.00">bias</text>
<text text-anchor="start" x="936.5" y="-121.3" font-family="Times,serif" font-size="14.00">in_channels</text>
<text text-anchor="start" x="936.5" y="-106.3" font-family="Times,serif" font-size="14.00">kernel_size</text>
<text text-anchor="start" x="936.5" y="-91.3" font-family="Times,serif" font-size="14.00">out_channels</text>
<text text-anchor="start" x="936.5" y="-76.3" font-family="Times,serif" font-size="14.00">padding : int</text>
<text text-anchor="start" x="936.5" y="-61.3" font-family="Times,serif" font-size="14.00">scale</text>
<text text-anchor="start" x="936.5" y="-46.3" font-family="Times,serif" font-size="14.00">stride : int</text>
<text text-anchor="start" x="936.5" y="-31.3" font-family="Times,serif" font-size="14.00">weight</text>
<polyline fill="none" stroke="black" points="928.5,-23.5 1040.5,-23.5 "/>
<text text-anchor="start" x="936.5" y="-8.3" font-family="Times,serif" font-size="14.00">forward(x)</text>
</g>
<!-- basicsr.archs.stylegan2_arch.EqualLinear -->
<g id="node4" class="node">
<title>basicsr.archs.stylegan2_arch.EqualLinear</title>
<polygon fill="none" stroke="black" points="384,-8 384,-167 557,-167 557,-8 384,-8"/>
<text text-anchor="middle" x="470.5" y="-151.8" font-family="Times,serif" font-size="14.00">EqualLinear</text>
<polyline fill="none" stroke="black" points="384,-144 557,-144 "/>
<text text-anchor="start" x="392" y="-128.8" font-family="Times,serif" font-size="14.00">activation : NoneType</text>
<text text-anchor="start" x="392" y="-113.8" font-family="Times,serif" font-size="14.00">bias</text>
<text text-anchor="start" x="392" y="-98.8" font-family="Times,serif" font-size="14.00">in_channels</text>
<text text-anchor="start" x="392" y="-83.8" font-family="Times,serif" font-size="14.00">lr_mul : int</text>
<text text-anchor="start" x="392" y="-68.8" font-family="Times,serif" font-size="14.00">out_channels</text>
<text text-anchor="start" x="392" y="-53.8" font-family="Times,serif" font-size="14.00">scale</text>
<text text-anchor="start" x="392" y="-38.8" font-family="Times,serif" font-size="14.00">weight</text>
<polyline fill="none" stroke="black" points="384,-31 557,-31 "/>
<text text-anchor="start" x="392" y="-15.8" font-family="Times,serif" font-size="14.00">forward(x)</text>
</g>
<!-- basicsr.archs.stylegan2_arch.ModulatedConv2d -->
<g id="node5" class="node">
<title>basicsr.archs.stylegan2_arch.ModulatedConv2d</title>
<polygon fill="none" stroke="black" points="494,-226.5 494,-445.5 693,-445.5 693,-226.5 494,-226.5"/>
<text text-anchor="middle" x="593.5" y="-430.3" font-family="Times,serif" font-size="14.00">ModulatedConv2d</text>
<polyline fill="none" stroke="black" points="494,-422.5 693,-422.5 "/>
<text text-anchor="start" x="502" y="-407.3" font-family="Times,serif" font-size="14.00">demodulate : bool</text>
<text text-anchor="start" x="502" y="-392.3" font-family="Times,serif" font-size="14.00">eps : float</text>
<text text-anchor="start" x="502" y="-377.3" font-family="Times,serif" font-size="14.00">in_channels</text>
<text text-anchor="start" x="502" y="-362.3" font-family="Times,serif" font-size="14.00">kernel_size</text>
<text text-anchor="start" x="502" y="-347.3" font-family="Times,serif" font-size="14.00">modulation</text>
<text text-anchor="start" x="502" y="-332.3" font-family="Times,serif" font-size="14.00">out_channels</text>
<text text-anchor="start" x="502" y="-317.3" font-family="Times,serif" font-size="14.00">padding</text>
<text text-anchor="start" x="502" y="-302.3" font-family="Times,serif" font-size="14.00">sample_mode : NoneType</text>
<text text-anchor="start" x="502" y="-287.3" font-family="Times,serif" font-size="14.00">scale</text>
<text text-anchor="start" x="502" y="-272.3" font-family="Times,serif" font-size="14.00">smooth</text>
<text text-anchor="start" x="502" y="-257.3" font-family="Times,serif" font-size="14.00">weight</text>
<polyline fill="none" stroke="black" points="494,-249.5 693,-249.5 "/>
<text text-anchor="start" x="502" y="-234.3" font-family="Times,serif" font-size="14.00">forward(x, style)</text>
</g>
<!-- basicsr.archs.stylegan2_arch.EqualLinear&#45;&gt;basicsr.archs.stylegan2_arch.ModulatedConv2d -->
<g id="edge6" class="edge">
<title>basicsr.archs.stylegan2_arch.EqualLinear&#45;&gt;basicsr.archs.stylegan2_arch.ModulatedConv2d</title>
<path fill="none" stroke="black" d="M490.45,-167.27C495.02,-181.13 500.37,-195.2 506.5,-208 507.74,-210.59 509.03,-213.19 510.37,-215.79"/>
<polygon fill="black" stroke="black" points="510.42,-215.89 516.78,-219.3 516.08,-226.48 509.72,-223.07 510.42,-215.89"/>
<text text-anchor="middle" x="547" y="-196.8" font-family="Times,serif" font-size="14.00" fill="green">modulation</text>
</g>
<!-- basicsr.archs.stylegan2_arch.StyleConv -->
<g id="node9" class="node">
<title>basicsr.archs.stylegan2_arch.StyleConv</title>
<polygon fill="none" stroke="black" points="522.5,-497.5 522.5,-596.5 704.5,-596.5 704.5,-497.5 522.5,-497.5"/>
<text text-anchor="middle" x="613.5" y="-581.3" font-family="Times,serif" font-size="14.00">StyleConv</text>
<polyline fill="none" stroke="black" points="522.5,-573.5 704.5,-573.5 "/>
<text text-anchor="start" x="530.5" y="-558.3" font-family="Times,serif" font-size="14.00">activate</text>
<text text-anchor="start" x="530.5" y="-543.3" font-family="Times,serif" font-size="14.00">modulated_conv</text>
<text text-anchor="start" x="530.5" y="-528.3" font-family="Times,serif" font-size="14.00">weight</text>
<polyline fill="none" stroke="black" points="522.5,-520.5 704.5,-520.5 "/>
<text text-anchor="start" x="530.5" y="-505.3" font-family="Times,serif" font-size="14.00">forward(x, style, noise)</text>
</g>
<!-- basicsr.archs.stylegan2_arch.ModulatedConv2d&#45;&gt;basicsr.archs.stylegan2_arch.StyleConv -->
<g id="edge7" class="edge">
<title>basicsr.archs.stylegan2_arch.ModulatedConv2d&#45;&gt;basicsr.archs.stylegan2_arch.StyleConv</title>
<path fill="none" stroke="black" d="M603.91,-445.79C605.21,-459.32 606.49,-472.77 607.68,-485.2"/>
<polygon fill="black" stroke="black" points="607.69,-485.32 612.25,-490.91 608.84,-497.27 604.28,-491.68 607.69,-485.32"/>
<text text-anchor="middle" x="665.5" y="-467.8" font-family="Times,serif" font-size="14.00" fill="green">modulated_conv</text>
</g>
<!-- basicsr.archs.stylegan2_arch.ToRGB -->
<g id="node12" class="node">
<title>basicsr.archs.stylegan2_arch.ToRGB</title>
<polygon fill="none" stroke="black" points="331,-497.5 331,-596.5 504,-596.5 504,-497.5 331,-497.5"/>
<text text-anchor="middle" x="417.5" y="-581.3" font-family="Times,serif" font-size="14.00">ToRGB</text>
<polyline fill="none" stroke="black" points="331,-573.5 504,-573.5 "/>
<text text-anchor="start" x="339" y="-558.3" font-family="Times,serif" font-size="14.00">bias</text>
<text text-anchor="start" x="339" y="-543.3" font-family="Times,serif" font-size="14.00">modulated_conv</text>
<text text-anchor="start" x="339" y="-528.3" font-family="Times,serif" font-size="14.00">upsample : NoneType</text>
<polyline fill="none" stroke="black" points="331,-520.5 504,-520.5 "/>
<text text-anchor="start" x="339" y="-505.3" font-family="Times,serif" font-size="14.00">forward(x, style, skip)</text>
</g>
<!-- basicsr.archs.stylegan2_arch.ModulatedConv2d&#45;&gt;basicsr.archs.stylegan2_arch.ToRGB -->
<g id="edge8" class="edge">
<title>basicsr.archs.stylegan2_arch.ModulatedConv2d&#45;&gt;basicsr.archs.stylegan2_arch.ToRGB</title>
<path fill="none" stroke="black" d="M501.86,-445.77C496.66,-451.93 491.51,-458.05 486.5,-464 479.95,-471.77 473.06,-479.96 466.26,-488.04"/>
<polygon fill="black" stroke="black" points="466.09,-488.25 465.28,-495.42 458.36,-497.43 459.16,-490.27 466.09,-488.25"/>
<text text-anchor="middle" x="544.5" y="-467.8" font-family="Times,serif" font-size="14.00" fill="green">modulated_conv</text>
</g>
<!-- basicsr.archs.stylegan2_arch.NormStyleCode -->
<g id="node6" class="node">
<title>basicsr.archs.stylegan2_arch.NormStyleCode</title>
<polygon fill="none" stroke="black" points="1058.5,-52.5 1058.5,-122.5 1188.5,-122.5 1188.5,-52.5 1058.5,-52.5"/>
<text text-anchor="middle" x="1123.5" y="-107.3" font-family="Times,serif" font-size="14.00">NormStyleCode</text>
<polyline fill="none" stroke="black" points="1058.5,-99.5 1188.5,-99.5 "/>
<polyline fill="none" stroke="black" points="1058.5,-75.5 1188.5,-75.5 "/>
<text text-anchor="start" x="1066.5" y="-60.3" font-family="Times,serif" font-size="14.00">forward(x)</text>
</g>
<!-- basicsr.archs.stylegan2_arch.ScaledLeakyReLU -->
<g id="node8" class="node">
<title>basicsr.archs.stylegan2_arch.ScaledLeakyReLU</title>
<polygon fill="none" stroke="black" points="1207,-53 1207,-122 1374,-122 1374,-53 1207,-53"/>
<text text-anchor="middle" x="1290.5" y="-106.8" font-family="Times,serif" font-size="14.00">ScaledLeakyReLU</text>
<polyline fill="none" stroke="black" points="1207,-99 1374,-99 "/>
<text text-anchor="start" x="1215" y="-83.8" font-family="Times,serif" font-size="14.00">negative_slope : float</text>
<polyline fill="none" stroke="black" points="1207,-76 1374,-76 "/>
<text text-anchor="start" x="1215" y="-60.8" font-family="Times,serif" font-size="14.00">forward(x)</text>
</g>
<!-- basicsr.archs.stylegan2_arch.StyleConv&#45;&gt;basicsr.archs.stylegan2_arch.StyleGAN2Generator -->
<g id="edge9" class="edge">
<title>basicsr.archs.stylegan2_arch.StyleConv&#45;&gt;basicsr.archs.stylegan2_arch.StyleGAN2Generator</title>
<path fill="none" stroke="black" d="M573.6,-596.65C563.13,-609.43 551.27,-623.89 538.88,-638.99"/>
<polygon fill="black" stroke="black" points="538.71,-639.2 538,-646.37 531.1,-648.47 531.81,-641.3 538.71,-639.2"/>
<text text-anchor="middle" x="598.5" y="-618.8" font-family="Times,serif" font-size="14.00" fill="green">style_conv1</text>
</g>
<!-- basicsr.archs.stylegan2_arch.ToRGB&#45;&gt;basicsr.archs.stylegan2_arch.StyleGAN2Generator -->
<g id="edge10" class="edge">
<title>basicsr.archs.stylegan2_arch.ToRGB&#45;&gt;basicsr.archs.stylegan2_arch.StyleGAN2Generator</title>
<path fill="none" stroke="black" d="M417.5,-596.65C417.5,-608.7 417.5,-622.26 417.5,-636.44"/>
<polygon fill="black" stroke="black" points="417.5,-636.47 421.5,-642.47 417.5,-648.47 413.5,-642.47 417.5,-636.47"/>
<text text-anchor="middle" x="445" y="-618.8" font-family="Times,serif" font-size="14.00" fill="green">to_rgb1</text>
</g>
<!-- basicsr.archs.stylegan2_arch.UpFirDnDownsample -->
<g id="node13" class="node">
<title>basicsr.archs.stylegan2_arch.UpFirDnDownsample</title>
<polygon fill="none" stroke="black" points="1392.5,-38 1392.5,-137 1562.5,-137 1562.5,-38 1392.5,-38"/>
<text text-anchor="middle" x="1477.5" y="-121.8" font-family="Times,serif" font-size="14.00">UpFirDnDownsample</text>
<polyline fill="none" stroke="black" points="1392.5,-114 1562.5,-114 "/>
<text text-anchor="start" x="1400.5" y="-98.8" font-family="Times,serif" font-size="14.00">factor : int</text>
<text text-anchor="start" x="1400.5" y="-83.8" font-family="Times,serif" font-size="14.00">kernel</text>
<text text-anchor="start" x="1400.5" y="-68.8" font-family="Times,serif" font-size="14.00">pad : tuple</text>
<polyline fill="none" stroke="black" points="1392.5,-61 1562.5,-61 "/>
<text text-anchor="start" x="1400.5" y="-45.8" font-family="Times,serif" font-size="14.00">forward(x)</text>
</g>
<!-- basicsr.archs.stylegan2_arch.UpFirDnSmooth -->
<g id="node14" class="node">
<title>basicsr.archs.stylegan2_arch.UpFirDnSmooth</title>
<polygon fill="none" stroke="black" points="575.5,-30.5 575.5,-144.5 763.5,-144.5 763.5,-30.5 575.5,-30.5"/>
<text text-anchor="middle" x="669.5" y="-129.3" font-family="Times,serif" font-size="14.00">UpFirDnSmooth</text>
<polyline fill="none" stroke="black" points="575.5,-121.5 763.5,-121.5 "/>
<text text-anchor="start" x="583.5" y="-106.3" font-family="Times,serif" font-size="14.00">downsample_factor : int</text>
<text text-anchor="start" x="583.5" y="-91.3" font-family="Times,serif" font-size="14.00">kernel</text>
<text text-anchor="start" x="583.5" y="-76.3" font-family="Times,serif" font-size="14.00">pad : tuple</text>
<text text-anchor="start" x="583.5" y="-61.3" font-family="Times,serif" font-size="14.00">upsample_factor : int</text>
<polyline fill="none" stroke="black" points="575.5,-53.5 763.5,-53.5 "/>
<text text-anchor="start" x="583.5" y="-38.3" font-family="Times,serif" font-size="14.00">forward(x)</text>
</g>
<!-- basicsr.archs.stylegan2_arch.UpFirDnSmooth&#45;&gt;basicsr.archs.stylegan2_arch.ModulatedConv2d -->
<g id="edge11" class="edge">
<title>basicsr.archs.stylegan2_arch.UpFirDnSmooth&#45;&gt;basicsr.archs.stylegan2_arch.ModulatedConv2d</title>
<path fill="none" stroke="black" d="M619.74,-144.68C609.43,-159.44 600.03,-176.01 594.5,-193 592.25,-199.92 590.5,-207.12 589.17,-214.47"/>
<polygon fill="black" stroke="black" points="589.15,-214.63 592.22,-221.16 587.37,-226.5 584.31,-219.97 589.15,-214.63"/>
<text text-anchor="middle" x="621" y="-196.8" font-family="Times,serif" font-size="14.00" fill="green">smooth</text>
</g>
<!-- basicsr.archs.stylegan2_arch.UpFirDnSmooth&#45;&gt;basicsr.archs.stylegan2_arch.ModulatedConv2d -->
<g id="edge12" class="edge">
<title>basicsr.archs.stylegan2_arch.UpFirDnSmooth&#45;&gt;basicsr.archs.stylegan2_arch.ModulatedConv2d</title>
<path fill="none" stroke="black" d="M661.77,-144.74C658.31,-164.92 653.6,-187.7 647.5,-208 646.81,-210.28 646.1,-212.57 645.36,-214.88"/>
<polygon fill="black" stroke="black" points="645.29,-215.08 647.18,-222.04 641.48,-226.46 639.59,-219.5 645.29,-215.08"/>
<text text-anchor="middle" x="678" y="-196.8" font-family="Times,serif" font-size="14.00" fill="green">smooth</text>
</g>
<!-- basicsr.archs.stylegan2_arch.UpFirDnUpsample -->
<g id="node15" class="node">
<title>basicsr.archs.stylegan2_arch.UpFirDnUpsample</title>
<polygon fill="none" stroke="black" points="306,-286.5 306,-385.5 457,-385.5 457,-286.5 306,-286.5"/>
<text text-anchor="middle" x="381.5" y="-370.3" font-family="Times,serif" font-size="14.00">UpFirDnUpsample</text>
<polyline fill="none" stroke="black" points="306,-362.5 457,-362.5 "/>
<text text-anchor="start" x="314" y="-347.3" font-family="Times,serif" font-size="14.00">factor : int</text>
<text text-anchor="start" x="314" y="-332.3" font-family="Times,serif" font-size="14.00">kernel</text>
<text text-anchor="start" x="314" y="-317.3" font-family="Times,serif" font-size="14.00">pad : tuple</text>
<polyline fill="none" stroke="black" points="306,-309.5 457,-309.5 "/>
<text text-anchor="start" x="314" y="-294.3" font-family="Times,serif" font-size="14.00">forward(x)</text>
</g>
<!-- basicsr.archs.stylegan2_arch.UpFirDnUpsample&#45;&gt;basicsr.archs.stylegan2_arch.ToRGB -->
<g id="edge13" class="edge">
<title>basicsr.archs.stylegan2_arch.UpFirDnUpsample&#45;&gt;basicsr.archs.stylegan2_arch.ToRGB</title>
<path fill="none" stroke="black" d="M376.24,-385.69C374.62,-413.43 374.93,-448.62 382.5,-479 383.07,-481.29 383.74,-483.59 384.48,-485.89"/>
<polygon fill="black" stroke="black" points="384.54,-486.05 390.39,-490.27 388.75,-497.29 382.9,-493.07 384.54,-486.05"/>
<text text-anchor="middle" x="417.5" y="-467.8" font-family="Times,serif" font-size="14.00" fill="green">upsample</text>
</g>
</g>
</svg>
