<?xml version="1.0" encoding="UTF-8" standalone="no"?>
<!DOCTYPE svg PUBLIC "-//W3C//DTD SVG 1.1//EN"
 "http://www.w3.org/Graphics/SVG/1.1/DTD/svg11.dtd">
<!-- Generated by graphviz version 2.50.0 (0)
 -->
<!-- Title: classes_basicsr.archs.stylegan2_bilinear_arch Pages: 1 -->
<svg width="1344pt" height="981pt"
 viewBox="0.00 0.00 1344.00 981.00" xmlns="http://www.w3.org/2000/svg" xmlns:xlink="http://www.w3.org/1999/xlink">
<g id="graph0" class="graph" transform="scale(1 1) rotate(0) translate(4 977)">
<title>classes_basicsr.archs.stylegan2_bilinear_arch</title>
<polygon fill="white" stroke="transparent" points="-4,4 -4,-977 1340,-977 1340,4 -4,4"/>
<!-- basicsr.archs.stylegan2_bilinear_arch.ConstantInput -->
<g id="node1" class="node">
<title>basicsr.archs.stylegan2_bilinear_arch.ConstantInput</title>
<polygon fill="none" stroke="black" points="185,-542.5 185,-611.5 308,-611.5 308,-542.5 185,-542.5"/>
<text text-anchor="middle" x="246.5" y="-596.3" font-family="Times,serif" font-size="14.00">ConstantInput</text>
<polyline fill="none" stroke="black" points="185,-588.5 308,-588.5 "/>
<text text-anchor="start" x="193" y="-573.3" font-family="Times,serif" font-size="14.00">weight</text>
<polyline fill="none" stroke="black" points="185,-565.5 308,-565.5 "/>
<text text-anchor="start" x="193" y="-550.3" font-family="Times,serif" font-size="14.00">forward(batch)</text>
</g>
<!-- basicsr.archs.stylegan2_bilinear_arch.StyleGAN2GeneratorBilinear -->
<g id="node10" class="node">
<title>basicsr.archs.stylegan2_bilinear_arch.StyleGAN2GeneratorBilinear</title>
<polygon fill="none" stroke="black" points="0,-693.5 0,-972.5 835,-972.5 835,-693.5 0,-693.5"/>
<text text-anchor="middle" x="417.5" y="-957.3" font-family="Times,serif" font-size="14.00">StyleGAN2GeneratorBilinear</text>
<polyline fill="none" stroke="black" points="0,-949.5 835,-949.5 "/>
<text text-anchor="start" x="8" y="-934.3" font-family="Times,serif" font-size="14.00">channels : dict</text>
<text text-anchor="start" x="8" y="-919.3" font-family="Times,serif" font-size="14.00">constant_input</text>
<text text-anchor="start" x="8" y="-904.3" font-family="Times,serif" font-size="14.00">log_size : int</text>
<text text-anchor="start" x="8" y="-889.3" font-family="Times,serif" font-size="14.00">noises</text>
<text text-anchor="start" x="8" y="-874.3" font-family="Times,serif" font-size="14.00">num_latent</text>
<text text-anchor="start" x="8" y="-859.3" font-family="Times,serif" font-size="14.00">num_layers</text>
<text text-anchor="start" x="8" y="-844.3" font-family="Times,serif" font-size="14.00">num_style_feat : int</text>
<text text-anchor="start" x="8" y="-829.3" font-family="Times,serif" font-size="14.00">style_conv1</text>
<text text-anchor="start" x="8" y="-814.3" font-family="Times,serif" font-size="14.00">style_convs</text>
<text text-anchor="start" x="8" y="-799.3" font-family="Times,serif" font-size="14.00">style_mlp</text>
<text text-anchor="start" x="8" y="-784.3" font-family="Times,serif" font-size="14.00">to_rgb1</text>
<text text-anchor="start" x="8" y="-769.3" font-family="Times,serif" font-size="14.00">to_rgbs</text>
<polyline fill="none" stroke="black" points="0,-761.5 835,-761.5 "/>
<text text-anchor="start" x="8" y="-746.3" font-family="Times,serif" font-size="14.00">forward(styles, input_is_latent, noise, randomize_noise, truncation, truncation_latent, inject_index, return_latents)</text>
<text text-anchor="start" x="8" y="-731.3" font-family="Times,serif" font-size="14.00">get_latent(x)</text>
<text text-anchor="start" x="8" y="-716.3" font-family="Times,serif" font-size="14.00">make_noise()</text>
<text text-anchor="start" x="8" y="-701.3" font-family="Times,serif" font-size="14.00">mean_latent(num_latent)</text>
</g>
<!-- basicsr.archs.stylegan2_bilinear_arch.ConstantInput&#45;&gt;basicsr.archs.stylegan2_bilinear_arch.StyleGAN2GeneratorBilinear -->
<g id="edge1" class="edge">
<title>basicsr.archs.stylegan2_bilinear_arch.ConstantInput&#45;&gt;basicsr.archs.stylegan2_bilinear_arch.StyleGAN2GeneratorBilinear</title>
<path fill="none" stroke="black" d="M267.26,-611.93C278.88,-630.67 293.74,-654.29 307.5,-675 309.29,-677.7 311.11,-680.42 312.95,-683.16"/>
<polygon fill="black" stroke="black" points="312.96,-683.19 319.63,-685.93 319.66,-693.14 312.99,-690.4 312.96,-683.19"/>
<text text-anchor="middle" x="360.5" y="-663.8" font-family="Times,serif" font-size="14.00" fill="green">constant_input</text>
</g>
<!-- basicsr.archs.stylegan2_bilinear_arch.ConvLayer -->
<g id="node2" class="node">
<title>basicsr.archs.stylegan2_bilinear_arch.ConvLayer</title>
<polygon fill="none" stroke="black" points="635,-38 635,-137 872,-137 872,-38 635,-38"/>
<text text-anchor="middle" x="753.5" y="-121.8" font-family="Times,serif" font-size="14.00">ConvLayer</text>
<polyline fill="none" stroke="black" points="635,-114 872,-114 "/>
<text text-anchor="start" x="643" y="-98.8" font-family="Times,serif" font-size="14.00">align_corners : bool, NoneType</text>
<text text-anchor="start" x="643" y="-83.8" font-family="Times,serif" font-size="14.00">interpolation_mode : str</text>
<text text-anchor="start" x="643" y="-68.8" font-family="Times,serif" font-size="14.00">padding</text>
<polyline fill="none" stroke="black" points="635,-61 872,-61 "/>
<text text-anchor="middle" x="753.5" y="-45.8" font-family="Times,serif" font-size="14.00"> </text>
</g>
<!-- basicsr.archs.stylegan2_bilinear_arch.ResBlock -->
<g id="node7" class="node">
<title>basicsr.archs.stylegan2_bilinear_arch.ResBlock</title>
<polygon fill="none" stroke="black" points="707.5,-294 707.5,-393 799.5,-393 799.5,-294 707.5,-294"/>
<text text-anchor="middle" x="753.5" y="-377.8" font-family="Times,serif" font-size="14.00">ResBlock</text>
<polyline fill="none" stroke="black" points="707.5,-370 799.5,-370 "/>
<text text-anchor="start" x="715.5" y="-354.8" font-family="Times,serif" font-size="14.00">conv1</text>
<text text-anchor="start" x="715.5" y="-339.8" font-family="Times,serif" font-size="14.00">conv2</text>
<text text-anchor="start" x="715.5" y="-324.8" font-family="Times,serif" font-size="14.00">skip</text>
<polyline fill="none" stroke="black" points="707.5,-317 799.5,-317 "/>
<text text-anchor="start" x="715.5" y="-301.8" font-family="Times,serif" font-size="14.00">forward(x)</text>
</g>
<!-- basicsr.archs.stylegan2_bilinear_arch.ConvLayer&#45;&gt;basicsr.archs.stylegan2_bilinear_arch.ResBlock -->
<g id="edge2" class="edge">
<title>basicsr.archs.stylegan2_bilinear_arch.ConvLayer&#45;&gt;basicsr.archs.stylegan2_bilinear_arch.ResBlock</title>
<path fill="none" stroke="black" d="M715.5,-137.09C704.57,-153.86 694.1,-173.38 688.5,-193 679.72,-223.75 691.35,-256.48 707.09,-283.46"/>
<polygon fill="black" stroke="black" points="707.22,-283.67 713.78,-286.67 713.54,-293.88 706.98,-290.88 707.22,-283.67"/>
<text text-anchor="middle" x="710" y="-196.8" font-family="Times,serif" font-size="14.00" fill="green">conv1</text>
</g>
<!-- basicsr.archs.stylegan2_bilinear_arch.ConvLayer&#45;&gt;basicsr.archs.stylegan2_bilinear_arch.ResBlock -->
<g id="edge3" class="edge">
<title>basicsr.archs.stylegan2_bilinear_arch.ConvLayer&#45;&gt;basicsr.archs.stylegan2_bilinear_arch.ResBlock</title>
<path fill="none" stroke="black" d="M753.5,-137.17C753.5,-178.39 753.5,-237.65 753.5,-281.93"/>
<polygon fill="black" stroke="black" points="753.5,-281.99 757.5,-287.99 753.5,-293.99 749.5,-287.99 753.5,-281.99"/>
<text text-anchor="middle" x="775" y="-196.8" font-family="Times,serif" font-size="14.00" fill="green">conv2</text>
</g>
<!-- basicsr.archs.stylegan2_bilinear_arch.ConvLayer&#45;&gt;basicsr.archs.stylegan2_bilinear_arch.ResBlock -->
<g id="edge4" class="edge">
<title>basicsr.archs.stylegan2_bilinear_arch.ConvLayer&#45;&gt;basicsr.archs.stylegan2_bilinear_arch.ResBlock</title>
<path fill="none" stroke="black" d="M778.73,-137.17C786.34,-154.34 793.68,-174.09 797.5,-193 803.55,-222.93 795.71,-255.54 785.05,-282.63"/>
<polygon fill="black" stroke="black" points="784.97,-282.81 786.35,-289.89 780.34,-293.88 778.97,-286.81 784.97,-282.81"/>
<text text-anchor="middle" x="813.5" y="-196.8" font-family="Times,serif" font-size="14.00" fill="green">skip</text>
</g>
<!-- basicsr.archs.stylegan2_bilinear_arch.EqualConv2d -->
<g id="node3" class="node">
<title>basicsr.archs.stylegan2_bilinear_arch.EqualConv2d</title>
<polygon fill="none" stroke="black" points="890.5,-0.5 890.5,-174.5 1002.5,-174.5 1002.5,-0.5 890.5,-0.5"/>
<text text-anchor="middle" x="946.5" y="-159.3" font-family="Times,serif" font-size="14.00">EqualConv2d</text>
<polyline fill="none" stroke="black" points="890.5,-151.5 1002.5,-151.5 "/>
<text text-anchor="start" x="898.5" y="-136.3" font-family="Times,serif" font-size="14.00">bias</text>
<text text-anchor="start" x="898.5" y="-121.3" font-family="Times,serif" font-size="14.00">in_channels</text>
<text text-anchor="start" x="898.5" y="-106.3" font-family="Times,serif" font-size="14.00">kernel_size</text>
<text text-anchor="start" x="898.5" y="-91.3" font-family="Times,serif" font-size="14.00">out_channels</text>
<text text-anchor="start" x="898.5" y="-76.3" font-family="Times,serif" font-size="14.00">padding : int</text>
<text text-anchor="start" x="898.5" y="-61.3" font-family="Times,serif" font-size="14.00">scale</text>
<text text-anchor="start" x="898.5" y="-46.3" font-family="Times,serif" font-size="14.00">stride : int</text>
<text text-anchor="start" x="898.5" y="-31.3" font-family="Times,serif" font-size="14.00">weight</text>
<polyline fill="none" stroke="black" points="890.5,-23.5 1002.5,-23.5 "/>
<text text-anchor="start" x="898.5" y="-8.3" font-family="Times,serif" font-size="14.00">forward(x)</text>
</g>
<!-- basicsr.archs.stylegan2_bilinear_arch.EqualLinear -->
<g id="node4" class="node">
<title>basicsr.archs.stylegan2_bilinear_arch.EqualLinear</title>
<polygon fill="none" stroke="black" points="444,-8 444,-167 617,-167 617,-8 444,-8"/>
<text text-anchor="middle" x="530.5" y="-151.8" font-family="Times,serif" font-size="14.00">EqualLinear</text>
<polyline fill="none" stroke="black" points="444,-144 617,-144 "/>
<text text-anchor="start" x="452" y="-128.8" font-family="Times,serif" font-size="14.00">activation : NoneType</text>
<text text-anchor="start" x="452" y="-113.8" font-family="Times,serif" font-size="14.00">bias</text>
<text text-anchor="start" x="452" y="-98.8" font-family="Times,serif" font-size="14.00">in_channels</text>
<text text-anchor="start" x="452" y="-83.8" font-family="Times,serif" font-size="14.00">lr_mul : int</text>
<text text-anchor="start" x="452" y="-68.8" font-family="Times,serif" font-size="14.00">out_channels</text>
<text text-anchor="start" x="452" y="-53.8" font-family="Times,serif" font-size="14.00">scale</text>
<text text-anchor="start" x="452" y="-38.8" font-family="Times,serif" font-size="14.00">weight</text>
<polyline fill="none" stroke="black" points="444,-31 617,-31 "/>
<text text-anchor="start" x="452" y="-15.8" font-family="Times,serif" font-size="14.00">forward(x)</text>
</g>
<!-- basicsr.archs.stylegan2_bilinear_arch.ModulatedConv2d -->
<g id="node5" class="node">
<title>basicsr.archs.stylegan2_bilinear_arch.ModulatedConv2d</title>
<polygon fill="none" stroke="black" points="412,-226.5 412,-460.5 649,-460.5 649,-226.5 412,-226.5"/>
<text text-anchor="middle" x="530.5" y="-445.3" font-family="Times,serif" font-size="14.00">ModulatedConv2d</text>
<polyline fill="none" stroke="black" points="412,-437.5 649,-437.5 "/>
<text text-anchor="start" x="420" y="-422.3" font-family="Times,serif" font-size="14.00">align_corners : bool, NoneType</text>
<text text-anchor="start" x="420" y="-407.3" font-family="Times,serif" font-size="14.00">demodulate : bool</text>
<text text-anchor="start" x="420" y="-392.3" font-family="Times,serif" font-size="14.00">eps : float</text>
<text text-anchor="start" x="420" y="-377.3" font-family="Times,serif" font-size="14.00">in_channels</text>
<text text-anchor="start" x="420" y="-362.3" font-family="Times,serif" font-size="14.00">interpolation_mode : str</text>
<text text-anchor="start" x="420" y="-347.3" font-family="Times,serif" font-size="14.00">kernel_size</text>
<text text-anchor="start" x="420" y="-332.3" font-family="Times,serif" font-size="14.00">modulation</text>
<text text-anchor="start" x="420" y="-317.3" font-family="Times,serif" font-size="14.00">out_channels</text>
<text text-anchor="start" x="420" y="-302.3" font-family="Times,serif" font-size="14.00">padding</text>
<text text-anchor="start" x="420" y="-287.3" font-family="Times,serif" font-size="14.00">sample_mode : NoneType</text>
<text text-anchor="start" x="420" y="-272.3" font-family="Times,serif" font-size="14.00">scale</text>
<text text-anchor="start" x="420" y="-257.3" font-family="Times,serif" font-size="14.00">weight</text>
<polyline fill="none" stroke="black" points="412,-249.5 649,-249.5 "/>
<text text-anchor="start" x="420" y="-234.3" font-family="Times,serif" font-size="14.00">forward(x, style)</text>
</g>
<!-- basicsr.archs.stylegan2_bilinear_arch.EqualLinear&#45;&gt;basicsr.archs.stylegan2_bilinear_arch.ModulatedConv2d -->
<g id="edge5" class="edge">
<title>basicsr.archs.stylegan2_bilinear_arch.EqualLinear&#45;&gt;basicsr.archs.stylegan2_bilinear_arch.ModulatedConv2d</title>
<path fill="none" stroke="black" d="M530.5,-167.13C530.5,-182.1 530.5,-198.14 530.5,-214.2"/>
<polygon fill="black" stroke="black" points="530.5,-214.47 534.5,-220.47 530.5,-226.47 526.5,-220.47 530.5,-214.47"/>
<text text-anchor="middle" x="571" y="-196.8" font-family="Times,serif" font-size="14.00" fill="green">modulation</text>
</g>
<!-- basicsr.archs.stylegan2_bilinear_arch.StyleConv -->
<g id="node9" class="node">
<title>basicsr.archs.stylegan2_bilinear_arch.StyleConv</title>
<polygon fill="none" stroke="black" points="326.5,-527.5 326.5,-626.5 508.5,-626.5 508.5,-527.5 326.5,-527.5"/>
<text text-anchor="middle" x="417.5" y="-611.3" font-family="Times,serif" font-size="14.00">StyleConv</text>
<polyline fill="none" stroke="black" points="326.5,-603.5 508.5,-603.5 "/>
<text text-anchor="start" x="334.5" y="-588.3" font-family="Times,serif" font-size="14.00">activate</text>
<text text-anchor="start" x="334.5" y="-573.3" font-family="Times,serif" font-size="14.00">modulated_conv</text>
<text text-anchor="start" x="334.5" y="-558.3" font-family="Times,serif" font-size="14.00">weight</text>
<polyline fill="none" stroke="black" points="326.5,-550.5 508.5,-550.5 "/>
<text text-anchor="start" x="334.5" y="-535.3" font-family="Times,serif" font-size="14.00">forward(x, style, noise)</text>
</g>
<!-- basicsr.archs.stylegan2_bilinear_arch.ModulatedConv2d&#45;&gt;basicsr.archs.stylegan2_bilinear_arch.StyleConv -->
<g id="edge6" class="edge">
<title>basicsr.archs.stylegan2_bilinear_arch.ModulatedConv2d&#45;&gt;basicsr.archs.stylegan2_bilinear_arch.StyleConv</title>
<path fill="none" stroke="black" d="M473.83,-460.59C464.39,-479.93 454.96,-499.26 446.58,-516.42"/>
<polygon fill="black" stroke="black" points="446.51,-516.57 447.47,-523.72 441.24,-527.35 440.28,-520.21 446.51,-516.57"/>
<text text-anchor="middle" x="522.5" y="-482.8" font-family="Times,serif" font-size="14.00" fill="green">modulated_conv</text>
</g>
<!-- basicsr.archs.stylegan2_bilinear_arch.ToRGB -->
<g id="node11" class="node">
<title>basicsr.archs.stylegan2_bilinear_arch.ToRGB</title>
<polygon fill="none" stroke="black" points="527,-512.5 527,-641.5 764,-641.5 764,-512.5 527,-512.5"/>
<text text-anchor="middle" x="645.5" y="-626.3" font-family="Times,serif" font-size="14.00">ToRGB</text>
<polyline fill="none" stroke="black" points="527,-618.5 764,-618.5 "/>
<text text-anchor="start" x="535" y="-603.3" font-family="Times,serif" font-size="14.00">align_corners : bool, NoneType</text>
<text text-anchor="start" x="535" y="-588.3" font-family="Times,serif" font-size="14.00">bias</text>
<text text-anchor="start" x="535" y="-573.3" font-family="Times,serif" font-size="14.00">interpolation_mode : str</text>
<text text-anchor="start" x="535" y="-558.3" font-family="Times,serif" font-size="14.00">modulated_conv</text>
<text text-anchor="start" x="535" y="-543.3" font-family="Times,serif" font-size="14.00">upsample : bool</text>
<polyline fill="none" stroke="black" points="527,-535.5 764,-535.5 "/>
<text text-anchor="start" x="535" y="-520.3" font-family="Times,serif" font-size="14.00">forward(x, style, skip)</text>
</g>
<!-- basicsr.archs.stylegan2_bilinear_arch.ModulatedConv2d&#45;&gt;basicsr.archs.stylegan2_bilinear_arch.ToRGB -->
<g id="edge7" class="edge">
<title>basicsr.archs.stylegan2_bilinear_arch.ModulatedConv2d&#45;&gt;basicsr.archs.stylegan2_bilinear_arch.ToRGB</title>
<path fill="none" stroke="black" d="M588.17,-460.59C595.09,-474.51 602,-488.43 608.51,-501.54"/>
<polygon fill="black" stroke="black" points="608.54,-501.59 614.79,-505.19 613.88,-512.34 607.62,-508.75 608.54,-501.59"/>
<text text-anchor="middle" x="660.5" y="-482.8" font-family="Times,serif" font-size="14.00" fill="green">modulated_conv</text>
</g>
<!-- basicsr.archs.stylegan2_bilinear_arch.NormStyleCode -->
<g id="node6" class="node">
<title>basicsr.archs.stylegan2_bilinear_arch.NormStyleCode</title>
<polygon fill="none" stroke="black" points="1020.5,-52.5 1020.5,-122.5 1150.5,-122.5 1150.5,-52.5 1020.5,-52.5"/>
<text text-anchor="middle" x="1085.5" y="-107.3" font-family="Times,serif" font-size="14.00">NormStyleCode</text>
<polyline fill="none" stroke="black" points="1020.5,-99.5 1150.5,-99.5 "/>
<polyline fill="none" stroke="black" points="1020.5,-75.5 1150.5,-75.5 "/>
<text text-anchor="start" x="1028.5" y="-60.3" font-family="Times,serif" font-size="14.00">forward(x)</text>
</g>
<!-- basicsr.archs.stylegan2_bilinear_arch.ScaledLeakyReLU -->
<g id="node8" class="node">
<title>basicsr.archs.stylegan2_bilinear_arch.ScaledLeakyReLU</title>
<polygon fill="none" stroke="black" points="1169,-53 1169,-122 1336,-122 1336,-53 1169,-53"/>
<text text-anchor="middle" x="1252.5" y="-106.8" font-family="Times,serif" font-size="14.00">ScaledLeakyReLU</text>
<polyline fill="none" stroke="black" points="1169,-99 1336,-99 "/>
<text text-anchor="start" x="1177" y="-83.8" font-family="Times,serif" font-size="14.00">negative_slope : float</text>
<polyline fill="none" stroke="black" points="1169,-76 1336,-76 "/>
<text text-anchor="start" x="1177" y="-60.8" font-family="Times,serif" font-size="14.00">forward(x)</text>
</g>
<!-- basicsr.archs.stylegan2_bilinear_arch.StyleConv&#45;&gt;basicsr.archs.stylegan2_bilinear_arch.StyleGAN2GeneratorBilinear -->
<g id="edge8" class="edge">
<title>basicsr.archs.stylegan2_bilinear_arch.StyleConv&#45;&gt;basicsr.archs.stylegan2_bilinear_arch.StyleGAN2GeneratorBilinear</title>
<path fill="none" stroke="black" d="M417.5,-626.67C417.5,-642.72 417.5,-661.5 417.5,-681.07"/>
<polygon fill="black" stroke="black" points="417.5,-681.33 421.5,-687.33 417.5,-693.33 413.5,-687.33 417.5,-681.33"/>
<text text-anchor="middle" x="459.5" y="-663.8" font-family="Times,serif" font-size="14.00" fill="green">style_conv1</text>
</g>
<!-- basicsr.archs.stylegan2_bilinear_arch.ToRGB&#45;&gt;basicsr.archs.stylegan2_bilinear_arch.StyleGAN2GeneratorBilinear -->
<g id="edge9" class="edge">
<title>basicsr.archs.stylegan2_bilinear_arch.ToRGB&#45;&gt;basicsr.archs.stylegan2_bilinear_arch.StyleGAN2GeneratorBilinear</title>
<path fill="none" stroke="black" d="M588.26,-641.77C576.46,-654.91 563.58,-669.27 550.34,-684.01"/>
<polygon fill="black" stroke="black" points="550.08,-684.3 549.05,-691.44 542.06,-693.23 543.09,-686.1 550.08,-684.3"/>
<text text-anchor="middle" x="600" y="-663.8" font-family="Times,serif" font-size="14.00" fill="green">to_rgb1</text>
</g>
</g>
</svg>
