<?xml version="1.0" encoding="UTF-8" standalone="no"?>
<!DOCTYPE svg PUBLIC "-//W3C//DTD SVG 1.1//EN"
 "http://www.w3.org/Graphics/SVG/1.1/DTD/svg11.dtd">
<!-- Generated by graphviz version 2.50.0 (0)
 -->
<!-- Title: classes_basicsr.archs.inception Pages: 1 -->
<svg width="825pt" height="168pt"
 viewBox="0.00 0.00 825.00 168.00" xmlns="http://www.w3.org/2000/svg" xmlns:xlink="http://www.w3.org/1999/xlink">
<g id="graph0" class="graph" transform="scale(1 1) rotate(0) translate(4 164)">
<title>classes_basicsr.archs.inception</title>
<polygon fill="white" stroke="transparent" points="-4,4 -4,-164 821,-164 821,4 -4,4"/>
<!-- basicsr.archs.inception.FIDInceptionA -->
<g id="node1" class="node">
<title>basicsr.archs.inception.FIDInceptionA</title>
<polygon fill="none" stroke="black" points="0,-45 0,-115 119,-115 119,-45 0,-45"/>
<text text-anchor="middle" x="59.5" y="-99.8" font-family="Times,serif" font-size="14.00">FIDInceptionA</text>
<polyline fill="none" stroke="black" points="0,-92 119,-92 "/>
<polyline fill="none" stroke="black" points="0,-68 119,-68 "/>
<text text-anchor="start" x="8" y="-52.8" font-family="Times,serif" font-size="14.00">forward(x)</text>
</g>
<!-- basicsr.archs.inception.FIDInceptionC -->
<g id="node2" class="node">
<title>basicsr.archs.inception.FIDInceptionC</title>
<polygon fill="none" stroke="black" points="137.5,-45 137.5,-115 257.5,-115 257.5,-45 137.5,-45"/>
<text text-anchor="middle" x="197.5" y="-99.8" font-family="Times,serif" font-size="14.00">FIDInceptionC</text>
<polyline fill="none" stroke="black" points="137.5,-92 257.5,-92 "/>
<polyline fill="none" stroke="black" points="137.5,-68 257.5,-68 "/>
<text text-anchor="start" x="145.5" y="-52.8" font-family="Times,serif" font-size="14.00">forward(x)</text>
</g>
<!-- basicsr.archs.inception.FIDInceptionE_1 -->
<g id="node3" class="node">
<title>basicsr.archs.inception.FIDInceptionE_1</title>
<polygon fill="none" stroke="black" points="275.5,-45 275.5,-115 411.5,-115 411.5,-45 275.5,-45"/>
<text text-anchor="middle" x="343.5" y="-99.8" font-family="Times,serif" font-size="14.00">FIDInceptionE_1</text>
<polyline fill="none" stroke="black" points="275.5,-92 411.5,-92 "/>
<polyline fill="none" stroke="black" points="275.5,-68 411.5,-68 "/>
<text text-anchor="start" x="283.5" y="-52.8" font-family="Times,serif" font-size="14.00">forward(x)</text>
</g>
<!-- basicsr.archs.inception.FIDInceptionE_2 -->
<g id="node4" class="node">
<title>basicsr.archs.inception.FIDInceptionE_2</title>
<polygon fill="none" stroke="black" points="429.5,-45 429.5,-115 565.5,-115 565.5,-45 429.5,-45"/>
<text text-anchor="middle" x="497.5" y="-99.8" font-family="Times,serif" font-size="14.00">FIDInceptionE_2</text>
<polyline fill="none" stroke="black" points="429.5,-92 565.5,-92 "/>
<polyline fill="none" stroke="black" points="429.5,-68 565.5,-68 "/>
<text text-anchor="start" x="437.5" y="-52.8" font-family="Times,serif" font-size="14.00">forward(x)</text>
</g>
<!-- basicsr.archs.inception.InceptionV3 -->
<g id="node5" class="node">
<title>basicsr.archs.inception.InceptionV3</title>
<polygon fill="none" stroke="black" points="584,-0.5 584,-159.5 817,-159.5 817,-0.5 584,-0.5"/>
<text text-anchor="middle" x="700.5" y="-144.3" font-family="Times,serif" font-size="14.00">InceptionV3</text>
<polyline fill="none" stroke="black" points="584,-136.5 817,-136.5 "/>
<text text-anchor="start" x="592" y="-121.3" font-family="Times,serif" font-size="14.00">BLOCK_INDEX_BY_DIM : dict</text>
<text text-anchor="start" x="592" y="-106.3" font-family="Times,serif" font-size="14.00">DEFAULT_BLOCK_INDEX : int</text>
<text text-anchor="start" x="592" y="-91.3" font-family="Times,serif" font-size="14.00">blocks</text>
<text text-anchor="start" x="592" y="-76.3" font-family="Times,serif" font-size="14.00">last_needed_block</text>
<text text-anchor="start" x="592" y="-61.3" font-family="Times,serif" font-size="14.00">normalize_input : bool</text>
<text text-anchor="start" x="592" y="-46.3" font-family="Times,serif" font-size="14.00">output_blocks</text>
<text text-anchor="start" x="592" y="-31.3" font-family="Times,serif" font-size="14.00">resize_input : bool</text>
<polyline fill="none" stroke="black" points="584,-23.5 817,-23.5 "/>
<text text-anchor="start" x="592" y="-8.3" font-family="Times,serif" font-size="14.00">forward(x)</text>
</g>
</g>
</svg>
