<?xml version="1.0" encoding="UTF-8" standalone="no"?>
<!DOCTYPE svg PUBLIC "-//W3C//DTD SVG 1.1//EN"
 "http://www.w3.org/Graphics/SVG/1.1/DTD/svg11.dtd">
<!-- Generated by graphviz version 2.50.0 (0)
 -->
<!-- Title: classes_basicsr.archs.rrdbnet_arch Pages: 1 -->
<svg width="280pt" height="349pt"
 viewBox="0.00 0.00 279.50 349.00" xmlns="http://www.w3.org/2000/svg" xmlns:xlink="http://www.w3.org/1999/xlink">
<g id="graph0" class="graph" transform="scale(1 1) rotate(0) translate(4 345)">
<title>classes_basicsr.archs.rrdbnet_arch</title>
<polygon fill="white" stroke="transparent" points="-4,4 -4,-345 275.5,-345 275.5,4 -4,4"/>
<!-- basicsr.archs.rrdbnet_arch.RRDB -->
<g id="node1" class="node">
<title>basicsr.archs.rrdbnet_arch.RRDB</title>
<polygon fill="none" stroke="black" points="34.5,-241.5 34.5,-340.5 126.5,-340.5 126.5,-241.5 34.5,-241.5"/>
<text text-anchor="middle" x="80.5" y="-325.3" font-family="Times,serif" font-size="14.00">RRDB</text>
<polyline fill="none" stroke="black" points="34.5,-317.5 126.5,-317.5 "/>
<text text-anchor="start" x="42.5" y="-302.3" font-family="Times,serif" font-size="14.00">rdb1</text>
<text text-anchor="start" x="42.5" y="-287.3" font-family="Times,serif" font-size="14.00">rdb2</text>
<text text-anchor="start" x="42.5" y="-272.3" font-family="Times,serif" font-size="14.00">rdb3</text>
<polyline fill="none" stroke="black" points="34.5,-264.5 126.5,-264.5 "/>
<text text-anchor="start" x="42.5" y="-249.3" font-family="Times,serif" font-size="14.00">forward(x)</text>
</g>
<!-- basicsr.archs.rrdbnet_arch.RRDBNet -->
<g id="node2" class="node">
<title>basicsr.archs.rrdbnet_arch.RRDBNet</title>
<polygon fill="none" stroke="black" points="179.5,-0.5 179.5,-189.5 271.5,-189.5 271.5,-0.5 179.5,-0.5"/>
<text text-anchor="middle" x="225.5" y="-174.3" font-family="Times,serif" font-size="14.00">RRDBNet</text>
<polyline fill="none" stroke="black" points="179.5,-166.5 271.5,-166.5 "/>
<text text-anchor="start" x="187.5" y="-151.3" font-family="Times,serif" font-size="14.00">body</text>
<text text-anchor="start" x="187.5" y="-136.3" font-family="Times,serif" font-size="14.00">conv_body</text>
<text text-anchor="start" x="187.5" y="-121.3" font-family="Times,serif" font-size="14.00">conv_first</text>
<text text-anchor="start" x="187.5" y="-106.3" font-family="Times,serif" font-size="14.00">conv_hr</text>
<text text-anchor="start" x="187.5" y="-91.3" font-family="Times,serif" font-size="14.00">conv_last</text>
<text text-anchor="start" x="187.5" y="-76.3" font-family="Times,serif" font-size="14.00">conv_up1</text>
<text text-anchor="start" x="187.5" y="-61.3" font-family="Times,serif" font-size="14.00">conv_up2</text>
<text text-anchor="start" x="187.5" y="-46.3" font-family="Times,serif" font-size="14.00">lrelu</text>
<text text-anchor="start" x="187.5" y="-31.3" font-family="Times,serif" font-size="14.00">scale : int</text>
<polyline fill="none" stroke="black" points="179.5,-23.5 271.5,-23.5 "/>
<text text-anchor="start" x="187.5" y="-8.3" font-family="Times,serif" font-size="14.00">forward(x)</text>
</g>
<!-- basicsr.archs.rrdbnet_arch.ResidualDenseBlock -->
<g id="node3" class="node">
<title>basicsr.archs.rrdbnet_arch.ResidualDenseBlock</title>
<polygon fill="none" stroke="black" points="0,-23 0,-167 161,-167 161,-23 0,-23"/>
<text text-anchor="middle" x="80.5" y="-151.8" font-family="Times,serif" font-size="14.00">ResidualDenseBlock</text>
<polyline fill="none" stroke="black" points="0,-144 161,-144 "/>
<text text-anchor="start" x="8" y="-128.8" font-family="Times,serif" font-size="14.00">conv1</text>
<text text-anchor="start" x="8" y="-113.8" font-family="Times,serif" font-size="14.00">conv2</text>
<text text-anchor="start" x="8" y="-98.8" font-family="Times,serif" font-size="14.00">conv3</text>
<text text-anchor="start" x="8" y="-83.8" font-family="Times,serif" font-size="14.00">conv4</text>
<text text-anchor="start" x="8" y="-68.8" font-family="Times,serif" font-size="14.00">conv5</text>
<text text-anchor="start" x="8" y="-53.8" font-family="Times,serif" font-size="14.00">lrelu</text>
<polyline fill="none" stroke="black" points="0,-46 161,-46 "/>
<text text-anchor="start" x="8" y="-30.8" font-family="Times,serif" font-size="14.00">forward(x)</text>
</g>
<!-- basicsr.archs.rrdbnet_arch.ResidualDenseBlock&#45;&gt;basicsr.archs.rrdbnet_arch.RRDB -->
<g id="edge1" class="edge">
<title>basicsr.archs.rrdbnet_arch.ResidualDenseBlock&#45;&gt;basicsr.archs.rrdbnet_arch.RRDB</title>
<path fill="none" stroke="black" d="M28.44,-167.18C21,-185.2 17.84,-204.65 24.5,-223 25.56,-225.93 26.82,-228.82 28.22,-231.66"/>
<polygon fill="black" stroke="black" points="28.37,-231.92 34.82,-235.14 34.33,-242.34 27.88,-239.12 28.37,-231.92"/>
<text text-anchor="middle" x="41.5" y="-211.8" font-family="Times,serif" font-size="14.00" fill="green">rdb1</text>
</g>
<!-- basicsr.archs.rrdbnet_arch.ResidualDenseBlock&#45;&gt;basicsr.archs.rrdbnet_arch.RRDB -->
<g id="edge2" class="edge">
<title>basicsr.archs.rrdbnet_arch.ResidualDenseBlock&#45;&gt;basicsr.archs.rrdbnet_arch.RRDB</title>
<path fill="none" stroke="black" d="M80.5,-167.14C80.5,-187.46 80.5,-209.41 80.5,-229.07"/>
<polygon fill="black" stroke="black" points="80.5,-229.29 84.5,-235.29 80.5,-241.29 76.5,-235.29 80.5,-229.29"/>
<text text-anchor="middle" x="97.5" y="-211.8" font-family="Times,serif" font-size="14.00" fill="green">rdb2</text>
</g>
<!-- basicsr.archs.rrdbnet_arch.ResidualDenseBlock&#45;&gt;basicsr.archs.rrdbnet_arch.RRDB -->
<g id="edge3" class="edge">
<title>basicsr.archs.rrdbnet_arch.ResidualDenseBlock&#45;&gt;basicsr.archs.rrdbnet_arch.RRDB</title>
<path fill="none" stroke="black" d="M113.22,-167.01C117.99,-185.21 119.97,-204.79 115.5,-223 114.94,-225.29 114.28,-227.6 113.55,-229.9"/>
<polygon fill="black" stroke="black" points="113.49,-230.05 115.14,-237.07 109.3,-241.3 107.64,-234.28 113.49,-230.05"/>
<text text-anchor="middle" x="134.5" y="-211.8" font-family="Times,serif" font-size="14.00" fill="green">rdb3</text>
</g>
</g>
</svg>
