<?xml version="1.0" encoding="UTF-8" standalone="no"?>
<!DOCTYPE svg PUBLIC "-//W3C//DTD SVG 1.1//EN"
 "http://www.w3.org/Graphics/SVG/1.1/DTD/svg11.dtd">
<!-- Generated by graphviz version 2.50.0 (0)
 -->
<!-- Title: classes_basicsr.archs.dfdnet_util Pages: 1 -->
<svg width="1010pt" height="94pt"
 viewBox="0.00 0.00 1009.50 94.00" xmlns="http://www.w3.org/2000/svg" xmlns:xlink="http://www.w3.org/1999/xlink">
<g id="graph0" class="graph" transform="scale(1 1) rotate(0) translate(4 90)">
<title>classes_basicsr.archs.dfdnet_util</title>
<polygon fill="white" stroke="transparent" points="-4,4 -4,-90 1005.5,-90 1005.5,4 -4,4"/>
<!-- basicsr.archs.dfdnet_util.Blur -->
<g id="node1" class="node">
<title>basicsr.archs.dfdnet_util.Blur</title>
<polygon fill="none" stroke="black" points="0,-1 0,-85 92,-85 92,-1 0,-1"/>
<text text-anchor="middle" x="46" y="-69.8" font-family="Times,serif" font-size="14.00">Blur</text>
<polyline fill="none" stroke="black" points="0,-62 92,-62 "/>
<text text-anchor="start" x="8" y="-46.8" font-family="Times,serif" font-size="14.00">kernel</text>
<text text-anchor="start" x="8" y="-31.8" font-family="Times,serif" font-size="14.00">kernel_flip</text>
<polyline fill="none" stroke="black" points="0,-24 92,-24 "/>
<text text-anchor="start" x="8" y="-8.8" font-family="Times,serif" font-size="14.00">forward(x)</text>
</g>
<!-- basicsr.archs.dfdnet_util.BlurFunction -->
<g id="node2" class="node">
<title>basicsr.archs.dfdnet_util.BlurFunction</title>
<polygon fill="none" stroke="black" points="110,-0.5 110,-85.5 370,-85.5 370,-0.5 110,-0.5"/>
<text text-anchor="middle" x="240" y="-70.3" font-family="Times,serif" font-size="14.00">BlurFunction</text>
<polyline fill="none" stroke="black" points="110,-62.5 370,-62.5 "/>
<polyline fill="none" stroke="black" points="110,-38.5 370,-38.5 "/>
<text text-anchor="start" x="118" y="-23.3" font-family="Times,serif" font-size="14.00">backward(ctx, grad_output)</text>
<text text-anchor="start" x="118" y="-8.3" font-family="Times,serif" font-size="14.00">forward(ctx, x, kernel, kernel_flip)</text>
</g>
<!-- basicsr.archs.dfdnet_util.BlurFunctionBackward -->
<g id="node3" class="node">
<title>basicsr.archs.dfdnet_util.BlurFunctionBackward</title>
<polygon fill="none" stroke="black" points="388,-0.5 388,-85.5 726,-85.5 726,-0.5 388,-0.5"/>
<text text-anchor="middle" x="557" y="-70.3" font-family="Times,serif" font-size="14.00">BlurFunctionBackward</text>
<polyline fill="none" stroke="black" points="388,-62.5 726,-62.5 "/>
<polyline fill="none" stroke="black" points="388,-38.5 726,-38.5 "/>
<text text-anchor="start" x="396" y="-23.3" font-family="Times,serif" font-size="14.00">backward(ctx, gradgrad_output)</text>
<text text-anchor="start" x="396" y="-8.3" font-family="Times,serif" font-size="14.00">forward(ctx, grad_output, kernel, kernel_flip)</text>
</g>
<!-- basicsr.archs.dfdnet_util.MSDilationBlock -->
<g id="node4" class="node">
<title>basicsr.archs.dfdnet_util.MSDilationBlock</title>
<polygon fill="none" stroke="black" points="744,-1 744,-85 880,-85 880,-1 744,-1"/>
<text text-anchor="middle" x="812" y="-69.8" font-family="Times,serif" font-size="14.00">MSDilationBlock</text>
<polyline fill="none" stroke="black" points="744,-62 880,-62 "/>
<text text-anchor="start" x="752" y="-46.8" font-family="Times,serif" font-size="14.00">conv_blocks</text>
<text text-anchor="start" x="752" y="-31.8" font-family="Times,serif" font-size="14.00">conv_fusion</text>
<polyline fill="none" stroke="black" points="744,-24 880,-24 "/>
<text text-anchor="start" x="752" y="-8.8" font-family="Times,serif" font-size="14.00">forward(x)</text>
</g>
<!-- basicsr.archs.dfdnet_util.UpResBlock -->
<g id="node5" class="node">
<title>basicsr.archs.dfdnet_util.UpResBlock</title>
<polygon fill="none" stroke="black" points="898.5,-8.5 898.5,-77.5 1001.5,-77.5 1001.5,-8.5 898.5,-8.5"/>
<text text-anchor="middle" x="950" y="-62.3" font-family="Times,serif" font-size="14.00">UpResBlock</text>
<polyline fill="none" stroke="black" points="898.5,-54.5 1001.5,-54.5 "/>
<text text-anchor="start" x="906.5" y="-39.3" font-family="Times,serif" font-size="14.00">body</text>
<polyline fill="none" stroke="black" points="898.5,-31.5 1001.5,-31.5 "/>
<text text-anchor="start" x="906.5" y="-16.3" font-family="Times,serif" font-size="14.00">forward(x)</text>
</g>
</g>
</svg>
