<?xml version="1.0" encoding="UTF-8" standalone="no"?>
<!DOCTYPE svg PUBLIC "-//W3C//DTD SVG 1.1//EN"
 "http://www.w3.org/Graphics/SVG/1.1/DTD/svg11.dtd">
<!-- Generated by graphviz version 2.50.0 (0)
 -->
<!-- Title: classes_basicsr.archs.hifacegan_arch Pages: 1 -->
<svg width="684pt" height="424pt"
 viewBox="0.00 0.00 684.00 424.00" xmlns="http://www.w3.org/2000/svg" xmlns:xlink="http://www.w3.org/1999/xlink">
<g id="graph0" class="graph" transform="scale(1 1) rotate(0) translate(4 420)">
<title>classes_basicsr.archs.hifacegan_arch</title>
<polygon fill="white" stroke="transparent" points="-4,4 -4,-420 680,-420 680,4 -4,4"/>
<!-- basicsr.archs.hifacegan_arch.HiFaceGAN -->
<g id="node1" class="node">
<title>basicsr.archs.hifacegan_arch.HiFaceGAN</title>
<polygon fill="none" stroke="black" points="81,-8 81,-77 276,-77 276,-8 81,-8"/>
<text text-anchor="middle" x="178.5" y="-61.8" font-family="Times,serif" font-size="14.00">HiFaceGAN</text>
<polyline fill="none" stroke="black" points="81,-54 276,-54 "/>
<text text-anchor="start" x="89" y="-38.8" font-family="Times,serif" font-size="14.00">lip_encoder : LIPEncoder</text>
<polyline fill="none" stroke="black" points="81,-31 276,-31 "/>
<text text-anchor="start" x="89" y="-15.8" font-family="Times,serif" font-size="14.00">encode(input_tensor)</text>
</g>
<!-- basicsr.archs.hifacegan_arch.SPADEGenerator -->
<g id="node4" class="node">
<title>basicsr.archs.hifacegan_arch.SPADEGenerator</title>
<polygon fill="none" stroke="black" points="0,-121.5 0,-415.5 357,-415.5 357,-121.5 0,-121.5"/>
<text text-anchor="middle" x="178.5" y="-400.3" font-family="Times,serif" font-size="14.00">SPADEGenerator</text>
<polyline fill="none" stroke="black" points="0,-392.5 357,-392.5 "/>
<text text-anchor="start" x="8" y="-377.3" font-family="Times,serif" font-size="14.00">fc</text>
<text text-anchor="start" x="8" y="-362.3" font-family="Times,serif" font-size="14.00">g_middle_0 : SPADEResnetBlock</text>
<text text-anchor="start" x="8" y="-347.3" font-family="Times,serif" font-size="14.00">g_middle_1 : SPADEResnetBlock</text>
<text text-anchor="start" x="8" y="-332.3" font-family="Times,serif" font-size="14.00">head_0 : SPADEResnetBlock</text>
<text text-anchor="start" x="8" y="-317.3" font-family="Times,serif" font-size="14.00">input_nc : int</text>
<text text-anchor="start" x="8" y="-302.3" font-family="Times,serif" font-size="14.00">is_train : bool</text>
<text text-anchor="start" x="8" y="-287.3" font-family="Times,serif" font-size="14.00">nf : int</text>
<text text-anchor="start" x="8" y="-272.3" font-family="Times,serif" font-size="14.00">scale_ratio : int</text>
<text text-anchor="start" x="8" y="-257.3" font-family="Times,serif" font-size="14.00">sh : int</text>
<text text-anchor="start" x="8" y="-242.3" font-family="Times,serif" font-size="14.00">sw : int</text>
<text text-anchor="start" x="8" y="-227.3" font-family="Times,serif" font-size="14.00">to_rgbs</text>
<text text-anchor="start" x="8" y="-212.3" font-family="Times,serif" font-size="14.00">train_phase : int</text>
<text text-anchor="start" x="8" y="-197.3" font-family="Times,serif" font-size="14.00">up</text>
<text text-anchor="start" x="8" y="-182.3" font-family="Times,serif" font-size="14.00">ups</text>
<polyline fill="none" stroke="black" points="0,-174.5 357,-174.5 "/>
<text text-anchor="start" x="8" y="-159.3" font-family="Times,serif" font-size="14.00">encode(input_tensor)</text>
<text text-anchor="start" x="8" y="-144.3" font-family="Times,serif" font-size="14.00">forward(x)</text>
<text text-anchor="start" x="8" y="-129.3" font-family="Times,serif" font-size="14.00">mixed_guidance_forward(input_x, seg, n, mode)</text>
</g>
<!-- basicsr.archs.hifacegan_arch.HiFaceGAN&#45;&gt;basicsr.archs.hifacegan_arch.SPADEGenerator -->
<g id="edge1" class="edge">
<title>basicsr.archs.hifacegan_arch.HiFaceGAN&#45;&gt;basicsr.archs.hifacegan_arch.SPADEGenerator</title>
<path fill="none" stroke="black" d="M178.5,-77.04C178.5,-86.95 178.5,-98.52 178.5,-110.97"/>
<polygon fill="none" stroke="black" points="175,-111.12 178.5,-121.12 182,-111.12 175,-111.12"/>
</g>
<!-- basicsr.archs.hifacegan_arch.HiFaceGANDiscriminator -->
<g id="node2" class="node">
<title>basicsr.archs.hifacegan_arch.HiFaceGANDiscriminator</title>
<polygon fill="none" stroke="black" points="294,-0.5 294,-84.5 491,-84.5 491,-0.5 294,-0.5"/>
<text text-anchor="middle" x="392.5" y="-69.3" font-family="Times,serif" font-size="14.00">HiFaceGANDiscriminator</text>
<polyline fill="none" stroke="black" points="294,-61.5 491,-61.5 "/>
<text text-anchor="start" x="302" y="-46.3" font-family="Times,serif" font-size="14.00">num_d : int</text>
<polyline fill="none" stroke="black" points="294,-38.5 491,-38.5 "/>
<text text-anchor="start" x="302" y="-23.3" font-family="Times,serif" font-size="14.00">downsample(x)</text>
<text text-anchor="start" x="302" y="-8.3" font-family="Times,serif" font-size="14.00">forward(x)</text>
</g>
<!-- basicsr.archs.hifacegan_arch.NLayerDiscriminator -->
<g id="node3" class="node">
<title>basicsr.archs.hifacegan_arch.NLayerDiscriminator</title>
<polygon fill="none" stroke="black" points="509,-8 509,-77 676,-77 676,-8 509,-8"/>
<text text-anchor="middle" x="592.5" y="-61.8" font-family="Times,serif" font-size="14.00">NLayerDiscriminator</text>
<polyline fill="none" stroke="black" points="509,-54 676,-54 "/>
<text text-anchor="start" x="517" y="-38.8" font-family="Times,serif" font-size="14.00">keep_features</text>
<polyline fill="none" stroke="black" points="509,-31 676,-31 "/>
<text text-anchor="start" x="517" y="-15.8" font-family="Times,serif" font-size="14.00">forward(x)</text>
</g>
</g>
</svg>
