<?xml version="1.0" encoding="UTF-8" standalone="no"?>
<!DOCTYPE svg PUBLIC "-//W3C//DTD SVG 1.1//EN"
 "http://www.w3.org/Graphics/SVG/1.1/DTD/svg11.dtd">
<!-- Generated by graphviz version 2.50.0 (0)
 -->
<!-- Title: classes_basicsr.archs.ecbsr_arch Pages: 1 -->
<svg width="404pt" height="529pt"
 viewBox="0.00 0.00 404.38 529.00" xmlns="http://www.w3.org/2000/svg" xmlns:xlink="http://www.w3.org/1999/xlink">
<g id="graph0" class="graph" transform="scale(1 1) rotate(0) translate(4 525)">
<title>classes_basicsr.archs.ecbsr_arch</title>
<polygon fill="white" stroke="transparent" points="-4,4 -4,-525 400.38,-525 400.38,4 -4,4"/>
<!-- basicsr.archs.ecbsr_arch.ECB -->
<g id="node1" class="node">
<title>basicsr.archs.ecbsr_arch.ECB</title>
<polygon fill="none" stroke="black" points="110.88,-286.5 110.88,-520.5 245.88,-520.5 245.88,-286.5 110.88,-286.5"/>
<text text-anchor="middle" x="178.38" y="-505.3" font-family="Times,serif" font-size="14.00">ECB</text>
<polyline fill="none" stroke="black" points="110.88,-497.5 245.88,-497.5 "/>
<text text-anchor="start" x="118.88" y="-482.3" font-family="Times,serif" font-size="14.00">act</text>
<text text-anchor="start" x="118.88" y="-467.3" font-family="Times,serif" font-size="14.00">act_type : str</text>
<text text-anchor="start" x="118.88" y="-452.3" font-family="Times,serif" font-size="14.00">conv1x1_3x3</text>
<text text-anchor="start" x="118.88" y="-437.3" font-family="Times,serif" font-size="14.00">conv1x1_lpl</text>
<text text-anchor="start" x="118.88" y="-422.3" font-family="Times,serif" font-size="14.00">conv1x1_sbx</text>
<text text-anchor="start" x="118.88" y="-407.3" font-family="Times,serif" font-size="14.00">conv1x1_sby</text>
<text text-anchor="start" x="118.88" y="-392.3" font-family="Times,serif" font-size="14.00">conv3x3</text>
<text text-anchor="start" x="118.88" y="-377.3" font-family="Times,serif" font-size="14.00">depth_multiplier</text>
<text text-anchor="start" x="118.88" y="-362.3" font-family="Times,serif" font-size="14.00">in_channels</text>
<text text-anchor="start" x="118.88" y="-347.3" font-family="Times,serif" font-size="14.00">out_channels</text>
<text text-anchor="start" x="118.88" y="-332.3" font-family="Times,serif" font-size="14.00">with_idt : bool</text>
<polyline fill="none" stroke="black" points="110.88,-324.5 245.88,-324.5 "/>
<text text-anchor="start" x="118.88" y="-309.3" font-family="Times,serif" font-size="14.00">forward(x)</text>
<text text-anchor="start" x="118.88" y="-294.3" font-family="Times,serif" font-size="14.00">rep_params()</text>
</g>
<!-- basicsr.archs.ecbsr_arch.ECBSR -->
<g id="node2" class="node">
<title>basicsr.archs.ecbsr_arch.ECBSR</title>
<polygon fill="none" stroke="black" points="261.38,-60.5 261.38,-174.5 353.38,-174.5 353.38,-60.5 261.38,-60.5"/>
<text text-anchor="middle" x="307.38" y="-159.3" font-family="Times,serif" font-size="14.00">ECBSR</text>
<polyline fill="none" stroke="black" points="261.38,-151.5 353.38,-151.5 "/>
<text text-anchor="start" x="269.38" y="-136.3" font-family="Times,serif" font-size="14.00">backbone</text>
<text text-anchor="start" x="269.38" y="-121.3" font-family="Times,serif" font-size="14.00">num_in_ch</text>
<text text-anchor="start" x="269.38" y="-106.3" font-family="Times,serif" font-size="14.00">scale</text>
<text text-anchor="start" x="269.38" y="-91.3" font-family="Times,serif" font-size="14.00">upsampler</text>
<polyline fill="none" stroke="black" points="261.38,-83.5 353.38,-83.5 "/>
<text text-anchor="start" x="269.38" y="-68.3" font-family="Times,serif" font-size="14.00">forward(x)</text>
</g>
<!-- basicsr.archs.ecbsr_arch.SeqConv3x3 -->
<g id="node3" class="node">
<title>basicsr.archs.ecbsr_arch.SeqConv3x3</title>
<polygon fill="none" stroke="black" points="113.38,-0.5 113.38,-234.5 243.38,-234.5 243.38,-0.5 113.38,-0.5"/>
<text text-anchor="middle" x="178.38" y="-219.3" font-family="Times,serif" font-size="14.00">SeqConv3x3</text>
<polyline fill="none" stroke="black" points="113.38,-211.5 243.38,-211.5 "/>
<text text-anchor="start" x="121.38" y="-196.3" font-family="Times,serif" font-size="14.00">b0</text>
<text text-anchor="start" x="121.38" y="-181.3" font-family="Times,serif" font-size="14.00">b1</text>
<text text-anchor="start" x="121.38" y="-166.3" font-family="Times,serif" font-size="14.00">bias</text>
<text text-anchor="start" x="121.38" y="-151.3" font-family="Times,serif" font-size="14.00">in_channels</text>
<text text-anchor="start" x="121.38" y="-136.3" font-family="Times,serif" font-size="14.00">k0</text>
<text text-anchor="start" x="121.38" y="-121.3" font-family="Times,serif" font-size="14.00">k1</text>
<text text-anchor="start" x="121.38" y="-106.3" font-family="Times,serif" font-size="14.00">mask</text>
<text text-anchor="start" x="121.38" y="-91.3" font-family="Times,serif" font-size="14.00">mid_planes : int</text>
<text text-anchor="start" x="121.38" y="-76.3" font-family="Times,serif" font-size="14.00">out_channels</text>
<text text-anchor="start" x="121.38" y="-61.3" font-family="Times,serif" font-size="14.00">scale</text>
<text text-anchor="start" x="121.38" y="-46.3" font-family="Times,serif" font-size="14.00">seq_type</text>
<polyline fill="none" stroke="black" points="113.38,-38.5 243.38,-38.5 "/>
<text text-anchor="start" x="121.38" y="-23.3" font-family="Times,serif" font-size="14.00">forward(x)</text>
<text text-anchor="start" x="121.38" y="-8.3" font-family="Times,serif" font-size="14.00">rep_params()</text>
</g>
<!-- basicsr.archs.ecbsr_arch.SeqConv3x3&#45;&gt;basicsr.archs.ecbsr_arch.ECB -->
<g id="edge1" class="edge">
<title>basicsr.archs.ecbsr_arch.SeqConv3x3&#45;&gt;basicsr.archs.ecbsr_arch.ECB</title>
<path fill="none" stroke="black" d="M113.15,-150.17C74.38,-172.89 28.56,-207.51 6.38,-253 -19.42,-305.93 42.91,-347.84 99.62,-373.66"/>
<polygon fill="black" stroke="black" points="99.88,-373.78 106.98,-372.53 110.86,-378.61 103.76,-379.85 99.88,-373.78"/>
<text text-anchor="middle" x="52.88" y="-256.8" font-family="Times,serif" font-size="14.00" fill="green">conv1x1_3x3</text>
</g>
<!-- basicsr.archs.ecbsr_arch.SeqConv3x3&#45;&gt;basicsr.archs.ecbsr_arch.ECB -->
<g id="edge2" class="edge">
<title>basicsr.archs.ecbsr_arch.SeqConv3x3&#45;&gt;basicsr.archs.ecbsr_arch.ECB</title>
<path fill="none" stroke="black" d="M126.8,-234.63C125.09,-240.78 123.6,-246.92 122.38,-253 120.97,-260.05 120.42,-267.21 120.58,-274.38"/>
<polygon fill="black" stroke="black" points="120.58,-274.47 125.01,-280.16 121.47,-286.44 117.04,-280.75 120.58,-274.47"/>
<text text-anchor="middle" x="167.88" y="-256.8" font-family="Times,serif" font-size="14.00" fill="green">conv1x1_sbx</text>
</g>
<!-- basicsr.archs.ecbsr_arch.SeqConv3x3&#45;&gt;basicsr.archs.ecbsr_arch.ECB -->
<g id="edge3" class="edge">
<title>basicsr.archs.ecbsr_arch.SeqConv3x3&#45;&gt;basicsr.archs.ecbsr_arch.ECB</title>
<path fill="none" stroke="black" d="M213.91,-234.78C214.81,-245.96 214.77,-257.16 213.38,-268 213.12,-270.06 212.83,-272.13 212.53,-274.21"/>
<polygon fill="black" stroke="black" points="212.5,-274.37 215.49,-280.93 210.57,-286.21 207.59,-279.65 212.5,-274.37"/>
<text text-anchor="middle" x="259.88" y="-256.8" font-family="Times,serif" font-size="14.00" fill="green">conv1x1_sby</text>
</g>
<!-- basicsr.archs.ecbsr_arch.SeqConv3x3&#45;&gt;basicsr.archs.ecbsr_arch.ECB -->
<g id="edge4" class="edge">
<title>basicsr.archs.ecbsr_arch.SeqConv3x3&#45;&gt;basicsr.archs.ecbsr_arch.ECB</title>
<path fill="none" stroke="black" d="M243.54,-227.53C246.39,-230.16 249.34,-232.66 252.38,-235 273.44,-251.19 293.68,-231.57 309.38,-253 313.32,-258.38 311.89,-261.82 309.38,-268 297.78,-296.53 276.9,-322.32 255.17,-343.51"/>
<polygon fill="black" stroke="black" points="254.89,-343.77 253.27,-350.8 246.16,-352 247.78,-344.97 254.89,-343.77"/>
<text text-anchor="middle" x="353.88" y="-256.8" font-family="Times,serif" font-size="14.00" fill="green">conv1x1_lpl</text>
</g>
</g>
</svg>
