<?xml version="1.0" encoding="UTF-8" standalone="no"?>
<!DOCTYPE svg PUBLIC "-//W3C//DTD SVG 1.1//EN"
 "http://www.w3.org/Graphics/SVG/1.1/DTD/svg11.dtd">
<!-- Generated by graphviz version 2.50.0 (0)
 -->
<!-- Title: classes_basicsr.archs.arch_util Pages: 1 -->
<svg width="578pt" height="153pt"
 viewBox="0.00 0.00 577.50 153.00" xmlns="http://www.w3.org/2000/svg" xmlns:xlink="http://www.w3.org/1999/xlink">
<g id="graph0" class="graph" transform="scale(1 1) rotate(0) translate(4 149)">
<title>classes_basicsr.archs.arch_util</title>
<polygon fill="white" stroke="transparent" points="-4,4 -4,-149 573.5,-149 573.5,4 -4,4"/>
<!-- basicsr.archs.arch_util.DCNv2Pack -->
<g id="node1" class="node">
<title>basicsr.archs.arch_util.DCNv2Pack</title>
<polygon fill="none" stroke="black" points="0,-37.5 0,-107.5 128,-107.5 128,-37.5 0,-37.5"/>
<text text-anchor="middle" x="64" y="-92.3" font-family="Times,serif" font-size="14.00">DCNv2Pack</text>
<polyline fill="none" stroke="black" points="0,-84.5 128,-84.5 "/>
<polyline fill="none" stroke="black" points="0,-60.5 128,-60.5 "/>
<text text-anchor="start" x="8" y="-45.3" font-family="Times,serif" font-size="14.00">forward(x, feat)</text>
</g>
<!-- basicsr.archs.arch_util.PixelShufflePack -->
<g id="node2" class="node">
<title>basicsr.archs.arch_util.PixelShufflePack</title>
<polygon fill="none" stroke="black" points="146.5,-0.5 146.5,-144.5 283.5,-144.5 283.5,-0.5 146.5,-0.5"/>
<text text-anchor="middle" x="215" y="-129.3" font-family="Times,serif" font-size="14.00">PixelShufflePack</text>
<polyline fill="none" stroke="black" points="146.5,-121.5 283.5,-121.5 "/>
<text text-anchor="start" x="154.5" y="-106.3" font-family="Times,serif" font-size="14.00">in_channels</text>
<text text-anchor="start" x="154.5" y="-91.3" font-family="Times,serif" font-size="14.00">out_channels</text>
<text text-anchor="start" x="154.5" y="-76.3" font-family="Times,serif" font-size="14.00">scale_factor</text>
<text text-anchor="start" x="154.5" y="-61.3" font-family="Times,serif" font-size="14.00">upsample_conv</text>
<text text-anchor="start" x="154.5" y="-46.3" font-family="Times,serif" font-size="14.00">upsample_kernel</text>
<polyline fill="none" stroke="black" points="146.5,-38.5 283.5,-38.5 "/>
<text text-anchor="start" x="154.5" y="-23.3" font-family="Times,serif" font-size="14.00">forward(x)</text>
<text text-anchor="start" x="154.5" y="-8.3" font-family="Times,serif" font-size="14.00">init_weights()</text>
</g>
<!-- basicsr.archs.arch_util.ResidualBlockNoBN -->
<g id="node3" class="node">
<title>basicsr.archs.arch_util.ResidualBlockNoBN</title>
<polygon fill="none" stroke="black" points="302,-15.5 302,-129.5 462,-129.5 462,-15.5 302,-15.5"/>
<text text-anchor="middle" x="382" y="-114.3" font-family="Times,serif" font-size="14.00">ResidualBlockNoBN</text>
<polyline fill="none" stroke="black" points="302,-106.5 462,-106.5 "/>
<text text-anchor="start" x="310" y="-91.3" font-family="Times,serif" font-size="14.00">conv1</text>
<text text-anchor="start" x="310" y="-76.3" font-family="Times,serif" font-size="14.00">conv2</text>
<text text-anchor="start" x="310" y="-61.3" font-family="Times,serif" font-size="14.00">relu</text>
<text text-anchor="start" x="310" y="-46.3" font-family="Times,serif" font-size="14.00">res_scale : int</text>
<polyline fill="none" stroke="black" points="302,-38.5 462,-38.5 "/>
<text text-anchor="start" x="310" y="-23.3" font-family="Times,serif" font-size="14.00">forward(x)</text>
</g>
<!-- basicsr.archs.arch_util.Upsample -->
<g id="node4" class="node">
<title>basicsr.archs.arch_util.Upsample</title>
<polygon fill="none" stroke="black" points="480.5,-37.5 480.5,-107.5 569.5,-107.5 569.5,-37.5 480.5,-37.5"/>
<text text-anchor="middle" x="525" y="-92.3" font-family="Times,serif" font-size="14.00">Upsample</text>
<polyline fill="none" stroke="black" points="480.5,-84.5 569.5,-84.5 "/>
<polyline fill="none" stroke="black" points="480.5,-60.5 569.5,-60.5 "/>
<text text-anchor="middle" x="525" y="-45.3" font-family="Times,serif" font-size="14.00"> </text>
</g>
</g>
</svg>
