<?xml version="1.0" encoding="UTF-8" standalone="no"?>
<!DOCTYPE svg PUBLIC "-//W3C//DTD SVG 1.1//EN"
 "http://www.w3.org/Graphics/SVG/1.1/DTD/svg11.dtd">
<!-- Generated by graphviz version 2.50.0 (0)
 -->
<!-- Title: classes_basicsr.archs.spynet_arch Pages: 1 -->
<svg width="396pt" height="108pt"
 viewBox="0.00 0.00 395.50 108.00" xmlns="http://www.w3.org/2000/svg" xmlns:xlink="http://www.w3.org/1999/xlink">
<g id="graph0" class="graph" transform="scale(1 1) rotate(0) translate(4 104)">
<title>classes_basicsr.archs.spynet_arch</title>
<polygon fill="white" stroke="transparent" points="-4,4 -4,-104 391.5,-104 391.5,4 -4,4"/>
<!-- basicsr.archs.spynet_arch.BasicModule -->
<g id="node1" class="node">
<title>basicsr.archs.spynet_arch.BasicModule</title>
<polygon fill="none" stroke="black" points="0,-15.5 0,-84.5 173,-84.5 173,-15.5 0,-15.5"/>
<text text-anchor="middle" x="86.5" y="-69.3" font-family="Times,serif" font-size="14.00">BasicModule</text>
<polyline fill="none" stroke="black" points="0,-61.5 173,-61.5 "/>
<text text-anchor="start" x="8" y="-46.3" font-family="Times,serif" font-size="14.00">basic_module</text>
<polyline fill="none" stroke="black" points="0,-38.5 173,-38.5 "/>
<text text-anchor="start" x="8" y="-23.3" font-family="Times,serif" font-size="14.00">forward(tensor_input)</text>
</g>
<!-- basicsr.archs.spynet_arch.SpyNet -->
<g id="node2" class="node">
<title>basicsr.archs.spynet_arch.SpyNet</title>
<polygon fill="none" stroke="black" points="191.5,-0.5 191.5,-99.5 387.5,-99.5 387.5,-0.5 191.5,-0.5"/>
<text text-anchor="middle" x="289.5" y="-84.3" font-family="Times,serif" font-size="14.00">SpyNet</text>
<polyline fill="none" stroke="black" points="191.5,-76.5 387.5,-76.5 "/>
<text text-anchor="start" x="199.5" y="-61.3" font-family="Times,serif" font-size="14.00">basic_module</text>
<polyline fill="none" stroke="black" points="191.5,-53.5 387.5,-53.5 "/>
<text text-anchor="start" x="199.5" y="-38.3" font-family="Times,serif" font-size="14.00">forward(ref, supp)</text>
<text text-anchor="start" x="199.5" y="-23.3" font-family="Times,serif" font-size="14.00">preprocess(tensor_input)</text>
<text text-anchor="start" x="199.5" y="-8.3" font-family="Times,serif" font-size="14.00">process(ref, supp)</text>
</g>
</g>
</svg>
