<?xml version="1.0" encoding="UTF-8" standalone="no"?>
<!DOCTYPE svg PUBLIC "-//W3C//DTD SVG 1.1//EN"
 "http://www.w3.org/Graphics/SVG/1.1/DTD/svg11.dtd">
<!-- Generated by graphviz version 2.50.0 (0)
 -->
<!-- Title: classes_basicsr.archs.edvr_arch Pages: 1 -->
<svg width="587pt" height="754pt"
 viewBox="0.00 0.00 587.00 754.00" xmlns="http://www.w3.org/2000/svg" xmlns:xlink="http://www.w3.org/1999/xlink">
<g id="graph0" class="graph" transform="scale(1 1) rotate(0) translate(4 750)">
<title>classes_basicsr.archs.edvr_arch</title>
<polygon fill="white" stroke="transparent" points="-4,4 -4,-750 583,-750 583,4 -4,4"/>
<!-- basicsr.archs.edvr_arch.EDVR -->
<g id="node1" class="node">
<title>basicsr.archs.edvr_arch.EDVR</title>
<polygon fill="none" stroke="black" points="190.5,-376.5 190.5,-745.5 444.5,-745.5 444.5,-376.5 190.5,-376.5"/>
<text text-anchor="middle" x="317.5" y="-730.3" font-family="Times,serif" font-size="14.00">EDVR</text>
<polyline fill="none" stroke="black" points="190.5,-722.5 444.5,-722.5 "/>
<text text-anchor="start" x="198.5" y="-707.3" font-family="Times,serif" font-size="14.00">center_frame_idx : NoneType, int</text>
<text text-anchor="start" x="198.5" y="-692.3" font-family="Times,serif" font-size="14.00">conv_1x1</text>
<text text-anchor="start" x="198.5" y="-677.3" font-family="Times,serif" font-size="14.00">conv_first</text>
<text text-anchor="start" x="198.5" y="-662.3" font-family="Times,serif" font-size="14.00">conv_hr</text>
<text text-anchor="start" x="198.5" y="-647.3" font-family="Times,serif" font-size="14.00">conv_l2_1</text>
<text text-anchor="start" x="198.5" y="-632.3" font-family="Times,serif" font-size="14.00">conv_l2_2</text>
<text text-anchor="start" x="198.5" y="-617.3" font-family="Times,serif" font-size="14.00">conv_l3_1</text>
<text text-anchor="start" x="198.5" y="-602.3" font-family="Times,serif" font-size="14.00">conv_l3_2</text>
<text text-anchor="start" x="198.5" y="-587.3" font-family="Times,serif" font-size="14.00">conv_last</text>
<text text-anchor="start" x="198.5" y="-572.3" font-family="Times,serif" font-size="14.00">feature_extraction</text>
<text text-anchor="start" x="198.5" y="-557.3" font-family="Times,serif" font-size="14.00">fusion</text>
<text text-anchor="start" x="198.5" y="-542.3" font-family="Times,serif" font-size="14.00">hr_in : bool</text>
<text text-anchor="start" x="198.5" y="-527.3" font-family="Times,serif" font-size="14.00">lrelu</text>
<text text-anchor="start" x="198.5" y="-512.3" font-family="Times,serif" font-size="14.00">pcd_align</text>
<text text-anchor="start" x="198.5" y="-497.3" font-family="Times,serif" font-size="14.00">pixel_shuffle</text>
<text text-anchor="start" x="198.5" y="-482.3" font-family="Times,serif" font-size="14.00">predeblur</text>
<text text-anchor="start" x="198.5" y="-467.3" font-family="Times,serif" font-size="14.00">reconstruction</text>
<text text-anchor="start" x="198.5" y="-452.3" font-family="Times,serif" font-size="14.00">upconv1</text>
<text text-anchor="start" x="198.5" y="-437.3" font-family="Times,serif" font-size="14.00">upconv2</text>
<text text-anchor="start" x="198.5" y="-422.3" font-family="Times,serif" font-size="14.00">with_predeblur : bool</text>
<text text-anchor="start" x="198.5" y="-407.3" font-family="Times,serif" font-size="14.00">with_tsa : bool</text>
<polyline fill="none" stroke="black" points="190.5,-399.5 444.5,-399.5 "/>
<text text-anchor="start" x="198.5" y="-384.3" font-family="Times,serif" font-size="14.00">forward(x)</text>
</g>
<!-- basicsr.archs.edvr_arch.PCDAlignment -->
<g id="node2" class="node">
<title>basicsr.archs.edvr_arch.PCDAlignment</title>
<polygon fill="none" stroke="black" points="0,-60.5 0,-264.5 229,-264.5 229,-60.5 0,-60.5"/>
<text text-anchor="middle" x="114.5" y="-249.3" font-family="Times,serif" font-size="14.00">PCDAlignment</text>
<polyline fill="none" stroke="black" points="0,-241.5 229,-241.5 "/>
<text text-anchor="start" x="8" y="-226.3" font-family="Times,serif" font-size="14.00">cas_dcnpack</text>
<text text-anchor="start" x="8" y="-211.3" font-family="Times,serif" font-size="14.00">cas_offset_conv1</text>
<text text-anchor="start" x="8" y="-196.3" font-family="Times,serif" font-size="14.00">cas_offset_conv2</text>
<text text-anchor="start" x="8" y="-181.3" font-family="Times,serif" font-size="14.00">dcn_pack</text>
<text text-anchor="start" x="8" y="-166.3" font-family="Times,serif" font-size="14.00">feat_conv</text>
<text text-anchor="start" x="8" y="-151.3" font-family="Times,serif" font-size="14.00">lrelu</text>
<text text-anchor="start" x="8" y="-136.3" font-family="Times,serif" font-size="14.00">offset_conv1</text>
<text text-anchor="start" x="8" y="-121.3" font-family="Times,serif" font-size="14.00">offset_conv2</text>
<text text-anchor="start" x="8" y="-106.3" font-family="Times,serif" font-size="14.00">offset_conv3</text>
<text text-anchor="start" x="8" y="-91.3" font-family="Times,serif" font-size="14.00">upsample</text>
<polyline fill="none" stroke="black" points="0,-83.5 229,-83.5 "/>
<text text-anchor="start" x="8" y="-68.3" font-family="Times,serif" font-size="14.00">forward(nbr_feat_l, ref_feat_l)</text>
</g>
<!-- basicsr.archs.edvr_arch.PCDAlignment&#45;&gt;basicsr.archs.edvr_arch.EDVR -->
<g id="edge1" class="edge">
<title>basicsr.archs.edvr_arch.PCDAlignment&#45;&gt;basicsr.archs.edvr_arch.EDVR</title>
<path fill="none" stroke="black" d="M166.25,-264.58C182.06,-295.46 200.01,-330.51 217.88,-365.42"/>
<polygon fill="black" stroke="black" points="217.95,-365.56 224.24,-369.08 223.42,-376.24 217.12,-372.72 217.95,-365.56"/>
<text text-anchor="middle" x="244.5" y="-346.8" font-family="Times,serif" font-size="14.00" fill="green">pcd_align</text>
</g>
<!-- basicsr.archs.edvr_arch.PredeblurModule -->
<g id="node3" class="node">
<title>basicsr.archs.edvr_arch.PredeblurModule</title>
<polygon fill="none" stroke="black" points="247,-45.5 247,-279.5 388,-279.5 388,-45.5 247,-45.5"/>
<text text-anchor="middle" x="317.5" y="-264.3" font-family="Times,serif" font-size="14.00">PredeblurModule</text>
<polyline fill="none" stroke="black" points="247,-256.5 388,-256.5 "/>
<text text-anchor="start" x="255" y="-241.3" font-family="Times,serif" font-size="14.00">conv_first</text>
<text text-anchor="start" x="255" y="-226.3" font-family="Times,serif" font-size="14.00">hr_in : bool</text>
<text text-anchor="start" x="255" y="-211.3" font-family="Times,serif" font-size="14.00">lrelu</text>
<text text-anchor="start" x="255" y="-196.3" font-family="Times,serif" font-size="14.00">resblock_l1</text>
<text text-anchor="start" x="255" y="-181.3" font-family="Times,serif" font-size="14.00">resblock_l2_1</text>
<text text-anchor="start" x="255" y="-166.3" font-family="Times,serif" font-size="14.00">resblock_l2_2</text>
<text text-anchor="start" x="255" y="-151.3" font-family="Times,serif" font-size="14.00">resblock_l3</text>
<text text-anchor="start" x="255" y="-136.3" font-family="Times,serif" font-size="14.00">stride_conv_hr1</text>
<text text-anchor="start" x="255" y="-121.3" font-family="Times,serif" font-size="14.00">stride_conv_hr2</text>
<text text-anchor="start" x="255" y="-106.3" font-family="Times,serif" font-size="14.00">stride_conv_l2</text>
<text text-anchor="start" x="255" y="-91.3" font-family="Times,serif" font-size="14.00">stride_conv_l3</text>
<text text-anchor="start" x="255" y="-76.3" font-family="Times,serif" font-size="14.00">upsample</text>
<polyline fill="none" stroke="black" points="247,-68.5 388,-68.5 "/>
<text text-anchor="start" x="255" y="-53.3" font-family="Times,serif" font-size="14.00">forward(x)</text>
</g>
<!-- basicsr.archs.edvr_arch.PredeblurModule&#45;&gt;basicsr.archs.edvr_arch.EDVR -->
<g id="edge2" class="edge">
<title>basicsr.archs.edvr_arch.PredeblurModule&#45;&gt;basicsr.archs.edvr_arch.EDVR</title>
<path fill="none" stroke="black" d="M317.5,-279.52C317.5,-306.23 317.5,-335.37 317.5,-364.43"/>
<polygon fill="black" stroke="black" points="317.5,-364.43 321.5,-370.43 317.5,-376.43 313.5,-370.43 317.5,-364.43"/>
<text text-anchor="middle" x="353" y="-346.8" font-family="Times,serif" font-size="14.00" fill="green">predeblur</text>
</g>
<!-- basicsr.archs.edvr_arch.TSAFusion -->
<g id="node4" class="node">
<title>basicsr.archs.edvr_arch.TSAFusion</title>
<polygon fill="none" stroke="black" points="406,-0.5 406,-324.5 579,-324.5 579,-0.5 406,-0.5"/>
<text text-anchor="middle" x="492.5" y="-309.3" font-family="Times,serif" font-size="14.00">TSAFusion</text>
<polyline fill="none" stroke="black" points="406,-301.5 579,-301.5 "/>
<text text-anchor="start" x="414" y="-286.3" font-family="Times,serif" font-size="14.00">avg_pool</text>
<text text-anchor="start" x="414" y="-271.3" font-family="Times,serif" font-size="14.00">center_frame_idx : int</text>
<text text-anchor="start" x="414" y="-256.3" font-family="Times,serif" font-size="14.00">feat_fusion</text>
<text text-anchor="start" x="414" y="-241.3" font-family="Times,serif" font-size="14.00">lrelu</text>
<text text-anchor="start" x="414" y="-226.3" font-family="Times,serif" font-size="14.00">max_pool</text>
<text text-anchor="start" x="414" y="-211.3" font-family="Times,serif" font-size="14.00">spatial_attn1</text>
<text text-anchor="start" x="414" y="-196.3" font-family="Times,serif" font-size="14.00">spatial_attn2</text>
<text text-anchor="start" x="414" y="-181.3" font-family="Times,serif" font-size="14.00">spatial_attn3</text>
<text text-anchor="start" x="414" y="-166.3" font-family="Times,serif" font-size="14.00">spatial_attn4</text>
<text text-anchor="start" x="414" y="-151.3" font-family="Times,serif" font-size="14.00">spatial_attn5</text>
<text text-anchor="start" x="414" y="-136.3" font-family="Times,serif" font-size="14.00">spatial_attn_add1</text>
<text text-anchor="start" x="414" y="-121.3" font-family="Times,serif" font-size="14.00">spatial_attn_add2</text>
<text text-anchor="start" x="414" y="-106.3" font-family="Times,serif" font-size="14.00">spatial_attn_l1</text>
<text text-anchor="start" x="414" y="-91.3" font-family="Times,serif" font-size="14.00">spatial_attn_l2</text>
<text text-anchor="start" x="414" y="-76.3" font-family="Times,serif" font-size="14.00">spatial_attn_l3</text>
<text text-anchor="start" x="414" y="-61.3" font-family="Times,serif" font-size="14.00">temporal_attn1</text>
<text text-anchor="start" x="414" y="-46.3" font-family="Times,serif" font-size="14.00">temporal_attn2</text>
<text text-anchor="start" x="414" y="-31.3" font-family="Times,serif" font-size="14.00">upsample</text>
<polyline fill="none" stroke="black" points="406,-23.5 579,-23.5 "/>
<text text-anchor="start" x="414" y="-8.3" font-family="Times,serif" font-size="14.00">forward(aligned_feat)</text>
</g>
<!-- basicsr.archs.edvr_arch.TSAFusion&#45;&gt;basicsr.archs.edvr_arch.EDVR -->
<g id="edge3" class="edge">
<title>basicsr.archs.edvr_arch.TSAFusion&#45;&gt;basicsr.archs.edvr_arch.EDVR</title>
<path fill="none" stroke="black" d="M421.32,-324.77C415.48,-338 409.54,-351.46 403.61,-364.91"/>
<polygon fill="black" stroke="black" points="403.47,-365.21 404.71,-372.31 398.63,-376.19 397.39,-369.08 403.47,-365.21"/>
<text text-anchor="middle" x="431.5" y="-346.8" font-family="Times,serif" font-size="14.00" fill="green">fusion</text>
</g>
</g>
</svg>
