<?xml version="1.0" encoding="UTF-8" standalone="no"?>
<!DOCTYPE svg PUBLIC "-//W3C//DTD SVG 1.1//EN"
 "http://www.w3.org/Graphics/SVG/1.1/DTD/svg11.dtd">
<!-- Generated by graphviz version 2.50.0 (0)
 -->
<!-- Title: classes_basicsr.archs.tof_arch Pages: 1 -->
<svg width="382pt" height="334pt"
 viewBox="0.00 0.00 381.50 334.00" xmlns="http://www.w3.org/2000/svg" xmlns:xlink="http://www.w3.org/1999/xlink">
<g id="graph0" class="graph" transform="scale(1 1) rotate(0) translate(4 330)">
<title>classes_basicsr.archs.tof_arch</title>
<polygon fill="white" stroke="transparent" points="-4,4 -4,-330 377.5,-330 377.5,4 -4,4"/>
<!-- basicsr.archs.tof_arch.BasicModule -->
<g id="node1" class="node">
<title>basicsr.archs.tof_arch.BasicModule</title>
<polygon fill="none" stroke="black" points="0,-0.5 0,-69.5 173,-69.5 173,-0.5 0,-0.5"/>
<text text-anchor="middle" x="86.5" y="-54.3" font-family="Times,serif" font-size="14.00">BasicModule</text>
<polyline fill="none" stroke="black" points="0,-46.5 173,-46.5 "/>
<text text-anchor="start" x="8" y="-31.3" font-family="Times,serif" font-size="14.00">basic_module</text>
<polyline fill="none" stroke="black" points="0,-23.5 173,-23.5 "/>
<text text-anchor="start" x="8" y="-8.3" font-family="Times,serif" font-size="14.00">forward(tensor_input)</text>
</g>
<!-- basicsr.archs.tof_arch.SPyNetTOF -->
<g id="node2" class="node">
<title>basicsr.archs.tof_arch.SPyNetTOF</title>
<polygon fill="none" stroke="black" points="191.5,-0.5 191.5,-69.5 337.5,-69.5 337.5,-0.5 191.5,-0.5"/>
<text text-anchor="middle" x="264.5" y="-54.3" font-family="Times,serif" font-size="14.00">SPyNetTOF</text>
<polyline fill="none" stroke="black" points="191.5,-46.5 337.5,-46.5 "/>
<text text-anchor="start" x="199.5" y="-31.3" font-family="Times,serif" font-size="14.00">basic_module</text>
<polyline fill="none" stroke="black" points="191.5,-23.5 337.5,-23.5 "/>
<text text-anchor="start" x="199.5" y="-8.3" font-family="Times,serif" font-size="14.00">forward(ref, supp)</text>
</g>
<!-- basicsr.archs.tof_arch.TOFlow -->
<g id="node3" class="node">
<title>basicsr.archs.tof_arch.TOFlow</title>
<polygon fill="none" stroke="black" points="155.5,-121.5 155.5,-325.5 373.5,-325.5 373.5,-121.5 155.5,-121.5"/>
<text text-anchor="middle" x="264.5" y="-310.3" font-family="Times,serif" font-size="14.00">TOFlow</text>
<polyline fill="none" stroke="black" points="155.5,-302.5 373.5,-302.5 "/>
<text text-anchor="start" x="163.5" y="-287.3" font-family="Times,serif" font-size="14.00">adapt_official_weights : bool</text>
<text text-anchor="start" x="163.5" y="-272.3" font-family="Times,serif" font-size="14.00">conv_1</text>
<text text-anchor="start" x="163.5" y="-257.3" font-family="Times,serif" font-size="14.00">conv_2</text>
<text text-anchor="start" x="163.5" y="-242.3" font-family="Times,serif" font-size="14.00">conv_3</text>
<text text-anchor="start" x="163.5" y="-227.3" font-family="Times,serif" font-size="14.00">conv_4</text>
<text text-anchor="start" x="163.5" y="-212.3" font-family="Times,serif" font-size="14.00">ref_idx : int</text>
<text text-anchor="start" x="163.5" y="-197.3" font-family="Times,serif" font-size="14.00">relu</text>
<text text-anchor="start" x="163.5" y="-182.3" font-family="Times,serif" font-size="14.00">spynet</text>
<polyline fill="none" stroke="black" points="155.5,-174.5 373.5,-174.5 "/>
<text text-anchor="start" x="163.5" y="-159.3" font-family="Times,serif" font-size="14.00">denormalize(img)</text>
<text text-anchor="start" x="163.5" y="-144.3" font-family="Times,serif" font-size="14.00">forward(lrs)</text>
<text text-anchor="start" x="163.5" y="-129.3" font-family="Times,serif" font-size="14.00">normalize(img)</text>
</g>
<!-- basicsr.archs.tof_arch.SPyNetTOF&#45;&gt;basicsr.archs.tof_arch.TOFlow -->
<g id="edge1" class="edge">
<title>basicsr.archs.tof_arch.SPyNetTOF&#45;&gt;basicsr.archs.tof_arch.TOFlow</title>
<path fill="none" stroke="black" d="M264.5,-69.77C264.5,-81.34 264.5,-94.99 264.5,-109.31"/>
<polygon fill="black" stroke="black" points="264.5,-109.46 268.5,-115.46 264.5,-121.46 260.5,-115.46 264.5,-109.46"/>
<text text-anchor="middle" x="289" y="-91.8" font-family="Times,serif" font-size="14.00" fill="green">spynet</text>
</g>
</g>
</svg>
