<?xml version="1.0" encoding="UTF-8" standalone="no"?>
<!DOCTYPE svg PUBLIC "-//W3C//DTD SVG 1.1//EN"
 "http://www.w3.org/Graphics/SVG/1.1/DTD/svg11.dtd">
<!-- Generated by graphviz version 2.50.0 (0)
 -->
<!-- Title: classes_basicsr.archs.rcan_arch Pages: 1 -->
<svg width="580pt" height="168pt"
 viewBox="0.00 0.00 579.50 168.00" xmlns="http://www.w3.org/2000/svg" xmlns:xlink="http://www.w3.org/1999/xlink">
<g id="graph0" class="graph" transform="scale(1 1) rotate(0) translate(4 164)">
<title>classes_basicsr.archs.rcan_arch</title>
<polygon fill="white" stroke="transparent" points="-4,4 -4,-164 575.5,-164 575.5,4 -4,4"/>
<!-- basicsr.archs.rcan_arch.ChannelAttention -->
<g id="node1" class="node">
<title>basicsr.archs.rcan_arch.ChannelAttention</title>
<polygon fill="none" stroke="black" points="0,-45.5 0,-114.5 142,-114.5 142,-45.5 0,-45.5"/>
<text text-anchor="middle" x="71" y="-99.3" font-family="Times,serif" font-size="14.00">ChannelAttention</text>
<polyline fill="none" stroke="black" points="0,-91.5 142,-91.5 "/>
<text text-anchor="start" x="8" y="-76.3" font-family="Times,serif" font-size="14.00">attention</text>
<polyline fill="none" stroke="black" points="0,-68.5 142,-68.5 "/>
<text text-anchor="start" x="8" y="-53.3" font-family="Times,serif" font-size="14.00">forward(x)</text>
</g>
<!-- basicsr.archs.rcan_arch.RCAB -->
<g id="node2" class="node">
<title>basicsr.archs.rcan_arch.RCAB</title>
<polygon fill="none" stroke="black" points="160.5,-38 160.5,-122 275.5,-122 275.5,-38 160.5,-38"/>
<text text-anchor="middle" x="218" y="-106.8" font-family="Times,serif" font-size="14.00">RCAB</text>
<polyline fill="none" stroke="black" points="160.5,-99 275.5,-99 "/>
<text text-anchor="start" x="168.5" y="-83.8" font-family="Times,serif" font-size="14.00">rcab</text>
<text text-anchor="start" x="168.5" y="-68.8" font-family="Times,serif" font-size="14.00">res_scale : int</text>
<polyline fill="none" stroke="black" points="160.5,-61 275.5,-61 "/>
<text text-anchor="start" x="168.5" y="-45.8" font-family="Times,serif" font-size="14.00">forward(x)</text>
</g>
<!-- basicsr.archs.rcan_arch.RCAN -->
<g id="node3" class="node">
<title>basicsr.archs.rcan_arch.RCAN</title>
<polygon fill="none" stroke="black" points="293.5,-0.5 293.5,-159.5 430.5,-159.5 430.5,-0.5 293.5,-0.5"/>
<text text-anchor="middle" x="362" y="-144.3" font-family="Times,serif" font-size="14.00">RCAN</text>
<polyline fill="none" stroke="black" points="293.5,-136.5 430.5,-136.5 "/>
<text text-anchor="start" x="301.5" y="-121.3" font-family="Times,serif" font-size="14.00">body</text>
<text text-anchor="start" x="301.5" y="-106.3" font-family="Times,serif" font-size="14.00">conv_after_body</text>
<text text-anchor="start" x="301.5" y="-91.3" font-family="Times,serif" font-size="14.00">conv_first</text>
<text text-anchor="start" x="301.5" y="-76.3" font-family="Times,serif" font-size="14.00">conv_last</text>
<text text-anchor="start" x="301.5" y="-61.3" font-family="Times,serif" font-size="14.00">img_range : float</text>
<text text-anchor="start" x="301.5" y="-46.3" font-family="Times,serif" font-size="14.00">mean</text>
<text text-anchor="start" x="301.5" y="-31.3" font-family="Times,serif" font-size="14.00">upsample</text>
<polyline fill="none" stroke="black" points="293.5,-23.5 430.5,-23.5 "/>
<text text-anchor="start" x="301.5" y="-8.3" font-family="Times,serif" font-size="14.00">forward(x)</text>
</g>
<!-- basicsr.archs.rcan_arch.ResidualGroup -->
<g id="node4" class="node">
<title>basicsr.archs.rcan_arch.ResidualGroup</title>
<polygon fill="none" stroke="black" points="448.5,-38 448.5,-122 571.5,-122 571.5,-38 448.5,-38"/>
<text text-anchor="middle" x="510" y="-106.8" font-family="Times,serif" font-size="14.00">ResidualGroup</text>
<polyline fill="none" stroke="black" points="448.5,-99 571.5,-99 "/>
<text text-anchor="start" x="456.5" y="-83.8" font-family="Times,serif" font-size="14.00">conv</text>
<text text-anchor="start" x="456.5" y="-68.8" font-family="Times,serif" font-size="14.00">residual_group</text>
<polyline fill="none" stroke="black" points="448.5,-61 571.5,-61 "/>
<text text-anchor="start" x="456.5" y="-45.8" font-family="Times,serif" font-size="14.00">forward(x)</text>
</g>
</g>
</svg>
