<?xml version="1.0" encoding="UTF-8" standalone="no"?>
<!DOCTYPE svg PUBLIC "-//W3C//DTD SVG 1.1//EN"
 "http://www.w3.org/Graphics/SVG/1.1/DTD/svg11.dtd">
<!-- Generated by graphviz version 2.50.0 (0)
 -->
<!-- Title: classes_basicsr.archs.duf_arch Pages: 1 -->
<svg width="587pt" height="379pt"
 viewBox="0.00 0.00 586.50 379.00" xmlns="http://www.w3.org/2000/svg" xmlns:xlink="http://www.w3.org/1999/xlink">
<g id="graph0" class="graph" transform="scale(1 1) rotate(0) translate(4 375)">
<title>classes_basicsr.archs.duf_arch</title>
<polygon fill="white" stroke="transparent" points="-4,4 -4,-375 582.5,-375 582.5,4 -4,4"/>
<!-- basicsr.archs.duf_arch.DUF -->
<g id="node1" class="node">
<title>basicsr.archs.duf_arch.DUF</title>
<polygon fill="none" stroke="black" points="183,-151.5 183,-370.5 301,-370.5 301,-151.5 183,-151.5"/>
<text text-anchor="middle" x="242" y="-355.3" font-family="Times,serif" font-size="14.00">DUF</text>
<polyline fill="none" stroke="black" points="183,-347.5 301,-347.5 "/>
<text text-anchor="start" x="191" y="-332.3" font-family="Times,serif" font-size="14.00">bn3d2</text>
<text text-anchor="start" x="191" y="-317.3" font-family="Times,serif" font-size="14.00">conv3d1</text>
<text text-anchor="start" x="191" y="-302.3" font-family="Times,serif" font-size="14.00">conv3d2</text>
<text text-anchor="start" x="191" y="-287.3" font-family="Times,serif" font-size="14.00">conv3d_f1</text>
<text text-anchor="start" x="191" y="-272.3" font-family="Times,serif" font-size="14.00">conv3d_f2</text>
<text text-anchor="start" x="191" y="-257.3" font-family="Times,serif" font-size="14.00">conv3d_r1</text>
<text text-anchor="start" x="191" y="-242.3" font-family="Times,serif" font-size="14.00">conv3d_r2</text>
<text text-anchor="start" x="191" y="-227.3" font-family="Times,serif" font-size="14.00">dense_block1</text>
<text text-anchor="start" x="191" y="-212.3" font-family="Times,serif" font-size="14.00">dense_block2</text>
<text text-anchor="start" x="191" y="-197.3" font-family="Times,serif" font-size="14.00">dynamic_filter</text>
<text text-anchor="start" x="191" y="-182.3" font-family="Times,serif" font-size="14.00">scale : int</text>
<polyline fill="none" stroke="black" points="183,-174.5 301,-174.5 "/>
<text text-anchor="start" x="191" y="-159.3" font-family="Times,serif" font-size="14.00">forward(x)</text>
</g>
<!-- basicsr.archs.duf_arch.DenseBlocks -->
<g id="node2" class="node">
<title>basicsr.archs.duf_arch.DenseBlocks</title>
<polygon fill="none" stroke="black" points="0,-15.5 0,-84.5 110,-84.5 110,-15.5 0,-15.5"/>
<text text-anchor="middle" x="55" y="-69.3" font-family="Times,serif" font-size="14.00">DenseBlocks</text>
<polyline fill="none" stroke="black" points="0,-61.5 110,-61.5 "/>
<text text-anchor="start" x="8" y="-46.3" font-family="Times,serif" font-size="14.00">dense_blocks</text>
<polyline fill="none" stroke="black" points="0,-38.5 110,-38.5 "/>
<text text-anchor="start" x="8" y="-23.3" font-family="Times,serif" font-size="14.00">forward(x)</text>
</g>
<!-- basicsr.archs.duf_arch.DenseBlocks&#45;&gt;basicsr.archs.duf_arch.DUF -->
<g id="edge1" class="edge">
<title>basicsr.archs.duf_arch.DenseBlocks&#45;&gt;basicsr.archs.duf_arch.DUF</title>
<path fill="none" stroke="black" d="M85.04,-84.58C109.21,-111.59 144.09,-150.57 174.83,-184.93"/>
<polygon fill="black" stroke="black" points="174.96,-185.07 181.94,-186.88 182.96,-194.02 175.98,-192.21 174.96,-185.07"/>
<text text-anchor="middle" x="175" y="-121.8" font-family="Times,serif" font-size="14.00" fill="green">dense_block1</text>
</g>
<!-- basicsr.archs.duf_arch.DenseBlocksTemporalReduce -->
<g id="node3" class="node">
<title>basicsr.archs.duf_arch.DenseBlocksTemporalReduce</title>
<polygon fill="none" stroke="black" points="128.5,-0.5 128.5,-99.5 355.5,-99.5 355.5,-0.5 128.5,-0.5"/>
<text text-anchor="middle" x="242" y="-84.3" font-family="Times,serif" font-size="14.00">DenseBlocksTemporalReduce</text>
<polyline fill="none" stroke="black" points="128.5,-76.5 355.5,-76.5 "/>
<text text-anchor="start" x="136.5" y="-61.3" font-family="Times,serif" font-size="14.00">temporal_reduce1</text>
<text text-anchor="start" x="136.5" y="-46.3" font-family="Times,serif" font-size="14.00">temporal_reduce2</text>
<text text-anchor="start" x="136.5" y="-31.3" font-family="Times,serif" font-size="14.00">temporal_reduce3</text>
<polyline fill="none" stroke="black" points="128.5,-23.5 355.5,-23.5 "/>
<text text-anchor="start" x="136.5" y="-8.3" font-family="Times,serif" font-size="14.00">forward(x)</text>
</g>
<!-- basicsr.archs.duf_arch.DenseBlocksTemporalReduce&#45;&gt;basicsr.archs.duf_arch.DUF -->
<g id="edge2" class="edge">
<title>basicsr.archs.duf_arch.DenseBlocksTemporalReduce&#45;&gt;basicsr.archs.duf_arch.DUF</title>
<path fill="none" stroke="black" d="M242,-99.74C242,-111.77 242,-125.2 242,-139.03"/>
<polygon fill="black" stroke="black" points="242,-139.25 246,-145.25 242,-151.25 238,-145.25 242,-139.25"/>
<text text-anchor="middle" x="290" y="-121.8" font-family="Times,serif" font-size="14.00" fill="green">dense_block2</text>
</g>
<!-- basicsr.archs.duf_arch.DynamicUpsamplingFilter -->
<g id="node4" class="node">
<title>basicsr.archs.duf_arch.DynamicUpsamplingFilter</title>
<polygon fill="none" stroke="black" points="373.5,-8 373.5,-92 578.5,-92 578.5,-8 373.5,-8"/>
<text text-anchor="middle" x="476" y="-76.8" font-family="Times,serif" font-size="14.00">DynamicUpsamplingFilter</text>
<polyline fill="none" stroke="black" points="373.5,-69 578.5,-69 "/>
<text text-anchor="start" x="381.5" y="-53.8" font-family="Times,serif" font-size="14.00">expansion_filter</text>
<text text-anchor="start" x="381.5" y="-38.8" font-family="Times,serif" font-size="14.00">filter_size : tuple</text>
<polyline fill="none" stroke="black" points="373.5,-31 578.5,-31 "/>
<text text-anchor="start" x="381.5" y="-15.8" font-family="Times,serif" font-size="14.00">forward(x, filters)</text>
</g>
<!-- basicsr.archs.duf_arch.DynamicUpsamplingFilter&#45;&gt;basicsr.archs.duf_arch.DUF -->
<g id="edge3" class="edge">
<title>basicsr.archs.duf_arch.DynamicUpsamplingFilter&#45;&gt;basicsr.archs.duf_arch.DUF</title>
<path fill="none" stroke="black" d="M430.05,-92.04C395.92,-122.53 348.8,-164.61 310.27,-199.02"/>
<polygon fill="black" stroke="black" points="310.13,-199.15 308.32,-206.13 301.18,-207.14 302.99,-200.16 310.13,-199.15"/>
<text text-anchor="middle" x="451" y="-121.8" font-family="Times,serif" font-size="14.00" fill="green">dynamic_filter</text>
</g>
</g>
</svg>
