<?xml version="1.0" encoding="UTF-8" standalone="no"?>
<!DOCTYPE svg PUBLIC "-//W3C//DTD SVG 1.1//EN"
 "http://www.w3.org/Graphics/SVG/1.1/DTD/svg11.dtd">
<!-- Generated by graphviz version 2.50.0 (0)
 -->
<!-- Title: classes_basicsr.archs.swinir_arch Pages: 1 -->
<svg width="1710pt" height="799pt"
 viewBox="0.00 0.00 1710.00 799.00" xmlns="http://www.w3.org/2000/svg" xmlns:xlink="http://www.w3.org/1999/xlink">
<g id="graph0" class="graph" transform="scale(1 1) rotate(0) translate(4 795)">
<title>classes_basicsr.archs.swinir_arch</title>
<polygon fill="white" stroke="transparent" points="-4,4 -4,-795 1706,-795 1706,4 -4,4"/>
<!-- basicsr.archs.swinir_arch.BasicLayer -->
<g id="node1" class="node">
<title>basicsr.archs.swinir_arch.BasicLayer</title>
<polygon fill="none" stroke="black" points="0,-30.5 0,-204.5 191,-204.5 191,-30.5 0,-30.5"/>
<text text-anchor="middle" x="95.5" y="-189.3" font-family="Times,serif" font-size="14.00">BasicLayer</text>
<polyline fill="none" stroke="black" points="0,-181.5 191,-181.5 "/>
<text text-anchor="start" x="8" y="-166.3" font-family="Times,serif" font-size="14.00">blocks</text>
<text text-anchor="start" x="8" y="-151.3" font-family="Times,serif" font-size="14.00">depth</text>
<text text-anchor="start" x="8" y="-136.3" font-family="Times,serif" font-size="14.00">dim</text>
<text text-anchor="start" x="8" y="-121.3" font-family="Times,serif" font-size="14.00">downsample : NoneType</text>
<text text-anchor="start" x="8" y="-106.3" font-family="Times,serif" font-size="14.00">input_resolution</text>
<text text-anchor="start" x="8" y="-91.3" font-family="Times,serif" font-size="14.00">use_checkpoint : bool</text>
<polyline fill="none" stroke="black" points="0,-83.5 191,-83.5 "/>
<text text-anchor="start" x="8" y="-68.3" font-family="Times,serif" font-size="14.00">extra_repr(): str</text>
<text text-anchor="start" x="8" y="-53.3" font-family="Times,serif" font-size="14.00">flops()</text>
<text text-anchor="start" x="8" y="-38.3" font-family="Times,serif" font-size="14.00">forward(x, x_size)</text>
</g>
<!-- basicsr.archs.swinir_arch.RSTB -->
<g id="node7" class="node">
<title>basicsr.archs.swinir_arch.RSTB</title>
<polygon fill="none" stroke="black" points="154,-459 154,-618 297,-618 297,-459 154,-459"/>
<text text-anchor="middle" x="225.5" y="-602.8" font-family="Times,serif" font-size="14.00">RSTB</text>
<polyline fill="none" stroke="black" points="154,-595 297,-595 "/>
<text text-anchor="start" x="162" y="-579.8" font-family="Times,serif" font-size="14.00">conv</text>
<text text-anchor="start" x="162" y="-564.8" font-family="Times,serif" font-size="14.00">dim</text>
<text text-anchor="start" x="162" y="-549.8" font-family="Times,serif" font-size="14.00">input_resolution</text>
<text text-anchor="start" x="162" y="-534.8" font-family="Times,serif" font-size="14.00">patch_embed</text>
<text text-anchor="start" x="162" y="-519.8" font-family="Times,serif" font-size="14.00">patch_unembed</text>
<text text-anchor="start" x="162" y="-504.8" font-family="Times,serif" font-size="14.00">residual_group</text>
<polyline fill="none" stroke="black" points="154,-497 297,-497 "/>
<text text-anchor="start" x="162" y="-481.8" font-family="Times,serif" font-size="14.00">flops()</text>
<text text-anchor="start" x="162" y="-466.8" font-family="Times,serif" font-size="14.00">forward(x, x_size)</text>
</g>
<!-- basicsr.archs.swinir_arch.BasicLayer&#45;&gt;basicsr.archs.swinir_arch.RSTB -->
<g id="edge1" class="edge">
<title>basicsr.archs.swinir_arch.BasicLayer&#45;&gt;basicsr.archs.swinir_arch.RSTB</title>
<path fill="none" stroke="black" d="M100.37,-204.66C102.74,-225.6 106.26,-247.78 111.5,-268 127.58,-330.08 155.52,-396.47 179.72,-447.82"/>
<polygon fill="black" stroke="black" points="179.82,-448.04 186.01,-451.74 184.97,-458.87 178.78,-455.17 179.82,-448.04"/>
<text text-anchor="middle" x="165" y="-256.8" font-family="Times,serif" font-size="14.00" fill="green">residual_group</text>
</g>
<!-- basicsr.archs.swinir_arch.DropPath -->
<g id="node2" class="node">
<title>basicsr.archs.swinir_arch.DropPath</title>
<polygon fill="none" stroke="black" points="1033,-83 1033,-152 1208,-152 1208,-83 1033,-83"/>
<text text-anchor="middle" x="1120.5" y="-136.8" font-family="Times,serif" font-size="14.00">DropPath</text>
<polyline fill="none" stroke="black" points="1033,-129 1208,-129 "/>
<text text-anchor="start" x="1041" y="-113.8" font-family="Times,serif" font-size="14.00">drop_prob : NoneType</text>
<polyline fill="none" stroke="black" points="1033,-106 1208,-106 "/>
<text text-anchor="start" x="1041" y="-90.8" font-family="Times,serif" font-size="14.00">forward(x)</text>
</g>
<!-- basicsr.archs.swinir_arch.SwinTransformerBlock -->
<g id="node9" class="node">
<title>basicsr.archs.swinir_arch.SwinTransformerBlock</title>
<polygon fill="none" stroke="black" points="1182.5,-406.5 1182.5,-670.5 1362.5,-670.5 1362.5,-406.5 1182.5,-406.5"/>
<text text-anchor="middle" x="1272.5" y="-655.3" font-family="Times,serif" font-size="14.00">SwinTransformerBlock</text>
<polyline fill="none" stroke="black" points="1182.5,-647.5 1362.5,-647.5 "/>
<text text-anchor="start" x="1190.5" y="-632.3" font-family="Times,serif" font-size="14.00">attn</text>
<text text-anchor="start" x="1190.5" y="-617.3" font-family="Times,serif" font-size="14.00">dim</text>
<text text-anchor="start" x="1190.5" y="-602.3" font-family="Times,serif" font-size="14.00">drop_path</text>
<text text-anchor="start" x="1190.5" y="-587.3" font-family="Times,serif" font-size="14.00">input_resolution</text>
<text text-anchor="start" x="1190.5" y="-572.3" font-family="Times,serif" font-size="14.00">mlp</text>
<text text-anchor="start" x="1190.5" y="-557.3" font-family="Times,serif" font-size="14.00">mlp_ratio : float</text>
<text text-anchor="start" x="1190.5" y="-542.3" font-family="Times,serif" font-size="14.00">norm1</text>
<text text-anchor="start" x="1190.5" y="-527.3" font-family="Times,serif" font-size="14.00">norm2</text>
<text text-anchor="start" x="1190.5" y="-512.3" font-family="Times,serif" font-size="14.00">num_heads</text>
<text text-anchor="start" x="1190.5" y="-497.3" font-family="Times,serif" font-size="14.00">shift_size : int</text>
<text text-anchor="start" x="1190.5" y="-482.3" font-family="Times,serif" font-size="14.00">window_size : int</text>
<polyline fill="none" stroke="black" points="1182.5,-474.5 1362.5,-474.5 "/>
<text text-anchor="start" x="1190.5" y="-459.3" font-family="Times,serif" font-size="14.00">calculate_mask(x_size)</text>
<text text-anchor="start" x="1190.5" y="-444.3" font-family="Times,serif" font-size="14.00">extra_repr(): str</text>
<text text-anchor="start" x="1190.5" y="-429.3" font-family="Times,serif" font-size="14.00">flops()</text>
<text text-anchor="start" x="1190.5" y="-414.3" font-family="Times,serif" font-size="14.00">forward(x, x_size)</text>
</g>
<!-- basicsr.archs.swinir_arch.DropPath&#45;&gt;basicsr.archs.swinir_arch.SwinTransformerBlock -->
<g id="edge2" class="edge">
<title>basicsr.archs.swinir_arch.DropPath&#45;&gt;basicsr.archs.swinir_arch.SwinTransformerBlock</title>
<path fill="none" stroke="black" d="M1132.68,-152.08C1151.65,-204.36 1189.32,-308.21 1220.79,-394.95"/>
<polygon fill="black" stroke="black" points="1220.8,-394.97 1226.6,-399.25 1224.89,-406.25 1219.08,-401.98 1220.8,-394.97"/>
<text text-anchor="middle" x="1210" y="-256.8" font-family="Times,serif" font-size="14.00" fill="green">drop_path</text>
</g>
<!-- basicsr.archs.swinir_arch.Mlp -->
<g id="node3" class="node">
<title>basicsr.archs.swinir_arch.Mlp</title>
<polygon fill="none" stroke="black" points="1226.5,-60.5 1226.5,-174.5 1318.5,-174.5 1318.5,-60.5 1226.5,-60.5"/>
<text text-anchor="middle" x="1272.5" y="-159.3" font-family="Times,serif" font-size="14.00">Mlp</text>
<polyline fill="none" stroke="black" points="1226.5,-151.5 1318.5,-151.5 "/>
<text text-anchor="start" x="1234.5" y="-136.3" font-family="Times,serif" font-size="14.00">act</text>
<text text-anchor="start" x="1234.5" y="-121.3" font-family="Times,serif" font-size="14.00">drop</text>
<text text-anchor="start" x="1234.5" y="-106.3" font-family="Times,serif" font-size="14.00">fc1</text>
<text text-anchor="start" x="1234.5" y="-91.3" font-family="Times,serif" font-size="14.00">fc2</text>
<polyline fill="none" stroke="black" points="1226.5,-83.5 1318.5,-83.5 "/>
<text text-anchor="start" x="1234.5" y="-68.3" font-family="Times,serif" font-size="14.00">forward(x)</text>
</g>
<!-- basicsr.archs.swinir_arch.Mlp&#45;&gt;basicsr.archs.swinir_arch.SwinTransformerBlock -->
<g id="edge3" class="edge">
<title>basicsr.archs.swinir_arch.Mlp&#45;&gt;basicsr.archs.swinir_arch.SwinTransformerBlock</title>
<path fill="none" stroke="black" d="M1272.5,-174.57C1272.5,-230.56 1272.5,-318.91 1272.5,-394.42"/>
<polygon fill="black" stroke="black" points="1272.5,-394.42 1276.5,-400.42 1272.5,-406.42 1268.5,-400.42 1272.5,-394.42"/>
<text text-anchor="middle" x="1286.5" y="-256.8" font-family="Times,serif" font-size="14.00" fill="green">mlp</text>
</g>
<!-- basicsr.archs.swinir_arch.PatchEmbed -->
<g id="node4" class="node">
<title>basicsr.archs.swinir_arch.PatchEmbed</title>
<polygon fill="none" stroke="black" points="230,-30.5 230,-204.5 417,-204.5 417,-30.5 230,-30.5"/>
<text text-anchor="middle" x="323.5" y="-189.3" font-family="Times,serif" font-size="14.00">PatchEmbed</text>
<polyline fill="none" stroke="black" points="230,-181.5 417,-181.5 "/>
<text text-anchor="start" x="238" y="-166.3" font-family="Times,serif" font-size="14.00">embed_dim : int</text>
<text text-anchor="start" x="238" y="-151.3" font-family="Times,serif" font-size="14.00">img_size</text>
<text text-anchor="start" x="238" y="-136.3" font-family="Times,serif" font-size="14.00">in_chans : int</text>
<text text-anchor="start" x="238" y="-121.3" font-family="Times,serif" font-size="14.00">norm : NoneType</text>
<text text-anchor="start" x="238" y="-106.3" font-family="Times,serif" font-size="14.00">num_patches</text>
<text text-anchor="start" x="238" y="-91.3" font-family="Times,serif" font-size="14.00">patch_size</text>
<text text-anchor="start" x="238" y="-76.3" font-family="Times,serif" font-size="14.00">patches_resolution : list</text>
<polyline fill="none" stroke="black" points="230,-68.5 417,-68.5 "/>
<text text-anchor="start" x="238" y="-53.3" font-family="Times,serif" font-size="14.00">flops()</text>
<text text-anchor="start" x="238" y="-38.3" font-family="Times,serif" font-size="14.00">forward(x)</text>
</g>
<!-- basicsr.archs.swinir_arch.PatchEmbed&#45;&gt;basicsr.archs.swinir_arch.RSTB -->
<g id="edge4" class="edge">
<title>basicsr.archs.swinir_arch.PatchEmbed&#45;&gt;basicsr.archs.swinir_arch.RSTB</title>
<path fill="none" stroke="black" d="M249.84,-204.66C240.28,-219.92 231.93,-236.3 226.5,-253 206.24,-315.36 206.72,-389.56 211.88,-446.54"/>
<polygon fill="black" stroke="black" points="211.91,-446.85 216.48,-452.43 213.09,-458.79 208.52,-453.21 211.91,-446.85"/>
<text text-anchor="middle" x="274" y="-256.8" font-family="Times,serif" font-size="14.00" fill="green">patch_embed</text>
</g>
<!-- basicsr.archs.swinir_arch.SwinIR -->
<g id="node8" class="node">
<title>basicsr.archs.swinir_arch.SwinIR</title>
<polygon fill="none" stroke="black" points="554,-286.5 554,-790.5 777,-790.5 777,-286.5 554,-286.5"/>
<text text-anchor="middle" x="665.5" y="-775.3" font-family="Times,serif" font-size="14.00">SwinIR</text>
<polyline fill="none" stroke="black" points="554,-767.5 777,-767.5 "/>
<text text-anchor="start" x="562" y="-752.3" font-family="Times,serif" font-size="14.00">absolute_pos_embed</text>
<text text-anchor="start" x="562" y="-737.3" font-family="Times,serif" font-size="14.00">ape : bool</text>
<text text-anchor="start" x="562" y="-722.3" font-family="Times,serif" font-size="14.00">conv_after_body</text>
<text text-anchor="start" x="562" y="-707.3" font-family="Times,serif" font-size="14.00">conv_before_upsample</text>
<text text-anchor="start" x="562" y="-692.3" font-family="Times,serif" font-size="14.00">conv_first</text>
<text text-anchor="start" x="562" y="-677.3" font-family="Times,serif" font-size="14.00">conv_hr</text>
<text text-anchor="start" x="562" y="-662.3" font-family="Times,serif" font-size="14.00">conv_last</text>
<text text-anchor="start" x="562" y="-647.3" font-family="Times,serif" font-size="14.00">conv_up1</text>
<text text-anchor="start" x="562" y="-632.3" font-family="Times,serif" font-size="14.00">conv_up2</text>
<text text-anchor="start" x="562" y="-617.3" font-family="Times,serif" font-size="14.00">embed_dim : int</text>
<text text-anchor="start" x="562" y="-602.3" font-family="Times,serif" font-size="14.00">img_range : float</text>
<text text-anchor="start" x="562" y="-587.3" font-family="Times,serif" font-size="14.00">layers</text>
<text text-anchor="start" x="562" y="-572.3" font-family="Times,serif" font-size="14.00">lrelu</text>
<text text-anchor="start" x="562" y="-557.3" font-family="Times,serif" font-size="14.00">mean</text>
<text text-anchor="start" x="562" y="-542.3" font-family="Times,serif" font-size="14.00">mlp_ratio : float</text>
<text text-anchor="start" x="562" y="-527.3" font-family="Times,serif" font-size="14.00">norm</text>
<text text-anchor="start" x="562" y="-512.3" font-family="Times,serif" font-size="14.00">num_features : int</text>
<text text-anchor="start" x="562" y="-497.3" font-family="Times,serif" font-size="14.00">num_layers</text>
<text text-anchor="start" x="562" y="-482.3" font-family="Times,serif" font-size="14.00">patch_embed</text>
<text text-anchor="start" x="562" y="-467.3" font-family="Times,serif" font-size="14.00">patch_norm : bool</text>
<text text-anchor="start" x="562" y="-452.3" font-family="Times,serif" font-size="14.00">patch_unembed</text>
<text text-anchor="start" x="562" y="-437.3" font-family="Times,serif" font-size="14.00">patches_resolution : list</text>
<text text-anchor="start" x="562" y="-422.3" font-family="Times,serif" font-size="14.00">pos_drop</text>
<text text-anchor="start" x="562" y="-407.3" font-family="Times,serif" font-size="14.00">upsample</text>
<text text-anchor="start" x="562" y="-392.3" font-family="Times,serif" font-size="14.00">upsampler : str</text>
<text text-anchor="start" x="562" y="-377.3" font-family="Times,serif" font-size="14.00">upscale : int</text>
<polyline fill="none" stroke="black" points="554,-369.5 777,-369.5 "/>
<text text-anchor="start" x="562" y="-354.3" font-family="Times,serif" font-size="14.00">flops()</text>
<text text-anchor="start" x="562" y="-339.3" font-family="Times,serif" font-size="14.00">forward(x)</text>
<text text-anchor="start" x="562" y="-324.3" font-family="Times,serif" font-size="14.00">forward_features(x)</text>
<text text-anchor="start" x="562" y="-309.3" font-family="Times,serif" font-size="14.00">no_weight_decay()</text>
<text text-anchor="start" x="562" y="-294.3" font-family="Times,serif" font-size="14.00">no_weight_decay_keywords()</text>
</g>
<!-- basicsr.archs.swinir_arch.PatchEmbed&#45;&gt;basicsr.archs.swinir_arch.SwinIR -->
<g id="edge5" class="edge">
<title>basicsr.archs.swinir_arch.PatchEmbed&#45;&gt;basicsr.archs.swinir_arch.SwinIR</title>
<path fill="none" stroke="black" d="M322.12,-204.53C324.71,-226.24 330.12,-248.82 340.5,-268 386.62,-353.26 471.82,-422.35 543.42,-469.23"/>
<polygon fill="black" stroke="black" points="543.79,-469.47 551,-469.36 553.87,-475.98 546.66,-476.09 543.79,-469.47"/>
<text text-anchor="middle" x="388" y="-256.8" font-family="Times,serif" font-size="14.00" fill="green">patch_embed</text>
</g>
<!-- basicsr.archs.swinir_arch.PatchMerging -->
<g id="node5" class="node">
<title>basicsr.archs.swinir_arch.PatchMerging</title>
<polygon fill="none" stroke="black" points="1569,-45.5 1569,-189.5 1702,-189.5 1702,-45.5 1569,-45.5"/>
<text text-anchor="middle" x="1635.5" y="-174.3" font-family="Times,serif" font-size="14.00">PatchMerging</text>
<polyline fill="none" stroke="black" points="1569,-166.5 1702,-166.5 "/>
<text text-anchor="start" x="1577" y="-151.3" font-family="Times,serif" font-size="14.00">dim</text>
<text text-anchor="start" x="1577" y="-136.3" font-family="Times,serif" font-size="14.00">input_resolution</text>
<text text-anchor="start" x="1577" y="-121.3" font-family="Times,serif" font-size="14.00">norm</text>
<text text-anchor="start" x="1577" y="-106.3" font-family="Times,serif" font-size="14.00">reduction</text>
<polyline fill="none" stroke="black" points="1569,-98.5 1702,-98.5 "/>
<text text-anchor="start" x="1577" y="-83.3" font-family="Times,serif" font-size="14.00">extra_repr(): str</text>
<text text-anchor="start" x="1577" y="-68.3" font-family="Times,serif" font-size="14.00">flops()</text>
<text text-anchor="start" x="1577" y="-53.3" font-family="Times,serif" font-size="14.00">forward(x)</text>
</g>
<!-- basicsr.archs.swinir_arch.PatchUnEmbed -->
<g id="node6" class="node">
<title>basicsr.archs.swinir_arch.PatchUnEmbed</title>
<polygon fill="none" stroke="black" points="460,-38 460,-197 647,-197 647,-38 460,-38"/>
<text text-anchor="middle" x="553.5" y="-181.8" font-family="Times,serif" font-size="14.00">PatchUnEmbed</text>
<polyline fill="none" stroke="black" points="460,-174 647,-174 "/>
<text text-anchor="start" x="468" y="-158.8" font-family="Times,serif" font-size="14.00">embed_dim : int</text>
<text text-anchor="start" x="468" y="-143.8" font-family="Times,serif" font-size="14.00">img_size</text>
<text text-anchor="start" x="468" y="-128.8" font-family="Times,serif" font-size="14.00">in_chans : int</text>
<text text-anchor="start" x="468" y="-113.8" font-family="Times,serif" font-size="14.00">num_patches</text>
<text text-anchor="start" x="468" y="-98.8" font-family="Times,serif" font-size="14.00">patch_size</text>
<text text-anchor="start" x="468" y="-83.8" font-family="Times,serif" font-size="14.00">patches_resolution : list</text>
<polyline fill="none" stroke="black" points="460,-76 647,-76 "/>
<text text-anchor="start" x="468" y="-60.8" font-family="Times,serif" font-size="14.00">flops()</text>
<text text-anchor="start" x="468" y="-45.8" font-family="Times,serif" font-size="14.00">forward(x, x_size)</text>
</g>
<!-- basicsr.archs.swinir_arch.PatchUnEmbed&#45;&gt;basicsr.archs.swinir_arch.RSTB -->
<g id="edge6" class="edge">
<title>basicsr.archs.swinir_arch.PatchUnEmbed&#45;&gt;basicsr.archs.swinir_arch.RSTB</title>
<path fill="none" stroke="black" d="M494.03,-197.09C476.55,-220.02 457.34,-245.07 439.5,-268 392.18,-328.81 338.22,-396.75 296.33,-449.2"/>
<polygon fill="black" stroke="black" points="296.14,-449.44 295.52,-456.62 288.65,-458.81 289.27,-451.63 296.14,-449.44"/>
<text text-anchor="middle" x="506" y="-256.8" font-family="Times,serif" font-size="14.00" fill="green">patch_unembed</text>
</g>
<!-- basicsr.archs.swinir_arch.PatchUnEmbed&#45;&gt;basicsr.archs.swinir_arch.SwinIR -->
<g id="edge7" class="edge">
<title>basicsr.archs.swinir_arch.PatchUnEmbed&#45;&gt;basicsr.archs.swinir_arch.SwinIR</title>
<path fill="none" stroke="black" d="M574.57,-197.31C580.72,-220.33 587.81,-246.86 595.26,-274.74"/>
<polygon fill="black" stroke="black" points="595.26,-274.74 600.68,-279.5 598.36,-286.33 592.95,-281.57 595.26,-274.74"/>
<text text-anchor="middle" x="650" y="-256.8" font-family="Times,serif" font-size="14.00" fill="green">patch_unembed</text>
</g>
<!-- basicsr.archs.swinir_arch.Upsample -->
<g id="node10" class="node">
<title>basicsr.archs.swinir_arch.Upsample</title>
<polygon fill="none" stroke="black" points="689,-82.5 689,-152.5 778,-152.5 778,-82.5 689,-82.5"/>
<text text-anchor="middle" x="733.5" y="-137.3" font-family="Times,serif" font-size="14.00">Upsample</text>
<polyline fill="none" stroke="black" points="689,-129.5 778,-129.5 "/>
<polyline fill="none" stroke="black" points="689,-105.5 778,-105.5 "/>
<text text-anchor="middle" x="733.5" y="-90.3" font-family="Times,serif" font-size="14.00"> </text>
</g>
<!-- basicsr.archs.swinir_arch.Upsample&#45;&gt;basicsr.archs.swinir_arch.SwinIR -->
<g id="edge8" class="edge">
<title>basicsr.archs.swinir_arch.Upsample&#45;&gt;basicsr.archs.swinir_arch.SwinIR</title>
<path fill="none" stroke="black" d="M728.7,-152.68C724.38,-183 717.78,-228.49 711.5,-268 711.15,-270.19 710.8,-272.39 710.45,-274.6"/>
<polygon fill="black" stroke="black" points="710.44,-274.64 713.44,-281.2 708.54,-286.49 705.54,-279.93 710.44,-274.64"/>
<text text-anchor="middle" x="748.5" y="-256.8" font-family="Times,serif" font-size="14.00" fill="green">upsample</text>
</g>
<!-- basicsr.archs.swinir_arch.UpsampleOneStep -->
<g id="node11" class="node">
<title>basicsr.archs.swinir_arch.UpsampleOneStep</title>
<polygon fill="none" stroke="black" points="796.5,-75.5 796.5,-159.5 1014.5,-159.5 1014.5,-75.5 796.5,-75.5"/>
<text text-anchor="middle" x="905.5" y="-144.3" font-family="Times,serif" font-size="14.00">UpsampleOneStep</text>
<polyline fill="none" stroke="black" points="796.5,-136.5 1014.5,-136.5 "/>
<text text-anchor="start" x="804.5" y="-121.3" font-family="Times,serif" font-size="14.00">input_resolution : NoneType</text>
<text text-anchor="start" x="804.5" y="-106.3" font-family="Times,serif" font-size="14.00">num_feat</text>
<polyline fill="none" stroke="black" points="796.5,-98.5 1014.5,-98.5 "/>
<text text-anchor="start" x="804.5" y="-83.3" font-family="Times,serif" font-size="14.00">flops()</text>
</g>
<!-- basicsr.archs.swinir_arch.UpsampleOneStep&#45;&gt;basicsr.archs.swinir_arch.SwinIR -->
<g id="edge9" class="edge">
<title>basicsr.archs.swinir_arch.UpsampleOneStep&#45;&gt;basicsr.archs.swinir_arch.SwinIR</title>
<path fill="none" stroke="black" d="M881.83,-159.82C858.37,-200.78 820.61,-266.7 783.16,-332.09"/>
<polygon fill="black" stroke="black" points="783.11,-332.16 783.6,-339.36 777.15,-342.58 776.66,-335.38 783.11,-332.16"/>
<text text-anchor="middle" x="863.5" y="-256.8" font-family="Times,serif" font-size="14.00" fill="green">upsample</text>
</g>
<!-- basicsr.archs.swinir_arch.WindowAttention -->
<g id="node12" class="node">
<title>basicsr.archs.swinir_arch.WindowAttention</title>
<polygon fill="none" stroke="black" points="1336.5,-0.5 1336.5,-234.5 1550.5,-234.5 1550.5,-0.5 1336.5,-0.5"/>
<text text-anchor="middle" x="1443.5" y="-219.3" font-family="Times,serif" font-size="14.00">WindowAttention</text>
<polyline fill="none" stroke="black" points="1336.5,-211.5 1550.5,-211.5 "/>
<text text-anchor="start" x="1344.5" y="-196.3" font-family="Times,serif" font-size="14.00">attn_drop</text>
<text text-anchor="start" x="1344.5" y="-181.3" font-family="Times,serif" font-size="14.00">dim</text>
<text text-anchor="start" x="1344.5" y="-166.3" font-family="Times,serif" font-size="14.00">num_heads</text>
<text text-anchor="start" x="1344.5" y="-151.3" font-family="Times,serif" font-size="14.00">proj</text>
<text text-anchor="start" x="1344.5" y="-136.3" font-family="Times,serif" font-size="14.00">proj_drop</text>
<text text-anchor="start" x="1344.5" y="-121.3" font-family="Times,serif" font-size="14.00">qkv</text>
<text text-anchor="start" x="1344.5" y="-106.3" font-family="Times,serif" font-size="14.00">relative_position_bias_table</text>
<text text-anchor="start" x="1344.5" y="-91.3" font-family="Times,serif" font-size="14.00">scale</text>
<text text-anchor="start" x="1344.5" y="-76.3" font-family="Times,serif" font-size="14.00">softmax</text>
<text text-anchor="start" x="1344.5" y="-61.3" font-family="Times,serif" font-size="14.00">window_size</text>
<polyline fill="none" stroke="black" points="1336.5,-53.5 1550.5,-53.5 "/>
<text text-anchor="start" x="1344.5" y="-38.3" font-family="Times,serif" font-size="14.00">extra_repr(): str</text>
<text text-anchor="start" x="1344.5" y="-23.3" font-family="Times,serif" font-size="14.00">flops(n)</text>
<text text-anchor="start" x="1344.5" y="-8.3" font-family="Times,serif" font-size="14.00">forward(x, mask)</text>
</g>
<!-- basicsr.archs.swinir_arch.WindowAttention&#45;&gt;basicsr.archs.swinir_arch.SwinTransformerBlock -->
<g id="edge10" class="edge">
<title>basicsr.archs.swinir_arch.WindowAttention&#45;&gt;basicsr.archs.swinir_arch.SwinTransformerBlock</title>
<path fill="none" stroke="black" d="M1396.09,-234.66C1375.84,-284.3 1351.99,-342.73 1330.68,-394.95"/>
<polygon fill="black" stroke="black" points="1330.56,-395.23 1332,-402.3 1326.03,-406.34 1324.59,-399.27 1330.56,-395.23"/>
<text text-anchor="middle" x="1402.5" y="-256.8" font-family="Times,serif" font-size="14.00" fill="green">attn</text>
</g>
</g>
</svg>
