<?xml version="1.0" encoding="UTF-8" standalone="no"?>
<!DOCTYPE svg PUBLIC "-//W3C//DTD SVG 1.1//EN"
 "http://www.w3.org/Graphics/SVG/1.1/DTD/svg11.dtd">
<!-- Generated by graphviz version 2.50.0 (0)
 -->
<!-- Title: classes_basicsr.archs.basicvsr_arch Pages: 1 -->
<svg width="637pt" height="589pt"
 viewBox="0.00 0.00 636.70 589.00" xmlns="http://www.w3.org/2000/svg" xmlns:xlink="http://www.w3.org/1999/xlink">
<g id="graph0" class="graph" transform="scale(1 1) rotate(0) translate(4 585)">
<title>classes_basicsr.archs.basicvsr_arch</title>
<polygon fill="white" stroke="transparent" points="-4,4 -4,-585 632.7,-585 632.7,4 -4,4"/>
<!-- basicsr.archs.basicvsr_arch.BasicVSR -->
<g id="node1" class="node">
<title>basicsr.archs.basicvsr_arch.BasicVSR</title>
<polygon fill="none" stroke="black" points="13.2,-301.5 13.2,-535.5 144.2,-535.5 144.2,-301.5 13.2,-301.5"/>
<text text-anchor="middle" x="78.7" y="-520.3" font-family="Times,serif" font-size="14.00">BasicVSR</text>
<polyline fill="none" stroke="black" points="13.2,-512.5 144.2,-512.5 "/>
<text text-anchor="start" x="21.2" y="-497.3" font-family="Times,serif" font-size="14.00">backward_trunk</text>
<text text-anchor="start" x="21.2" y="-482.3" font-family="Times,serif" font-size="14.00">conv_hr</text>
<text text-anchor="start" x="21.2" y="-467.3" font-family="Times,serif" font-size="14.00">conv_last</text>
<text text-anchor="start" x="21.2" y="-452.3" font-family="Times,serif" font-size="14.00">forward_trunk</text>
<text text-anchor="start" x="21.2" y="-437.3" font-family="Times,serif" font-size="14.00">fusion</text>
<text text-anchor="start" x="21.2" y="-422.3" font-family="Times,serif" font-size="14.00">lrelu</text>
<text text-anchor="start" x="21.2" y="-407.3" font-family="Times,serif" font-size="14.00">num_feat : int</text>
<text text-anchor="start" x="21.2" y="-392.3" font-family="Times,serif" font-size="14.00">pixel_shuffle</text>
<text text-anchor="start" x="21.2" y="-377.3" font-family="Times,serif" font-size="14.00">spynet</text>
<text text-anchor="start" x="21.2" y="-362.3" font-family="Times,serif" font-size="14.00">upconv1</text>
<text text-anchor="start" x="21.2" y="-347.3" font-family="Times,serif" font-size="14.00">upconv2</text>
<polyline fill="none" stroke="black" points="13.2,-339.5 144.2,-339.5 "/>
<text text-anchor="start" x="21.2" y="-324.3" font-family="Times,serif" font-size="14.00">forward(x)</text>
<text text-anchor="start" x="21.2" y="-309.3" font-family="Times,serif" font-size="14.00">get_flow(x)</text>
</g>
<!-- basicsr.archs.basicvsr_arch.ConvResidualBlocks -->
<g id="node2" class="node">
<title>basicsr.archs.basicvsr_arch.ConvResidualBlocks</title>
<polygon fill="none" stroke="black" points="130.2,-68 130.2,-137 291.2,-137 291.2,-68 130.2,-68"/>
<text text-anchor="middle" x="210.7" y="-121.8" font-family="Times,serif" font-size="14.00">ConvResidualBlocks</text>
<polyline fill="none" stroke="black" points="130.2,-114 291.2,-114 "/>
<text text-anchor="start" x="138.2" y="-98.8" font-family="Times,serif" font-size="14.00">main</text>
<polyline fill="none" stroke="black" points="130.2,-91 291.2,-91 "/>
<text text-anchor="start" x="138.2" y="-75.8" font-family="Times,serif" font-size="14.00">forward(fea)</text>
</g>
<!-- basicsr.archs.basicvsr_arch.ConvResidualBlocks&#45;&gt;basicsr.archs.basicvsr_arch.BasicVSR -->
<g id="edge1" class="edge">
<title>basicsr.archs.basicvsr_arch.ConvResidualBlocks&#45;&gt;basicsr.archs.basicvsr_arch.BasicVSR</title>
<path fill="none" stroke="black" d="M130.12,-129.37C86.45,-147.98 36.3,-177.88 10.7,-223 -4.57,-249.92 -1.75,-280.85 8.67,-310.02"/>
<polygon fill="black" stroke="black" points="8.8,-310.36 14.72,-314.48 13.2,-321.53 7.28,-317.41 8.8,-310.36"/>
<text text-anchor="middle" x="68.2" y="-226.8" font-family="Times,serif" font-size="14.00" fill="green">backward_trunk</text>
</g>
<!-- basicsr.archs.basicvsr_arch.ConvResidualBlocks&#45;&gt;basicsr.archs.basicvsr_arch.BasicVSR -->
<g id="edge2" class="edge">
<title>basicsr.archs.basicvsr_arch.ConvResidualBlocks&#45;&gt;basicsr.archs.basicvsr_arch.BasicVSR</title>
<path fill="none" stroke="black" d="M191.7,-137.17C178.75,-160.79 161.67,-193.34 148.7,-223 139.36,-244.38 130.24,-267.45 121.85,-289.96"/>
<polygon fill="black" stroke="black" points="121.81,-290.06 123.49,-297.07 117.66,-301.32 115.98,-294.3 121.81,-290.06"/>
<text text-anchor="middle" x="200.2" y="-226.8" font-family="Times,serif" font-size="14.00" fill="green">forward_trunk</text>
</g>
<!-- basicsr.archs.basicvsr_arch.IconVSR -->
<g id="node4" class="node">
<title>basicsr.archs.basicvsr_arch.IconVSR</title>
<polygon fill="none" stroke="black" points="264.2,-256.5 264.2,-580.5 559.2,-580.5 559.2,-256.5 264.2,-256.5"/>
<text text-anchor="middle" x="411.7" y="-565.3" font-family="Times,serif" font-size="14.00">IconVSR</text>
<polyline fill="none" stroke="black" points="264.2,-557.5 559.2,-557.5 "/>
<text text-anchor="start" x="272.2" y="-542.3" font-family="Times,serif" font-size="14.00">backward_fusion</text>
<text text-anchor="start" x="272.2" y="-527.3" font-family="Times,serif" font-size="14.00">backward_trunk</text>
<text text-anchor="start" x="272.2" y="-512.3" font-family="Times,serif" font-size="14.00">conv_hr</text>
<text text-anchor="start" x="272.2" y="-497.3" font-family="Times,serif" font-size="14.00">conv_last</text>
<text text-anchor="start" x="272.2" y="-482.3" font-family="Times,serif" font-size="14.00">edvr</text>
<text text-anchor="start" x="272.2" y="-467.3" font-family="Times,serif" font-size="14.00">forward_fusion</text>
<text text-anchor="start" x="272.2" y="-452.3" font-family="Times,serif" font-size="14.00">forward_trunk</text>
<text text-anchor="start" x="272.2" y="-437.3" font-family="Times,serif" font-size="14.00">keyframe_stride : int</text>
<text text-anchor="start" x="272.2" y="-422.3" font-family="Times,serif" font-size="14.00">lrelu</text>
<text text-anchor="start" x="272.2" y="-407.3" font-family="Times,serif" font-size="14.00">num_feat : int</text>
<text text-anchor="start" x="272.2" y="-392.3" font-family="Times,serif" font-size="14.00">pixel_shuffle</text>
<text text-anchor="start" x="272.2" y="-377.3" font-family="Times,serif" font-size="14.00">spynet</text>
<text text-anchor="start" x="272.2" y="-362.3" font-family="Times,serif" font-size="14.00">temporal_padding : int</text>
<text text-anchor="start" x="272.2" y="-347.3" font-family="Times,serif" font-size="14.00">upconv1</text>
<text text-anchor="start" x="272.2" y="-332.3" font-family="Times,serif" font-size="14.00">upconv2</text>
<polyline fill="none" stroke="black" points="264.2,-324.5 559.2,-324.5 "/>
<text text-anchor="start" x="272.2" y="-309.3" font-family="Times,serif" font-size="14.00">forward(x)</text>
<text text-anchor="start" x="272.2" y="-294.3" font-family="Times,serif" font-size="14.00">get_flow(x)</text>
<text text-anchor="start" x="272.2" y="-279.3" font-family="Times,serif" font-size="14.00">get_keyframe_feature(x, keyframe_idx)</text>
<text text-anchor="start" x="272.2" y="-264.3" font-family="Times,serif" font-size="14.00">pad_spatial(x)</text>
</g>
<!-- basicsr.archs.basicvsr_arch.ConvResidualBlocks&#45;&gt;basicsr.archs.basicvsr_arch.IconVSR -->
<g id="edge3" class="edge">
<title>basicsr.archs.basicvsr_arch.ConvResidualBlocks&#45;&gt;basicsr.archs.basicvsr_arch.IconVSR</title>
<path fill="none" stroke="black" d="M224.38,-137.11C236.24,-164.94 254.63,-205.11 274.7,-238 276.33,-240.67 277.99,-243.35 279.68,-246.04"/>
<polygon fill="black" stroke="black" points="279.86,-246.31 286.46,-249.2 286.34,-256.41 279.73,-253.52 279.86,-246.31"/>
<text text-anchor="middle" x="332.2" y="-226.8" font-family="Times,serif" font-size="14.00" fill="green">backward_trunk</text>
</g>
<!-- basicsr.archs.basicvsr_arch.ConvResidualBlocks&#45;&gt;basicsr.archs.basicvsr_arch.IconVSR -->
<g id="edge4" class="edge">
<title>basicsr.archs.basicvsr_arch.ConvResidualBlocks&#45;&gt;basicsr.archs.basicvsr_arch.IconVSR</title>
<path fill="none" stroke="black" d="M290.2,-137.17C326.59,-156.78 366.66,-185.19 389.7,-223 393.92,-229.92 397.54,-237.24 400.65,-244.83"/>
<polygon fill="black" stroke="black" points="400.66,-244.86 406.49,-249.09 404.83,-256.11 398.99,-251.87 400.66,-244.86"/>
<text text-anchor="middle" x="449.2" y="-226.8" font-family="Times,serif" font-size="14.00" fill="green">forward_trunk</text>
</g>
<!-- basicsr.archs.basicvsr_arch.EDVRFeatureExtractor -->
<g id="node3" class="node">
<title>basicsr.archs.basicvsr_arch.EDVRFeatureExtractor</title>
<polygon fill="none" stroke="black" points="446.7,-0.5 446.7,-204.5 628.7,-204.5 628.7,-0.5 446.7,-0.5"/>
<text text-anchor="middle" x="537.7" y="-189.3" font-family="Times,serif" font-size="14.00">EDVRFeatureExtractor</text>
<polyline fill="none" stroke="black" points="446.7,-181.5 628.7,-181.5 "/>
<text text-anchor="start" x="454.7" y="-166.3" font-family="Times,serif" font-size="14.00">center_frame_idx</text>
<text text-anchor="start" x="454.7" y="-151.3" font-family="Times,serif" font-size="14.00">conv_first</text>
<text text-anchor="start" x="454.7" y="-136.3" font-family="Times,serif" font-size="14.00">conv_l2_1</text>
<text text-anchor="start" x="454.7" y="-121.3" font-family="Times,serif" font-size="14.00">conv_l2_2</text>
<text text-anchor="start" x="454.7" y="-106.3" font-family="Times,serif" font-size="14.00">conv_l3_1</text>
<text text-anchor="start" x="454.7" y="-91.3" font-family="Times,serif" font-size="14.00">conv_l3_2</text>
<text text-anchor="start" x="454.7" y="-76.3" font-family="Times,serif" font-size="14.00">feature_extraction</text>
<text text-anchor="start" x="454.7" y="-61.3" font-family="Times,serif" font-size="14.00">fusion</text>
<text text-anchor="start" x="454.7" y="-46.3" font-family="Times,serif" font-size="14.00">lrelu</text>
<text text-anchor="start" x="454.7" y="-31.3" font-family="Times,serif" font-size="14.00">pcd_align</text>
<polyline fill="none" stroke="black" points="446.7,-23.5 628.7,-23.5 "/>
<text text-anchor="start" x="454.7" y="-8.3" font-family="Times,serif" font-size="14.00">forward(x)</text>
</g>
<!-- basicsr.archs.basicvsr_arch.EDVRFeatureExtractor&#45;&gt;basicsr.archs.basicvsr_arch.IconVSR -->
<g id="edge5" class="edge">
<title>basicsr.archs.basicvsr_arch.EDVRFeatureExtractor&#45;&gt;basicsr.archs.basicvsr_arch.IconVSR</title>
<path fill="none" stroke="black" d="M525.23,-204.77C522.63,-216.13 519.49,-227.42 515.7,-238 514.85,-240.38 513.96,-242.77 513.05,-245.16"/>
<polygon fill="black" stroke="black" points="513.03,-245.22 514.51,-252.28 508.57,-256.36 507.08,-249.31 513.03,-245.22"/>
<text text-anchor="middle" x="537.2" y="-226.8" font-family="Times,serif" font-size="14.00" fill="green">edvr</text>
</g>
</g>
</svg>
