<?xml version="1.0" encoding="UTF-8" standalone="no"?>
<!DOCTYPE svg PUBLIC "-//W3C//DTD SVG 1.1//EN"
 "http://www.w3.org/Graphics/SVG/1.1/DTD/svg11.dtd">
<!-- Generated by graphviz version 2.50.0 (0)
 -->
<!-- Title: classes_basicsr.archs.ridnet_arch Pages: 1 -->
<svg width="645pt" height="304pt"
 viewBox="0.00 0.00 645.00 304.00" xmlns="http://www.w3.org/2000/svg" xmlns:xlink="http://www.w3.org/1999/xlink">
<g id="graph0" class="graph" transform="scale(1 1) rotate(0) translate(4 300)">
<title>classes_basicsr.archs.ridnet_arch</title>
<polygon fill="white" stroke="transparent" points="-4,4 -4,-300 641,-300 641,4 -4,4"/>
<!-- basicsr.archs.ridnet_arch.ChannelAttention -->
<g id="node1" class="node">
<title>basicsr.archs.ridnet_arch.ChannelAttention</title>
<polygon fill="none" stroke="black" points="0,-15.5 0,-84.5 142,-84.5 142,-15.5 0,-15.5"/>
<text text-anchor="middle" x="71" y="-69.3" font-family="Times,serif" font-size="14.00">ChannelAttention</text>
<polyline fill="none" stroke="black" points="0,-61.5 142,-61.5 "/>
<text text-anchor="start" x="8" y="-46.3" font-family="Times,serif" font-size="14.00">attention</text>
<polyline fill="none" stroke="black" points="0,-38.5 142,-38.5 "/>
<text text-anchor="start" x="8" y="-23.3" font-family="Times,serif" font-size="14.00">forward(x)</text>
</g>
<!-- basicsr.archs.ridnet_arch.EAM -->
<g id="node2" class="node">
<title>basicsr.archs.ridnet_arch.EAM</title>
<polygon fill="none" stroke="black" points="199,-159 199,-288 291,-288 291,-159 199,-159"/>
<text text-anchor="middle" x="245" y="-272.8" font-family="Times,serif" font-size="14.00">EAM</text>
<polyline fill="none" stroke="black" points="199,-265 291,-265 "/>
<text text-anchor="start" x="207" y="-249.8" font-family="Times,serif" font-size="14.00">block1</text>
<text text-anchor="start" x="207" y="-234.8" font-family="Times,serif" font-size="14.00">block2</text>
<text text-anchor="start" x="207" y="-219.8" font-family="Times,serif" font-size="14.00">ca</text>
<text text-anchor="start" x="207" y="-204.8" font-family="Times,serif" font-size="14.00">merge</text>
<text text-anchor="start" x="207" y="-189.8" font-family="Times,serif" font-size="14.00">relu</text>
<polyline fill="none" stroke="black" points="199,-182 291,-182 "/>
<text text-anchor="start" x="207" y="-166.8" font-family="Times,serif" font-size="14.00">forward(x)</text>
</g>
<!-- basicsr.archs.ridnet_arch.ChannelAttention&#45;&gt;basicsr.archs.ridnet_arch.EAM -->
<g id="edge1" class="edge">
<title>basicsr.archs.ridnet_arch.ChannelAttention&#45;&gt;basicsr.archs.ridnet_arch.EAM</title>
<path fill="none" stroke="black" d="M105.38,-84.88C129.51,-108.67 162.29,-140.98 190.02,-168.31"/>
<polygon fill="black" stroke="black" points="190.29,-168.57 197.37,-169.93 198.83,-176.99 191.75,-175.63 190.29,-168.57"/>
<text text-anchor="middle" x="161" y="-121.8" font-family="Times,serif" font-size="14.00" fill="green">ca</text>
</g>
<!-- basicsr.archs.ridnet_arch.EResidualBlockNoBN -->
<g id="node3" class="node">
<title>basicsr.archs.ridnet_arch.EResidualBlockNoBN</title>
<polygon fill="none" stroke="black" points="160,-8 160,-92 330,-92 330,-8 160,-8"/>
<text text-anchor="middle" x="245" y="-76.8" font-family="Times,serif" font-size="14.00">EResidualBlockNoBN</text>
<polyline fill="none" stroke="black" points="160,-69 330,-69 "/>
<text text-anchor="start" x="168" y="-53.8" font-family="Times,serif" font-size="14.00">body</text>
<text text-anchor="start" x="168" y="-38.8" font-family="Times,serif" font-size="14.00">relu</text>
<polyline fill="none" stroke="black" points="160,-31 330,-31 "/>
<text text-anchor="start" x="168" y="-15.8" font-family="Times,serif" font-size="14.00">forward(x)</text>
</g>
<!-- basicsr.archs.ridnet_arch.EResidualBlockNoBN&#45;&gt;basicsr.archs.ridnet_arch.EAM -->
<g id="edge2" class="edge">
<title>basicsr.archs.ridnet_arch.EResidualBlockNoBN&#45;&gt;basicsr.archs.ridnet_arch.EAM</title>
<path fill="none" stroke="black" d="M245,-92.08C245,-108.5 245,-127.95 245,-146.75"/>
<polygon fill="black" stroke="black" points="245,-146.98 249,-152.98 245,-158.98 241,-152.98 245,-146.98"/>
<text text-anchor="middle" x="268.5" y="-121.8" font-family="Times,serif" font-size="14.00" fill="green">block2</text>
</g>
<!-- basicsr.archs.ridnet_arch.MeanShift -->
<g id="node4" class="node">
<title>basicsr.archs.ridnet_arch.MeanShift</title>
<polygon fill="none" stroke="black" points="477,-15.5 477,-84.5 637,-84.5 637,-15.5 477,-15.5"/>
<text text-anchor="middle" x="557" y="-69.3" font-family="Times,serif" font-size="14.00">MeanShift</text>
<polyline fill="none" stroke="black" points="477,-61.5 637,-61.5 "/>
<text text-anchor="start" x="485" y="-46.3" font-family="Times,serif" font-size="14.00">requires_grad : bool</text>
<polyline fill="none" stroke="black" points="477,-38.5 637,-38.5 "/>
<text text-anchor="middle" x="557" y="-23.3" font-family="Times,serif" font-size="14.00"> </text>
</g>
<!-- basicsr.archs.ridnet_arch.RIDNet -->
<g id="node6" class="node">
<title>basicsr.archs.ridnet_arch.RIDNet</title>
<polygon fill="none" stroke="black" points="470,-151.5 470,-295.5 562,-295.5 562,-151.5 470,-151.5"/>
<text text-anchor="middle" x="516" y="-280.3" font-family="Times,serif" font-size="14.00">RIDNet</text>
<polyline fill="none" stroke="black" points="470,-272.5 562,-272.5 "/>
<text text-anchor="start" x="478" y="-257.3" font-family="Times,serif" font-size="14.00">add_mean</text>
<text text-anchor="start" x="478" y="-242.3" font-family="Times,serif" font-size="14.00">body</text>
<text text-anchor="start" x="478" y="-227.3" font-family="Times,serif" font-size="14.00">head</text>
<text text-anchor="start" x="478" y="-212.3" font-family="Times,serif" font-size="14.00">relu</text>
<text text-anchor="start" x="478" y="-197.3" font-family="Times,serif" font-size="14.00">sub_mean</text>
<text text-anchor="start" x="478" y="-182.3" font-family="Times,serif" font-size="14.00">tail</text>
<polyline fill="none" stroke="black" points="470,-174.5 562,-174.5 "/>
<text text-anchor="start" x="478" y="-159.3" font-family="Times,serif" font-size="14.00">forward(x)</text>
</g>
<!-- basicsr.archs.ridnet_arch.MeanShift&#45;&gt;basicsr.archs.ridnet_arch.RIDNet -->
<g id="edge3" class="edge">
<title>basicsr.archs.ridnet_arch.MeanShift&#45;&gt;basicsr.archs.ridnet_arch.RIDNet</title>
<path fill="none" stroke="black" d="M497.94,-84.51C486.66,-93.81 476.4,-105 470,-118 465.14,-127.89 464.55,-138.4 466.62,-148.82"/>
<polygon fill="black" stroke="black" points="466.66,-148.96 472.17,-153.61 469.99,-160.49 464.48,-155.83 466.66,-148.96"/>
<text text-anchor="middle" x="506" y="-121.8" font-family="Times,serif" font-size="14.00" fill="green">sub_mean</text>
</g>
<!-- basicsr.archs.ridnet_arch.MeanShift&#45;&gt;basicsr.archs.ridnet_arch.RIDNet -->
<g id="edge4" class="edge">
<title>basicsr.archs.ridnet_arch.MeanShift&#45;&gt;basicsr.archs.ridnet_arch.RIDNet</title>
<path fill="none" stroke="black" d="M551.64,-84.67C549.06,-99.56 545.72,-117.22 542,-133 541.49,-135.15 540.96,-137.33 540.42,-139.52"/>
<polygon fill="black" stroke="black" points="540.37,-139.73 542.75,-146.53 537.38,-151.35 535,-144.54 540.37,-139.73"/>
<text text-anchor="middle" x="580.5" y="-121.8" font-family="Times,serif" font-size="14.00" fill="green">add_mean</text>
</g>
<!-- basicsr.archs.ridnet_arch.MergeRun -->
<g id="node5" class="node">
<title>basicsr.archs.ridnet_arch.MergeRun</title>
<polygon fill="none" stroke="black" points="348.5,-0.5 348.5,-99.5 451.5,-99.5 451.5,-0.5 348.5,-0.5"/>
<text text-anchor="middle" x="400" y="-84.3" font-family="Times,serif" font-size="14.00">MergeRun</text>
<polyline fill="none" stroke="black" points="348.5,-76.5 451.5,-76.5 "/>
<text text-anchor="start" x="356.5" y="-61.3" font-family="Times,serif" font-size="14.00">aggregation</text>
<text text-anchor="start" x="356.5" y="-46.3" font-family="Times,serif" font-size="14.00">dilation1</text>
<text text-anchor="start" x="356.5" y="-31.3" font-family="Times,serif" font-size="14.00">dilation2</text>
<polyline fill="none" stroke="black" points="348.5,-23.5 451.5,-23.5 "/>
<text text-anchor="start" x="356.5" y="-8.3" font-family="Times,serif" font-size="14.00">forward(x)</text>
</g>
<!-- basicsr.archs.ridnet_arch.MergeRun&#45;&gt;basicsr.archs.ridnet_arch.EAM -->
<g id="edge5" class="edge">
<title>basicsr.archs.ridnet_arch.MergeRun&#45;&gt;basicsr.archs.ridnet_arch.EAM</title>
<path fill="none" stroke="black" d="M356,-99.69C338.3,-119.27 317.72,-142.04 299.12,-162.62"/>
<polygon fill="black" stroke="black" points="299.05,-162.7 297.99,-169.83 291,-171.6 292.06,-164.47 299.05,-162.7"/>
<text text-anchor="middle" x="360" y="-121.8" font-family="Times,serif" font-size="14.00" fill="green">merge</text>
</g>
</g>
</svg>
