<?xml version="1.0" encoding="UTF-8" standalone="no"?>
<!DOCTYPE svg PUBLIC "-//W3C//DTD SVG 1.1//EN"
 "http://www.w3.org/Graphics/SVG/1.1/DTD/svg11.dtd">
<!-- Generated by graphviz version 2.50.0 (0)
 -->
<!-- Title: packages_basicsr.archs Pages: 1 -->
<svg width="2609pt" height="260pt"
 viewBox="0.00 0.00 2609.00 260.00" xmlns="http://www.w3.org/2000/svg" xmlns:xlink="http://www.w3.org/1999/xlink">
<g id="graph0" class="graph" transform="scale(1 1) rotate(0) translate(4 256)">
<title>packages_basicsr.archs</title>
<polygon fill="white" stroke="transparent" points="-4,4 -4,-256 2605,-256 2605,4 -4,4"/>
<!-- basicsr.archs -->
<g id="node1" class="node">
<title>basicsr.archs</title>
<polygon fill="none" stroke="black" points="110,-36 0,-36 0,0 110,0 110,-36"/>
<text text-anchor="middle" x="55" y="-14.3" font-family="Times,serif" font-size="14.00">basicsr.archs</text>
</g>
<!-- basicsr.archs.arch_util -->
<g id="node2" class="node">
<title>basicsr.archs.arch_util</title>
<polygon fill="none" stroke="black" points="1089,-252 913,-252 913,-216 1089,-216 1089,-252"/>
<text text-anchor="middle" x="1001" y="-230.3" font-family="Times,serif" font-size="14.00">basicsr.archs.arch_util</text>
</g>
<!-- basicsr.archs.basicvsr_arch -->
<g id="node3" class="node">
<title>basicsr.archs.basicvsr_arch</title>
<polygon fill="none" stroke="black" points="349,-108 137,-108 137,-72 349,-72 349,-108"/>
<text text-anchor="middle" x="243" y="-86.3" font-family="Times,serif" font-size="14.00">basicsr.archs.basicvsr_arch</text>
</g>
<!-- basicsr.archs.basicvsr_arch&#45;&gt;basicsr.archs.arch_util -->
<g id="edge1" class="edge">
<title>basicsr.archs.basicvsr_arch&#45;&gt;basicsr.archs.arch_util</title>
<path fill="none" stroke="black" d="M184.93,-108.04C167.77,-116.08 150.94,-127.63 141,-144 132.69,-157.68 130.04,-168.34 141,-180 166.75,-207.39 682.53,-224.45 902.73,-230.51"/>
<polygon fill="black" stroke="black" points="912.99,-230.79 902.87,-235.01 907.99,-230.65 902.99,-230.52 902.99,-230.52 902.99,-230.52 907.99,-230.65 903.11,-226.02 912.99,-230.79 912.99,-230.79"/>
</g>
<!-- basicsr.archs.edvr_arch -->
<g id="node12" class="node">
<title>basicsr.archs.edvr_arch</title>
<polygon fill="none" stroke="black" points="335.5,-180 150.5,-180 150.5,-144 335.5,-144 335.5,-180"/>
<text text-anchor="middle" x="243" y="-158.3" font-family="Times,serif" font-size="14.00">basicsr.archs.edvr_arch</text>
</g>
<!-- basicsr.archs.basicvsr_arch&#45;&gt;basicsr.archs.edvr_arch -->
<g id="edge2" class="edge">
<title>basicsr.archs.basicvsr_arch&#45;&gt;basicsr.archs.edvr_arch</title>
<path fill="none" stroke="black" d="M243,-108.3C243,-116.02 243,-125.29 243,-133.89"/>
<polygon fill="black" stroke="black" points="243,-143.9 238.5,-133.9 243,-138.9 243,-133.9 243,-133.9 243,-133.9 243,-138.9 247.5,-133.9 243,-143.9 243,-143.9"/>
</g>
<!-- basicsr.archs.spynet_arch -->
<g id="node19" class="node">
<title>basicsr.archs.spynet_arch</title>
<polygon fill="none" stroke="black" points="554,-180 354,-180 354,-144 554,-144 554,-180"/>
<text text-anchor="middle" x="454" y="-158.3" font-family="Times,serif" font-size="14.00">basicsr.archs.spynet_arch</text>
</g>
<!-- basicsr.archs.basicvsr_arch&#45;&gt;basicsr.archs.spynet_arch -->
<g id="edge3" class="edge">
<title>basicsr.archs.basicvsr_arch&#45;&gt;basicsr.archs.spynet_arch</title>
<path fill="none" stroke="black" d="M294.35,-108.03C323.96,-117.86 361.37,-130.27 392.54,-140.61"/>
<polygon fill="black" stroke="black" points="402.42,-143.89 391.51,-145.01 397.68,-142.31 392.93,-140.74 392.93,-140.74 392.93,-140.74 397.68,-142.31 394.35,-136.47 402.42,-143.89 402.42,-143.89"/>
</g>
<!-- basicsr.archs.basicvsrpp_arch -->
<g id="node4" class="node">
<title>basicsr.archs.basicvsrpp_arch</title>
<polygon fill="none" stroke="black" points="358,-36 128,-36 128,0 358,0 358,-36"/>
<text text-anchor="middle" x="243" y="-14.3" font-family="Times,serif" font-size="14.00">basicsr.archs.basicvsrpp_arch</text>
</g>
<!-- basicsr.archs.basicvsrpp_arch&#45;&gt;basicsr.archs.arch_util -->
<g id="edge4" class="edge">
<title>basicsr.archs.basicvsrpp_arch&#45;&gt;basicsr.archs.arch_util</title>
<path fill="none" stroke="black" d="M173.8,-36.07C155.86,-43.97 138.61,-55.43 128,-72 118.12,-87.43 113.34,-162.78 130,-180 156.52,-207.41 680.42,-224.5 902.67,-230.54"/>
<polygon fill="black" stroke="black" points="912.7,-230.81 902.59,-235.04 907.71,-230.67 902.71,-230.54 902.71,-230.54 902.71,-230.54 907.71,-230.67 902.83,-226.04 912.7,-230.81 912.7,-230.81"/>
</g>
<!-- basicsr.archs.basicvsrpp_arch&#45;&gt;basicsr.archs.basicvsr_arch -->
<g id="edge5" class="edge">
<title>basicsr.archs.basicvsrpp_arch&#45;&gt;basicsr.archs.basicvsr_arch</title>
<path fill="none" stroke="black" d="M243,-36.3C243,-44.02 243,-53.29 243,-61.89"/>
<polygon fill="black" stroke="black" points="243,-71.9 238.5,-61.9 243,-66.9 243,-61.9 243,-61.9 243,-61.9 243,-66.9 247.5,-61.9 243,-71.9 243,-71.9"/>
</g>
<!-- basicsr.archs.basicvsrpp_arch&#45;&gt;basicsr.archs.spynet_arch -->
<g id="edge6" class="edge">
<title>basicsr.archs.basicvsrpp_arch&#45;&gt;basicsr.archs.spynet_arch</title>
<path fill="none" stroke="black" d="M288.43,-36.02C310.32,-45.19 336.44,-57.57 358,-72 385.72,-90.55 413.21,-117.09 431.63,-136.35"/>
<polygon fill="black" stroke="black" points="438.7,-143.86 428.56,-139.67 435.27,-140.22 431.84,-136.58 431.84,-136.58 431.84,-136.58 435.27,-140.22 435.12,-133.5 438.7,-143.86 438.7,-143.86"/>
</g>
<!-- basicsr.archs.degradat_arch -->
<g id="node5" class="node">
<title>basicsr.archs.degradat_arch</title>
<polygon fill="none" stroke="black" points="789.5,-180 572.5,-180 572.5,-144 789.5,-144 789.5,-180"/>
<text text-anchor="middle" x="681" y="-158.3" font-family="Times,serif" font-size="14.00">basicsr.archs.degradat_arch</text>
</g>
<!-- basicsr.archs.degradat_arch&#45;&gt;basicsr.archs.arch_util -->
<g id="edge7" class="edge">
<title>basicsr.archs.degradat_arch&#45;&gt;basicsr.archs.arch_util</title>
<path fill="none" stroke="black" d="M758.87,-180.03C805.52,-190.24 864.94,-203.24 913.24,-213.8"/>
<polygon fill="black" stroke="black" points="923.06,-215.95 912.33,-218.21 918.17,-214.88 913.29,-213.81 913.29,-213.81 913.29,-213.81 918.17,-214.88 914.25,-209.42 923.06,-215.95 923.06,-215.95"/>
</g>
<!-- basicsr.archs.dfdnet_arch -->
<g id="node6" class="node">
<title>basicsr.archs.dfdnet_arch</title>
<polygon fill="none" stroke="black" points="739.5,-36 540.5,-36 540.5,0 739.5,0 739.5,-36"/>
<text text-anchor="middle" x="640" y="-14.3" font-family="Times,serif" font-size="14.00">basicsr.archs.dfdnet_arch</text>
</g>
<!-- basicsr.archs.dfdnet_util -->
<g id="node7" class="node">
<title>basicsr.archs.dfdnet_util</title>
<polygon fill="none" stroke="black" points="634.5,-108 443.5,-108 443.5,-72 634.5,-72 634.5,-108"/>
<text text-anchor="middle" x="539" y="-86.3" font-family="Times,serif" font-size="14.00">basicsr.archs.dfdnet_util</text>
</g>
<!-- basicsr.archs.dfdnet_arch&#45;&gt;basicsr.archs.dfdnet_util -->
<g id="edge8" class="edge">
<title>basicsr.archs.dfdnet_arch&#45;&gt;basicsr.archs.dfdnet_util</title>
<path fill="none" stroke="black" d="M615.29,-36.12C602.33,-45.11 586.27,-56.24 572.23,-65.97"/>
<polygon fill="black" stroke="black" points="563.8,-71.81 569.46,-62.42 567.91,-68.96 572.02,-66.11 572.02,-66.11 572.02,-66.11 567.91,-68.96 574.58,-69.81 563.8,-71.81 563.8,-71.81"/>
</g>
<!-- basicsr.archs.vgg_arch -->
<g id="node26" class="node">
<title>basicsr.archs.vgg_arch</title>
<polygon fill="none" stroke="black" points="831.5,-108 652.5,-108 652.5,-72 831.5,-72 831.5,-108"/>
<text text-anchor="middle" x="742" y="-86.3" font-family="Times,serif" font-size="14.00">basicsr.archs.vgg_arch</text>
</g>
<!-- basicsr.archs.dfdnet_arch&#45;&gt;basicsr.archs.vgg_arch -->
<g id="edge9" class="edge">
<title>basicsr.archs.dfdnet_arch&#45;&gt;basicsr.archs.vgg_arch</title>
<path fill="none" stroke="black" d="M664.95,-36.12C678.04,-45.11 694.26,-56.24 708.44,-65.97"/>
<polygon fill="black" stroke="black" points="716.95,-71.81 706.16,-69.86 712.83,-68.98 708.71,-66.15 708.71,-66.15 708.71,-66.15 712.83,-68.98 711.25,-62.44 716.95,-71.81 716.95,-71.81"/>
</g>
<!-- basicsr.archs.discriminator_arch -->
<g id="node8" class="node">
<title>basicsr.archs.discriminator_arch</title>
<polygon fill="none" stroke="black" points="1006,-36 758,-36 758,0 1006,0 1006,-36"/>
<text text-anchor="middle" x="882" y="-14.3" font-family="Times,serif" font-size="14.00">basicsr.archs.discriminator_arch</text>
</g>
<!-- basicsr.archs.duf_arch -->
<g id="node9" class="node">
<title>basicsr.archs.duf_arch</title>
<polygon fill="none" stroke="black" points="1200,-36 1024,-36 1024,0 1200,0 1200,-36"/>
<text text-anchor="middle" x="1112" y="-14.3" font-family="Times,serif" font-size="14.00">basicsr.archs.duf_arch</text>
</g>
<!-- basicsr.archs.ecbsr_arch -->
<g id="node10" class="node">
<title>basicsr.archs.ecbsr_arch</title>
<polygon fill="none" stroke="black" points="1409.5,-36 1218.5,-36 1218.5,0 1409.5,0 1409.5,-36"/>
<text text-anchor="middle" x="1314" y="-14.3" font-family="Times,serif" font-size="14.00">basicsr.archs.ecbsr_arch</text>
</g>
<!-- basicsr.archs.edsr_arch -->
<g id="node11" class="node">
<title>basicsr.archs.edsr_arch</title>
<polygon fill="none" stroke="black" points="992,-180 808,-180 808,-144 992,-144 992,-180"/>
<text text-anchor="middle" x="900" y="-158.3" font-family="Times,serif" font-size="14.00">basicsr.archs.edsr_arch</text>
</g>
<!-- basicsr.archs.edsr_arch&#45;&gt;basicsr.archs.arch_util -->
<g id="edge10" class="edge">
<title>basicsr.archs.edsr_arch&#45;&gt;basicsr.archs.arch_util</title>
<path fill="none" stroke="black" d="M924.71,-180.12C937.67,-189.11 953.73,-200.24 967.77,-209.97"/>
<polygon fill="black" stroke="black" points="976.2,-215.81 965.42,-213.81 972.09,-212.96 967.98,-210.11 967.98,-210.11 967.98,-210.11 972.09,-212.96 970.54,-206.42 976.2,-215.81 976.2,-215.81"/>
</g>
<!-- basicsr.archs.edvr_arch&#45;&gt;basicsr.archs.arch_util -->
<g id="edge11" class="edge">
<title>basicsr.archs.edvr_arch&#45;&gt;basicsr.archs.arch_util</title>
<path fill="none" stroke="black" d="M335.52,-178.77C338.71,-179.2 341.88,-179.61 345,-180 542.22,-204.36 774.23,-220.08 902.75,-227.66"/>
<polygon fill="black" stroke="black" points="912.96,-228.26 902.71,-232.17 907.96,-227.97 902.97,-227.67 902.97,-227.67 902.97,-227.67 907.96,-227.97 903.24,-223.18 912.96,-228.26 912.96,-228.26"/>
</g>
<!-- basicsr.archs.hifacegan_arch -->
<g id="node13" class="node">
<title>basicsr.archs.hifacegan_arch</title>
<polygon fill="none" stroke="black" points="1648.5,-36 1427.5,-36 1427.5,0 1648.5,0 1648.5,-36"/>
<text text-anchor="middle" x="1538" y="-14.3" font-family="Times,serif" font-size="14.00">basicsr.archs.hifacegan_arch</text>
</g>
<!-- basicsr.archs.hifacegan_util -->
<g id="node14" class="node">
<title>basicsr.archs.hifacegan_util</title>
<polygon fill="none" stroke="black" points="1645,-108 1431,-108 1431,-72 1645,-72 1645,-108"/>
<text text-anchor="middle" x="1538" y="-86.3" font-family="Times,serif" font-size="14.00">basicsr.archs.hifacegan_util</text>
</g>
<!-- basicsr.archs.hifacegan_arch&#45;&gt;basicsr.archs.hifacegan_util -->
<g id="edge12" class="edge">
<title>basicsr.archs.hifacegan_arch&#45;&gt;basicsr.archs.hifacegan_util</title>
<path fill="none" stroke="black" d="M1538,-36.3C1538,-44.02 1538,-53.29 1538,-61.89"/>
<polygon fill="black" stroke="black" points="1538,-71.9 1533.5,-61.9 1538,-66.9 1538,-61.9 1538,-61.9 1538,-61.9 1538,-66.9 1542.5,-61.9 1538,-71.9 1538,-71.9"/>
</g>
<!-- basicsr.archs.inception -->
<g id="node15" class="node">
<title>basicsr.archs.inception</title>
<polygon fill="none" stroke="black" points="1847,-36 1667,-36 1667,0 1847,0 1847,-36"/>
<text text-anchor="middle" x="1757" y="-14.3" font-family="Times,serif" font-size="14.00">basicsr.archs.inception</text>
</g>
<!-- basicsr.archs.rcan_arch -->
<g id="node16" class="node">
<title>basicsr.archs.rcan_arch</title>
<polygon fill="none" stroke="black" points="1194,-180 1010,-180 1010,-144 1194,-144 1194,-180"/>
<text text-anchor="middle" x="1102" y="-158.3" font-family="Times,serif" font-size="14.00">basicsr.archs.rcan_arch</text>
</g>
<!-- basicsr.archs.rcan_arch&#45;&gt;basicsr.archs.arch_util -->
<g id="edge13" class="edge">
<title>basicsr.archs.rcan_arch&#45;&gt;basicsr.archs.arch_util</title>
<path fill="none" stroke="black" d="M1077.29,-180.12C1064.33,-189.11 1048.27,-200.24 1034.23,-209.97"/>
<polygon fill="black" stroke="black" points="1025.8,-215.81 1031.46,-206.42 1029.91,-212.96 1034.02,-210.11 1034.02,-210.11 1034.02,-210.11 1029.91,-212.96 1036.58,-213.81 1025.8,-215.81 1025.8,-215.81"/>
</g>
<!-- basicsr.archs.ridnet_arch -->
<g id="node17" class="node">
<title>basicsr.archs.ridnet_arch</title>
<polygon fill="none" stroke="black" points="1408,-180 1212,-180 1212,-144 1408,-144 1408,-180"/>
<text text-anchor="middle" x="1310" y="-158.3" font-family="Times,serif" font-size="14.00">basicsr.archs.ridnet_arch</text>
</g>
<!-- basicsr.archs.ridnet_arch&#45;&gt;basicsr.archs.arch_util -->
<g id="edge14" class="edge">
<title>basicsr.archs.ridnet_arch&#45;&gt;basicsr.archs.arch_util</title>
<path fill="none" stroke="black" d="M1234.81,-180.03C1189.86,-190.22 1132.63,-203.18 1086.04,-213.74"/>
<polygon fill="black" stroke="black" points="1076.26,-215.95 1085.02,-209.35 1081.14,-214.85 1086.02,-213.74 1086.02,-213.74 1086.02,-213.74 1081.14,-214.85 1087.01,-218.13 1076.26,-215.95 1076.26,-215.95"/>
</g>
<!-- basicsr.archs.rrdbnet_arch -->
<g id="node18" class="node">
<title>basicsr.archs.rrdbnet_arch</title>
<polygon fill="none" stroke="black" points="1633.5,-180 1426.5,-180 1426.5,-144 1633.5,-144 1633.5,-180"/>
<text text-anchor="middle" x="1530" y="-158.3" font-family="Times,serif" font-size="14.00">basicsr.archs.rrdbnet_arch</text>
</g>
<!-- basicsr.archs.rrdbnet_arch&#45;&gt;basicsr.archs.arch_util -->
<g id="edge15" class="edge">
<title>basicsr.archs.rrdbnet_arch&#45;&gt;basicsr.archs.arch_util</title>
<path fill="none" stroke="black" d="M1426.26,-178.7C1423.14,-179.14 1420.05,-179.58 1417,-180 1308.38,-195.09 1183.56,-210.77 1099.21,-221.12"/>
<polygon fill="black" stroke="black" points="1089.13,-222.36 1098.51,-216.68 1094.09,-221.75 1099.05,-221.14 1099.05,-221.14 1099.05,-221.14 1094.09,-221.75 1099.6,-225.61 1089.13,-222.36 1089.13,-222.36"/>
</g>
<!-- basicsr.archs.spynet_arch&#45;&gt;basicsr.archs.arch_util -->
<g id="edge16" class="edge">
<title>basicsr.archs.spynet_arch&#45;&gt;basicsr.archs.arch_util</title>
<path fill="none" stroke="black" d="M554.06,-178.74C557.08,-179.17 560.06,-179.59 563,-180 679.53,-196.13 813.88,-211.98 902.73,-222.08"/>
<polygon fill="black" stroke="black" points="912.8,-223.23 902.35,-226.57 907.83,-222.66 902.86,-222.1 902.86,-222.1 902.86,-222.1 907.83,-222.66 903.37,-217.63 912.8,-223.23 912.8,-223.23"/>
</g>
<!-- basicsr.archs.srresnet_arch -->
<g id="node20" class="node">
<title>basicsr.archs.srresnet_arch</title>
<polygon fill="none" stroke="black" points="1864,-180 1652,-180 1652,-144 1864,-144 1864,-180"/>
<text text-anchor="middle" x="1758" y="-158.3" font-family="Times,serif" font-size="14.00">basicsr.archs.srresnet_arch</text>
</g>
<!-- basicsr.archs.srresnet_arch&#45;&gt;basicsr.archs.arch_util -->
<g id="edge17" class="edge">
<title>basicsr.archs.srresnet_arch&#45;&gt;basicsr.archs.arch_util</title>
<path fill="none" stroke="black" d="M1651.83,-178.95C1648.85,-179.31 1645.91,-179.67 1643,-180 1450.85,-202.11 1225.33,-218.53 1099.21,-226.87"/>
<polygon fill="black" stroke="black" points="1089.19,-227.52 1098.87,-222.38 1094.17,-227.2 1099.16,-226.87 1099.16,-226.87 1099.16,-226.87 1094.17,-227.2 1099.46,-231.36 1089.19,-227.52 1089.19,-227.52"/>
</g>
<!-- basicsr.archs.srvgg_arch -->
<g id="node21" class="node">
<title>basicsr.archs.srvgg_arch</title>
<polygon fill="none" stroke="black" points="2058.5,-36 1865.5,-36 1865.5,0 2058.5,0 2058.5,-36"/>
<text text-anchor="middle" x="1962" y="-14.3" font-family="Times,serif" font-size="14.00">basicsr.archs.srvgg_arch</text>
</g>
<!-- basicsr.archs.stylegan2_arch -->
<g id="node22" class="node">
<title>basicsr.archs.stylegan2_arch</title>
<polygon fill="none" stroke="black" points="2299,-36 2077,-36 2077,0 2299,0 2299,-36"/>
<text text-anchor="middle" x="2188" y="-14.3" font-family="Times,serif" font-size="14.00">basicsr.archs.stylegan2_arch</text>
</g>
<!-- basicsr.archs.stylegan2_bilinear_arch -->
<g id="node23" class="node">
<title>basicsr.archs.stylegan2_bilinear_arch</title>
<polygon fill="none" stroke="black" points="2601,-36 2317,-36 2317,0 2601,0 2601,-36"/>
<text text-anchor="middle" x="2459" y="-14.3" font-family="Times,serif" font-size="14.00">basicsr.archs.stylegan2_bilinear_arch</text>
</g>
<!-- basicsr.archs.swinir_arch -->
<g id="node24" class="node">
<title>basicsr.archs.swinir_arch</title>
<polygon fill="none" stroke="black" points="2079.5,-180 1882.5,-180 1882.5,-144 2079.5,-144 2079.5,-180"/>
<text text-anchor="middle" x="1981" y="-158.3" font-family="Times,serif" font-size="14.00">basicsr.archs.swinir_arch</text>
</g>
<!-- basicsr.archs.swinir_arch&#45;&gt;basicsr.archs.arch_util -->
<g id="edge18" class="edge">
<title>basicsr.archs.swinir_arch&#45;&gt;basicsr.archs.arch_util</title>
<path fill="none" stroke="black" d="M1882.46,-178.91C1879.27,-179.3 1876.11,-179.66 1873,-180 1593.41,-210.43 1261.35,-224.58 1099.52,-230.08"/>
<polygon fill="black" stroke="black" points="1089.11,-230.42 1098.96,-225.59 1094.11,-230.26 1099.11,-230.09 1099.11,-230.09 1099.11,-230.09 1094.11,-230.26 1099.26,-234.59 1089.11,-230.42 1089.11,-230.42"/>
</g>
<!-- basicsr.archs.tof_arch -->
<g id="node25" class="node">
<title>basicsr.archs.tof_arch</title>
<polygon fill="none" stroke="black" points="2270,-180 2098,-180 2098,-144 2270,-144 2270,-180"/>
<text text-anchor="middle" x="2184" y="-158.3" font-family="Times,serif" font-size="14.00">basicsr.archs.tof_arch</text>
</g>
<!-- basicsr.archs.tof_arch&#45;&gt;basicsr.archs.arch_util -->
<g id="edge19" class="edge">
<title>basicsr.archs.tof_arch&#45;&gt;basicsr.archs.arch_util</title>
<path fill="none" stroke="black" d="M2097.86,-178.91C2094.87,-179.31 2091.91,-179.67 2089,-180 1725.56,-221.2 1290.24,-230.4 1099.12,-232.43"/>
<polygon fill="black" stroke="black" points="1089.1,-232.54 1099.05,-227.93 1094.1,-232.48 1099.1,-232.43 1099.1,-232.43 1099.1,-232.43 1094.1,-232.48 1099.14,-236.93 1089.1,-232.54 1089.1,-232.54"/>
</g>
</g>
</svg>
