<?xml version="1.0" encoding="UTF-8" standalone="no"?>
<!DOCTYPE svg PUBLIC "-//W3C//DTD SVG 1.1//EN"
 "http://www.w3.org/Graphics/SVG/1.1/DTD/svg11.dtd">
<!-- Generated by graphviz version 2.50.0 (0)
 -->
<!-- Title: packages_ldm.modules.image_degradation Pages: 1 -->
<svg width="908pt" height="44pt"
 viewBox="0.00 0.00 908.00 44.00" xmlns="http://www.w3.org/2000/svg" xmlns:xlink="http://www.w3.org/1999/xlink">
<g id="graph0" class="graph" transform="scale(1 1) rotate(0) translate(4 40)">
<title>packages_ldm.modules.image_degradation</title>
<polygon fill="white" stroke="transparent" points="-4,4 -4,-40 904,-40 904,4 -4,4"/>
<!-- image_degradation -->
<g id="node1" class="node">
<title>image_degradation</title>
<polygon fill="none" stroke="black" points="153,-36 0,-36 0,0 153,0 153,-36"/>
<text text-anchor="middle" x="76.5" y="-14.3" font-family="Times,serif" font-size="14.00">image_degradation</text>
</g>
<!-- image_degradation.bsrgan -->
<g id="node2" class="node">
<title>image_degradation.bsrgan</title>
<polygon fill="none" stroke="black" points="378,-36 171,-36 171,0 378,0 378,-36"/>
<text text-anchor="middle" x="274.5" y="-14.3" font-family="Times,serif" font-size="14.00">image_degradation.bsrgan</text>
</g>
<!-- image_degradation.bsrgan_light -->
<g id="node3" class="node">
<title>image_degradation.bsrgan_light</title>
<polygon fill="none" stroke="black" points="643,-36 396,-36 396,0 643,0 643,-36"/>
<text text-anchor="middle" x="519.5" y="-14.3" font-family="Times,serif" font-size="14.00">image_degradation.bsrgan_light</text>
</g>
<!-- image_degradation.utils_image -->
<g id="node4" class="node">
<title>image_degradation.utils_image</title>
<polygon fill="none" stroke="black" points="900,-36 661,-36 661,0 900,0 900,-36"/>
<text text-anchor="middle" x="780.5" y="-14.3" font-family="Times,serif" font-size="14.00">image_degradation.utils_image</text>
</g>
</g>
</svg>
