<?xml version="1.0" encoding="UTF-8" standalone="no"?>
<!DOCTYPE svg PUBLIC "-//W3C//DTD SVG 1.1//EN"
 "http://www.w3.org/Graphics/SVG/1.1/DTD/svg11.dtd">
<!-- Generated by graphviz version 2.50.0 (0)
 -->
<!-- Title: classes_ldm.modules.swinir Pages: 1 -->
<svg width="1516pt" height="829pt"
 viewBox="0.00 0.00 1516.00 829.00" xmlns="http://www.w3.org/2000/svg" xmlns:xlink="http://www.w3.org/1999/xlink">
<g id="graph0" class="graph" transform="scale(1 1) rotate(0) translate(4 825)">
<title>classes_ldm.modules.swinir</title>
<polygon fill="white" stroke="transparent" points="-4,4 -4,-825 1512,-825 1512,4 -4,4"/>
<!-- swinir.BasicLayer -->
<g id="node1" class="node">
<title>swinir.BasicLayer</title>
<polygon fill="none" stroke="black" points="0,-30.5 0,-204.5 191,-204.5 191,-30.5 0,-30.5"/>
<text text-anchor="middle" x="95.5" y="-189.3" font-family="Times,serif" font-size="14.00">BasicLayer</text>
<polyline fill="none" stroke="black" points="0,-181.5 191,-181.5 "/>
<text text-anchor="start" x="8" y="-166.3" font-family="Times,serif" font-size="14.00">blocks</text>
<text text-anchor="start" x="8" y="-151.3" font-family="Times,serif" font-size="14.00">depth</text>
<text text-anchor="start" x="8" y="-136.3" font-family="Times,serif" font-size="14.00">dim</text>
<text text-anchor="start" x="8" y="-121.3" font-family="Times,serif" font-size="14.00">downsample : NoneType</text>
<text text-anchor="start" x="8" y="-106.3" font-family="Times,serif" font-size="14.00">input_resolution</text>
<text text-anchor="start" x="8" y="-91.3" font-family="Times,serif" font-size="14.00">use_checkpoint : bool</text>
<polyline fill="none" stroke="black" points="0,-83.5 191,-83.5 "/>
<text text-anchor="start" x="8" y="-68.3" font-family="Times,serif" font-size="14.00">extra_repr(): str</text>
<text text-anchor="start" x="8" y="-53.3" font-family="Times,serif" font-size="14.00">flops()</text>
<text text-anchor="start" x="8" y="-38.3" font-family="Times,serif" font-size="14.00">forward(x, x_size)</text>
</g>
<!-- swinir.RSTB -->
<g id="node6" class="node">
<title>swinir.RSTB</title>
<polygon fill="none" stroke="black" points="154,-474 154,-633 297,-633 297,-474 154,-474"/>
<text text-anchor="middle" x="225.5" y="-617.8" font-family="Times,serif" font-size="14.00">RSTB</text>
<polyline fill="none" stroke="black" points="154,-610 297,-610 "/>
<text text-anchor="start" x="162" y="-594.8" font-family="Times,serif" font-size="14.00">conv</text>
<text text-anchor="start" x="162" y="-579.8" font-family="Times,serif" font-size="14.00">dim</text>
<text text-anchor="start" x="162" y="-564.8" font-family="Times,serif" font-size="14.00">input_resolution</text>
<text text-anchor="start" x="162" y="-549.8" font-family="Times,serif" font-size="14.00">patch_embed</text>
<text text-anchor="start" x="162" y="-534.8" font-family="Times,serif" font-size="14.00">patch_unembed</text>
<text text-anchor="start" x="162" y="-519.8" font-family="Times,serif" font-size="14.00">residual_group</text>
<polyline fill="none" stroke="black" points="154,-512 297,-512 "/>
<text text-anchor="start" x="162" y="-496.8" font-family="Times,serif" font-size="14.00">flops()</text>
<text text-anchor="start" x="162" y="-481.8" font-family="Times,serif" font-size="14.00">forward(x, x_size)</text>
</g>
<!-- swinir.BasicLayer&#45;&gt;swinir.RSTB -->
<g id="edge1" class="edge">
<title>swinir.BasicLayer&#45;&gt;swinir.RSTB</title>
<path fill="none" stroke="black" d="M102.06,-204.57C104.7,-225.52 108.38,-247.72 113.5,-268 130.47,-335.17 159.24,-407.79 183.38,-462.85"/>
<polygon fill="black" stroke="black" points="183.44,-463 189.53,-466.87 188.29,-473.97 182.21,-470.1 183.44,-463"/>
<text text-anchor="middle" x="167" y="-256.8" font-family="Times,serif" font-size="14.00" fill="green">residual_group</text>
</g>
<!-- swinir.Mlp -->
<g id="node2" class="node">
<title>swinir.Mlp</title>
<polygon fill="none" stroke="black" points="1032.5,-60.5 1032.5,-174.5 1124.5,-174.5 1124.5,-60.5 1032.5,-60.5"/>
<text text-anchor="middle" x="1078.5" y="-159.3" font-family="Times,serif" font-size="14.00">Mlp</text>
<polyline fill="none" stroke="black" points="1032.5,-151.5 1124.5,-151.5 "/>
<text text-anchor="start" x="1040.5" y="-136.3" font-family="Times,serif" font-size="14.00">act</text>
<text text-anchor="start" x="1040.5" y="-121.3" font-family="Times,serif" font-size="14.00">drop</text>
<text text-anchor="start" x="1040.5" y="-106.3" font-family="Times,serif" font-size="14.00">fc1</text>
<text text-anchor="start" x="1040.5" y="-91.3" font-family="Times,serif" font-size="14.00">fc2</text>
<polyline fill="none" stroke="black" points="1032.5,-83.5 1124.5,-83.5 "/>
<text text-anchor="start" x="1040.5" y="-68.3" font-family="Times,serif" font-size="14.00">forward(x)</text>
</g>
<!-- swinir.SwinTransformerBlock -->
<g id="node8" class="node">
<title>swinir.SwinTransformerBlock</title>
<polygon fill="none" stroke="black" points="1073.5,-421.5 1073.5,-685.5 1253.5,-685.5 1253.5,-421.5 1073.5,-421.5"/>
<text text-anchor="middle" x="1163.5" y="-670.3" font-family="Times,serif" font-size="14.00">SwinTransformerBlock</text>
<polyline fill="none" stroke="black" points="1073.5,-662.5 1253.5,-662.5 "/>
<text text-anchor="start" x="1081.5" y="-647.3" font-family="Times,serif" font-size="14.00">attn</text>
<text text-anchor="start" x="1081.5" y="-632.3" font-family="Times,serif" font-size="14.00">dim</text>
<text text-anchor="start" x="1081.5" y="-617.3" font-family="Times,serif" font-size="14.00">drop_path</text>
<text text-anchor="start" x="1081.5" y="-602.3" font-family="Times,serif" font-size="14.00">input_resolution</text>
<text text-anchor="start" x="1081.5" y="-587.3" font-family="Times,serif" font-size="14.00">mlp</text>
<text text-anchor="start" x="1081.5" y="-572.3" font-family="Times,serif" font-size="14.00">mlp_ratio : float</text>
<text text-anchor="start" x="1081.5" y="-557.3" font-family="Times,serif" font-size="14.00">norm1</text>
<text text-anchor="start" x="1081.5" y="-542.3" font-family="Times,serif" font-size="14.00">norm2</text>
<text text-anchor="start" x="1081.5" y="-527.3" font-family="Times,serif" font-size="14.00">num_heads</text>
<text text-anchor="start" x="1081.5" y="-512.3" font-family="Times,serif" font-size="14.00">shift_size : int</text>
<text text-anchor="start" x="1081.5" y="-497.3" font-family="Times,serif" font-size="14.00">window_size : int</text>
<polyline fill="none" stroke="black" points="1073.5,-489.5 1253.5,-489.5 "/>
<text text-anchor="start" x="1081.5" y="-474.3" font-family="Times,serif" font-size="14.00">calculate_mask(x_size)</text>
<text text-anchor="start" x="1081.5" y="-459.3" font-family="Times,serif" font-size="14.00">extra_repr(): str</text>
<text text-anchor="start" x="1081.5" y="-444.3" font-family="Times,serif" font-size="14.00">flops()</text>
<text text-anchor="start" x="1081.5" y="-429.3" font-family="Times,serif" font-size="14.00">forward(x, x_size)</text>
</g>
<!-- swinir.Mlp&#45;&gt;swinir.SwinTransformerBlock -->
<g id="edge2" class="edge">
<title>swinir.Mlp&#45;&gt;swinir.SwinTransformerBlock</title>
<path fill="none" stroke="black" d="M1089.53,-174.79C1101.08,-233.8 1119.71,-328.89 1135.37,-408.89"/>
<polygon fill="black" stroke="black" points="1135.46,-409.31 1140.53,-414.43 1137.76,-421.08 1132.68,-415.96 1135.46,-409.31"/>
<text text-anchor="middle" x="1119.5" y="-256.8" font-family="Times,serif" font-size="14.00" fill="green">mlp</text>
</g>
<!-- swinir.PatchEmbed -->
<g id="node3" class="node">
<title>swinir.PatchEmbed</title>
<polygon fill="none" stroke="black" points="230,-30.5 230,-204.5 417,-204.5 417,-30.5 230,-30.5"/>
<text text-anchor="middle" x="323.5" y="-189.3" font-family="Times,serif" font-size="14.00">PatchEmbed</text>
<polyline fill="none" stroke="black" points="230,-181.5 417,-181.5 "/>
<text text-anchor="start" x="238" y="-166.3" font-family="Times,serif" font-size="14.00">embed_dim : int</text>
<text text-anchor="start" x="238" y="-151.3" font-family="Times,serif" font-size="14.00">img_size</text>
<text text-anchor="start" x="238" y="-136.3" font-family="Times,serif" font-size="14.00">in_chans : int</text>
<text text-anchor="start" x="238" y="-121.3" font-family="Times,serif" font-size="14.00">norm : NoneType</text>
<text text-anchor="start" x="238" y="-106.3" font-family="Times,serif" font-size="14.00">num_patches</text>
<text text-anchor="start" x="238" y="-91.3" font-family="Times,serif" font-size="14.00">patch_size</text>
<text text-anchor="start" x="238" y="-76.3" font-family="Times,serif" font-size="14.00">patches_resolution : list</text>
<polyline fill="none" stroke="black" points="230,-68.5 417,-68.5 "/>
<text text-anchor="start" x="238" y="-53.3" font-family="Times,serif" font-size="14.00">flops()</text>
<text text-anchor="start" x="238" y="-38.3" font-family="Times,serif" font-size="14.00">forward(x)</text>
</g>
<!-- swinir.PatchEmbed&#45;&gt;swinir.RSTB -->
<g id="edge3" class="edge">
<title>swinir.PatchEmbed&#45;&gt;swinir.RSTB</title>
<path fill="none" stroke="black" d="M249.84,-204.66C240.27,-219.92 231.93,-236.3 226.5,-253 204.6,-320.43 205.74,-401 211.6,-461.58"/>
<polygon fill="black" stroke="black" points="211.63,-461.87 216.23,-467.42 212.87,-473.8 208.27,-468.25 211.63,-461.87"/>
<text text-anchor="middle" x="274" y="-256.8" font-family="Times,serif" font-size="14.00" fill="green">patch_embed</text>
</g>
<!-- swinir.SwinIR -->
<g id="node7" class="node">
<title>swinir.SwinIR</title>
<polygon fill="none" stroke="black" points="554,-286.5 554,-820.5 777,-820.5 777,-286.5 554,-286.5"/>
<text text-anchor="middle" x="665.5" y="-805.3" font-family="Times,serif" font-size="14.00">SwinIR</text>
<polyline fill="none" stroke="black" points="554,-797.5 777,-797.5 "/>
<text text-anchor="start" x="562" y="-782.3" font-family="Times,serif" font-size="14.00">absolute_pos_embed</text>
<text text-anchor="start" x="562" y="-767.3" font-family="Times,serif" font-size="14.00">ape : bool</text>
<text text-anchor="start" x="562" y="-752.3" font-family="Times,serif" font-size="14.00">conv_after_body</text>
<text text-anchor="start" x="562" y="-737.3" font-family="Times,serif" font-size="14.00">conv_before_upsample</text>
<text text-anchor="start" x="562" y="-722.3" font-family="Times,serif" font-size="14.00">conv_first</text>
<text text-anchor="start" x="562" y="-707.3" font-family="Times,serif" font-size="14.00">conv_hr</text>
<text text-anchor="start" x="562" y="-692.3" font-family="Times,serif" font-size="14.00">conv_last</text>
<text text-anchor="start" x="562" y="-677.3" font-family="Times,serif" font-size="14.00">conv_up1</text>
<text text-anchor="start" x="562" y="-662.3" font-family="Times,serif" font-size="14.00">conv_up2</text>
<text text-anchor="start" x="562" y="-647.3" font-family="Times,serif" font-size="14.00">embed_dim : int</text>
<text text-anchor="start" x="562" y="-632.3" font-family="Times,serif" font-size="14.00">img_range : float</text>
<text text-anchor="start" x="562" y="-617.3" font-family="Times,serif" font-size="14.00">layers</text>
<text text-anchor="start" x="562" y="-602.3" font-family="Times,serif" font-size="14.00">lrelu</text>
<text text-anchor="start" x="562" y="-587.3" font-family="Times,serif" font-size="14.00">mean</text>
<text text-anchor="start" x="562" y="-572.3" font-family="Times,serif" font-size="14.00">mlp_ratio : float</text>
<text text-anchor="start" x="562" y="-557.3" font-family="Times,serif" font-size="14.00">norm</text>
<text text-anchor="start" x="562" y="-542.3" font-family="Times,serif" font-size="14.00">num_features : int</text>
<text text-anchor="start" x="562" y="-527.3" font-family="Times,serif" font-size="14.00">num_layers</text>
<text text-anchor="start" x="562" y="-512.3" font-family="Times,serif" font-size="14.00">patch_embed</text>
<text text-anchor="start" x="562" y="-497.3" font-family="Times,serif" font-size="14.00">patch_norm : bool</text>
<text text-anchor="start" x="562" y="-482.3" font-family="Times,serif" font-size="14.00">patch_unembed</text>
<text text-anchor="start" x="562" y="-467.3" font-family="Times,serif" font-size="14.00">patches_resolution : list</text>
<text text-anchor="start" x="562" y="-452.3" font-family="Times,serif" font-size="14.00">pos_drop</text>
<text text-anchor="start" x="562" y="-437.3" font-family="Times,serif" font-size="14.00">upsample</text>
<text text-anchor="start" x="562" y="-422.3" font-family="Times,serif" font-size="14.00">upsampler : str</text>
<text text-anchor="start" x="562" y="-407.3" font-family="Times,serif" font-size="14.00">upscale : int</text>
<text text-anchor="start" x="562" y="-392.3" font-family="Times,serif" font-size="14.00">window_size : int</text>
<polyline fill="none" stroke="black" points="554,-384.5 777,-384.5 "/>
<text text-anchor="start" x="562" y="-369.3" font-family="Times,serif" font-size="14.00">check_image_size(x)</text>
<text text-anchor="start" x="562" y="-354.3" font-family="Times,serif" font-size="14.00">flops()</text>
<text text-anchor="start" x="562" y="-339.3" font-family="Times,serif" font-size="14.00">forward(x)</text>
<text text-anchor="start" x="562" y="-324.3" font-family="Times,serif" font-size="14.00">forward_features(x)</text>
<text text-anchor="start" x="562" y="-309.3" font-family="Times,serif" font-size="14.00">no_weight_decay()</text>
<text text-anchor="start" x="562" y="-294.3" font-family="Times,serif" font-size="14.00">no_weight_decay_keywords()</text>
</g>
<!-- swinir.PatchEmbed&#45;&gt;swinir.SwinIR -->
<g id="edge4" class="edge">
<title>swinir.PatchEmbed&#45;&gt;swinir.SwinIR</title>
<path fill="none" stroke="black" d="M327.91,-204.82C331.65,-226.41 337.98,-248.86 348.5,-268 394.67,-352 475.36,-423.88 543.77,-474.37"/>
<polygon fill="black" stroke="black" points="544.08,-474.59 551.28,-474.9 553.77,-481.67 546.57,-481.36 544.08,-474.59"/>
<text text-anchor="middle" x="396" y="-256.8" font-family="Times,serif" font-size="14.00" fill="green">patch_embed</text>
</g>
<!-- swinir.PatchMerging -->
<g id="node4" class="node">
<title>swinir.PatchMerging</title>
<polygon fill="none" stroke="black" points="1375,-45.5 1375,-189.5 1508,-189.5 1508,-45.5 1375,-45.5"/>
<text text-anchor="middle" x="1441.5" y="-174.3" font-family="Times,serif" font-size="14.00">PatchMerging</text>
<polyline fill="none" stroke="black" points="1375,-166.5 1508,-166.5 "/>
<text text-anchor="start" x="1383" y="-151.3" font-family="Times,serif" font-size="14.00">dim</text>
<text text-anchor="start" x="1383" y="-136.3" font-family="Times,serif" font-size="14.00">input_resolution</text>
<text text-anchor="start" x="1383" y="-121.3" font-family="Times,serif" font-size="14.00">norm</text>
<text text-anchor="start" x="1383" y="-106.3" font-family="Times,serif" font-size="14.00">reduction</text>
<polyline fill="none" stroke="black" points="1375,-98.5 1508,-98.5 "/>
<text text-anchor="start" x="1383" y="-83.3" font-family="Times,serif" font-size="14.00">extra_repr(): str</text>
<text text-anchor="start" x="1383" y="-68.3" font-family="Times,serif" font-size="14.00">flops()</text>
<text text-anchor="start" x="1383" y="-53.3" font-family="Times,serif" font-size="14.00">forward(x)</text>
</g>
<!-- swinir.PatchUnEmbed -->
<g id="node5" class="node">
<title>swinir.PatchUnEmbed</title>
<polygon fill="none" stroke="black" points="460,-38 460,-197 647,-197 647,-38 460,-38"/>
<text text-anchor="middle" x="553.5" y="-181.8" font-family="Times,serif" font-size="14.00">PatchUnEmbed</text>
<polyline fill="none" stroke="black" points="460,-174 647,-174 "/>
<text text-anchor="start" x="468" y="-158.8" font-family="Times,serif" font-size="14.00">embed_dim : int</text>
<text text-anchor="start" x="468" y="-143.8" font-family="Times,serif" font-size="14.00">img_size</text>
<text text-anchor="start" x="468" y="-128.8" font-family="Times,serif" font-size="14.00">in_chans : int</text>
<text text-anchor="start" x="468" y="-113.8" font-family="Times,serif" font-size="14.00">num_patches</text>
<text text-anchor="start" x="468" y="-98.8" font-family="Times,serif" font-size="14.00">patch_size</text>
<text text-anchor="start" x="468" y="-83.8" font-family="Times,serif" font-size="14.00">patches_resolution : list</text>
<polyline fill="none" stroke="black" points="460,-76 647,-76 "/>
<text text-anchor="start" x="468" y="-60.8" font-family="Times,serif" font-size="14.00">flops()</text>
<text text-anchor="start" x="468" y="-45.8" font-family="Times,serif" font-size="14.00">forward(x, x_size)</text>
</g>
<!-- swinir.PatchUnEmbed&#45;&gt;swinir.RSTB -->
<g id="edge5" class="edge">
<title>swinir.PatchUnEmbed&#45;&gt;swinir.RSTB</title>
<path fill="none" stroke="black" d="M494.1,-197.09C437.27,-272.29 351.68,-385.54 292.46,-463.9"/>
<polygon fill="black" stroke="black" points="292.25,-464.18 291.82,-471.38 285.01,-473.76 285.44,-466.56 292.25,-464.18"/>
<text text-anchor="middle" x="504" y="-256.8" font-family="Times,serif" font-size="14.00" fill="green">patch_unembed</text>
</g>
<!-- swinir.PatchUnEmbed&#45;&gt;swinir.SwinIR -->
<g id="edge6" class="edge">
<title>swinir.PatchUnEmbed&#45;&gt;swinir.SwinIR</title>
<path fill="none" stroke="black" d="M573.78,-197.09C579.71,-220.07 586.56,-246.59 593.78,-274.59"/>
<polygon fill="black" stroke="black" points="593.79,-274.62 599.16,-279.43 596.79,-286.24 591.41,-281.42 593.79,-274.62"/>
<text text-anchor="middle" x="647" y="-256.8" font-family="Times,serif" font-size="14.00" fill="green">patch_unembed</text>
</g>
<!-- swinir.Upsample -->
<g id="node9" class="node">
<title>swinir.Upsample</title>
<polygon fill="none" stroke="black" points="689,-82.5 689,-152.5 778,-152.5 778,-82.5 689,-82.5"/>
<text text-anchor="middle" x="733.5" y="-137.3" font-family="Times,serif" font-size="14.00">Upsample</text>
<polyline fill="none" stroke="black" points="689,-129.5 778,-129.5 "/>
<polyline fill="none" stroke="black" points="689,-105.5 778,-105.5 "/>
<text text-anchor="middle" x="733.5" y="-90.3" font-family="Times,serif" font-size="14.00"> </text>
</g>
<!-- swinir.Upsample&#45;&gt;swinir.SwinIR -->
<g id="edge7" class="edge">
<title>swinir.Upsample&#45;&gt;swinir.SwinIR</title>
<path fill="none" stroke="black" d="M728.61,-152.66C724.24,-182.98 717.61,-228.46 711.5,-268 711.18,-270.08 710.86,-272.17 710.53,-274.27"/>
<polygon fill="black" stroke="black" points="710.49,-274.51 713.52,-281.05 708.65,-286.37 705.62,-279.82 710.49,-274.51"/>
<text text-anchor="middle" x="748.5" y="-256.8" font-family="Times,serif" font-size="14.00" fill="green">upsample</text>
</g>
<!-- swinir.UpsampleOneStep -->
<g id="node10" class="node">
<title>swinir.UpsampleOneStep</title>
<polygon fill="none" stroke="black" points="796.5,-75.5 796.5,-159.5 1014.5,-159.5 1014.5,-75.5 796.5,-75.5"/>
<text text-anchor="middle" x="905.5" y="-144.3" font-family="Times,serif" font-size="14.00">UpsampleOneStep</text>
<polyline fill="none" stroke="black" points="796.5,-136.5 1014.5,-136.5 "/>
<text text-anchor="start" x="804.5" y="-121.3" font-family="Times,serif" font-size="14.00">input_resolution : NoneType</text>
<text text-anchor="start" x="804.5" y="-106.3" font-family="Times,serif" font-size="14.00">num_feat</text>
<polyline fill="none" stroke="black" points="796.5,-98.5 1014.5,-98.5 "/>
<text text-anchor="start" x="804.5" y="-83.3" font-family="Times,serif" font-size="14.00">flops()</text>
</g>
<!-- swinir.UpsampleOneStep&#45;&gt;swinir.SwinIR -->
<g id="edge8" class="edge">
<title>swinir.UpsampleOneStep&#45;&gt;swinir.SwinIR</title>
<path fill="none" stroke="black" d="M882.71,-159.72C859.28,-202.09 820.96,-271.38 782.97,-340.07"/>
<polygon fill="black" stroke="black" points="782.94,-340.14 783.53,-347.32 777.13,-350.64 776.53,-343.45 782.94,-340.14"/>
<text text-anchor="middle" x="862.5" y="-256.8" font-family="Times,serif" font-size="14.00" fill="green">upsample</text>
</g>
<!-- swinir.WindowAttention -->
<g id="node11" class="node">
<title>swinir.WindowAttention</title>
<polygon fill="none" stroke="black" points="1142.5,-0.5 1142.5,-234.5 1356.5,-234.5 1356.5,-0.5 1142.5,-0.5"/>
<text text-anchor="middle" x="1249.5" y="-219.3" font-family="Times,serif" font-size="14.00">WindowAttention</text>
<polyline fill="none" stroke="black" points="1142.5,-211.5 1356.5,-211.5 "/>
<text text-anchor="start" x="1150.5" y="-196.3" font-family="Times,serif" font-size="14.00">attn_drop</text>
<text text-anchor="start" x="1150.5" y="-181.3" font-family="Times,serif" font-size="14.00">dim</text>
<text text-anchor="start" x="1150.5" y="-166.3" font-family="Times,serif" font-size="14.00">num_heads</text>
<text text-anchor="start" x="1150.5" y="-151.3" font-family="Times,serif" font-size="14.00">proj</text>
<text text-anchor="start" x="1150.5" y="-136.3" font-family="Times,serif" font-size="14.00">proj_drop</text>
<text text-anchor="start" x="1150.5" y="-121.3" font-family="Times,serif" font-size="14.00">qkv</text>
<text text-anchor="start" x="1150.5" y="-106.3" font-family="Times,serif" font-size="14.00">relative_position_bias_table</text>
<text text-anchor="start" x="1150.5" y="-91.3" font-family="Times,serif" font-size="14.00">scale</text>
<text text-anchor="start" x="1150.5" y="-76.3" font-family="Times,serif" font-size="14.00">softmax</text>
<text text-anchor="start" x="1150.5" y="-61.3" font-family="Times,serif" font-size="14.00">window_size</text>
<polyline fill="none" stroke="black" points="1142.5,-53.5 1356.5,-53.5 "/>
<text text-anchor="start" x="1150.5" y="-38.3" font-family="Times,serif" font-size="14.00">extra_repr(): str</text>
<text text-anchor="start" x="1150.5" y="-23.3" font-family="Times,serif" font-size="14.00">flops(N)</text>
<text text-anchor="start" x="1150.5" y="-8.3" font-family="Times,serif" font-size="14.00">forward(x, mask)</text>
</g>
<!-- swinir.WindowAttention&#45;&gt;swinir.SwinTransformerBlock -->
<g id="edge9" class="edge">
<title>swinir.WindowAttention&#45;&gt;swinir.SwinTransformerBlock</title>
<path fill="none" stroke="black" d="M1226.51,-234.52C1215.87,-288.2 1203.13,-352.5 1191.9,-409.18"/>
<polygon fill="black" stroke="black" points="1191.86,-409.38 1194.62,-416.04 1189.53,-421.15 1186.77,-414.49 1191.86,-409.38"/>
<text text-anchor="middle" x="1236.5" y="-256.8" font-family="Times,serif" font-size="14.00" fill="green">attn</text>
</g>
</g>
</svg>
