<?xml version="1.0" encoding="UTF-8" standalone="no"?>
<!DOCTYPE svg PUBLIC "-//W3C//DTD SVG 1.1//EN"
 "http://www.w3.org/Graphics/SVG/1.1/DTD/svg11.dtd">
<!-- Generated by graphviz version 2.50.0 (0)
 -->
<!-- Title: classes_basicsr.models.lr_scheduler Pages: 1 -->
<svg width="414pt" height="123pt"
 viewBox="0.00 0.00 414.00 123.00" xmlns="http://www.w3.org/2000/svg" xmlns:xlink="http://www.w3.org/1999/xlink">
<g id="graph0" class="graph" transform="scale(1 1) rotate(0) translate(4 119)">
<title>classes_basicsr.models.lr_scheduler</title>
<polygon fill="white" stroke="transparent" points="-4,4 -4,-119 410,-119 410,4 -4,4"/>
<!-- basicsr.models.lr_scheduler.CosineAnnealingRestartLR -->
<g id="node1" class="node">
<title>basicsr.models.lr_scheduler.CosineAnnealingRestartLR</title>
<polygon fill="none" stroke="black" points="0,-0.5 0,-114.5 209,-114.5 209,-0.5 0,-0.5"/>
<text text-anchor="middle" x="104.5" y="-99.3" font-family="Times,serif" font-size="14.00">CosineAnnealingRestartLR</text>
<polyline fill="none" stroke="black" points="0,-91.5 209,-91.5 "/>
<text text-anchor="start" x="8" y="-76.3" font-family="Times,serif" font-size="14.00">cumulative_period</text>
<text text-anchor="start" x="8" y="-61.3" font-family="Times,serif" font-size="14.00">eta_min : int</text>
<text text-anchor="start" x="8" y="-46.3" font-family="Times,serif" font-size="14.00">periods</text>
<text text-anchor="start" x="8" y="-31.3" font-family="Times,serif" font-size="14.00">restart_weights : tuple</text>
<polyline fill="none" stroke="black" points="0,-23.5 209,-23.5 "/>
<text text-anchor="start" x="8" y="-8.3" font-family="Times,serif" font-size="14.00">get_lr()</text>
</g>
<!-- basicsr.models.lr_scheduler.MultiStepRestartLR -->
<g id="node2" class="node">
<title>basicsr.models.lr_scheduler.MultiStepRestartLR</title>
<polygon fill="none" stroke="black" points="227,-0.5 227,-114.5 406,-114.5 406,-0.5 227,-0.5"/>
<text text-anchor="middle" x="316.5" y="-99.3" font-family="Times,serif" font-size="14.00">MultiStepRestartLR</text>
<polyline fill="none" stroke="black" points="227,-91.5 406,-91.5 "/>
<text text-anchor="start" x="235" y="-76.3" font-family="Times,serif" font-size="14.00">gamma : float</text>
<text text-anchor="start" x="235" y="-61.3" font-family="Times,serif" font-size="14.00">milestones : Counter</text>
<text text-anchor="start" x="235" y="-46.3" font-family="Times,serif" font-size="14.00">restart_weights : tuple</text>
<text text-anchor="start" x="235" y="-31.3" font-family="Times,serif" font-size="14.00">restarts : tuple</text>
<polyline fill="none" stroke="black" points="227,-23.5 406,-23.5 "/>
<text text-anchor="start" x="235" y="-8.3" font-family="Times,serif" font-size="14.00">get_lr()</text>
</g>
</g>
</svg>
