<?xml version="1.0" encoding="UTF-8" standalone="no"?>
<!DOCTYPE svg PUBLIC "-//W3C//DTD SVG 1.1//EN"
 "http://www.w3.org/Graphics/SVG/1.1/DTD/svg11.dtd">
<!-- Generated by graphviz version 2.50.0 (0)
 -->
<!-- Title: classes_basicsr.models Pages: 1 -->
<svg width="2522pt" height="1957pt"
 viewBox="0.00 0.00 2521.50 1957.00" xmlns="http://www.w3.org/2000/svg" xmlns:xlink="http://www.w3.org/1999/xlink">
<g id="graph0" class="graph" transform="scale(1 1) rotate(0) translate(4 1953)">
<title>classes_basicsr.models</title>
<polygon fill="white" stroke="transparent" points="-4,4 -4,-1953 2517.5,-1953 2517.5,4 -4,4"/>
<!-- basicsr.models.base_model.BaseModel -->
<g id="node1" class="node">
<title>basicsr.models.base_model.BaseModel</title>
<polygon fill="none" stroke="black" points="1159,-1534.5 1159,-1948.5 1575,-1948.5 1575,-1534.5 1159,-1534.5"/>
<text text-anchor="middle" x="1367" y="-1933.3" font-family="Times,serif" font-size="14.00">BaseModel</text>
<polyline fill="none" stroke="black" points="1159,-1925.5 1575,-1925.5 "/>
<text text-anchor="start" x="1167" y="-1910.3" font-family="Times,serif" font-size="14.00">best_metric_results : dict</text>
<text text-anchor="start" x="1167" y="-1895.3" font-family="Times,serif" font-size="14.00">device</text>
<text text-anchor="start" x="1167" y="-1880.3" font-family="Times,serif" font-size="14.00">is_train</text>
<text text-anchor="start" x="1167" y="-1865.3" font-family="Times,serif" font-size="14.00">opt</text>
<text text-anchor="start" x="1167" y="-1850.3" font-family="Times,serif" font-size="14.00">optimizers : list</text>
<text text-anchor="start" x="1167" y="-1835.3" font-family="Times,serif" font-size="14.00">schedulers : list</text>
<polyline fill="none" stroke="black" points="1159,-1827.5 1575,-1827.5 "/>
<text text-anchor="start" x="1167" y="-1812.3" font-family="Times,serif" font-size="14.00">feed_data(data)</text>
<text text-anchor="start" x="1167" y="-1797.3" font-family="Times,serif" font-size="14.00">get_bare_model(net)</text>
<text text-anchor="start" x="1167" y="-1782.3" font-family="Times,serif" font-size="14.00">get_current_learning_rate()</text>
<text text-anchor="start" x="1167" y="-1767.3" font-family="Times,serif" font-size="14.00">get_current_log()</text>
<text text-anchor="start" x="1167" y="-1752.3" font-family="Times,serif" font-size="14.00">get_current_visuals()</text>
<text text-anchor="start" x="1167" y="-1737.3" font-family="Times,serif" font-size="14.00">get_optimizer(optim_type, params, lr)</text>
<text text-anchor="start" x="1167" y="-1722.3" font-family="Times,serif" font-size="14.00">load_network(net, load_path, strict, param_key)</text>
<text text-anchor="start" x="1167" y="-1707.3" font-family="Times,serif" font-size="14.00">model_ema(decay)</text>
<text text-anchor="start" x="1167" y="-1692.3" font-family="Times,serif" font-size="14.00">model_to_device(net)</text>
<text text-anchor="start" x="1167" y="-1677.3" font-family="Times,serif" font-size="14.00">optimize_parameters()</text>
<text text-anchor="start" x="1167" y="-1662.3" font-family="Times,serif" font-size="14.00">print_network(net)</text>
<text text-anchor="start" x="1167" y="-1647.3" font-family="Times,serif" font-size="14.00">reduce_loss_dict(loss_dict)</text>
<text text-anchor="start" x="1167" y="-1632.3" font-family="Times,serif" font-size="14.00">resume_training(resume_state)</text>
<text text-anchor="start" x="1167" y="-1617.3" font-family="Times,serif" font-size="14.00">save(epoch, current_iter)</text>
<text text-anchor="start" x="1167" y="-1602.3" font-family="Times,serif" font-size="14.00">save_network(net, net_label, current_iter, param_key)</text>
<text text-anchor="start" x="1167" y="-1587.3" font-family="Times,serif" font-size="14.00">save_training_state(epoch, current_iter)</text>
<text text-anchor="start" x="1167" y="-1572.3" font-family="Times,serif" font-size="14.00">setup_schedulers()</text>
<text text-anchor="start" x="1167" y="-1557.3" font-family="Times,serif" font-size="14.00">update_learning_rate(current_iter, warmup_iter)</text>
<text text-anchor="start" x="1167" y="-1542.3" font-family="Times,serif" font-size="14.00">validation(dataloader, current_iter, tb_logger, save_img)</text>
</g>
<!-- basicsr.models.lr_scheduler.CosineAnnealingRestartLR -->
<g id="node2" class="node">
<title>basicsr.models.lr_scheduler.CosineAnnealingRestartLR</title>
<polygon fill="none" stroke="black" points="2107.5,-83 2107.5,-197 2316.5,-197 2316.5,-83 2107.5,-83"/>
<text text-anchor="middle" x="2212" y="-181.8" font-family="Times,serif" font-size="14.00">CosineAnnealingRestartLR</text>
<polyline fill="none" stroke="black" points="2107.5,-174 2316.5,-174 "/>
<text text-anchor="start" x="2115.5" y="-158.8" font-family="Times,serif" font-size="14.00">cumulative_period</text>
<text text-anchor="start" x="2115.5" y="-143.8" font-family="Times,serif" font-size="14.00">eta_min : int</text>
<text text-anchor="start" x="2115.5" y="-128.8" font-family="Times,serif" font-size="14.00">periods</text>
<text text-anchor="start" x="2115.5" y="-113.8" font-family="Times,serif" font-size="14.00">restart_weights : tuple</text>
<polyline fill="none" stroke="black" points="2107.5,-106 2316.5,-106 "/>
<text text-anchor="start" x="2115.5" y="-90.8" font-family="Times,serif" font-size="14.00">get_lr()</text>
</g>
<!-- basicsr.models.edvr_model.EDVRModel -->
<g id="node3" class="node">
<title>basicsr.models.edvr_model.EDVRModel</title>
<polygon fill="none" stroke="black" points="1452.5,-429 1452.5,-528 1715.5,-528 1715.5,-429 1452.5,-429"/>
<text text-anchor="middle" x="1584" y="-512.8" font-family="Times,serif" font-size="14.00">EDVRModel</text>
<polyline fill="none" stroke="black" points="1452.5,-505 1715.5,-505 "/>
<text text-anchor="start" x="1460.5" y="-489.8" font-family="Times,serif" font-size="14.00">optimizer_g</text>
<text text-anchor="start" x="1460.5" y="-474.8" font-family="Times,serif" font-size="14.00">train_tsa_iter</text>
<polyline fill="none" stroke="black" points="1452.5,-467 1715.5,-467 "/>
<text text-anchor="start" x="1460.5" y="-451.8" font-family="Times,serif" font-size="14.00">optimize_parameters(current_iter)</text>
<text text-anchor="start" x="1460.5" y="-436.8" font-family="Times,serif" font-size="14.00">setup_optimizers()</text>
</g>
<!-- basicsr.models.video_base_model.VideoBaseModel -->
<g id="node13" class="node">
<title>basicsr.models.video_base_model.VideoBaseModel</title>
<polygon fill="none" stroke="black" points="1270,-805 1270,-889 1746,-889 1746,-805 1270,-805"/>
<text text-anchor="middle" x="1508" y="-873.8" font-family="Times,serif" font-size="14.00">VideoBaseModel</text>
<polyline fill="none" stroke="black" points="1270,-866 1746,-866 "/>
<text text-anchor="start" x="1278" y="-850.8" font-family="Times,serif" font-size="14.00">metric_results : dict</text>
<polyline fill="none" stroke="black" points="1270,-843 1746,-843 "/>
<text text-anchor="start" x="1278" y="-827.8" font-family="Times,serif" font-size="14.00">dist_validation(dataloader, current_iter, tb_logger, save_img)</text>
<text text-anchor="start" x="1278" y="-812.8" font-family="Times,serif" font-size="14.00">nondist_validation(dataloader, current_iter, tb_logger, save_img)</text>
</g>
<!-- basicsr.models.edvr_model.EDVRModel&#45;&gt;basicsr.models.video_base_model.VideoBaseModel -->
<g id="edge1" class="edge">
<title>basicsr.models.edvr_model.EDVRModel&#45;&gt;basicsr.models.video_base_model.VideoBaseModel</title>
<path fill="none" stroke="black" d="M1573.91,-528.17C1559.53,-597.49 1533.29,-724.06 1518.62,-794.76"/>
<polygon fill="none" stroke="black" points="1515.15,-794.27 1516.55,-804.78 1522.01,-795.7 1515.15,-794.27"/>
</g>
<!-- basicsr.models.esrgan_model.ESRGANModel -->
<g id="node4" class="node">
<title>basicsr.models.esrgan_model.ESRGANModel</title>
<polygon fill="none" stroke="black" points="524.5,-436.5 524.5,-520.5 787.5,-520.5 787.5,-436.5 524.5,-436.5"/>
<text text-anchor="middle" x="656" y="-505.3" font-family="Times,serif" font-size="14.00">ESRGANModel</text>
<polyline fill="none" stroke="black" points="524.5,-497.5 787.5,-497.5 "/>
<text text-anchor="start" x="532.5" y="-482.3" font-family="Times,serif" font-size="14.00">log_dict : OrderedDict</text>
<text text-anchor="start" x="532.5" y="-467.3" font-family="Times,serif" font-size="14.00">output</text>
<polyline fill="none" stroke="black" points="524.5,-459.5 787.5,-459.5 "/>
<text text-anchor="start" x="532.5" y="-444.3" font-family="Times,serif" font-size="14.00">optimize_parameters(current_iter)</text>
</g>
<!-- basicsr.models.srgan_model.SRGANModel -->
<g id="node9" class="node">
<title>basicsr.models.srgan_model.SRGANModel</title>
<polygon fill="none" stroke="black" points="988.5,-700 988.5,-994 1251.5,-994 1251.5,-700 988.5,-700"/>
<text text-anchor="middle" x="1120" y="-978.8" font-family="Times,serif" font-size="14.00">SRGANModel</text>
<polyline fill="none" stroke="black" points="988.5,-971 1251.5,-971 "/>
<text text-anchor="start" x="996.5" y="-955.8" font-family="Times,serif" font-size="14.00">cri_gan</text>
<text text-anchor="start" x="996.5" y="-940.8" font-family="Times,serif" font-size="14.00">cri_ldl : NoneType</text>
<text text-anchor="start" x="996.5" y="-925.8" font-family="Times,serif" font-size="14.00">cri_perceptual : NoneType</text>
<text text-anchor="start" x="996.5" y="-910.8" font-family="Times,serif" font-size="14.00">cri_pix : NoneType</text>
<text text-anchor="start" x="996.5" y="-895.8" font-family="Times,serif" font-size="14.00">ema_decay</text>
<text text-anchor="start" x="996.5" y="-880.8" font-family="Times,serif" font-size="14.00">log_dict : OrderedDict</text>
<text text-anchor="start" x="996.5" y="-865.8" font-family="Times,serif" font-size="14.00">net_d</text>
<text text-anchor="start" x="996.5" y="-850.8" font-family="Times,serif" font-size="14.00">net_d_init_iters</text>
<text text-anchor="start" x="996.5" y="-835.8" font-family="Times,serif" font-size="14.00">net_d_iters</text>
<text text-anchor="start" x="996.5" y="-820.8" font-family="Times,serif" font-size="14.00">net_g_ema</text>
<text text-anchor="start" x="996.5" y="-805.8" font-family="Times,serif" font-size="14.00">optimizer_d</text>
<text text-anchor="start" x="996.5" y="-790.8" font-family="Times,serif" font-size="14.00">optimizer_g</text>
<text text-anchor="start" x="996.5" y="-775.8" font-family="Times,serif" font-size="14.00">output</text>
<polyline fill="none" stroke="black" points="988.5,-768 1251.5,-768 "/>
<text text-anchor="start" x="996.5" y="-752.8" font-family="Times,serif" font-size="14.00">init_training_settings()</text>
<text text-anchor="start" x="996.5" y="-737.8" font-family="Times,serif" font-size="14.00">optimize_parameters(current_iter)</text>
<text text-anchor="start" x="996.5" y="-722.8" font-family="Times,serif" font-size="14.00">save(epoch, current_iter)</text>
<text text-anchor="start" x="996.5" y="-707.8" font-family="Times,serif" font-size="14.00">setup_optimizers()</text>
</g>
<!-- basicsr.models.esrgan_model.ESRGANModel&#45;&gt;basicsr.models.srgan_model.SRGANModel -->
<g id="edge2" class="edge">
<title>basicsr.models.esrgan_model.ESRGANModel&#45;&gt;basicsr.models.srgan_model.SRGANModel</title>
<path fill="none" stroke="black" d="M680.49,-520.51C705.1,-557.98 746.57,-611.85 797,-641 868.39,-682.27 908.08,-634.93 979,-677 987.09,-681.8 994.92,-687.23 1002.47,-693.14"/>
<polygon fill="none" stroke="black" points="1000.6,-696.12 1010.56,-699.72 1005.02,-690.7 1000.6,-696.12"/>
</g>
<!-- basicsr.models.hifacegan_model.HiFaceGANModel -->
<g id="node5" class="node">
<title>basicsr.models.hifacegan_model.HiFaceGANModel</title>
<polygon fill="none" stroke="black" points="0,-677.5 0,-1016.5 476,-1016.5 476,-677.5 0,-677.5"/>
<text text-anchor="middle" x="238" y="-1001.3" font-family="Times,serif" font-size="14.00">HiFaceGANModel</text>
<polyline fill="none" stroke="black" points="0,-993.5 476,-993.5 "/>
<text text-anchor="start" x="8" y="-978.3" font-family="Times,serif" font-size="14.00">cri_feat : NoneType</text>
<text text-anchor="start" x="8" y="-963.3" font-family="Times,serif" font-size="14.00">cri_gan</text>
<text text-anchor="start" x="8" y="-948.3" font-family="Times,serif" font-size="14.00">cri_perceptual : NoneType</text>
<text text-anchor="start" x="8" y="-933.3" font-family="Times,serif" font-size="14.00">cri_pix : NoneType</text>
<text text-anchor="start" x="8" y="-918.3" font-family="Times,serif" font-size="14.00">ema_decay</text>
<text text-anchor="start" x="8" y="-903.3" font-family="Times,serif" font-size="14.00">log_dict : OrderedDict</text>
<text text-anchor="start" x="8" y="-888.3" font-family="Times,serif" font-size="14.00">metric_results : dict</text>
<text text-anchor="start" x="8" y="-873.3" font-family="Times,serif" font-size="14.00">net_d</text>
<text text-anchor="start" x="8" y="-858.3" font-family="Times,serif" font-size="14.00">net_d_init_iters</text>
<text text-anchor="start" x="8" y="-843.3" font-family="Times,serif" font-size="14.00">net_d_iters</text>
<text text-anchor="start" x="8" y="-828.3" font-family="Times,serif" font-size="14.00">optimizer_d</text>
<text text-anchor="start" x="8" y="-813.3" font-family="Times,serif" font-size="14.00">optimizer_g</text>
<text text-anchor="start" x="8" y="-798.3" font-family="Times,serif" font-size="14.00">output</text>
<polyline fill="none" stroke="black" points="0,-790.5 476,-790.5 "/>
<text text-anchor="start" x="8" y="-775.3" font-family="Times,serif" font-size="14.00">discriminate(input_lq, output, ground_truth)</text>
<text text-anchor="start" x="8" y="-760.3" font-family="Times,serif" font-size="14.00">init_training_settings()</text>
<text text-anchor="start" x="8" y="-745.3" font-family="Times,serif" font-size="14.00">nondist_validation(dataloader, current_iter, tb_logger, save_img)</text>
<text text-anchor="start" x="8" y="-730.3" font-family="Times,serif" font-size="14.00">optimize_parameters(current_iter)</text>
<text text-anchor="start" x="8" y="-715.3" font-family="Times,serif" font-size="14.00">save(epoch, current_iter)</text>
<text text-anchor="start" x="8" y="-700.3" font-family="Times,serif" font-size="14.00">setup_optimizers()</text>
<text text-anchor="start" x="8" y="-685.3" font-family="Times,serif" font-size="14.00">validation(dataloader, current_iter, tb_logger, save_img)</text>
</g>
<!-- basicsr.models.sr_model.SRModel -->
<g id="node10" class="node">
<title>basicsr.models.sr_model.SRModel</title>
<polygon fill="none" stroke="black" points="882,-1098.5 882,-1452.5 1358,-1452.5 1358,-1098.5 882,-1098.5"/>
<text text-anchor="middle" x="1120" y="-1437.3" font-family="Times,serif" font-size="14.00">SRModel</text>
<polyline fill="none" stroke="black" points="882,-1429.5 1358,-1429.5 "/>
<text text-anchor="start" x="890" y="-1414.3" font-family="Times,serif" font-size="14.00">cri_perceptual : NoneType</text>
<text text-anchor="start" x="890" y="-1399.3" font-family="Times,serif" font-size="14.00">cri_pix : NoneType</text>
<text text-anchor="start" x="890" y="-1384.3" font-family="Times,serif" font-size="14.00">ema_decay</text>
<text text-anchor="start" x="890" y="-1369.3" font-family="Times,serif" font-size="14.00">gt</text>
<text text-anchor="start" x="890" y="-1354.3" font-family="Times,serif" font-size="14.00">log_dict : OrderedDict</text>
<text text-anchor="start" x="890" y="-1339.3" font-family="Times,serif" font-size="14.00">lq</text>
<text text-anchor="start" x="890" y="-1324.3" font-family="Times,serif" font-size="14.00">metric_results</text>
<text text-anchor="start" x="890" y="-1309.3" font-family="Times,serif" font-size="14.00">net_g</text>
<text text-anchor="start" x="890" y="-1294.3" font-family="Times,serif" font-size="14.00">net_g_ema</text>
<text text-anchor="start" x="890" y="-1279.3" font-family="Times,serif" font-size="14.00">optimizer_g</text>
<text text-anchor="start" x="890" y="-1264.3" font-family="Times,serif" font-size="14.00">output</text>
<polyline fill="none" stroke="black" points="882,-1256.5 1358,-1256.5 "/>
<text text-anchor="start" x="890" y="-1241.3" font-family="Times,serif" font-size="14.00">dist_validation(dataloader, current_iter, tb_logger, save_img)</text>
<text text-anchor="start" x="890" y="-1226.3" font-family="Times,serif" font-size="14.00">feed_data(data)</text>
<text text-anchor="start" x="890" y="-1211.3" font-family="Times,serif" font-size="14.00">get_current_visuals()</text>
<text text-anchor="start" x="890" y="-1196.3" font-family="Times,serif" font-size="14.00">init_training_settings()</text>
<text text-anchor="start" x="890" y="-1181.3" font-family="Times,serif" font-size="14.00">nondist_validation(dataloader, current_iter, tb_logger, save_img)</text>
<text text-anchor="start" x="890" y="-1166.3" font-family="Times,serif" font-size="14.00">optimize_parameters(current_iter)</text>
<text text-anchor="start" x="890" y="-1151.3" font-family="Times,serif" font-size="14.00">save(epoch, current_iter)</text>
<text text-anchor="start" x="890" y="-1136.3" font-family="Times,serif" font-size="14.00">setup_optimizers()</text>
<text text-anchor="start" x="890" y="-1121.3" font-family="Times,serif" font-size="14.00">test()</text>
<text text-anchor="start" x="890" y="-1106.3" font-family="Times,serif" font-size="14.00">test_selfensemble()</text>
</g>
<!-- basicsr.models.hifacegan_model.HiFaceGANModel&#45;&gt;basicsr.models.sr_model.SRModel -->
<g id="edge3" class="edge">
<title>basicsr.models.hifacegan_model.HiFaceGANModel&#45;&gt;basicsr.models.sr_model.SRModel</title>
<path fill="none" stroke="black" d="M476.05,-1012.13C479.04,-1013.78 482.02,-1015.4 485,-1017 608.36,-1083.22 752.49,-1142.97 872.24,-1188.21"/>
<polygon fill="none" stroke="black" points="871.32,-1191.61 881.91,-1191.86 873.79,-1185.06 871.32,-1191.61"/>
</g>
<!-- basicsr.models.lr_scheduler.MultiStepRestartLR -->
<g id="node6" class="node">
<title>basicsr.models.lr_scheduler.MultiStepRestartLR</title>
<polygon fill="none" stroke="black" points="2334.5,-83 2334.5,-197 2513.5,-197 2513.5,-83 2334.5,-83"/>
<text text-anchor="middle" x="2424" y="-181.8" font-family="Times,serif" font-size="14.00">MultiStepRestartLR</text>
<polyline fill="none" stroke="black" points="2334.5,-174 2513.5,-174 "/>
<text text-anchor="start" x="2342.5" y="-158.8" font-family="Times,serif" font-size="14.00">gamma : float</text>
<text text-anchor="start" x="2342.5" y="-143.8" font-family="Times,serif" font-size="14.00">milestones : Counter</text>
<text text-anchor="start" x="2342.5" y="-128.8" font-family="Times,serif" font-size="14.00">restart_weights : tuple</text>
<text text-anchor="start" x="2342.5" y="-113.8" font-family="Times,serif" font-size="14.00">restarts : tuple</text>
<polyline fill="none" stroke="black" points="2334.5,-106 2513.5,-106 "/>
<text text-anchor="start" x="2342.5" y="-90.8" font-family="Times,serif" font-size="14.00">get_lr()</text>
</g>
<!-- basicsr.models.realesrgan_model.RealESRGANModel -->
<g id="node7" class="node">
<title>basicsr.models.realesrgan_model.RealESRGANModel</title>
<polygon fill="none" stroke="black" points="806,-316.5 806,-640.5 1282,-640.5 1282,-316.5 806,-316.5"/>
<text text-anchor="middle" x="1044" y="-625.3" font-family="Times,serif" font-size="14.00">RealESRGANModel</text>
<polyline fill="none" stroke="black" points="806,-617.5 1282,-617.5 "/>
<text text-anchor="start" x="814" y="-602.3" font-family="Times,serif" font-size="14.00">gt</text>
<text text-anchor="start" x="814" y="-587.3" font-family="Times,serif" font-size="14.00">gt_usm</text>
<text text-anchor="start" x="814" y="-572.3" font-family="Times,serif" font-size="14.00">is_train : bool</text>
<text text-anchor="start" x="814" y="-557.3" font-family="Times,serif" font-size="14.00">jpeger</text>
<text text-anchor="start" x="814" y="-542.3" font-family="Times,serif" font-size="14.00">kernel1</text>
<text text-anchor="start" x="814" y="-527.3" font-family="Times,serif" font-size="14.00">kernel2</text>
<text text-anchor="start" x="814" y="-512.3" font-family="Times,serif" font-size="14.00">log_dict : OrderedDict</text>
<text text-anchor="start" x="814" y="-497.3" font-family="Times,serif" font-size="14.00">lq</text>
<text text-anchor="start" x="814" y="-482.3" font-family="Times,serif" font-size="14.00">output</text>
<text text-anchor="start" x="814" y="-467.3" font-family="Times,serif" font-size="14.00">output_ema</text>
<text text-anchor="start" x="814" y="-452.3" font-family="Times,serif" font-size="14.00">queue_gt</text>
<text text-anchor="start" x="814" y="-437.3" font-family="Times,serif" font-size="14.00">queue_lr</text>
<text text-anchor="start" x="814" y="-422.3" font-family="Times,serif" font-size="14.00">queue_ptr : int</text>
<text text-anchor="start" x="814" y="-407.3" font-family="Times,serif" font-size="14.00">queue_size</text>
<text text-anchor="start" x="814" y="-392.3" font-family="Times,serif" font-size="14.00">sinc_kernel</text>
<text text-anchor="start" x="814" y="-377.3" font-family="Times,serif" font-size="14.00">usm_sharpener</text>
<polyline fill="none" stroke="black" points="806,-369.5 1282,-369.5 "/>
<text text-anchor="start" x="814" y="-354.3" font-family="Times,serif" font-size="14.00">feed_data(data)</text>
<text text-anchor="start" x="814" y="-339.3" font-family="Times,serif" font-size="14.00">nondist_validation(dataloader, current_iter, tb_logger, save_img)</text>
<text text-anchor="start" x="814" y="-324.3" font-family="Times,serif" font-size="14.00">optimize_parameters(current_iter)</text>
</g>
<!-- basicsr.models.realesrgan_model.RealESRGANModel&#45;&gt;basicsr.models.srgan_model.SRGANModel -->
<g id="edge4" class="edge">
<title>basicsr.models.realesrgan_model.RealESRGANModel&#45;&gt;basicsr.models.srgan_model.SRGANModel</title>
<path fill="none" stroke="black" d="M1077.39,-640.52C1080.77,-656.83 1084.21,-673.38 1087.58,-689.65"/>
<polygon fill="none" stroke="black" points="1084.21,-690.65 1089.67,-699.73 1091.07,-689.23 1084.21,-690.65"/>
</g>
<!-- basicsr.models.realesrnet_model.RealESRNetModel -->
<g id="node8" class="node">
<title>basicsr.models.realesrnet_model.RealESRNetModel</title>
<polygon fill="none" stroke="black" points="494,-715 494,-979 970,-979 970,-715 494,-715"/>
<text text-anchor="middle" x="732" y="-963.8" font-family="Times,serif" font-size="14.00">RealESRNetModel</text>
<polyline fill="none" stroke="black" points="494,-956 970,-956 "/>
<text text-anchor="start" x="502" y="-940.8" font-family="Times,serif" font-size="14.00">gt</text>
<text text-anchor="start" x="502" y="-925.8" font-family="Times,serif" font-size="14.00">gt_usm</text>
<text text-anchor="start" x="502" y="-910.8" font-family="Times,serif" font-size="14.00">is_train : bool</text>
<text text-anchor="start" x="502" y="-895.8" font-family="Times,serif" font-size="14.00">jpeger</text>
<text text-anchor="start" x="502" y="-880.8" font-family="Times,serif" font-size="14.00">kernel1</text>
<text text-anchor="start" x="502" y="-865.8" font-family="Times,serif" font-size="14.00">kernel2</text>
<text text-anchor="start" x="502" y="-850.8" font-family="Times,serif" font-size="14.00">lq</text>
<text text-anchor="start" x="502" y="-835.8" font-family="Times,serif" font-size="14.00">queue_gt</text>
<text text-anchor="start" x="502" y="-820.8" font-family="Times,serif" font-size="14.00">queue_lr</text>
<text text-anchor="start" x="502" y="-805.8" font-family="Times,serif" font-size="14.00">queue_ptr : int</text>
<text text-anchor="start" x="502" y="-790.8" font-family="Times,serif" font-size="14.00">queue_size</text>
<text text-anchor="start" x="502" y="-775.8" font-family="Times,serif" font-size="14.00">sinc_kernel</text>
<text text-anchor="start" x="502" y="-760.8" font-family="Times,serif" font-size="14.00">usm_sharpener</text>
<polyline fill="none" stroke="black" points="494,-753 970,-753 "/>
<text text-anchor="start" x="502" y="-737.8" font-family="Times,serif" font-size="14.00">feed_data(data)</text>
<text text-anchor="start" x="502" y="-722.8" font-family="Times,serif" font-size="14.00">nondist_validation(dataloader, current_iter, tb_logger, save_img)</text>
</g>
<!-- basicsr.models.realesrnet_model.RealESRNetModel&#45;&gt;basicsr.models.sr_model.SRModel -->
<g id="edge5" class="edge">
<title>basicsr.models.realesrnet_model.RealESRNetModel&#45;&gt;basicsr.models.sr_model.SRModel</title>
<path fill="none" stroke="black" d="M851.31,-979.15C883.36,-1014.38 918.62,-1053.14 952.76,-1090.66"/>
<polygon fill="none" stroke="black" points="950.25,-1093.11 959.57,-1098.15 955.43,-1088.39 950.25,-1093.11"/>
</g>
<!-- basicsr.models.srgan_model.SRGANModel&#45;&gt;basicsr.models.sr_model.SRModel -->
<g id="edge7" class="edge">
<title>basicsr.models.srgan_model.SRGANModel&#45;&gt;basicsr.models.sr_model.SRModel</title>
<path fill="none" stroke="black" d="M1120,-994.18C1120,-1024.43 1120,-1056.67 1120,-1088.13"/>
<polygon fill="none" stroke="black" points="1116.5,-1088.31 1120,-1098.31 1123.5,-1088.31 1116.5,-1088.31"/>
</g>
<!-- basicsr.models.sr_model.SRModel&#45;&gt;basicsr.models.base_model.BaseModel -->
<g id="edge6" class="edge">
<title>basicsr.models.sr_model.SRModel&#45;&gt;basicsr.models.base_model.BaseModel</title>
<path fill="none" stroke="black" d="M1213.73,-1452.58C1226.37,-1476.33 1239.46,-1500.9 1252.41,-1525.23"/>
<polygon fill="none" stroke="black" points="1249.38,-1527 1257.17,-1534.19 1255.56,-1523.71 1249.38,-1527"/>
</g>
<!-- basicsr.models.stylegan2_model.StyleGAN2Model -->
<g id="node11" class="node">
<title>basicsr.models.stylegan2_model.StyleGAN2Model</title>
<polygon fill="none" stroke="black" points="1376,-1053.5 1376,-1497.5 1852,-1497.5 1852,-1053.5 1376,-1053.5"/>
<text text-anchor="middle" x="1614" y="-1482.3" font-family="Times,serif" font-size="14.00">StyleGAN2Model</text>
<polyline fill="none" stroke="black" points="1376,-1474.5 1852,-1474.5 "/>
<text text-anchor="start" x="1384" y="-1459.3" font-family="Times,serif" font-size="14.00">cri_gan</text>
<text text-anchor="start" x="1384" y="-1444.3" font-family="Times,serif" font-size="14.00">fixed_sample</text>
<text text-anchor="start" x="1384" y="-1429.3" font-family="Times,serif" font-size="14.00">log_dict : OrderedDict</text>
<text text-anchor="start" x="1384" y="-1414.3" font-family="Times,serif" font-size="14.00">mean_path_length : int</text>
<text text-anchor="start" x="1384" y="-1399.3" font-family="Times,serif" font-size="14.00">mixing_prob</text>
<text text-anchor="start" x="1384" y="-1384.3" font-family="Times,serif" font-size="14.00">net_d</text>
<text text-anchor="start" x="1384" y="-1369.3" font-family="Times,serif" font-size="14.00">net_d_reg_every</text>
<text text-anchor="start" x="1384" y="-1354.3" font-family="Times,serif" font-size="14.00">net_g</text>
<text text-anchor="start" x="1384" y="-1339.3" font-family="Times,serif" font-size="14.00">net_g_ema</text>
<text text-anchor="start" x="1384" y="-1324.3" font-family="Times,serif" font-size="14.00">net_g_reg_every</text>
<text text-anchor="start" x="1384" y="-1309.3" font-family="Times,serif" font-size="14.00">num_style_feat</text>
<text text-anchor="start" x="1384" y="-1294.3" font-family="Times,serif" font-size="14.00">optimizer_d</text>
<text text-anchor="start" x="1384" y="-1279.3" font-family="Times,serif" font-size="14.00">optimizer_g</text>
<text text-anchor="start" x="1384" y="-1264.3" font-family="Times,serif" font-size="14.00">output</text>
<text text-anchor="start" x="1384" y="-1249.3" font-family="Times,serif" font-size="14.00">path_reg_weight</text>
<text text-anchor="start" x="1384" y="-1234.3" font-family="Times,serif" font-size="14.00">r1_reg_weight</text>
<text text-anchor="start" x="1384" y="-1219.3" font-family="Times,serif" font-size="14.00">real_img</text>
<polyline fill="none" stroke="black" points="1376,-1211.5 1852,-1211.5 "/>
<text text-anchor="start" x="1384" y="-1196.3" font-family="Times,serif" font-size="14.00">dist_validation(dataloader, current_iter, tb_logger, save_img)</text>
<text text-anchor="start" x="1384" y="-1181.3" font-family="Times,serif" font-size="14.00">feed_data(data)</text>
<text text-anchor="start" x="1384" y="-1166.3" font-family="Times,serif" font-size="14.00">init_training_settings()</text>
<text text-anchor="start" x="1384" y="-1151.3" font-family="Times,serif" font-size="14.00">make_noise(batch, num_noise)</text>
<text text-anchor="start" x="1384" y="-1136.3" font-family="Times,serif" font-size="14.00">mixing_noise(batch, prob)</text>
<text text-anchor="start" x="1384" y="-1121.3" font-family="Times,serif" font-size="14.00">nondist_validation(dataloader, current_iter, tb_logger, save_img)</text>
<text text-anchor="start" x="1384" y="-1106.3" font-family="Times,serif" font-size="14.00">optimize_parameters(current_iter)</text>
<text text-anchor="start" x="1384" y="-1091.3" font-family="Times,serif" font-size="14.00">save(epoch, current_iter)</text>
<text text-anchor="start" x="1384" y="-1076.3" font-family="Times,serif" font-size="14.00">setup_optimizers()</text>
<text text-anchor="start" x="1384" y="-1061.3" font-family="Times,serif" font-size="14.00">test()</text>
</g>
<!-- basicsr.models.stylegan2_model.StyleGAN2Model&#45;&gt;basicsr.models.base_model.BaseModel -->
<g id="edge8" class="edge">
<title>basicsr.models.stylegan2_model.StyleGAN2Model&#45;&gt;basicsr.models.base_model.BaseModel</title>
<path fill="none" stroke="black" d="M1496.29,-1497.63C1491.34,-1506.91 1486.39,-1516.22 1481.45,-1525.5"/>
<polygon fill="none" stroke="black" points="1478.34,-1523.9 1476.73,-1534.38 1484.51,-1527.19 1478.34,-1523.9"/>
</g>
<!-- basicsr.models.swinir_model.SwinIRModel -->
<g id="node12" class="node">
<title>basicsr.models.swinir_model.SwinIRModel</title>
<polygon fill="none" stroke="black" points="1764,-812.5 1764,-881.5 1876,-881.5 1876,-812.5 1764,-812.5"/>
<text text-anchor="middle" x="1820" y="-866.3" font-family="Times,serif" font-size="14.00">SwinIRModel</text>
<polyline fill="none" stroke="black" points="1764,-858.5 1876,-858.5 "/>
<text text-anchor="start" x="1772" y="-843.3" font-family="Times,serif" font-size="14.00">output</text>
<polyline fill="none" stroke="black" points="1764,-835.5 1876,-835.5 "/>
<text text-anchor="start" x="1772" y="-820.3" font-family="Times,serif" font-size="14.00">test()</text>
</g>
<!-- basicsr.models.swinir_model.SwinIRModel&#45;&gt;basicsr.models.sr_model.SRModel -->
<g id="edge9" class="edge">
<title>basicsr.models.swinir_model.SwinIRModel&#45;&gt;basicsr.models.sr_model.SRModel</title>
<path fill="none" stroke="black" d="M1817.3,-881.83C1812.2,-921.18 1797.48,-984.84 1755,-1017 1685.96,-1069.27 1446.35,-1018.34 1367,-1053 1343.13,-1063.43 1319.98,-1077.08 1298.05,-1092.5"/>
<polygon fill="none" stroke="black" points="1295.79,-1089.81 1289.71,-1098.49 1299.87,-1095.5 1295.79,-1089.81"/>
</g>
<!-- basicsr.models.video_base_model.VideoBaseModel&#45;&gt;basicsr.models.sr_model.SRModel -->
<g id="edge10" class="edge">
<title>basicsr.models.video_base_model.VideoBaseModel&#45;&gt;basicsr.models.sr_model.SRModel</title>
<path fill="none" stroke="black" d="M1470.44,-889.28C1427.79,-936.17 1355.25,-1015.91 1287.2,-1090.71"/>
<polygon fill="none" stroke="black" points="1284.34,-1088.65 1280.2,-1098.4 1289.52,-1093.36 1284.34,-1088.65"/>
</g>
<!-- basicsr.models.video_gan_model.VideoGANModel -->
<g id="node14" class="node">
<title>basicsr.models.video_gan_model.VideoGANModel</title>
<polygon fill="none" stroke="black" points="1300,-443.5 1300,-513.5 1434,-513.5 1434,-443.5 1300,-443.5"/>
<text text-anchor="middle" x="1367" y="-498.3" font-family="Times,serif" font-size="14.00">VideoGANModel</text>
<polyline fill="none" stroke="black" points="1300,-490.5 1434,-490.5 "/>
<polyline fill="none" stroke="black" points="1300,-466.5 1434,-466.5 "/>
<text text-anchor="middle" x="1367" y="-451.3" font-family="Times,serif" font-size="14.00"> </text>
</g>
<!-- basicsr.models.video_gan_model.VideoGANModel&#45;&gt;basicsr.models.srgan_model.SRGANModel -->
<g id="edge11" class="edge">
<title>basicsr.models.video_gan_model.VideoGANModel&#45;&gt;basicsr.models.srgan_model.SRGANModel</title>
<path fill="none" stroke="black" d="M1353.94,-513.59C1340.39,-547.22 1317.49,-599.45 1291,-641 1290.92,-641.13 1272.88,-662.76 1248.55,-691.93"/>
<polygon fill="none" stroke="black" points="1245.61,-690 1241.89,-699.92 1250.98,-694.48 1245.61,-690"/>
</g>
<!-- basicsr.models.video_gan_model.VideoGANModel&#45;&gt;basicsr.models.video_base_model.VideoBaseModel -->
<g id="edge12" class="edge">
<title>basicsr.models.video_gan_model.VideoGANModel&#45;&gt;basicsr.models.video_base_model.VideoBaseModel</title>
<path fill="none" stroke="black" d="M1380.14,-513.65C1405.08,-578.49 1459.42,-719.72 1488.58,-795.52"/>
<polygon fill="none" stroke="black" points="1485.32,-796.8 1492.18,-804.87 1491.85,-794.28 1485.32,-796.8"/>
</g>
<!-- basicsr.models.video_recurrent_gan_model.VideoRecurrentGANModel -->
<g id="node15" class="node">
<title>basicsr.models.video_recurrent_gan_model.VideoRecurrentGANModel</title>
<polygon fill="none" stroke="black" points="1826.5,-0.5 1826.5,-279.5 2089.5,-279.5 2089.5,-0.5 1826.5,-0.5"/>
<text text-anchor="middle" x="1958" y="-264.3" font-family="Times,serif" font-size="14.00">VideoRecurrentGANModel</text>
<polyline fill="none" stroke="black" points="1826.5,-256.5 2089.5,-256.5 "/>
<text text-anchor="start" x="1834.5" y="-241.3" font-family="Times,serif" font-size="14.00">cri_gan</text>
<text text-anchor="start" x="1834.5" y="-226.3" font-family="Times,serif" font-size="14.00">cri_perceptual : NoneType</text>
<text text-anchor="start" x="1834.5" y="-211.3" font-family="Times,serif" font-size="14.00">cri_pix : NoneType</text>
<text text-anchor="start" x="1834.5" y="-196.3" font-family="Times,serif" font-size="14.00">ema_decay</text>
<text text-anchor="start" x="1834.5" y="-181.3" font-family="Times,serif" font-size="14.00">log_dict : OrderedDict</text>
<text text-anchor="start" x="1834.5" y="-166.3" font-family="Times,serif" font-size="14.00">net_d</text>
<text text-anchor="start" x="1834.5" y="-151.3" font-family="Times,serif" font-size="14.00">net_d_init_iters</text>
<text text-anchor="start" x="1834.5" y="-136.3" font-family="Times,serif" font-size="14.00">net_d_iters</text>
<text text-anchor="start" x="1834.5" y="-121.3" font-family="Times,serif" font-size="14.00">net_g_ema</text>
<text text-anchor="start" x="1834.5" y="-106.3" font-family="Times,serif" font-size="14.00">optimizer_d</text>
<text text-anchor="start" x="1834.5" y="-91.3" font-family="Times,serif" font-size="14.00">optimizer_g</text>
<text text-anchor="start" x="1834.5" y="-76.3" font-family="Times,serif" font-size="14.00">output</text>
<polyline fill="none" stroke="black" points="1826.5,-68.5 2089.5,-68.5 "/>
<text text-anchor="start" x="1834.5" y="-53.3" font-family="Times,serif" font-size="14.00">init_training_settings()</text>
<text text-anchor="start" x="1834.5" y="-38.3" font-family="Times,serif" font-size="14.00">optimize_parameters(current_iter)</text>
<text text-anchor="start" x="1834.5" y="-23.3" font-family="Times,serif" font-size="14.00">save(epoch, current_iter)</text>
<text text-anchor="start" x="1834.5" y="-8.3" font-family="Times,serif" font-size="14.00">setup_optimizers()</text>
</g>
<!-- basicsr.models.video_recurrent_model.VideoRecurrentModel -->
<g id="node16" class="node">
<title>basicsr.models.video_recurrent_model.VideoRecurrentModel</title>
<polygon fill="none" stroke="black" points="1733.5,-384 1733.5,-573 2182.5,-573 2182.5,-384 1733.5,-384"/>
<text text-anchor="middle" x="1958" y="-557.8" font-family="Times,serif" font-size="14.00">VideoRecurrentModel</text>
<polyline fill="none" stroke="black" points="1733.5,-550 2182.5,-550 "/>
<text text-anchor="start" x="1741.5" y="-534.8" font-family="Times,serif" font-size="14.00">center_frame_only</text>
<text text-anchor="start" x="1741.5" y="-519.8" font-family="Times,serif" font-size="14.00">fix_flow_iter</text>
<text text-anchor="start" x="1741.5" y="-504.8" font-family="Times,serif" font-size="14.00">lq</text>
<text text-anchor="start" x="1741.5" y="-489.8" font-family="Times,serif" font-size="14.00">metric_results : dict</text>
<text text-anchor="start" x="1741.5" y="-474.8" font-family="Times,serif" font-size="14.00">optimizer_g</text>
<text text-anchor="start" x="1741.5" y="-459.8" font-family="Times,serif" font-size="14.00">output</text>
<polyline fill="none" stroke="black" points="1733.5,-452 2182.5,-452 "/>
<text text-anchor="start" x="1741.5" y="-436.8" font-family="Times,serif" font-size="14.00">dist_validation(dataloader, current_iter, tb_logger, save_img)</text>
<text text-anchor="start" x="1741.5" y="-421.8" font-family="Times,serif" font-size="14.00">optimize_parameters(current_iter)</text>
<text text-anchor="start" x="1741.5" y="-406.8" font-family="Times,serif" font-size="14.00">setup_optimizers()</text>
<text text-anchor="start" x="1741.5" y="-391.8" font-family="Times,serif" font-size="14.00">test()</text>
</g>
<!-- basicsr.models.video_recurrent_gan_model.VideoRecurrentGANModel&#45;&gt;basicsr.models.video_recurrent_model.VideoRecurrentModel -->
<g id="edge13" class="edge">
<title>basicsr.models.video_recurrent_gan_model.VideoRecurrentGANModel&#45;&gt;basicsr.models.video_recurrent_model.VideoRecurrentModel</title>
<path fill="none" stroke="black" d="M1958,-279.81C1958,-311.07 1958,-343.72 1958,-373.28"/>
<polygon fill="none" stroke="black" points="1954.5,-373.59 1958,-383.59 1961.5,-373.59 1954.5,-373.59"/>
</g>
<!-- basicsr.models.video_recurrent_model.VideoRecurrentModel&#45;&gt;basicsr.models.video_base_model.VideoBaseModel -->
<g id="edge14" class="edge">
<title>basicsr.models.video_recurrent_model.VideoRecurrentModel&#45;&gt;basicsr.models.video_base_model.VideoBaseModel</title>
<path fill="none" stroke="black" d="M1842.99,-573.17C1754.6,-645.15 1636.19,-741.6 1566.4,-798.44"/>
<polygon fill="none" stroke="black" points="1564.09,-795.8 1558.55,-804.83 1568.51,-801.23 1564.09,-795.8"/>
</g>
</g>
</svg>
