<?xml version="1.0" encoding="UTF-8" standalone="no"?>
<!DOCTYPE svg PUBLIC "-//W3C//DTD SVG 1.1//EN"
 "http://www.w3.org/Graphics/SVG/1.1/DTD/svg11.dtd">
<!-- Generated by graphviz version 2.50.0 (0)
 -->
<!-- Title: packages_basicsr.models Pages: 1 -->
<svg width="1688pt" height="404pt"
 viewBox="0.00 0.00 1687.50 404.00" xmlns="http://www.w3.org/2000/svg" xmlns:xlink="http://www.w3.org/1999/xlink">
<g id="graph0" class="graph" transform="scale(1 1) rotate(0) translate(4 400)">
<title>packages_basicsr.models</title>
<polygon fill="white" stroke="transparent" points="-4,4 -4,-400 1683.5,-400 1683.5,4 -4,4"/>
<!-- basicsr.models -->
<g id="node1" class="node">
<title>basicsr.models</title>
<polygon fill="none" stroke="black" points="819.5,-396 697.5,-396 697.5,-360 819.5,-360 819.5,-396"/>
<text text-anchor="middle" x="758.5" y="-374.3" font-family="Times,serif" font-size="14.00">basicsr.models</text>
</g>
<!-- basicsr.models.base_model -->
<g id="node2" class="node">
<title>basicsr.models.base_model</title>
<polygon fill="none" stroke="black" points="863,-324 654,-324 654,-288 863,-288 863,-324"/>
<text text-anchor="middle" x="758.5" y="-302.3" font-family="Times,serif" font-size="14.00">basicsr.models.base_model</text>
</g>
<!-- basicsr.models.base_model&#45;&gt;basicsr.models -->
<g id="edge1" class="edge">
<title>basicsr.models.base_model&#45;&gt;basicsr.models</title>
<path fill="none" stroke="black" d="M758.5,-324.3C758.5,-332.02 758.5,-341.29 758.5,-349.89"/>
<polygon fill="black" stroke="black" points="758.5,-359.9 754,-349.9 758.5,-354.9 758.5,-349.9 758.5,-349.9 758.5,-349.9 758.5,-354.9 763,-349.9 758.5,-359.9 758.5,-359.9"/>
</g>
<!-- basicsr.models.edvr_model -->
<g id="node3" class="node">
<title>basicsr.models.edvr_model</title>
<polygon fill="none" stroke="black" points="1122,-108 913,-108 913,-72 1122,-72 1122,-108"/>
<text text-anchor="middle" x="1017.5" y="-86.3" font-family="Times,serif" font-size="14.00">basicsr.models.edvr_model</text>
</g>
<!-- basicsr.models.video_base_model -->
<g id="node13" class="node">
<title>basicsr.models.video_base_model</title>
<polygon fill="none" stroke="black" points="1021.5,-180 767.5,-180 767.5,-144 1021.5,-144 1021.5,-180"/>
<text text-anchor="middle" x="894.5" y="-158.3" font-family="Times,serif" font-size="14.00">basicsr.models.video_base_model</text>
</g>
<!-- basicsr.models.edvr_model&#45;&gt;basicsr.models.video_base_model -->
<g id="edge2" class="edge">
<title>basicsr.models.edvr_model&#45;&gt;basicsr.models.video_base_model</title>
<path fill="none" stroke="black" d="M987.41,-108.12C971.18,-117.36 950.96,-128.87 933.53,-138.79"/>
<polygon fill="black" stroke="black" points="924.7,-143.81 931.17,-134.95 929.05,-141.34 933.4,-138.86 933.4,-138.86 933.4,-138.86 929.05,-141.34 935.62,-142.78 924.7,-143.81 924.7,-143.81"/>
</g>
<!-- basicsr.models.esrgan_model -->
<g id="node4" class="node">
<title>basicsr.models.esrgan_model</title>
<polygon fill="none" stroke="black" points="357,-108 132,-108 132,-72 357,-72 357,-108"/>
<text text-anchor="middle" x="244.5" y="-86.3" font-family="Times,serif" font-size="14.00">basicsr.models.esrgan_model</text>
</g>
<!-- basicsr.models.srgan_model -->
<g id="node10" class="node">
<title>basicsr.models.srgan_model</title>
<polygon fill="none" stroke="black" points="749,-180 532,-180 532,-144 749,-144 749,-180"/>
<text text-anchor="middle" x="640.5" y="-158.3" font-family="Times,serif" font-size="14.00">basicsr.models.srgan_model</text>
</g>
<!-- basicsr.models.esrgan_model&#45;&gt;basicsr.models.srgan_model -->
<g id="edge3" class="edge">
<title>basicsr.models.esrgan_model&#45;&gt;basicsr.models.srgan_model</title>
<path fill="none" stroke="black" d="M340.87,-108.03C399.31,-118.37 473.97,-131.56 534.14,-142.2"/>
<polygon fill="black" stroke="black" points="544.05,-143.95 533.41,-146.64 539.12,-143.08 534.2,-142.21 534.2,-142.21 534.2,-142.21 539.12,-143.08 534.98,-137.78 544.05,-143.95 544.05,-143.95"/>
</g>
<!-- basicsr.models.hifacegan_model -->
<g id="node5" class="node">
<title>basicsr.models.hifacegan_model</title>
<polygon fill="none" stroke="black" points="245,-180 0,-180 0,-144 245,-144 245,-180"/>
<text text-anchor="middle" x="122.5" y="-158.3" font-family="Times,serif" font-size="14.00">basicsr.models.hifacegan_model</text>
</g>
<!-- basicsr.models.sr_model -->
<g id="node9" class="node">
<title>basicsr.models.sr_model</title>
<polygon fill="none" stroke="black" points="736,-252 545,-252 545,-216 736,-216 736,-252"/>
<text text-anchor="middle" x="640.5" y="-230.3" font-family="Times,serif" font-size="14.00">basicsr.models.sr_model</text>
</g>
<!-- basicsr.models.hifacegan_model&#45;&gt;basicsr.models.sr_model -->
<g id="edge4" class="edge">
<title>basicsr.models.hifacegan_model&#45;&gt;basicsr.models.sr_model</title>
<path fill="none" stroke="black" d="M245.26,-179.59C333.38,-191.5 450.9,-207.38 534.85,-218.72"/>
<polygon fill="black" stroke="black" points="544.91,-220.08 534.4,-223.2 539.96,-219.41 535,-218.74 535,-218.74 535,-218.74 539.96,-219.41 535.61,-214.28 544.91,-220.08 544.91,-220.08"/>
</g>
<!-- basicsr.models.lr_scheduler -->
<g id="node6" class="node">
<title>basicsr.models.lr_scheduler</title>
<polygon fill="none" stroke="black" points="1679.5,-36 1465.5,-36 1465.5,0 1679.5,0 1679.5,-36"/>
<text text-anchor="middle" x="1572.5" y="-14.3" font-family="Times,serif" font-size="14.00">basicsr.models.lr_scheduler</text>
</g>
<!-- basicsr.models.realesrgan_model -->
<g id="node7" class="node">
<title>basicsr.models.realesrgan_model</title>
<polygon fill="none" stroke="black" points="628,-108 375,-108 375,-72 628,-72 628,-108"/>
<text text-anchor="middle" x="501.5" y="-86.3" font-family="Times,serif" font-size="14.00">basicsr.models.realesrgan_model</text>
</g>
<!-- basicsr.models.realesrgan_model&#45;&gt;basicsr.models.srgan_model -->
<g id="edge5" class="edge">
<title>basicsr.models.realesrgan_model&#45;&gt;basicsr.models.srgan_model</title>
<path fill="none" stroke="black" d="M535.5,-108.12C554.1,-117.49 577.33,-129.19 597.21,-139.2"/>
<polygon fill="black" stroke="black" points="606.37,-143.81 595.41,-143.33 601.9,-141.56 597.43,-139.31 597.43,-139.31 597.43,-139.31 601.9,-141.56 599.46,-135.29 606.37,-143.81 606.37,-143.81"/>
</g>
<!-- basicsr.models.realesrnet_model -->
<g id="node8" class="node">
<title>basicsr.models.realesrnet_model</title>
<polygon fill="none" stroke="black" points="513.5,-180 263.5,-180 263.5,-144 513.5,-144 513.5,-180"/>
<text text-anchor="middle" x="388.5" y="-158.3" font-family="Times,serif" font-size="14.00">basicsr.models.realesrnet_model</text>
</g>
<!-- basicsr.models.realesrnet_model&#45;&gt;basicsr.models.sr_model -->
<g id="edge6" class="edge">
<title>basicsr.models.realesrnet_model&#45;&gt;basicsr.models.sr_model</title>
<path fill="none" stroke="black" d="M449.82,-180.03C485.8,-190.03 531.43,-202.7 569.03,-213.15"/>
<polygon fill="black" stroke="black" points="578.9,-215.89 568.06,-217.55 574.08,-214.55 569.27,-213.21 569.27,-213.21 569.27,-213.21 574.08,-214.55 570.47,-208.88 578.9,-215.89 578.9,-215.89"/>
</g>
<!-- basicsr.models.sr_model&#45;&gt;basicsr.models.base_model -->
<g id="edge7" class="edge">
<title>basicsr.models.sr_model&#45;&gt;basicsr.models.base_model</title>
<path fill="none" stroke="black" d="M669.37,-252.12C684.79,-261.28 703.98,-272.66 720.6,-282.52"/>
<polygon fill="black" stroke="black" points="729.52,-287.81 718.63,-286.58 725.22,-285.26 720.92,-282.71 720.92,-282.71 720.92,-282.71 725.22,-285.26 723.22,-278.84 729.52,-287.81 729.52,-287.81"/>
</g>
<!-- basicsr.models.srgan_model&#45;&gt;basicsr.models.sr_model -->
<g id="edge8" class="edge">
<title>basicsr.models.srgan_model&#45;&gt;basicsr.models.sr_model</title>
<path fill="none" stroke="black" d="M640.5,-180.3C640.5,-188.02 640.5,-197.29 640.5,-205.89"/>
<polygon fill="black" stroke="black" points="640.5,-215.9 636,-205.9 640.5,-210.9 640.5,-205.9 640.5,-205.9 640.5,-205.9 640.5,-210.9 645,-205.9 640.5,-215.9 640.5,-215.9"/>
</g>
<!-- basicsr.models.stylegan2_model -->
<g id="node11" class="node">
<title>basicsr.models.stylegan2_model</title>
<polygon fill="none" stroke="black" points="1000.5,-252 754.5,-252 754.5,-216 1000.5,-216 1000.5,-252"/>
<text text-anchor="middle" x="877.5" y="-230.3" font-family="Times,serif" font-size="14.00">basicsr.models.stylegan2_model</text>
</g>
<!-- basicsr.models.stylegan2_model&#45;&gt;basicsr.models.base_model -->
<g id="edge9" class="edge">
<title>basicsr.models.stylegan2_model&#45;&gt;basicsr.models.base_model</title>
<path fill="none" stroke="black" d="M848.39,-252.12C832.83,-261.28 813.48,-272.66 796.72,-282.52"/>
<polygon fill="black" stroke="black" points="787.72,-287.81 794.06,-278.86 792.03,-285.28 796.34,-282.74 796.34,-282.74 796.34,-282.74 792.03,-285.28 798.62,-286.62 787.72,-287.81 787.72,-287.81"/>
</g>
<!-- basicsr.models.swinir_model -->
<g id="node12" class="node">
<title>basicsr.models.swinir_model</title>
<polygon fill="none" stroke="black" points="1261,-180 1040,-180 1040,-144 1261,-144 1261,-180"/>
<text text-anchor="middle" x="1150.5" y="-158.3" font-family="Times,serif" font-size="14.00">basicsr.models.swinir_model</text>
</g>
<!-- basicsr.models.swinir_model&#45;&gt;basicsr.models.sr_model -->
<g id="edge10" class="edge">
<title>basicsr.models.swinir_model&#45;&gt;basicsr.models.sr_model</title>
<path fill="none" stroke="black" d="M1039.68,-178.76C1036.59,-179.18 1033.52,-179.59 1030.5,-180 907.17,-196.52 873.56,-197.74 746.2,-215.93"/>
<polygon fill="black" stroke="black" points="736.05,-217.39 745.31,-211.51 741,-216.68 745.95,-215.96 745.95,-215.96 745.95,-215.96 741,-216.68 746.59,-220.42 736.05,-217.39 736.05,-217.39"/>
</g>
<!-- basicsr.models.video_base_model&#45;&gt;basicsr.models.sr_model -->
<g id="edge11" class="edge">
<title>basicsr.models.video_base_model&#45;&gt;basicsr.models.sr_model</title>
<path fill="none" stroke="black" d="M832.69,-180.03C796.43,-190.03 750.44,-202.7 712.54,-213.15"/>
<polygon fill="black" stroke="black" points="702.59,-215.89 711.03,-208.89 707.41,-214.56 712.23,-213.23 712.23,-213.23 712.23,-213.23 707.41,-214.56 713.42,-217.57 702.59,-215.89 702.59,-215.89"/>
</g>
<!-- basicsr.models.video_gan_model -->
<g id="node14" class="node">
<title>basicsr.models.video_gan_model</title>
<polygon fill="none" stroke="black" points="894.5,-108 646.5,-108 646.5,-72 894.5,-72 894.5,-108"/>
<text text-anchor="middle" x="770.5" y="-86.3" font-family="Times,serif" font-size="14.00">basicsr.models.video_gan_model</text>
</g>
<!-- basicsr.models.video_gan_model&#45;&gt;basicsr.models.srgan_model -->
<g id="edge12" class="edge">
<title>basicsr.models.video_gan_model&#45;&gt;basicsr.models.srgan_model</title>
<path fill="none" stroke="black" d="M738.7,-108.12C721.39,-117.45 699.78,-129.08 681.24,-139.06"/>
<polygon fill="black" stroke="black" points="672.42,-143.81 679.1,-135.11 676.83,-141.44 681.23,-139.07 681.23,-139.07 681.23,-139.07 676.83,-141.44 683.36,-143.03 672.42,-143.81 672.42,-143.81"/>
</g>
<!-- basicsr.models.video_gan_model&#45;&gt;basicsr.models.video_base_model -->
<g id="edge13" class="edge">
<title>basicsr.models.video_gan_model&#45;&gt;basicsr.models.video_base_model</title>
<path fill="none" stroke="black" d="M800.83,-108.12C817.2,-117.36 837.58,-128.87 855.15,-138.79"/>
<polygon fill="black" stroke="black" points="864.05,-143.81 853.13,-142.81 859.7,-141.35 855.34,-138.89 855.34,-138.89 855.34,-138.89 859.7,-141.35 857.55,-134.98 864.05,-143.81 864.05,-143.81"/>
</g>
<!-- basicsr.models.video_recurrent_gan_model -->
<g id="node15" class="node">
<title>basicsr.models.video_recurrent_gan_model</title>
<polygon fill="none" stroke="black" points="1447,-36 1124,-36 1124,0 1447,0 1447,-36"/>
<text text-anchor="middle" x="1285.5" y="-14.3" font-family="Times,serif" font-size="14.00">basicsr.models.video_recurrent_gan_model</text>
</g>
<!-- basicsr.models.video_recurrent_model -->
<g id="node16" class="node">
<title>basicsr.models.video_recurrent_model</title>
<polygon fill="none" stroke="black" points="1430.5,-108 1140.5,-108 1140.5,-72 1430.5,-72 1430.5,-108"/>
<text text-anchor="middle" x="1285.5" y="-86.3" font-family="Times,serif" font-size="14.00">basicsr.models.video_recurrent_model</text>
</g>
<!-- basicsr.models.video_recurrent_gan_model&#45;&gt;basicsr.models.video_recurrent_model -->
<g id="edge14" class="edge">
<title>basicsr.models.video_recurrent_gan_model&#45;&gt;basicsr.models.video_recurrent_model</title>
<path fill="none" stroke="black" d="M1285.5,-36.3C1285.5,-44.02 1285.5,-53.29 1285.5,-61.89"/>
<polygon fill="black" stroke="black" points="1285.5,-71.9 1281,-61.9 1285.5,-66.9 1285.5,-61.9 1285.5,-61.9 1285.5,-61.9 1285.5,-66.9 1290,-61.9 1285.5,-71.9 1285.5,-71.9"/>
</g>
<!-- basicsr.models.video_recurrent_model&#45;&gt;basicsr.models.video_base_model -->
<g id="edge15" class="edge">
<title>basicsr.models.video_recurrent_model&#45;&gt;basicsr.models.video_base_model</title>
<path fill="none" stroke="black" d="M1190.35,-108.03C1132.76,-118.34 1059.23,-131.51 999.89,-142.13"/>
<polygon fill="black" stroke="black" points="989.74,-143.95 998.79,-137.76 994.66,-143.07 999.58,-142.19 999.58,-142.19 999.58,-142.19 994.66,-143.07 1000.37,-146.62 989.74,-143.95 989.74,-143.95"/>
</g>
</g>
</svg>
