<?xml version="1.0" encoding="UTF-8" standalone="no"?>
<!DOCTYPE svg PUBLIC "-//W3C//DTD SVG 1.1//EN"
 "http://www.w3.org/Graphics/SVG/1.1/DTD/svg11.dtd">
<!-- Generated by graphviz version 2.50.0 (0)
 -->
<!-- Title: classes_basicsr.utils.logger Pages: 1 -->
<svg width="473pt" height="228pt"
 viewBox="0.00 0.00 472.50 228.00" xmlns="http://www.w3.org/2000/svg" xmlns:xlink="http://www.w3.org/1999/xlink">
<g id="graph0" class="graph" transform="scale(1 1) rotate(0) translate(4 224)">
<title>classes_basicsr.utils.logger</title>
<polygon fill="white" stroke="transparent" points="-4,4 -4,-224 468.5,-224 468.5,4 -4,4"/>
<!-- basicsr.utils.logger.AvgTimer -->
<g id="node1" class="node">
<title>basicsr.utils.logger.AvgTimer</title>
<polygon fill="none" stroke="black" points="0,-0.5 0,-219.5 149,-219.5 149,-0.5 0,-0.5"/>
<text text-anchor="middle" x="74.5" y="-204.3" font-family="Times,serif" font-size="14.00">AvgTimer</text>
<polyline fill="none" stroke="black" points="0,-196.5 149,-196.5 "/>
<text text-anchor="start" x="8" y="-181.3" font-family="Times,serif" font-size="14.00">avg_time : int</text>
<text text-anchor="start" x="8" y="-166.3" font-family="Times,serif" font-size="14.00">count : int</text>
<text text-anchor="start" x="8" y="-151.3" font-family="Times,serif" font-size="14.00">current_time : int</text>
<text text-anchor="start" x="8" y="-136.3" font-family="Times,serif" font-size="14.00">start_time</text>
<text text-anchor="start" x="8" y="-121.3" font-family="Times,serif" font-size="14.00">tic</text>
<text text-anchor="start" x="8" y="-106.3" font-family="Times,serif" font-size="14.00">toc</text>
<text text-anchor="start" x="8" y="-91.3" font-family="Times,serif" font-size="14.00">total_time : int</text>
<text text-anchor="start" x="8" y="-76.3" font-family="Times,serif" font-size="14.00">window : int</text>
<polyline fill="none" stroke="black" points="0,-68.5 149,-68.5 "/>
<text text-anchor="start" x="8" y="-53.3" font-family="Times,serif" font-size="14.00">get_avg_time()</text>
<text text-anchor="start" x="8" y="-38.3" font-family="Times,serif" font-size="14.00">get_current_time()</text>
<text text-anchor="start" x="8" y="-23.3" font-family="Times,serif" font-size="14.00">record()</text>
<text text-anchor="start" x="8" y="-8.3" font-family="Times,serif" font-size="14.00">start()</text>
</g>
<!-- basicsr.utils.logger.MessageLogger -->
<g id="node2" class="node">
<title>basicsr.utils.logger.MessageLogger</title>
<polygon fill="none" stroke="black" points="166.5,-23 166.5,-197 464.5,-197 464.5,-23 166.5,-23"/>
<text text-anchor="middle" x="315.5" y="-181.8" font-family="Times,serif" font-size="14.00">MessageLogger</text>
<polyline fill="none" stroke="black" points="166.5,-174 464.5,-174 "/>
<text text-anchor="start" x="174.5" y="-158.8" font-family="Times,serif" font-size="14.00">exp_name</text>
<text text-anchor="start" x="174.5" y="-143.8" font-family="Times,serif" font-size="14.00">interval</text>
<text text-anchor="start" x="174.5" y="-128.8" font-family="Times,serif" font-size="14.00">logger : RootLogger, NoneType, Logger</text>
<text text-anchor="start" x="174.5" y="-113.8" font-family="Times,serif" font-size="14.00">max_iters</text>
<text text-anchor="start" x="174.5" y="-98.8" font-family="Times,serif" font-size="14.00">start_iter : int</text>
<text text-anchor="start" x="174.5" y="-83.8" font-family="Times,serif" font-size="14.00">start_time</text>
<text text-anchor="start" x="174.5" y="-68.8" font-family="Times,serif" font-size="14.00">tb_logger : NoneType</text>
<text text-anchor="start" x="174.5" y="-53.8" font-family="Times,serif" font-size="14.00">use_tb_logger</text>
<polyline fill="none" stroke="black" points="166.5,-46 464.5,-46 "/>
<text text-anchor="start" x="174.5" y="-30.8" font-family="Times,serif" font-size="14.00">reset_start_time()</text>
</g>
</g>
</svg>
