<?xml version="1.0" encoding="UTF-8" standalone="no"?>
<!DOCTYPE svg PUBLIC "-//W3C//DTD SVG 1.1//EN"
 "http://www.w3.org/Graphics/SVG/1.1/DTD/svg11.dtd">
<!-- Generated by graphviz version 2.50.0 (0)
 -->
<!-- Title: classes_basicsr.utils.file_client Pages: 1 -->
<svg width="565pt" height="259pt"
 viewBox="0.00 0.00 565.00 259.00" xmlns="http://www.w3.org/2000/svg" xmlns:xlink="http://www.w3.org/1999/xlink">
<g id="graph0" class="graph" transform="scale(1 1) rotate(0) translate(4 255)">
<title>classes_basicsr.utils.file_client</title>
<polygon fill="white" stroke="transparent" points="-4,4 -4,-255 561,-255 561,4 -4,4"/>
<!-- basicsr.utils.file_client.BaseStorageBackend -->
<g id="node1" class="node">
<title>basicsr.utils.file_client.BaseStorageBackend</title>
<polygon fill="none" stroke="black" points="202.5,-158.5 202.5,-243.5 370.5,-243.5 370.5,-158.5 202.5,-158.5"/>
<text text-anchor="middle" x="286.5" y="-228.3" font-family="Times,serif" font-size="14.00">BaseStorageBackend</text>
<polyline fill="none" stroke="black" points="202.5,-220.5 370.5,-220.5 "/>
<polyline fill="none" stroke="black" points="202.5,-196.5 370.5,-196.5 "/>
<text text-anchor="start" x="210.5" y="-181.3" font-family="Times,serif" font-size="14.00">get(filepath)</text>
<text text-anchor="start" x="210.5" y="-166.3" font-family="Times,serif" font-size="14.00">get_text(filepath)</text>
</g>
<!-- basicsr.utils.file_client.FileClient -->
<g id="node2" class="node">
<title>basicsr.utils.file_client.FileClient</title>
<polygon fill="none" stroke="black" points="0,-151.5 0,-250.5 185,-250.5 185,-151.5 0,-151.5"/>
<text text-anchor="middle" x="92.5" y="-235.3" font-family="Times,serif" font-size="14.00">FileClient</text>
<polyline fill="none" stroke="black" points="0,-227.5 185,-227.5 "/>
<text text-anchor="start" x="8" y="-212.3" font-family="Times,serif" font-size="14.00">backend : str</text>
<text text-anchor="start" x="8" y="-197.3" font-family="Times,serif" font-size="14.00">client</text>
<polyline fill="none" stroke="black" points="0,-189.5 185,-189.5 "/>
<text text-anchor="start" x="8" y="-174.3" font-family="Times,serif" font-size="14.00">get(filepath, client_key)</text>
<text text-anchor="start" x="8" y="-159.3" font-family="Times,serif" font-size="14.00">get_text(filepath)</text>
</g>
<!-- basicsr.utils.file_client.HardDiskBackend -->
<g id="node3" class="node">
<title>basicsr.utils.file_client.HardDiskBackend</title>
<polygon fill="none" stroke="black" points="25,-7.5 25,-92.5 170,-92.5 170,-7.5 25,-7.5"/>
<text text-anchor="middle" x="97.5" y="-77.3" font-family="Times,serif" font-size="14.00">HardDiskBackend</text>
<polyline fill="none" stroke="black" points="25,-69.5 170,-69.5 "/>
<polyline fill="none" stroke="black" points="25,-45.5 170,-45.5 "/>
<text text-anchor="start" x="33" y="-30.3" font-family="Times,serif" font-size="14.00">get(filepath)</text>
<text text-anchor="start" x="33" y="-15.3" font-family="Times,serif" font-size="14.00">get_text(filepath)</text>
</g>
<!-- basicsr.utils.file_client.HardDiskBackend&#45;&gt;basicsr.utils.file_client.BaseStorageBackend -->
<g id="edge1" class="edge">
<title>basicsr.utils.file_client.HardDiskBackend&#45;&gt;basicsr.utils.file_client.BaseStorageBackend</title>
<path fill="none" stroke="black" d="M150.15,-92.5C173.6,-110.99 201.36,-132.88 225.7,-152.07"/>
<polygon fill="none" stroke="black" points="223.79,-155.02 233.81,-158.46 228.12,-149.52 223.79,-155.02"/>
</g>
<!-- basicsr.utils.file_client.HardDiskBackend&#45;&gt;basicsr.utils.file_client.FileClient -->
<g id="edge4" class="edge">
<title>basicsr.utils.file_client.HardDiskBackend&#45;&gt;basicsr.utils.file_client.FileClient</title>
<path fill="none" stroke="black" d="M96.11,-92.5C95.62,-106.91 95.07,-123.38 94.55,-139.02"/>
<polygon fill="black" stroke="black" points="94.54,-139.34 98.33,-145.47 94.13,-151.33 90.34,-145.2 94.54,-139.34"/>
<text text-anchor="middle" x="115.5" y="-121.8" font-family="Times,serif" font-size="14.00" fill="green">client</text>
</g>
<!-- basicsr.utils.file_client.LmdbBackend -->
<g id="node4" class="node">
<title>basicsr.utils.file_client.LmdbBackend</title>
<polygon fill="none" stroke="black" points="191,-8 191,-92 376,-92 376,-8 191,-8"/>
<text text-anchor="middle" x="283.5" y="-76.8" font-family="Times,serif" font-size="14.00">LmdbBackend</text>
<polyline fill="none" stroke="black" points="191,-69 376,-69 "/>
<text text-anchor="start" x="199" y="-53.8" font-family="Times,serif" font-size="14.00">db_paths : list</text>
<polyline fill="none" stroke="black" points="191,-46 376,-46 "/>
<text text-anchor="start" x="199" y="-30.8" font-family="Times,serif" font-size="14.00">get(filepath, client_key)</text>
<text text-anchor="start" x="199" y="-15.8" font-family="Times,serif" font-size="14.00">get_text(filepath)</text>
</g>
<!-- basicsr.utils.file_client.LmdbBackend&#45;&gt;basicsr.utils.file_client.BaseStorageBackend -->
<g id="edge2" class="edge">
<title>basicsr.utils.file_client.LmdbBackend&#45;&gt;basicsr.utils.file_client.BaseStorageBackend</title>
<path fill="none" stroke="black" d="M284.33,-92.11C284.68,-109.4 285.08,-129.71 285.45,-148.03"/>
<polygon fill="none" stroke="black" points="281.96,-148.32 285.66,-158.25 288.96,-148.18 281.96,-148.32"/>
</g>
<!-- basicsr.utils.file_client.MemcachedBackend -->
<g id="node5" class="node">
<title>basicsr.utils.file_client.MemcachedBackend</title>
<polygon fill="none" stroke="black" points="394,-0.5 394,-99.5 557,-99.5 557,-0.5 394,-0.5"/>
<text text-anchor="middle" x="475.5" y="-84.3" font-family="Times,serif" font-size="14.00">MemcachedBackend</text>
<polyline fill="none" stroke="black" points="394,-76.5 557,-76.5 "/>
<text text-anchor="start" x="402" y="-61.3" font-family="Times,serif" font-size="14.00">client_cfg</text>
<text text-anchor="start" x="402" y="-46.3" font-family="Times,serif" font-size="14.00">server_list_cfg</text>
<polyline fill="none" stroke="black" points="394,-38.5 557,-38.5 "/>
<text text-anchor="start" x="402" y="-23.3" font-family="Times,serif" font-size="14.00">get(filepath)</text>
<text text-anchor="start" x="402" y="-8.3" font-family="Times,serif" font-size="14.00">get_text(filepath)</text>
</g>
<!-- basicsr.utils.file_client.MemcachedBackend&#45;&gt;basicsr.utils.file_client.BaseStorageBackend -->
<g id="edge3" class="edge">
<title>basicsr.utils.file_client.MemcachedBackend&#45;&gt;basicsr.utils.file_client.BaseStorageBackend</title>
<path fill="none" stroke="black" d="M413.88,-99.58C392.48,-116.45 368.51,-135.34 347.19,-152.15"/>
<polygon fill="none" stroke="black" points="344.85,-149.54 339.16,-158.48 349.18,-155.04 344.85,-149.54"/>
</g>
</g>
</svg>
