<?xml version="1.0" encoding="UTF-8" standalone="no"?>
<!DOCTYPE svg PUBLIC "-//W3C//DTD SVG 1.1//EN"
 "http://www.w3.org/Graphics/SVG/1.1/DTD/svg11.dtd">
<!-- Generated by graphviz version 2.50.0 (0)
 -->
<!-- Title: classes_basicsr.utils Pages: 1 -->
<svg width="4464pt" height="635pt"
 viewBox="0.00 0.00 4464.00 635.00" xmlns="http://www.w3.org/2000/svg" xmlns:xlink="http://www.w3.org/1999/xlink">
<g id="graph0" class="graph" transform="scale(1 1) rotate(0) translate(4 631)">
<title>classes_basicsr.utils</title>
<polygon fill="white" stroke="transparent" points="-4,4 -4,-631 4460,-631 4460,4 -4,4"/>
<!-- basicsr.utils.logger.AvgTimer -->
<g id="node1" class="node">
<title>basicsr.utils.logger.AvgTimer</title>
<polygon fill="none" stroke="black" points="0,-38 0,-257 149,-257 149,-38 0,-38"/>
<text text-anchor="middle" x="74.5" y="-241.8" font-family="Times,serif" font-size="14.00">AvgTimer</text>
<polyline fill="none" stroke="black" points="0,-234 149,-234 "/>
<text text-anchor="start" x="8" y="-218.8" font-family="Times,serif" font-size="14.00">avg_time : int</text>
<text text-anchor="start" x="8" y="-203.8" font-family="Times,serif" font-size="14.00">count : int</text>
<text text-anchor="start" x="8" y="-188.8" font-family="Times,serif" font-size="14.00">current_time : int</text>
<text text-anchor="start" x="8" y="-173.8" font-family="Times,serif" font-size="14.00">start_time</text>
<text text-anchor="start" x="8" y="-158.8" font-family="Times,serif" font-size="14.00">tic</text>
<text text-anchor="start" x="8" y="-143.8" font-family="Times,serif" font-size="14.00">toc</text>
<text text-anchor="start" x="8" y="-128.8" font-family="Times,serif" font-size="14.00">total_time : int</text>
<text text-anchor="start" x="8" y="-113.8" font-family="Times,serif" font-size="14.00">window : int</text>
<polyline fill="none" stroke="black" points="0,-106 149,-106 "/>
<text text-anchor="start" x="8" y="-90.8" font-family="Times,serif" font-size="14.00">get_avg_time()</text>
<text text-anchor="start" x="8" y="-75.8" font-family="Times,serif" font-size="14.00">get_current_time()</text>
<text text-anchor="start" x="8" y="-60.8" font-family="Times,serif" font-size="14.00">record()</text>
<text text-anchor="start" x="8" y="-45.8" font-family="Times,serif" font-size="14.00">start()</text>
</g>
<!-- basicsr.utils.file_client.BaseStorageBackend -->
<g id="node2" class="node">
<title>basicsr.utils.file_client.BaseStorageBackend</title>
<polygon fill="none" stroke="black" points="346.5,-376 346.5,-461 514.5,-461 514.5,-376 346.5,-376"/>
<text text-anchor="middle" x="430.5" y="-445.8" font-family="Times,serif" font-size="14.00">BaseStorageBackend</text>
<polyline fill="none" stroke="black" points="346.5,-438 514.5,-438 "/>
<polyline fill="none" stroke="black" points="346.5,-414 514.5,-414 "/>
<text text-anchor="start" x="354.5" y="-398.8" font-family="Times,serif" font-size="14.00">get(filepath)</text>
<text text-anchor="start" x="354.5" y="-383.8" font-family="Times,serif" font-size="14.00">get_text(filepath)</text>
</g>
<!-- basicsr.utils.diffjpeg.BlockMerging -->
<g id="node3" class="node">
<title>basicsr.utils.diffjpeg.BlockMerging</title>
<polygon fill="none" stroke="black" points="1783,-112.5 1783,-182.5 2026,-182.5 2026,-112.5 1783,-112.5"/>
<text text-anchor="middle" x="1904.5" y="-167.3" font-family="Times,serif" font-size="14.00">BlockMerging</text>
<polyline fill="none" stroke="black" points="1783,-159.5 2026,-159.5 "/>
<polyline fill="none" stroke="black" points="1783,-135.5 2026,-135.5 "/>
<text text-anchor="start" x="1791" y="-120.3" font-family="Times,serif" font-size="14.00">forward(patches, height, width)</text>
</g>
<!-- basicsr.utils.diffjpeg.DeCompressJpeg -->
<g id="node11" class="node">
<title>basicsr.utils.diffjpeg.DeCompressJpeg</title>
<polygon fill="none" stroke="black" points="1391,-346.5 1391,-490.5 1670,-490.5 1670,-346.5 1391,-346.5"/>
<text text-anchor="middle" x="1530.5" y="-475.3" font-family="Times,serif" font-size="14.00">DeCompressJpeg</text>
<polyline fill="none" stroke="black" points="1391,-467.5 1670,-467.5 "/>
<text text-anchor="start" x="1399" y="-452.3" font-family="Times,serif" font-size="14.00">c_dequantize</text>
<text text-anchor="start" x="1399" y="-437.3" font-family="Times,serif" font-size="14.00">chroma</text>
<text text-anchor="start" x="1399" y="-422.3" font-family="Times,serif" font-size="14.00">colors</text>
<text text-anchor="start" x="1399" y="-407.3" font-family="Times,serif" font-size="14.00">idct</text>
<text text-anchor="start" x="1399" y="-392.3" font-family="Times,serif" font-size="14.00">merging</text>
<text text-anchor="start" x="1399" y="-377.3" font-family="Times,serif" font-size="14.00">y_dequantize</text>
<polyline fill="none" stroke="black" points="1391,-369.5 1670,-369.5 "/>
<text text-anchor="start" x="1399" y="-354.3" font-family="Times,serif" font-size="14.00">forward(y, cb, cr, imgh, imgw, factor)</text>
</g>
<!-- basicsr.utils.diffjpeg.BlockMerging&#45;&gt;basicsr.utils.diffjpeg.DeCompressJpeg -->
<g id="edge4" class="edge">
<title>basicsr.utils.diffjpeg.BlockMerging&#45;&gt;basicsr.utils.diffjpeg.DeCompressJpeg</title>
<path fill="none" stroke="black" d="M1880.2,-182.69C1856.14,-214.74 1816.83,-262.47 1774.5,-295 1746.13,-316.8 1713.29,-336.39 1681.07,-353.18"/>
<polygon fill="black" stroke="black" points="1680.85,-353.29 1677.34,-359.59 1670.17,-358.76 1673.69,-352.47 1680.85,-353.29"/>
<text text-anchor="middle" x="1774" y="-316.8" font-family="Times,serif" font-size="14.00" fill="green">merging</text>
</g>
<!-- basicsr.utils.diffjpeg.BlockSplitting -->
<g id="node4" class="node">
<title>basicsr.utils.diffjpeg.BlockSplitting</title>
<polygon fill="none" stroke="black" points="2241,-113 2241,-182 2368,-182 2368,-113 2241,-113"/>
<text text-anchor="middle" x="2304.5" y="-166.8" font-family="Times,serif" font-size="14.00">BlockSplitting</text>
<polyline fill="none" stroke="black" points="2241,-159 2368,-159 "/>
<text text-anchor="start" x="2249" y="-143.8" font-family="Times,serif" font-size="14.00">k : int</text>
<polyline fill="none" stroke="black" points="2241,-136 2368,-136 "/>
<text text-anchor="start" x="2249" y="-120.8" font-family="Times,serif" font-size="14.00">forward(image)</text>
</g>
<!-- basicsr.utils.diffjpeg.CDequantize -->
<g id="node5" class="node">
<title>basicsr.utils.diffjpeg.CDequantize</title>
<polygon fill="none" stroke="black" points="2044.5,-113 2044.5,-182 2222.5,-182 2222.5,-113 2044.5,-113"/>
<text text-anchor="middle" x="2133.5" y="-166.8" font-family="Times,serif" font-size="14.00">CDequantize</text>
<polyline fill="none" stroke="black" points="2044.5,-159 2222.5,-159 "/>
<text text-anchor="start" x="2052.5" y="-143.8" font-family="Times,serif" font-size="14.00">c_table</text>
<polyline fill="none" stroke="black" points="2044.5,-136 2222.5,-136 "/>
<text text-anchor="start" x="2052.5" y="-120.8" font-family="Times,serif" font-size="14.00">forward(image, factor)</text>
</g>
<!-- basicsr.utils.diffjpeg.CDequantize&#45;&gt;basicsr.utils.diffjpeg.DeCompressJpeg -->
<g id="edge5" class="edge">
<title>basicsr.utils.diffjpeg.CDequantize&#45;&gt;basicsr.utils.diffjpeg.DeCompressJpeg</title>
<path fill="none" stroke="black" d="M2119.86,-182.08C2104.42,-215.81 2076.02,-266.71 2035.5,-295 1931.52,-367.61 1789.45,-397.42 1682.48,-409.53"/>
<polygon fill="black" stroke="black" points="1682.2,-409.56 1676.67,-414.19 1670.27,-410.86 1675.81,-406.23 1682.2,-409.56"/>
<text text-anchor="middle" x="2046.5" y="-316.8" font-family="Times,serif" font-size="14.00" fill="green">c_dequantize</text>
</g>
<!-- basicsr.utils.diffjpeg.CQuantize -->
<g id="node6" class="node">
<title>basicsr.utils.diffjpeg.CQuantize</title>
<polygon fill="none" stroke="black" points="915.5,-105.5 915.5,-189.5 1093.5,-189.5 1093.5,-105.5 915.5,-105.5"/>
<text text-anchor="middle" x="1004.5" y="-174.3" font-family="Times,serif" font-size="14.00">CQuantize</text>
<polyline fill="none" stroke="black" points="915.5,-166.5 1093.5,-166.5 "/>
<text text-anchor="start" x="923.5" y="-151.3" font-family="Times,serif" font-size="14.00">c_table</text>
<text text-anchor="start" x="923.5" y="-136.3" font-family="Times,serif" font-size="14.00">rounding</text>
<polyline fill="none" stroke="black" points="915.5,-128.5 1093.5,-128.5 "/>
<text text-anchor="start" x="923.5" y="-113.3" font-family="Times,serif" font-size="14.00">forward(image, factor)</text>
</g>
<!-- basicsr.utils.diffjpeg.CompressJpeg -->
<g id="node9" class="node">
<title>basicsr.utils.diffjpeg.CompressJpeg</title>
<polygon fill="none" stroke="black" points="915.5,-361.5 915.5,-475.5 1093.5,-475.5 1093.5,-361.5 915.5,-361.5"/>
<text text-anchor="middle" x="1004.5" y="-460.3" font-family="Times,serif" font-size="14.00">CompressJpeg</text>
<polyline fill="none" stroke="black" points="915.5,-452.5 1093.5,-452.5 "/>
<text text-anchor="start" x="923.5" y="-437.3" font-family="Times,serif" font-size="14.00">c_quantize</text>
<text text-anchor="start" x="923.5" y="-422.3" font-family="Times,serif" font-size="14.00">l1</text>
<text text-anchor="start" x="923.5" y="-407.3" font-family="Times,serif" font-size="14.00">l2</text>
<text text-anchor="start" x="923.5" y="-392.3" font-family="Times,serif" font-size="14.00">y_quantize</text>
<polyline fill="none" stroke="black" points="915.5,-384.5 1093.5,-384.5 "/>
<text text-anchor="start" x="923.5" y="-369.3" font-family="Times,serif" font-size="14.00">forward(image, factor)</text>
</g>
<!-- basicsr.utils.diffjpeg.CQuantize&#45;&gt;basicsr.utils.diffjpeg.CompressJpeg -->
<g id="edge6" class="edge">
<title>basicsr.utils.diffjpeg.CQuantize&#45;&gt;basicsr.utils.diffjpeg.CompressJpeg</title>
<path fill="none" stroke="black" d="M1004.5,-189.65C1004.5,-232.07 1004.5,-298.94 1004.5,-349.29"/>
<polygon fill="black" stroke="black" points="1004.5,-349.38 1008.5,-355.38 1004.5,-361.38 1000.5,-355.38 1004.5,-349.38"/>
<text text-anchor="middle" x="1042.5" y="-316.8" font-family="Times,serif" font-size="14.00" fill="green">c_quantize</text>
</g>
<!-- basicsr.utils.diffjpeg.ChromaSubsampling -->
<g id="node7" class="node">
<title>basicsr.utils.diffjpeg.ChromaSubsampling</title>
<polygon fill="none" stroke="black" points="2386.5,-112.5 2386.5,-182.5 2552.5,-182.5 2552.5,-112.5 2386.5,-112.5"/>
<text text-anchor="middle" x="2469.5" y="-167.3" font-family="Times,serif" font-size="14.00">ChromaSubsampling</text>
<polyline fill="none" stroke="black" points="2386.5,-159.5 2552.5,-159.5 "/>
<polyline fill="none" stroke="black" points="2386.5,-135.5 2552.5,-135.5 "/>
<text text-anchor="start" x="2394.5" y="-120.3" font-family="Times,serif" font-size="14.00">forward(image)</text>
</g>
<!-- basicsr.utils.diffjpeg.ChromaUpsampling -->
<g id="node8" class="node">
<title>basicsr.utils.diffjpeg.ChromaUpsampling</title>
<polygon fill="none" stroke="black" points="1111,-112.5 1111,-182.5 1270,-182.5 1270,-112.5 1111,-112.5"/>
<text text-anchor="middle" x="1190.5" y="-167.3" font-family="Times,serif" font-size="14.00">ChromaUpsampling</text>
<polyline fill="none" stroke="black" points="1111,-159.5 1270,-159.5 "/>
<polyline fill="none" stroke="black" points="1111,-135.5 1270,-135.5 "/>
<text text-anchor="start" x="1119" y="-120.3" font-family="Times,serif" font-size="14.00">forward(y, cb, cr)</text>
</g>
<!-- basicsr.utils.diffjpeg.ChromaUpsampling&#45;&gt;basicsr.utils.diffjpeg.DeCompressJpeg -->
<g id="edge7" class="edge">
<title>basicsr.utils.diffjpeg.ChromaUpsampling&#45;&gt;basicsr.utils.diffjpeg.DeCompressJpeg</title>
<path fill="none" stroke="black" d="M1204.11,-182.56C1218.5,-214.96 1243.92,-263.35 1278.5,-295 1307.77,-321.79 1343.97,-343.94 1379.71,-361.69"/>
<polygon fill="black" stroke="black" points="1379.98,-361.83 1387.12,-360.84 1390.78,-367.06 1383.63,-368.04 1379.98,-361.83"/>
<text text-anchor="middle" x="1347.5" y="-316.8" font-family="Times,serif" font-size="14.00" fill="green">chroma</text>
</g>
<!-- basicsr.utils.diffjpeg.DiffJPEG -->
<g id="node12" class="node">
<title>basicsr.utils.diffjpeg.DiffJPEG</title>
<polygon fill="none" stroke="black" points="1192.5,-542.5 1192.5,-626.5 1342.5,-626.5 1342.5,-542.5 1192.5,-542.5"/>
<text text-anchor="middle" x="1267.5" y="-611.3" font-family="Times,serif" font-size="14.00">DiffJPEG</text>
<polyline fill="none" stroke="black" points="1192.5,-603.5 1342.5,-603.5 "/>
<text text-anchor="start" x="1200.5" y="-588.3" font-family="Times,serif" font-size="14.00">compress</text>
<text text-anchor="start" x="1200.5" y="-573.3" font-family="Times,serif" font-size="14.00">decompress</text>
<polyline fill="none" stroke="black" points="1192.5,-565.5 1342.5,-565.5 "/>
<text text-anchor="start" x="1200.5" y="-550.3" font-family="Times,serif" font-size="14.00">forward(x, quality)</text>
</g>
<!-- basicsr.utils.diffjpeg.CompressJpeg&#45;&gt;basicsr.utils.diffjpeg.DiffJPEG -->
<g id="edge8" class="edge">
<title>basicsr.utils.diffjpeg.CompressJpeg&#45;&gt;basicsr.utils.diffjpeg.DiffJPEG</title>
<path fill="none" stroke="black" d="M1093.54,-475.02C1125.13,-494.72 1160.39,-516.71 1190.86,-535.71"/>
<polygon fill="black" stroke="black" points="1191.24,-535.94 1198.45,-535.73 1201.42,-542.29 1194.21,-542.51 1191.24,-535.94"/>
<text text-anchor="middle" x="1202" y="-512.8" font-family="Times,serif" font-size="14.00" fill="green">compress</text>
</g>
<!-- basicsr.utils.diffjpeg.DCT8x8 -->
<g id="node10" class="node">
<title>basicsr.utils.diffjpeg.DCT8x8</title>
<polygon fill="none" stroke="black" points="2571,-105.5 2571,-189.5 2698,-189.5 2698,-105.5 2571,-105.5"/>
<text text-anchor="middle" x="2634.5" y="-174.3" font-family="Times,serif" font-size="14.00">DCT8x8</text>
<polyline fill="none" stroke="black" points="2571,-166.5 2698,-166.5 "/>
<text text-anchor="start" x="2579" y="-151.3" font-family="Times,serif" font-size="14.00">scale</text>
<text text-anchor="start" x="2579" y="-136.3" font-family="Times,serif" font-size="14.00">tensor</text>
<polyline fill="none" stroke="black" points="2571,-128.5 2698,-128.5 "/>
<text text-anchor="start" x="2579" y="-113.3" font-family="Times,serif" font-size="14.00">forward(image)</text>
</g>
<!-- basicsr.utils.diffjpeg.DeCompressJpeg&#45;&gt;basicsr.utils.diffjpeg.DiffJPEG -->
<g id="edge9" class="edge">
<title>basicsr.utils.diffjpeg.DeCompressJpeg&#45;&gt;basicsr.utils.diffjpeg.DiffJPEG</title>
<path fill="none" stroke="black" d="M1416.29,-490.72C1391.77,-506.01 1366.43,-521.81 1343.76,-535.94"/>
<polygon fill="black" stroke="black" points="1343.73,-535.96 1340.76,-542.53 1333.55,-542.31 1336.53,-535.74 1343.73,-535.96"/>
<text text-anchor="middle" x="1426.5" y="-512.8" font-family="Times,serif" font-size="14.00" fill="green">decompress</text>
</g>
<!-- basicsr.utils.file_client.FileClient -->
<g id="node13" class="node">
<title>basicsr.utils.file_client.FileClient</title>
<polygon fill="none" stroke="black" points="144,-369 144,-468 329,-468 329,-369 144,-369"/>
<text text-anchor="middle" x="236.5" y="-452.8" font-family="Times,serif" font-size="14.00">FileClient</text>
<polyline fill="none" stroke="black" points="144,-445 329,-445 "/>
<text text-anchor="start" x="152" y="-429.8" font-family="Times,serif" font-size="14.00">backend : str</text>
<text text-anchor="start" x="152" y="-414.8" font-family="Times,serif" font-size="14.00">client</text>
<polyline fill="none" stroke="black" points="144,-407 329,-407 "/>
<text text-anchor="start" x="152" y="-391.8" font-family="Times,serif" font-size="14.00">get(filepath, client_key)</text>
<text text-anchor="start" x="152" y="-376.8" font-family="Times,serif" font-size="14.00">get_text(filepath)</text>
</g>
<!-- basicsr.utils.file_client.HardDiskBackend -->
<g id="node14" class="node">
<title>basicsr.utils.file_client.HardDiskBackend</title>
<polygon fill="none" stroke="black" points="167,-105 167,-190 312,-190 312,-105 167,-105"/>
<text text-anchor="middle" x="239.5" y="-174.8" font-family="Times,serif" font-size="14.00">HardDiskBackend</text>
<polyline fill="none" stroke="black" points="167,-167 312,-167 "/>
<polyline fill="none" stroke="black" points="167,-143 312,-143 "/>
<text text-anchor="start" x="175" y="-127.8" font-family="Times,serif" font-size="14.00">get(filepath)</text>
<text text-anchor="start" x="175" y="-112.8" font-family="Times,serif" font-size="14.00">get_text(filepath)</text>
</g>
<!-- basicsr.utils.file_client.HardDiskBackend&#45;&gt;basicsr.utils.file_client.BaseStorageBackend -->
<g id="edge1" class="edge">
<title>basicsr.utils.file_client.HardDiskBackend&#45;&gt;basicsr.utils.file_client.BaseStorageBackend</title>
<path fill="none" stroke="black" d="M261.35,-190.14C277.71,-220.14 301.35,-261.15 325.5,-295 343.55,-320.29 365.67,-346.66 384.94,-368.43"/>
<polygon fill="none" stroke="black" points="382.36,-370.8 391.63,-375.93 387.59,-366.14 382.36,-370.8"/>
</g>
<!-- basicsr.utils.file_client.HardDiskBackend&#45;&gt;basicsr.utils.file_client.FileClient -->
<g id="edge14" class="edge">
<title>basicsr.utils.file_client.HardDiskBackend&#45;&gt;basicsr.utils.file_client.FileClient</title>
<path fill="none" stroke="black" d="M239.03,-190.24C238.54,-234.82 237.74,-305.91 237.18,-356.7"/>
<polygon fill="black" stroke="black" points="237.18,-356.83 241.11,-362.87 237.04,-368.83 233.11,-362.79 237.18,-356.83"/>
<text text-anchor="middle" x="258.5" y="-316.8" font-family="Times,serif" font-size="14.00" fill="green">client</text>
</g>
<!-- basicsr.utils.realesrgan_utils.IOConsumer -->
<g id="node15" class="node">
<title>basicsr.utils.realesrgan_utils.IOConsumer</title>
<polygon fill="none" stroke="black" points="2716.5,-105.5 2716.5,-189.5 2822.5,-189.5 2822.5,-105.5 2716.5,-105.5"/>
<text text-anchor="middle" x="2769.5" y="-174.3" font-family="Times,serif" font-size="14.00">IOConsumer</text>
<polyline fill="none" stroke="black" points="2716.5,-166.5 2822.5,-166.5 "/>
<text text-anchor="start" x="2724.5" y="-151.3" font-family="Times,serif" font-size="14.00">opt</text>
<text text-anchor="start" x="2724.5" y="-136.3" font-family="Times,serif" font-size="14.00">qid</text>
<polyline fill="none" stroke="black" points="2716.5,-128.5 2822.5,-128.5 "/>
<text text-anchor="start" x="2724.5" y="-113.3" font-family="Times,serif" font-size="14.00">run()</text>
</g>
<!-- basicsr.utils.file_client.LmdbBackend -->
<g id="node16" class="node">
<title>basicsr.utils.file_client.LmdbBackend</title>
<polygon fill="none" stroke="black" points="335,-105.5 335,-189.5 520,-189.5 520,-105.5 335,-105.5"/>
<text text-anchor="middle" x="427.5" y="-174.3" font-family="Times,serif" font-size="14.00">LmdbBackend</text>
<polyline fill="none" stroke="black" points="335,-166.5 520,-166.5 "/>
<text text-anchor="start" x="343" y="-151.3" font-family="Times,serif" font-size="14.00">db_paths : list</text>
<polyline fill="none" stroke="black" points="335,-143.5 520,-143.5 "/>
<text text-anchor="start" x="343" y="-128.3" font-family="Times,serif" font-size="14.00">get(filepath, client_key)</text>
<text text-anchor="start" x="343" y="-113.3" font-family="Times,serif" font-size="14.00">get_text(filepath)</text>
</g>
<!-- basicsr.utils.file_client.LmdbBackend&#45;&gt;basicsr.utils.file_client.BaseStorageBackend -->
<g id="edge2" class="edge">
<title>basicsr.utils.file_client.LmdbBackend&#45;&gt;basicsr.utils.file_client.BaseStorageBackend</title>
<path fill="none" stroke="black" d="M427.96,-189.65C428.49,-236.88 429.35,-314.41 429.92,-365.7"/>
<polygon fill="none" stroke="black" points="426.42,-365.95 430.04,-375.91 433.42,-365.88 426.42,-365.95"/>
</g>
<!-- basicsr.utils.lmdb_util.LmdbMaker -->
<g id="node17" class="node">
<title>basicsr.utils.lmdb_util.LmdbMaker</title>
<polygon fill="none" stroke="black" points="2841,-60.5 2841,-234.5 3074,-234.5 3074,-60.5 2841,-60.5"/>
<text text-anchor="middle" x="2957.5" y="-219.3" font-family="Times,serif" font-size="14.00">LmdbMaker</text>
<polyline fill="none" stroke="black" points="2841,-211.5 3074,-211.5 "/>
<text text-anchor="start" x="2849" y="-196.3" font-family="Times,serif" font-size="14.00">batch : int</text>
<text text-anchor="start" x="2849" y="-181.3" font-family="Times,serif" font-size="14.00">compress_level : int</text>
<text text-anchor="start" x="2849" y="-166.3" font-family="Times,serif" font-size="14.00">counter : int</text>
<text text-anchor="start" x="2849" y="-151.3" font-family="Times,serif" font-size="14.00">env</text>
<text text-anchor="start" x="2849" y="-136.3" font-family="Times,serif" font-size="14.00">lmdb_path</text>
<text text-anchor="start" x="2849" y="-121.3" font-family="Times,serif" font-size="14.00">txn</text>
<text text-anchor="start" x="2849" y="-106.3" font-family="Times,serif" font-size="14.00">txt_file</text>
<polyline fill="none" stroke="black" points="2841,-98.5 3074,-98.5 "/>
<text text-anchor="start" x="2849" y="-83.3" font-family="Times,serif" font-size="14.00">close()</text>
<text text-anchor="start" x="2849" y="-68.3" font-family="Times,serif" font-size="14.00">put(img_byte, key, img_shape)</text>
</g>
<!-- basicsr.utils.file_client.MemcachedBackend -->
<g id="node18" class="node">
<title>basicsr.utils.file_client.MemcachedBackend</title>
<polygon fill="none" stroke="black" points="538,-98 538,-197 701,-197 701,-98 538,-98"/>
<text text-anchor="middle" x="619.5" y="-181.8" font-family="Times,serif" font-size="14.00">MemcachedBackend</text>
<polyline fill="none" stroke="black" points="538,-174 701,-174 "/>
<text text-anchor="start" x="546" y="-158.8" font-family="Times,serif" font-size="14.00">client_cfg</text>
<text text-anchor="start" x="546" y="-143.8" font-family="Times,serif" font-size="14.00">server_list_cfg</text>
<polyline fill="none" stroke="black" points="538,-136 701,-136 "/>
<text text-anchor="start" x="546" y="-120.8" font-family="Times,serif" font-size="14.00">get(filepath)</text>
<text text-anchor="start" x="546" y="-105.8" font-family="Times,serif" font-size="14.00">get_text(filepath)</text>
</g>
<!-- basicsr.utils.file_client.MemcachedBackend&#45;&gt;basicsr.utils.file_client.BaseStorageBackend -->
<g id="edge3" class="edge">
<title>basicsr.utils.file_client.MemcachedBackend&#45;&gt;basicsr.utils.file_client.BaseStorageBackend</title>
<path fill="none" stroke="black" d="M591.19,-197.27C573.9,-226.22 550.88,-263.34 528.5,-295 511,-319.76 490.19,-346.15 472.25,-368.07"/>
<polygon fill="none" stroke="black" points="469.43,-365.99 465.79,-375.94 474.84,-370.44 469.43,-365.99"/>
</g>
<!-- basicsr.utils.logger.MessageLogger -->
<g id="node19" class="node">
<title>basicsr.utils.logger.MessageLogger</title>
<polygon fill="none" stroke="black" points="3092.5,-60.5 3092.5,-234.5 3390.5,-234.5 3390.5,-60.5 3092.5,-60.5"/>
<text text-anchor="middle" x="3241.5" y="-219.3" font-family="Times,serif" font-size="14.00">MessageLogger</text>
<polyline fill="none" stroke="black" points="3092.5,-211.5 3390.5,-211.5 "/>
<text text-anchor="start" x="3100.5" y="-196.3" font-family="Times,serif" font-size="14.00">exp_name</text>
<text text-anchor="start" x="3100.5" y="-181.3" font-family="Times,serif" font-size="14.00">interval</text>
<text text-anchor="start" x="3100.5" y="-166.3" font-family="Times,serif" font-size="14.00">logger : RootLogger, NoneType, Logger</text>
<text text-anchor="start" x="3100.5" y="-151.3" font-family="Times,serif" font-size="14.00">max_iters</text>
<text text-anchor="start" x="3100.5" y="-136.3" font-family="Times,serif" font-size="14.00">start_iter : int</text>
<text text-anchor="start" x="3100.5" y="-121.3" font-family="Times,serif" font-size="14.00">start_time</text>
<text text-anchor="start" x="3100.5" y="-106.3" font-family="Times,serif" font-size="14.00">tb_logger : NoneType</text>
<text text-anchor="start" x="3100.5" y="-91.3" font-family="Times,serif" font-size="14.00">use_tb_logger</text>
<polyline fill="none" stroke="black" points="3092.5,-83.5 3390.5,-83.5 "/>
<text text-anchor="start" x="3100.5" y="-68.3" font-family="Times,serif" font-size="14.00">reset_start_time()</text>
</g>
<!-- basicsr.utils.realesrgan_utils.PrefetchReader -->
<g id="node20" class="node">
<title>basicsr.utils.realesrgan_utils.PrefetchReader</title>
<polygon fill="none" stroke="black" points="3408.5,-105.5 3408.5,-189.5 3536.5,-189.5 3536.5,-105.5 3408.5,-105.5"/>
<text text-anchor="middle" x="3472.5" y="-174.3" font-family="Times,serif" font-size="14.00">PrefetchReader</text>
<polyline fill="none" stroke="black" points="3408.5,-166.5 3536.5,-166.5 "/>
<text text-anchor="start" x="3416.5" y="-151.3" font-family="Times,serif" font-size="14.00">img_list</text>
<text text-anchor="start" x="3416.5" y="-136.3" font-family="Times,serif" font-size="14.00">que : Queue</text>
<polyline fill="none" stroke="black" points="3408.5,-128.5 3536.5,-128.5 "/>
<text text-anchor="start" x="3416.5" y="-113.3" font-family="Times,serif" font-size="14.00">run()</text>
</g>
<!-- basicsr.utils.diffjpeg.RGB2YCbCrJpeg -->
<g id="node21" class="node">
<title>basicsr.utils.diffjpeg.RGB2YCbCrJpeg</title>
<polygon fill="none" stroke="black" points="3555,-105.5 3555,-189.5 3690,-189.5 3690,-105.5 3555,-105.5"/>
<text text-anchor="middle" x="3622.5" y="-174.3" font-family="Times,serif" font-size="14.00">RGB2YCbCrJpeg</text>
<polyline fill="none" stroke="black" points="3555,-166.5 3690,-166.5 "/>
<text text-anchor="start" x="3563" y="-151.3" font-family="Times,serif" font-size="14.00">matrix</text>
<text text-anchor="start" x="3563" y="-136.3" font-family="Times,serif" font-size="14.00">shift</text>
<polyline fill="none" stroke="black" points="3555,-128.5 3690,-128.5 "/>
<text text-anchor="start" x="3563" y="-113.3" font-family="Times,serif" font-size="14.00">forward(image)</text>
</g>
<!-- basicsr.utils.realesrgan_utils.RealESRGANer -->
<g id="node22" class="node">
<title>basicsr.utils.realesrgan_utils.RealESRGANer</title>
<polygon fill="none" stroke="black" points="3708.5,-0.5 3708.5,-294.5 4020.5,-294.5 4020.5,-0.5 3708.5,-0.5"/>
<text text-anchor="middle" x="3864.5" y="-279.3" font-family="Times,serif" font-size="14.00">RealESRGANer</text>
<polyline fill="none" stroke="black" points="3708.5,-271.5 4020.5,-271.5 "/>
<text text-anchor="start" x="3716.5" y="-256.3" font-family="Times,serif" font-size="14.00">device : NoneType</text>
<text text-anchor="start" x="3716.5" y="-241.3" font-family="Times,serif" font-size="14.00">half : bool</text>
<text text-anchor="start" x="3716.5" y="-226.3" font-family="Times,serif" font-size="14.00">img</text>
<text text-anchor="start" x="3716.5" y="-211.3" font-family="Times,serif" font-size="14.00">mod_pad_h : int</text>
<text text-anchor="start" x="3716.5" y="-196.3" font-family="Times,serif" font-size="14.00">mod_pad_w : int</text>
<text text-anchor="start" x="3716.5" y="-181.3" font-family="Times,serif" font-size="14.00">mod_scale : int, NoneType</text>
<text text-anchor="start" x="3716.5" y="-166.3" font-family="Times,serif" font-size="14.00">model</text>
<text text-anchor="start" x="3716.5" y="-151.3" font-family="Times,serif" font-size="14.00">output</text>
<text text-anchor="start" x="3716.5" y="-136.3" font-family="Times,serif" font-size="14.00">pre_pad : int</text>
<text text-anchor="start" x="3716.5" y="-121.3" font-family="Times,serif" font-size="14.00">scale</text>
<text text-anchor="start" x="3716.5" y="-106.3" font-family="Times,serif" font-size="14.00">tile_pad : int</text>
<text text-anchor="start" x="3716.5" y="-91.3" font-family="Times,serif" font-size="14.00">tile_size : int</text>
<polyline fill="none" stroke="black" points="3708.5,-83.5 4020.5,-83.5 "/>
<text text-anchor="start" x="3716.5" y="-68.3" font-family="Times,serif" font-size="14.00">enhance(img, outscale, alpha_upsampler)</text>
<text text-anchor="start" x="3716.5" y="-53.3" font-family="Times,serif" font-size="14.00">post_process()</text>
<text text-anchor="start" x="3716.5" y="-38.3" font-family="Times,serif" font-size="14.00">pre_process(img)</text>
<text text-anchor="start" x="3716.5" y="-23.3" font-family="Times,serif" font-size="14.00">process()</text>
<text text-anchor="start" x="3716.5" y="-8.3" font-family="Times,serif" font-size="14.00">tile_process()</text>
</g>
<!-- basicsr.utils.registry.Registry -->
<g id="node23" class="node">
<title>basicsr.utils.registry.Registry</title>
<polygon fill="none" stroke="black" points="4038.5,-97.5 4038.5,-197.5 4192.5,-197.5 4192.5,-97.5 4038.5,-97.5"/>
<text text-anchor="middle" x="4115.5" y="-182.3" font-family="Times,serif" font-size="14.00">Registry</text>
<polyline fill="none" stroke="black" points="4038.5,-174.5 4192.5,-174.5 "/>
<polyline fill="none" stroke="black" points="4038.5,-150.5 4192.5,-150.5 "/>
<text text-anchor="start" x="4046.5" y="-135.3" font-family="Times,serif" font-size="14.00">get(name, suffix)</text>
<text text-anchor="start" x="4046.5" y="-120.3" font-family="Times,serif" font-size="14.00">keys()</text>
<text text-anchor="start" x="4046.5" y="-105.3" font-family="Times,serif" font-size="14.00">register(obj, suffix)</text>
</g>
<!-- basicsr.utils.img_process_util.USMSharp -->
<g id="node24" class="node">
<title>basicsr.utils.img_process_util.USMSharp</title>
<polygon fill="none" stroke="black" points="4211,-113 4211,-182 4456,-182 4456,-113 4211,-113"/>
<text text-anchor="middle" x="4333.5" y="-166.8" font-family="Times,serif" font-size="14.00">USMSharp</text>
<polyline fill="none" stroke="black" points="4211,-159 4456,-159 "/>
<text text-anchor="start" x="4219" y="-143.8" font-family="Times,serif" font-size="14.00">radius : int</text>
<polyline fill="none" stroke="black" points="4211,-136 4456,-136 "/>
<text text-anchor="start" x="4219" y="-120.8" font-family="Times,serif" font-size="14.00">forward(img, weight, threshold)</text>
</g>
<!-- basicsr.utils.diffjpeg.YCbCr2RGBJpeg -->
<g id="node25" class="node">
<title>basicsr.utils.diffjpeg.YCbCr2RGBJpeg</title>
<polygon fill="none" stroke="black" points="1288,-105.5 1288,-189.5 1423,-189.5 1423,-105.5 1288,-105.5"/>
<text text-anchor="middle" x="1355.5" y="-174.3" font-family="Times,serif" font-size="14.00">YCbCr2RGBJpeg</text>
<polyline fill="none" stroke="black" points="1288,-166.5 1423,-166.5 "/>
<text text-anchor="start" x="1296" y="-151.3" font-family="Times,serif" font-size="14.00">matrix</text>
<text text-anchor="start" x="1296" y="-136.3" font-family="Times,serif" font-size="14.00">shift</text>
<polyline fill="none" stroke="black" points="1288,-128.5 1423,-128.5 "/>
<text text-anchor="start" x="1296" y="-113.3" font-family="Times,serif" font-size="14.00">forward(image)</text>
</g>
<!-- basicsr.utils.diffjpeg.YCbCr2RGBJpeg&#45;&gt;basicsr.utils.diffjpeg.DeCompressJpeg -->
<g id="edge10" class="edge">
<title>basicsr.utils.diffjpeg.YCbCr2RGBJpeg&#45;&gt;basicsr.utils.diffjpeg.DeCompressJpeg</title>
<path fill="none" stroke="black" d="M1374.57,-189.79C1389.06,-219.81 1410.24,-260.98 1432.5,-295 1441.56,-308.85 1451.84,-323.02 1462.25,-336.59"/>
<polygon fill="black" stroke="black" points="1462.47,-336.87 1469.31,-339.15 1469.83,-346.34 1462.99,-344.06 1462.47,-336.87"/>
<text text-anchor="middle" x="1477" y="-316.8" font-family="Times,serif" font-size="14.00" fill="green">colors</text>
</g>
<!-- basicsr.utils.diffjpeg.YDequantize -->
<g id="node26" class="node">
<title>basicsr.utils.diffjpeg.YDequantize</title>
<polygon fill="none" stroke="black" points="1441.5,-113 1441.5,-182 1619.5,-182 1619.5,-113 1441.5,-113"/>
<text text-anchor="middle" x="1530.5" y="-166.8" font-family="Times,serif" font-size="14.00">YDequantize</text>
<polyline fill="none" stroke="black" points="1441.5,-159 1619.5,-159 "/>
<text text-anchor="start" x="1449.5" y="-143.8" font-family="Times,serif" font-size="14.00">y_table</text>
<polyline fill="none" stroke="black" points="1441.5,-136 1619.5,-136 "/>
<text text-anchor="start" x="1449.5" y="-120.8" font-family="Times,serif" font-size="14.00">forward(image, factor)</text>
</g>
<!-- basicsr.utils.diffjpeg.YDequantize&#45;&gt;basicsr.utils.diffjpeg.DeCompressJpeg -->
<g id="edge11" class="edge">
<title>basicsr.utils.diffjpeg.YDequantize&#45;&gt;basicsr.utils.diffjpeg.DeCompressJpeg</title>
<path fill="none" stroke="black" d="M1530.5,-182.03C1530.5,-219.9 1530.5,-282.96 1530.5,-334.29"/>
<polygon fill="black" stroke="black" points="1530.5,-334.39 1534.5,-340.39 1530.5,-346.39 1526.5,-340.39 1530.5,-334.39"/>
<text text-anchor="middle" x="1577.5" y="-316.8" font-family="Times,serif" font-size="14.00" fill="green">y_dequantize</text>
</g>
<!-- basicsr.utils.diffjpeg.YQuantize -->
<g id="node27" class="node">
<title>basicsr.utils.diffjpeg.YQuantize</title>
<polygon fill="none" stroke="black" points="719.5,-105.5 719.5,-189.5 897.5,-189.5 897.5,-105.5 719.5,-105.5"/>
<text text-anchor="middle" x="808.5" y="-174.3" font-family="Times,serif" font-size="14.00">YQuantize</text>
<polyline fill="none" stroke="black" points="719.5,-166.5 897.5,-166.5 "/>
<text text-anchor="start" x="727.5" y="-151.3" font-family="Times,serif" font-size="14.00">rounding</text>
<text text-anchor="start" x="727.5" y="-136.3" font-family="Times,serif" font-size="14.00">y_table</text>
<polyline fill="none" stroke="black" points="719.5,-128.5 897.5,-128.5 "/>
<text text-anchor="start" x="727.5" y="-113.3" font-family="Times,serif" font-size="14.00">forward(image, factor)</text>
</g>
<!-- basicsr.utils.diffjpeg.YQuantize&#45;&gt;basicsr.utils.diffjpeg.CompressJpeg -->
<g id="edge12" class="edge">
<title>basicsr.utils.diffjpeg.YQuantize&#45;&gt;basicsr.utils.diffjpeg.CompressJpeg</title>
<path fill="none" stroke="black" d="M832.24,-189.72C854.3,-226.96 888.89,-282.72 923.5,-328 929.63,-336.02 936.32,-344.19 943.14,-352.16"/>
<polygon fill="black" stroke="black" points="943.31,-352.36 950.27,-354.27 951.18,-361.42 944.23,-359.52 943.31,-352.36"/>
<text text-anchor="middle" x="962" y="-316.8" font-family="Times,serif" font-size="14.00" fill="green">y_quantize</text>
</g>
<!-- basicsr.utils.diffjpeg.iDCT8x8 -->
<g id="node28" class="node">
<title>basicsr.utils.diffjpeg.iDCT8x8</title>
<polygon fill="none" stroke="black" points="1638,-105.5 1638,-189.5 1765,-189.5 1765,-105.5 1638,-105.5"/>
<text text-anchor="middle" x="1701.5" y="-174.3" font-family="Times,serif" font-size="14.00">iDCT8x8</text>
<polyline fill="none" stroke="black" points="1638,-166.5 1765,-166.5 "/>
<text text-anchor="start" x="1646" y="-151.3" font-family="Times,serif" font-size="14.00">alpha</text>
<text text-anchor="start" x="1646" y="-136.3" font-family="Times,serif" font-size="14.00">tensor</text>
<polyline fill="none" stroke="black" points="1638,-128.5 1765,-128.5 "/>
<text text-anchor="start" x="1646" y="-113.3" font-family="Times,serif" font-size="14.00">forward(image)</text>
</g>
<!-- basicsr.utils.diffjpeg.iDCT8x8&#45;&gt;basicsr.utils.diffjpeg.DeCompressJpeg -->
<g id="edge13" class="edge">
<title>basicsr.utils.diffjpeg.iDCT8x8&#45;&gt;basicsr.utils.diffjpeg.DeCompressJpeg</title>
<path fill="none" stroke="black" d="M1690.52,-189.56C1679.04,-227.7 1658.5,-284.94 1628.5,-328 1626.39,-331.02 1624.17,-334.02 1621.85,-336.97"/>
<polygon fill="black" stroke="black" points="1621.79,-337.04 1621.05,-344.21 1614.14,-346.28 1614.89,-339.11 1621.79,-337.04"/>
<text text-anchor="middle" x="1651.5" y="-316.8" font-family="Times,serif" font-size="14.00" fill="green">idct</text>
</g>
</g>
</svg>
