<?xml version="1.0" encoding="UTF-8" standalone="no"?>
<!DOCTYPE svg PUBLIC "-//W3C//DTD SVG 1.1//EN"
 "http://www.w3.org/Graphics/SVG/1.1/DTD/svg11.dtd">
<!-- Generated by graphviz version 2.50.0 (0)
 -->
<!-- Title: classes_basicsr.utils.diffjpeg Pages: 1 -->
<svg width="2140pt" height="425pt"
 viewBox="0.00 0.00 2139.50 425.00" xmlns="http://www.w3.org/2000/svg" xmlns:xlink="http://www.w3.org/1999/xlink">
<g id="graph0" class="graph" transform="scale(1 1) rotate(0) translate(4 421)">
<title>classes_basicsr.utils.diffjpeg</title>
<polygon fill="white" stroke="transparent" points="-4,4 -4,-421 2135.5,-421 2135.5,4 -4,4"/>
<!-- basicsr.utils.diffjpeg.BlockMerging -->
<g id="node1" class="node">
<title>basicsr.utils.diffjpeg.BlockMerging</title>
<polygon fill="none" stroke="black" points="1063.5,-7.5 1063.5,-77.5 1306.5,-77.5 1306.5,-7.5 1063.5,-7.5"/>
<text text-anchor="middle" x="1185" y="-62.3" font-family="Times,serif" font-size="14.00">BlockMerging</text>
<polyline fill="none" stroke="black" points="1063.5,-54.5 1306.5,-54.5 "/>
<polyline fill="none" stroke="black" points="1063.5,-30.5 1306.5,-30.5 "/>
<text text-anchor="start" x="1071.5" y="-15.3" font-family="Times,serif" font-size="14.00">forward(patches, height, width)</text>
</g>
<!-- basicsr.utils.diffjpeg.DeCompressJpeg -->
<g id="node9" class="node">
<title>basicsr.utils.diffjpeg.DeCompressJpeg</title>
<polygon fill="none" stroke="black" points="671.5,-136.5 671.5,-280.5 950.5,-280.5 950.5,-136.5 671.5,-136.5"/>
<text text-anchor="middle" x="811" y="-265.3" font-family="Times,serif" font-size="14.00">DeCompressJpeg</text>
<polyline fill="none" stroke="black" points="671.5,-257.5 950.5,-257.5 "/>
<text text-anchor="start" x="679.5" y="-242.3" font-family="Times,serif" font-size="14.00">c_dequantize</text>
<text text-anchor="start" x="679.5" y="-227.3" font-family="Times,serif" font-size="14.00">chroma</text>
<text text-anchor="start" x="679.5" y="-212.3" font-family="Times,serif" font-size="14.00">colors</text>
<text text-anchor="start" x="679.5" y="-197.3" font-family="Times,serif" font-size="14.00">idct</text>
<text text-anchor="start" x="679.5" y="-182.3" font-family="Times,serif" font-size="14.00">merging</text>
<text text-anchor="start" x="679.5" y="-167.3" font-family="Times,serif" font-size="14.00">y_dequantize</text>
<polyline fill="none" stroke="black" points="671.5,-159.5 950.5,-159.5 "/>
<text text-anchor="start" x="679.5" y="-144.3" font-family="Times,serif" font-size="14.00">forward(y, cb, cr, imgh, imgw, factor)</text>
</g>
<!-- basicsr.utils.diffjpeg.BlockMerging&#45;&gt;basicsr.utils.diffjpeg.DeCompressJpeg -->
<g id="edge1" class="edge">
<title>basicsr.utils.diffjpeg.BlockMerging&#45;&gt;basicsr.utils.diffjpeg.DeCompressJpeg</title>
<path fill="none" stroke="black" d="M1107.05,-77.68C1065.06,-96.09 1011.78,-119.46 962.04,-141.27"/>
<polygon fill="black" stroke="black" points="961.81,-141.37 957.92,-147.44 950.82,-146.19 954.71,-140.12 961.81,-141.37"/>
<text text-anchor="middle" x="1072.5" y="-106.8" font-family="Times,serif" font-size="14.00" fill="green">merging</text>
</g>
<!-- basicsr.utils.diffjpeg.BlockSplitting -->
<g id="node2" class="node">
<title>basicsr.utils.diffjpeg.BlockSplitting</title>
<polygon fill="none" stroke="black" points="1521.5,-8 1521.5,-77 1648.5,-77 1648.5,-8 1521.5,-8"/>
<text text-anchor="middle" x="1585" y="-61.8" font-family="Times,serif" font-size="14.00">BlockSplitting</text>
<polyline fill="none" stroke="black" points="1521.5,-54 1648.5,-54 "/>
<text text-anchor="start" x="1529.5" y="-38.8" font-family="Times,serif" font-size="14.00">k : int</text>
<polyline fill="none" stroke="black" points="1521.5,-31 1648.5,-31 "/>
<text text-anchor="start" x="1529.5" y="-15.8" font-family="Times,serif" font-size="14.00">forward(image)</text>
</g>
<!-- basicsr.utils.diffjpeg.CDequantize -->
<g id="node3" class="node">
<title>basicsr.utils.diffjpeg.CDequantize</title>
<polygon fill="none" stroke="black" points="1325,-8 1325,-77 1503,-77 1503,-8 1325,-8"/>
<text text-anchor="middle" x="1414" y="-61.8" font-family="Times,serif" font-size="14.00">CDequantize</text>
<polyline fill="none" stroke="black" points="1325,-54 1503,-54 "/>
<text text-anchor="start" x="1333" y="-38.8" font-family="Times,serif" font-size="14.00">c_table</text>
<polyline fill="none" stroke="black" points="1325,-31 1503,-31 "/>
<text text-anchor="start" x="1333" y="-15.8" font-family="Times,serif" font-size="14.00">forward(image, factor)</text>
</g>
<!-- basicsr.utils.diffjpeg.CDequantize&#45;&gt;basicsr.utils.diffjpeg.DeCompressJpeg -->
<g id="edge2" class="edge">
<title>basicsr.utils.diffjpeg.CDequantize&#45;&gt;basicsr.utils.diffjpeg.DeCompressJpeg</title>
<path fill="none" stroke="black" d="M1338.22,-77.01C1330.78,-79.88 1323.28,-82.59 1316,-85 1199.31,-123.58 1063.8,-155.79 962.55,-177.48"/>
<polygon fill="black" stroke="black" points="962.43,-177.51 957.39,-182.67 950.69,-180.01 955.73,-174.85 962.43,-177.51"/>
<text text-anchor="middle" x="1295" y="-106.8" font-family="Times,serif" font-size="14.00" fill="green">c_dequantize</text>
</g>
<!-- basicsr.utils.diffjpeg.CQuantize -->
<g id="node4" class="node">
<title>basicsr.utils.diffjpeg.CQuantize</title>
<polygon fill="none" stroke="black" points="196,-0.5 196,-84.5 374,-84.5 374,-0.5 196,-0.5"/>
<text text-anchor="middle" x="285" y="-69.3" font-family="Times,serif" font-size="14.00">CQuantize</text>
<polyline fill="none" stroke="black" points="196,-61.5 374,-61.5 "/>
<text text-anchor="start" x="204" y="-46.3" font-family="Times,serif" font-size="14.00">c_table</text>
<text text-anchor="start" x="204" y="-31.3" font-family="Times,serif" font-size="14.00">rounding</text>
<polyline fill="none" stroke="black" points="196,-23.5 374,-23.5 "/>
<text text-anchor="start" x="204" y="-8.3" font-family="Times,serif" font-size="14.00">forward(image, factor)</text>
</g>
<!-- basicsr.utils.diffjpeg.CompressJpeg -->
<g id="node7" class="node">
<title>basicsr.utils.diffjpeg.CompressJpeg</title>
<polygon fill="none" stroke="black" points="196,-151.5 196,-265.5 374,-265.5 374,-151.5 196,-151.5"/>
<text text-anchor="middle" x="285" y="-250.3" font-family="Times,serif" font-size="14.00">CompressJpeg</text>
<polyline fill="none" stroke="black" points="196,-242.5 374,-242.5 "/>
<text text-anchor="start" x="204" y="-227.3" font-family="Times,serif" font-size="14.00">c_quantize</text>
<text text-anchor="start" x="204" y="-212.3" font-family="Times,serif" font-size="14.00">l1</text>
<text text-anchor="start" x="204" y="-197.3" font-family="Times,serif" font-size="14.00">l2</text>
<text text-anchor="start" x="204" y="-182.3" font-family="Times,serif" font-size="14.00">y_quantize</text>
<polyline fill="none" stroke="black" points="196,-174.5 374,-174.5 "/>
<text text-anchor="start" x="204" y="-159.3" font-family="Times,serif" font-size="14.00">forward(image, factor)</text>
</g>
<!-- basicsr.utils.diffjpeg.CQuantize&#45;&gt;basicsr.utils.diffjpeg.CompressJpeg -->
<g id="edge3" class="edge">
<title>basicsr.utils.diffjpeg.CQuantize&#45;&gt;basicsr.utils.diffjpeg.CompressJpeg</title>
<path fill="none" stroke="black" d="M285,-84.88C285,-101.31 285,-120.64 285,-139.04"/>
<polygon fill="black" stroke="black" points="285,-139.26 289,-145.26 285,-151.26 281,-145.26 285,-139.26"/>
<text text-anchor="middle" x="323" y="-106.8" font-family="Times,serif" font-size="14.00" fill="green">c_quantize</text>
</g>
<!-- basicsr.utils.diffjpeg.ChromaSubsampling -->
<g id="node5" class="node">
<title>basicsr.utils.diffjpeg.ChromaSubsampling</title>
<polygon fill="none" stroke="black" points="1667,-7.5 1667,-77.5 1833,-77.5 1833,-7.5 1667,-7.5"/>
<text text-anchor="middle" x="1750" y="-62.3" font-family="Times,serif" font-size="14.00">ChromaSubsampling</text>
<polyline fill="none" stroke="black" points="1667,-54.5 1833,-54.5 "/>
<polyline fill="none" stroke="black" points="1667,-30.5 1833,-30.5 "/>
<text text-anchor="start" x="1675" y="-15.3" font-family="Times,serif" font-size="14.00">forward(image)</text>
</g>
<!-- basicsr.utils.diffjpeg.ChromaUpsampling -->
<g id="node6" class="node">
<title>basicsr.utils.diffjpeg.ChromaUpsampling</title>
<polygon fill="none" stroke="black" points="391.5,-7.5 391.5,-77.5 550.5,-77.5 550.5,-7.5 391.5,-7.5"/>
<text text-anchor="middle" x="471" y="-62.3" font-family="Times,serif" font-size="14.00">ChromaUpsampling</text>
<polyline fill="none" stroke="black" points="391.5,-54.5 550.5,-54.5 "/>
<polyline fill="none" stroke="black" points="391.5,-30.5 550.5,-30.5 "/>
<text text-anchor="start" x="399.5" y="-15.3" font-family="Times,serif" font-size="14.00">forward(y, cb, cr)</text>
</g>
<!-- basicsr.utils.diffjpeg.ChromaUpsampling&#45;&gt;basicsr.utils.diffjpeg.DeCompressJpeg -->
<g id="edge4" class="edge">
<title>basicsr.utils.diffjpeg.ChromaUpsampling&#45;&gt;basicsr.utils.diffjpeg.DeCompressJpeg</title>
<path fill="none" stroke="black" d="M541.86,-77.68C576.25,-94.27 618.96,-114.87 660.15,-134.74"/>
<polygon fill="black" stroke="black" points="660.35,-134.83 667.49,-133.84 671.15,-140.04 664.01,-141.04 660.35,-134.83"/>
<text text-anchor="middle" x="648" y="-106.8" font-family="Times,serif" font-size="14.00" fill="green">chroma</text>
</g>
<!-- basicsr.utils.diffjpeg.DiffJPEG -->
<g id="node10" class="node">
<title>basicsr.utils.diffjpeg.DiffJPEG</title>
<polygon fill="none" stroke="black" points="473,-332.5 473,-416.5 623,-416.5 623,-332.5 473,-332.5"/>
<text text-anchor="middle" x="548" y="-401.3" font-family="Times,serif" font-size="14.00">DiffJPEG</text>
<polyline fill="none" stroke="black" points="473,-393.5 623,-393.5 "/>
<text text-anchor="start" x="481" y="-378.3" font-family="Times,serif" font-size="14.00">compress</text>
<text text-anchor="start" x="481" y="-363.3" font-family="Times,serif" font-size="14.00">decompress</text>
<polyline fill="none" stroke="black" points="473,-355.5 623,-355.5 "/>
<text text-anchor="start" x="481" y="-340.3" font-family="Times,serif" font-size="14.00">forward(x, quality)</text>
</g>
<!-- basicsr.utils.diffjpeg.CompressJpeg&#45;&gt;basicsr.utils.diffjpeg.DiffJPEG -->
<g id="edge5" class="edge">
<title>basicsr.utils.diffjpeg.CompressJpeg&#45;&gt;basicsr.utils.diffjpeg.DiffJPEG</title>
<path fill="none" stroke="black" d="M374.04,-265.02C405.63,-284.72 440.89,-306.71 471.36,-325.71"/>
<polygon fill="black" stroke="black" points="471.74,-325.94 478.95,-325.73 481.92,-332.29 474.71,-332.51 471.74,-325.94"/>
<text text-anchor="middle" x="482.5" y="-302.8" font-family="Times,serif" font-size="14.00" fill="green">compress</text>
</g>
<!-- basicsr.utils.diffjpeg.DCT8x8 -->
<g id="node8" class="node">
<title>basicsr.utils.diffjpeg.DCT8x8</title>
<polygon fill="none" stroke="black" points="1851.5,-0.5 1851.5,-84.5 1978.5,-84.5 1978.5,-0.5 1851.5,-0.5"/>
<text text-anchor="middle" x="1915" y="-69.3" font-family="Times,serif" font-size="14.00">DCT8x8</text>
<polyline fill="none" stroke="black" points="1851.5,-61.5 1978.5,-61.5 "/>
<text text-anchor="start" x="1859.5" y="-46.3" font-family="Times,serif" font-size="14.00">scale</text>
<text text-anchor="start" x="1859.5" y="-31.3" font-family="Times,serif" font-size="14.00">tensor</text>
<polyline fill="none" stroke="black" points="1851.5,-23.5 1978.5,-23.5 "/>
<text text-anchor="start" x="1859.5" y="-8.3" font-family="Times,serif" font-size="14.00">forward(image)</text>
</g>
<!-- basicsr.utils.diffjpeg.DeCompressJpeg&#45;&gt;basicsr.utils.diffjpeg.DiffJPEG -->
<g id="edge6" class="edge">
<title>basicsr.utils.diffjpeg.DeCompressJpeg&#45;&gt;basicsr.utils.diffjpeg.DiffJPEG</title>
<path fill="none" stroke="black" d="M696.79,-280.72C672.27,-296.01 646.93,-311.81 624.26,-325.94"/>
<polygon fill="black" stroke="black" points="624.23,-325.96 621.26,-332.53 614.05,-332.31 617.03,-325.74 624.23,-325.96"/>
<text text-anchor="middle" x="707" y="-302.8" font-family="Times,serif" font-size="14.00" fill="green">decompress</text>
</g>
<!-- basicsr.utils.diffjpeg.RGB2YCbCrJpeg -->
<g id="node11" class="node">
<title>basicsr.utils.diffjpeg.RGB2YCbCrJpeg</title>
<polygon fill="none" stroke="black" points="1996.5,-0.5 1996.5,-84.5 2131.5,-84.5 2131.5,-0.5 1996.5,-0.5"/>
<text text-anchor="middle" x="2064" y="-69.3" font-family="Times,serif" font-size="14.00">RGB2YCbCrJpeg</text>
<polyline fill="none" stroke="black" points="1996.5,-61.5 2131.5,-61.5 "/>
<text text-anchor="start" x="2004.5" y="-46.3" font-family="Times,serif" font-size="14.00">matrix</text>
<text text-anchor="start" x="2004.5" y="-31.3" font-family="Times,serif" font-size="14.00">shift</text>
<polyline fill="none" stroke="black" points="1996.5,-23.5 2131.5,-23.5 "/>
<text text-anchor="start" x="2004.5" y="-8.3" font-family="Times,serif" font-size="14.00">forward(image)</text>
</g>
<!-- basicsr.utils.diffjpeg.YCbCr2RGBJpeg -->
<g id="node12" class="node">
<title>basicsr.utils.diffjpeg.YCbCr2RGBJpeg</title>
<polygon fill="none" stroke="black" points="568.5,-0.5 568.5,-84.5 703.5,-84.5 703.5,-0.5 568.5,-0.5"/>
<text text-anchor="middle" x="636" y="-69.3" font-family="Times,serif" font-size="14.00">YCbCr2RGBJpeg</text>
<polyline fill="none" stroke="black" points="568.5,-61.5 703.5,-61.5 "/>
<text text-anchor="start" x="576.5" y="-46.3" font-family="Times,serif" font-size="14.00">matrix</text>
<text text-anchor="start" x="576.5" y="-31.3" font-family="Times,serif" font-size="14.00">shift</text>
<polyline fill="none" stroke="black" points="568.5,-23.5 703.5,-23.5 "/>
<text text-anchor="start" x="576.5" y="-8.3" font-family="Times,serif" font-size="14.00">forward(image)</text>
</g>
<!-- basicsr.utils.diffjpeg.YCbCr2RGBJpeg&#45;&gt;basicsr.utils.diffjpeg.DeCompressJpeg -->
<g id="edge7" class="edge">
<title>basicsr.utils.diffjpeg.YCbCr2RGBJpeg&#45;&gt;basicsr.utils.diffjpeg.DeCompressJpeg</title>
<path fill="none" stroke="black" d="M680.16,-84.88C694.26,-98.09 710.36,-113.19 726.34,-128.16"/>
<polygon fill="black" stroke="black" points="726.43,-128.25 733.55,-129.43 735.19,-136.45 728.08,-135.27 726.43,-128.25"/>
<text text-anchor="middle" x="735.5" y="-106.8" font-family="Times,serif" font-size="14.00" fill="green">colors</text>
</g>
<!-- basicsr.utils.diffjpeg.YDequantize -->
<g id="node13" class="node">
<title>basicsr.utils.diffjpeg.YDequantize</title>
<polygon fill="none" stroke="black" points="722,-8 722,-77 900,-77 900,-8 722,-8"/>
<text text-anchor="middle" x="811" y="-61.8" font-family="Times,serif" font-size="14.00">YDequantize</text>
<polyline fill="none" stroke="black" points="722,-54 900,-54 "/>
<text text-anchor="start" x="730" y="-38.8" font-family="Times,serif" font-size="14.00">y_table</text>
<polyline fill="none" stroke="black" points="722,-31 900,-31 "/>
<text text-anchor="start" x="730" y="-15.8" font-family="Times,serif" font-size="14.00">forward(image, factor)</text>
</g>
<!-- basicsr.utils.diffjpeg.YDequantize&#45;&gt;basicsr.utils.diffjpeg.DeCompressJpeg -->
<g id="edge8" class="edge">
<title>basicsr.utils.diffjpeg.YDequantize&#45;&gt;basicsr.utils.diffjpeg.DeCompressJpeg</title>
<path fill="none" stroke="black" d="M811,-77.08C811,-90.88 811,-107.53 811,-124.25"/>
<polygon fill="black" stroke="black" points="811,-124.4 815,-130.4 811,-136.4 807,-130.4 811,-124.4"/>
<text text-anchor="middle" x="858" y="-106.8" font-family="Times,serif" font-size="14.00" fill="green">y_dequantize</text>
</g>
<!-- basicsr.utils.diffjpeg.YQuantize -->
<g id="node14" class="node">
<title>basicsr.utils.diffjpeg.YQuantize</title>
<polygon fill="none" stroke="black" points="0,-0.5 0,-84.5 178,-84.5 178,-0.5 0,-0.5"/>
<text text-anchor="middle" x="89" y="-69.3" font-family="Times,serif" font-size="14.00">YQuantize</text>
<polyline fill="none" stroke="black" points="0,-61.5 178,-61.5 "/>
<text text-anchor="start" x="8" y="-46.3" font-family="Times,serif" font-size="14.00">rounding</text>
<text text-anchor="start" x="8" y="-31.3" font-family="Times,serif" font-size="14.00">y_table</text>
<polyline fill="none" stroke="black" points="0,-23.5 178,-23.5 "/>
<text text-anchor="start" x="8" y="-8.3" font-family="Times,serif" font-size="14.00">forward(image, factor)</text>
</g>
<!-- basicsr.utils.diffjpeg.YQuantize&#45;&gt;basicsr.utils.diffjpeg.CompressJpeg -->
<g id="edge9" class="edge">
<title>basicsr.utils.diffjpeg.YQuantize&#45;&gt;basicsr.utils.diffjpeg.CompressJpeg</title>
<path fill="none" stroke="black" d="M138.21,-84.67C159.53,-102.51 184.99,-123.82 208.67,-143.63"/>
<polygon fill="black" stroke="black" points="208.79,-143.73 215.96,-144.52 218,-151.44 210.83,-150.65 208.79,-143.73"/>
<text text-anchor="middle" x="214.5" y="-106.8" font-family="Times,serif" font-size="14.00" fill="green">y_quantize</text>
</g>
<!-- basicsr.utils.diffjpeg.iDCT8x8 -->
<g id="node15" class="node">
<title>basicsr.utils.diffjpeg.iDCT8x8</title>
<polygon fill="none" stroke="black" points="918.5,-0.5 918.5,-84.5 1045.5,-84.5 1045.5,-0.5 918.5,-0.5"/>
<text text-anchor="middle" x="982" y="-69.3" font-family="Times,serif" font-size="14.00">iDCT8x8</text>
<polyline fill="none" stroke="black" points="918.5,-61.5 1045.5,-61.5 "/>
<text text-anchor="start" x="926.5" y="-46.3" font-family="Times,serif" font-size="14.00">alpha</text>
<text text-anchor="start" x="926.5" y="-31.3" font-family="Times,serif" font-size="14.00">tensor</text>
<polyline fill="none" stroke="black" points="918.5,-23.5 1045.5,-23.5 "/>
<text text-anchor="start" x="926.5" y="-8.3" font-family="Times,serif" font-size="14.00">forward(image)</text>
</g>
<!-- basicsr.utils.diffjpeg.iDCT8x8&#45;&gt;basicsr.utils.diffjpeg.DeCompressJpeg -->
<g id="edge10" class="edge">
<title>basicsr.utils.diffjpeg.iDCT8x8&#45;&gt;basicsr.utils.diffjpeg.DeCompressJpeg</title>
<path fill="none" stroke="black" d="M942.62,-84.5C931.84,-95.5 920.07,-107.31 909,-118 905.6,-121.28 902.12,-124.61 898.58,-127.96"/>
<polygon fill="black" stroke="black" points="898.46,-128.08 896.83,-135.11 889.72,-136.31 891.35,-129.29 898.46,-128.08"/>
<text text-anchor="middle" x="937" y="-106.8" font-family="Times,serif" font-size="14.00" fill="green">idct</text>
</g>
</g>
</svg>
