<?xml version="1.0" encoding="UTF-8" standalone="no"?>
<!DOCTYPE svg PUBLIC "-//W3C//DTD SVG 1.1//EN"
 "http://www.w3.org/Graphics/SVG/1.1/DTD/svg11.dtd">
<!-- Generated by graphviz version 2.50.0 (0)
 -->
<!-- Title: classes_basicsr.utils.realesrgan_utils Pages: 1 -->
<svg width="590pt" height="303pt"
 viewBox="0.00 0.00 590.00 303.00" xmlns="http://www.w3.org/2000/svg" xmlns:xlink="http://www.w3.org/1999/xlink">
<g id="graph0" class="graph" transform="scale(1 1) rotate(0) translate(4 299)">
<title>classes_basicsr.utils.realesrgan_utils</title>
<polygon fill="white" stroke="transparent" points="-4,4 -4,-299 586,-299 586,4 -4,4"/>
<!-- basicsr.utils.realesrgan_utils.IOConsumer -->
<g id="node1" class="node">
<title>basicsr.utils.realesrgan_utils.IOConsumer</title>
<polygon fill="none" stroke="black" points="0,-105.5 0,-189.5 106,-189.5 106,-105.5 0,-105.5"/>
<text text-anchor="middle" x="53" y="-174.3" font-family="Times,serif" font-size="14.00">IOConsumer</text>
<polyline fill="none" stroke="black" points="0,-166.5 106,-166.5 "/>
<text text-anchor="start" x="8" y="-151.3" font-family="Times,serif" font-size="14.00">opt</text>
<text text-anchor="start" x="8" y="-136.3" font-family="Times,serif" font-size="14.00">qid</text>
<polyline fill="none" stroke="black" points="0,-128.5 106,-128.5 "/>
<text text-anchor="start" x="8" y="-113.3" font-family="Times,serif" font-size="14.00">run()</text>
</g>
<!-- basicsr.utils.realesrgan_utils.PrefetchReader -->
<g id="node2" class="node">
<title>basicsr.utils.realesrgan_utils.PrefetchReader</title>
<polygon fill="none" stroke="black" points="124,-105.5 124,-189.5 252,-189.5 252,-105.5 124,-105.5"/>
<text text-anchor="middle" x="188" y="-174.3" font-family="Times,serif" font-size="14.00">PrefetchReader</text>
<polyline fill="none" stroke="black" points="124,-166.5 252,-166.5 "/>
<text text-anchor="start" x="132" y="-151.3" font-family="Times,serif" font-size="14.00">img_list</text>
<text text-anchor="start" x="132" y="-136.3" font-family="Times,serif" font-size="14.00">que : Queue</text>
<polyline fill="none" stroke="black" points="124,-128.5 252,-128.5 "/>
<text text-anchor="start" x="132" y="-113.3" font-family="Times,serif" font-size="14.00">run()</text>
</g>
<!-- basicsr.utils.realesrgan_utils.RealESRGANer -->
<g id="node3" class="node">
<title>basicsr.utils.realesrgan_utils.RealESRGANer</title>
<polygon fill="none" stroke="black" points="270,-0.5 270,-294.5 582,-294.5 582,-0.5 270,-0.5"/>
<text text-anchor="middle" x="426" y="-279.3" font-family="Times,serif" font-size="14.00">RealESRGANer</text>
<polyline fill="none" stroke="black" points="270,-271.5 582,-271.5 "/>
<text text-anchor="start" x="278" y="-256.3" font-family="Times,serif" font-size="14.00">device : NoneType</text>
<text text-anchor="start" x="278" y="-241.3" font-family="Times,serif" font-size="14.00">half : bool</text>
<text text-anchor="start" x="278" y="-226.3" font-family="Times,serif" font-size="14.00">img</text>
<text text-anchor="start" x="278" y="-211.3" font-family="Times,serif" font-size="14.00">mod_pad_h : int</text>
<text text-anchor="start" x="278" y="-196.3" font-family="Times,serif" font-size="14.00">mod_pad_w : int</text>
<text text-anchor="start" x="278" y="-181.3" font-family="Times,serif" font-size="14.00">mod_scale : int, NoneType</text>
<text text-anchor="start" x="278" y="-166.3" font-family="Times,serif" font-size="14.00">model</text>
<text text-anchor="start" x="278" y="-151.3" font-family="Times,serif" font-size="14.00">output</text>
<text text-anchor="start" x="278" y="-136.3" font-family="Times,serif" font-size="14.00">pre_pad : int</text>
<text text-anchor="start" x="278" y="-121.3" font-family="Times,serif" font-size="14.00">scale</text>
<text text-anchor="start" x="278" y="-106.3" font-family="Times,serif" font-size="14.00">tile_pad : int</text>
<text text-anchor="start" x="278" y="-91.3" font-family="Times,serif" font-size="14.00">tile_size : int</text>
<polyline fill="none" stroke="black" points="270,-83.5 582,-83.5 "/>
<text text-anchor="start" x="278" y="-68.3" font-family="Times,serif" font-size="14.00">enhance(img, outscale, alpha_upsampler)</text>
<text text-anchor="start" x="278" y="-53.3" font-family="Times,serif" font-size="14.00">post_process()</text>
<text text-anchor="start" x="278" y="-38.3" font-family="Times,serif" font-size="14.00">pre_process(img)</text>
<text text-anchor="start" x="278" y="-23.3" font-family="Times,serif" font-size="14.00">process()</text>
<text text-anchor="start" x="278" y="-8.3" font-family="Times,serif" font-size="14.00">tile_process()</text>
</g>
</g>
</svg>
