<?xml version="1.0" encoding="UTF-8" standalone="no"?>
<!DOCTYPE svg PUBLIC "-//W3C//DTD SVG 1.1//EN"
 "http://www.w3.org/Graphics/SVG/1.1/DTD/svg11.dtd">
<!-- Generated by graphviz version 2.50.0 (0)
 -->
<!-- Title: packages_basicsr.utils Pages: 1 -->
<svg width="2515pt" height="260pt"
 viewBox="0.00 0.00 2514.50 260.00" xmlns="http://www.w3.org/2000/svg" xmlns:xlink="http://www.w3.org/1999/xlink">
<g id="graph0" class="graph" transform="scale(1 1) rotate(0) translate(4 256)">
<title>packages_basicsr.utils</title>
<polygon fill="white" stroke="transparent" points="-4,4 -4,-256 2510.5,-256 2510.5,4 -4,4"/>
<!-- basicsr.utils -->
<g id="node1" class="node">
<title>basicsr.utils</title>
<polygon fill="none" stroke="black" points="834.5,-108 732.5,-108 732.5,-72 834.5,-72 834.5,-108"/>
<text text-anchor="middle" x="783.5" y="-86.3" font-family="Times,serif" font-size="14.00">basicsr.utils</text>
</g>
<!-- basicsr.utils.color_util -->
<g id="node2" class="node">
<title>basicsr.utils.color_util</title>
<polygon fill="none" stroke="black" points="173,-180 0,-180 0,-144 173,-144 173,-180"/>
<text text-anchor="middle" x="86.5" y="-158.3" font-family="Times,serif" font-size="14.00">basicsr.utils.color_util</text>
</g>
<!-- basicsr.utils&#45;&gt;basicsr.utils.color_util -->
<g id="edge1" class="edge">
<title>basicsr.utils&#45;&gt;basicsr.utils.color_util</title>
<path fill="none" stroke="black" d="M732.19,-93.97C629.69,-100.23 392.13,-116.43 183.1,-143.85"/>
<polygon fill="black" stroke="black" points="173.17,-145.16 182.49,-139.39 178.13,-144.51 183.09,-143.85 183.09,-143.85 183.09,-143.85 178.13,-144.51 183.68,-148.31 173.17,-145.16 173.17,-145.16"/>
</g>
<!-- basicsr.utils.diffjpeg -->
<g id="node3" class="node">
<title>basicsr.utils.diffjpeg</title>
<polygon fill="none" stroke="black" points="352,-180 191,-180 191,-144 352,-144 352,-180"/>
<text text-anchor="middle" x="271.5" y="-158.3" font-family="Times,serif" font-size="14.00">basicsr.utils.diffjpeg</text>
</g>
<!-- basicsr.utils&#45;&gt;basicsr.utils.diffjpeg -->
<g id="edge2" class="edge">
<title>basicsr.utils&#45;&gt;basicsr.utils.diffjpeg</title>
<path fill="none" stroke="black" d="M732.18,-95.77C652.96,-103.87 496.41,-121.48 361.95,-142.36"/>
<polygon fill="black" stroke="black" points="351.9,-143.94 361.08,-137.94 356.84,-143.16 361.78,-142.39 361.78,-142.39 361.78,-142.39 356.84,-143.16 362.48,-146.84 351.9,-143.94 351.9,-143.94"/>
</g>
<!-- basicsr.utils.file_client -->
<g id="node6" class="node">
<title>basicsr.utils.file_client</title>
<polygon fill="none" stroke="black" points="545,-180 370,-180 370,-144 545,-144 545,-180"/>
<text text-anchor="middle" x="457.5" y="-158.3" font-family="Times,serif" font-size="14.00">basicsr.utils.file_client</text>
</g>
<!-- basicsr.utils&#45;&gt;basicsr.utils.file_client -->
<g id="edge3" class="edge">
<title>basicsr.utils&#45;&gt;basicsr.utils.file_client</title>
<path fill="none" stroke="black" d="M732.2,-102.01C682.52,-112.68 606.16,-129.08 546.55,-141.88"/>
<polygon fill="black" stroke="black" points="536.76,-143.98 545.59,-137.48 541.65,-142.93 546.53,-141.88 546.53,-141.88 546.53,-141.88 541.65,-142.93 547.48,-146.28 536.76,-143.98 536.76,-143.98"/>
</g>
<!-- basicsr.utils.img_process_util -->
<g id="node8" class="node">
<title>basicsr.utils.img_process_util</title>
<polygon fill="none" stroke="black" points="789.5,-180 563.5,-180 563.5,-144 789.5,-144 789.5,-180"/>
<text text-anchor="middle" x="676.5" y="-158.3" font-family="Times,serif" font-size="14.00">basicsr.utils.img_process_util</text>
</g>
<!-- basicsr.utils&#45;&gt;basicsr.utils.img_process_util -->
<g id="edge4" class="edge">
<title>basicsr.utils&#45;&gt;basicsr.utils.img_process_util</title>
<path fill="none" stroke="black" d="M757.32,-108.12C743.46,-117.19 726.26,-128.45 711.29,-138.24"/>
<polygon fill="black" stroke="black" points="702.78,-143.81 708.68,-134.57 706.96,-141.07 711.14,-138.34 711.14,-138.34 711.14,-138.34 706.96,-141.07 713.61,-142.1 702.78,-143.81 702.78,-143.81"/>
</g>
<!-- basicsr.utils.img_util -->
<g id="node9" class="node">
<title>basicsr.utils.img_util</title>
<polygon fill="none" stroke="black" points="971.5,-180 807.5,-180 807.5,-144 971.5,-144 971.5,-180"/>
<text text-anchor="middle" x="889.5" y="-158.3" font-family="Times,serif" font-size="14.00">basicsr.utils.img_util</text>
</g>
<!-- basicsr.utils&#45;&gt;basicsr.utils.img_util -->
<g id="edge5" class="edge">
<title>basicsr.utils&#45;&gt;basicsr.utils.img_util</title>
<path fill="none" stroke="black" d="M809.43,-108.12C823.16,-117.19 840.21,-128.45 855.04,-138.24"/>
<polygon fill="black" stroke="black" points="863.47,-143.81 852.65,-142.05 859.3,-141.05 855.13,-138.3 855.13,-138.3 855.13,-138.3 859.3,-141.05 857.6,-134.54 863.47,-143.81 863.47,-143.81"/>
</g>
<!-- basicsr.utils.logger -->
<g id="node11" class="node">
<title>basicsr.utils.logger</title>
<polygon fill="none" stroke="black" points="1141.5,-180 989.5,-180 989.5,-144 1141.5,-144 1141.5,-180"/>
<text text-anchor="middle" x="1065.5" y="-158.3" font-family="Times,serif" font-size="14.00">basicsr.utils.logger</text>
</g>
<!-- basicsr.utils&#45;&gt;basicsr.utils.logger -->
<g id="edge6" class="edge">
<title>basicsr.utils&#45;&gt;basicsr.utils.logger</title>
<path fill="none" stroke="black" d="M834.57,-103.68C877.04,-114.22 938.19,-129.4 986.89,-141.49"/>
<polygon fill="black" stroke="black" points="996.77,-143.94 985.98,-145.9 991.92,-142.74 987.07,-141.53 987.07,-141.53 987.07,-141.53 991.92,-142.74 988.15,-137.16 996.77,-143.94 996.77,-143.94"/>
</g>
<!-- basicsr.utils.misc -->
<g id="node13" class="node">
<title>basicsr.utils.misc</title>
<polygon fill="none" stroke="black" points="1477.5,-180 1337.5,-180 1337.5,-144 1477.5,-144 1477.5,-180"/>
<text text-anchor="middle" x="1407.5" y="-158.3" font-family="Times,serif" font-size="14.00">basicsr.utils.misc</text>
</g>
<!-- basicsr.utils&#45;&gt;basicsr.utils.misc -->
<g id="edge7" class="edge">
<title>basicsr.utils&#45;&gt;basicsr.utils.misc</title>
<path fill="none" stroke="black" d="M834.84,-94.02C930.06,-100.04 1140.58,-115.37 1327.36,-143.92"/>
<polygon fill="black" stroke="black" points="1337.37,-145.47 1326.8,-148.39 1332.43,-144.71 1327.48,-143.94 1327.48,-143.94 1327.48,-143.94 1332.43,-144.71 1328.17,-139.5 1337.37,-145.47 1337.37,-145.47"/>
</g>
<!-- basicsr.utils.options -->
<g id="node14" class="node">
<title>basicsr.utils.options</title>
<polygon fill="none" stroke="black" points="1319,-180 1160,-180 1160,-144 1319,-144 1319,-180"/>
<text text-anchor="middle" x="1239.5" y="-158.3" font-family="Times,serif" font-size="14.00">basicsr.utils.options</text>
</g>
<!-- basicsr.utils&#45;&gt;basicsr.utils.options -->
<g id="edge8" class="edge">
<title>basicsr.utils&#45;&gt;basicsr.utils.options</title>
<path fill="none" stroke="black" d="M834.57,-98.46C904.17,-108.06 1032.3,-125.69 1141.5,-144 1144.17,-144.45 1146.89,-144.91 1149.63,-145.39"/>
<polygon fill="black" stroke="black" points="1159.66,-147.16 1149.02,-149.85 1154.73,-146.29 1149.81,-145.42 1149.81,-145.42 1149.81,-145.42 1154.73,-146.29 1150.59,-140.99 1159.66,-147.16 1159.66,-147.16"/>
</g>
<!-- basicsr.utils.diffjpeg&#45;&gt;basicsr.utils -->
<g id="edge9" class="edge">
<title>basicsr.utils.diffjpeg&#45;&gt;basicsr.utils</title>
<path fill="none" stroke="black" d="M352.3,-146.87C358.13,-145.86 363.91,-144.88 369.5,-144 494.64,-124.23 641.56,-107.2 722.48,-98.09"/>
<polygon fill="black" stroke="black" points="732.5,-96.96 723.06,-102.55 727.53,-97.52 722.56,-98.08 722.56,-98.08 722.56,-98.08 727.53,-97.52 722.06,-93.61 732.5,-96.96 732.5,-96.96"/>
</g>
<!-- basicsr.utils.dist_util -->
<g id="node4" class="node">
<title>basicsr.utils.dist_util</title>
<polygon fill="none" stroke="black" points="1321.5,-252 1157.5,-252 1157.5,-216 1321.5,-216 1321.5,-252"/>
<text text-anchor="middle" x="1239.5" y="-230.3" font-family="Times,serif" font-size="14.00">basicsr.utils.dist_util</text>
</g>
<!-- basicsr.utils.download_util -->
<g id="node5" class="node">
<title>basicsr.utils.download_util</title>
<polygon fill="none" stroke="black" points="1510.5,-108 1304.5,-108 1304.5,-72 1510.5,-72 1510.5,-108"/>
<text text-anchor="middle" x="1407.5" y="-86.3" font-family="Times,serif" font-size="14.00">basicsr.utils.download_util</text>
</g>
<!-- basicsr.utils.download_util&#45;&gt;basicsr.utils.misc -->
<g id="edge10" class="edge">
<title>basicsr.utils.download_util&#45;&gt;basicsr.utils.misc</title>
<path fill="none" stroke="black" d="M1407.5,-108.3C1407.5,-116.02 1407.5,-125.29 1407.5,-133.89"/>
<polygon fill="black" stroke="black" points="1407.5,-143.9 1403,-133.9 1407.5,-138.9 1407.5,-133.9 1407.5,-133.9 1407.5,-133.9 1407.5,-138.9 1412,-133.9 1407.5,-143.9 1407.5,-143.9"/>
</g>
<!-- basicsr.utils.flow_util -->
<g id="node7" class="node">
<title>basicsr.utils.flow_util</title>
<polygon fill="none" stroke="black" points="1703,-36 1536,-36 1536,0 1703,0 1703,-36"/>
<text text-anchor="middle" x="1619.5" y="-14.3" font-family="Times,serif" font-size="14.00">basicsr.utils.flow_util</text>
</g>
<!-- basicsr.utils.lmdb_util -->
<g id="node10" class="node">
<title>basicsr.utils.lmdb_util</title>
<polygon fill="none" stroke="black" points="1894,-36 1721,-36 1721,0 1894,0 1894,-36"/>
<text text-anchor="middle" x="1807.5" y="-14.3" font-family="Times,serif" font-size="14.00">basicsr.utils.lmdb_util</text>
</g>
<!-- basicsr.utils.logger&#45;&gt;basicsr.utils.dist_util -->
<g id="edge11" class="edge">
<title>basicsr.utils.logger&#45;&gt;basicsr.utils.dist_util</title>
<path fill="none" stroke="black" d="M1108.07,-180.12C1132.06,-189.78 1162.23,-201.91 1187.6,-212.12"/>
<polygon fill="black" stroke="black" points="1197.07,-215.93 1186.12,-216.37 1192.43,-214.07 1187.8,-212.2 1187.8,-212.2 1187.8,-212.2 1192.43,-214.07 1189.48,-208.02 1197.07,-215.93 1197.07,-215.93"/>
</g>
<!-- basicsr.utils.matlab_functions -->
<g id="node12" class="node">
<title>basicsr.utils.matlab_functions</title>
<polygon fill="none" stroke="black" points="2141,-36 1912,-36 1912,0 2141,0 2141,-36"/>
<text text-anchor="middle" x="2026.5" y="-14.3" font-family="Times,serif" font-size="14.00">basicsr.utils.matlab_functions</text>
</g>
<!-- basicsr.utils.misc&#45;&gt;basicsr.utils.dist_util -->
<g id="edge12" class="edge">
<title>basicsr.utils.misc&#45;&gt;basicsr.utils.dist_util</title>
<path fill="none" stroke="black" d="M1366.4,-180.12C1343.33,-189.74 1314.36,-201.81 1289.93,-211.99"/>
<polygon fill="black" stroke="black" points="1280.46,-215.93 1287.96,-207.93 1285.08,-214.01 1289.69,-212.09 1289.69,-212.09 1289.69,-212.09 1285.08,-214.01 1291.43,-216.24 1280.46,-215.93 1280.46,-215.93"/>
</g>
<!-- basicsr.utils.options&#45;&gt;basicsr.utils -->
<g id="edge13" class="edge">
<title>basicsr.utils.options&#45;&gt;basicsr.utils</title>
<path fill="none" stroke="black" d="M1159.97,-144.08C1159.81,-144.05 1159.66,-144.03 1159.5,-144 1049.14,-125.5 919.45,-107.69 844.74,-98.16"/>
<polygon fill="black" stroke="black" points="834.57,-96.87 845.05,-93.66 839.53,-97.5 844.49,-98.13 844.49,-98.13 844.49,-98.13 839.53,-97.5 843.92,-102.59 834.57,-96.87 834.57,-96.87"/>
</g>
<!-- basicsr.utils.options&#45;&gt;basicsr.utils.dist_util -->
<g id="edge14" class="edge">
<title>basicsr.utils.options&#45;&gt;basicsr.utils.dist_util</title>
<path fill="none" stroke="black" d="M1239.5,-180.3C1239.5,-188.02 1239.5,-197.29 1239.5,-205.89"/>
<polygon fill="black" stroke="black" points="1239.5,-215.9 1235,-205.9 1239.5,-210.9 1239.5,-205.9 1239.5,-205.9 1239.5,-205.9 1239.5,-210.9 1244,-205.9 1239.5,-215.9 1239.5,-215.9"/>
</g>
<!-- basicsr.utils.plot_util -->
<g id="node15" class="node">
<title>basicsr.utils.plot_util</title>
<polygon fill="none" stroke="black" points="2324,-36 2159,-36 2159,0 2324,0 2324,-36"/>
<text text-anchor="middle" x="2241.5" y="-14.3" font-family="Times,serif" font-size="14.00">basicsr.utils.plot_util</text>
</g>
<!-- basicsr.utils.realesrgan_utils -->
<g id="node16" class="node">
<title>basicsr.utils.realesrgan_utils</title>
<polygon fill="none" stroke="black" points="1518,-36 1297,-36 1297,0 1518,0 1518,-36"/>
<text text-anchor="middle" x="1407.5" y="-14.3" font-family="Times,serif" font-size="14.00">basicsr.utils.realesrgan_utils</text>
</g>
<!-- basicsr.utils.realesrgan_utils&#45;&gt;basicsr.utils.download_util -->
<g id="edge15" class="edge">
<title>basicsr.utils.realesrgan_utils&#45;&gt;basicsr.utils.download_util</title>
<path fill="none" stroke="black" d="M1407.5,-36.3C1407.5,-44.02 1407.5,-53.29 1407.5,-61.89"/>
<polygon fill="black" stroke="black" points="1407.5,-71.9 1403,-61.9 1407.5,-66.9 1407.5,-61.9 1407.5,-61.9 1407.5,-61.9 1407.5,-66.9 1412,-61.9 1407.5,-71.9 1407.5,-71.9"/>
</g>
<!-- basicsr.utils.registry -->
<g id="node17" class="node">
<title>basicsr.utils.registry</title>
<polygon fill="none" stroke="black" points="2506.5,-36 2342.5,-36 2342.5,0 2506.5,0 2506.5,-36"/>
<text text-anchor="middle" x="2424.5" y="-14.3" font-family="Times,serif" font-size="14.00">basicsr.utils.registry</text>
</g>
</g>
</svg>
