<?xml version="1.0" encoding="UTF-8" standalone="no"?>
<!DOCTYPE svg PUBLIC "-//W3C//DTD SVG 1.1//EN"
 "http://www.w3.org/Graphics/SVG/1.1/DTD/svg11.dtd">
<!-- Generated by graphviz version 2.50.0 (0)
 -->
<!-- Title: classes_basicsr.data.single_image_dataset Pages: 1 -->
<svg width="380pt" height="198pt"
 viewBox="0.00 0.00 379.50 198.00" xmlns="http://www.w3.org/2000/svg" xmlns:xlink="http://www.w3.org/1999/xlink">
<g id="graph0" class="graph" transform="scale(1 1) rotate(0) translate(4 194)">
<title>classes_basicsr.data.single_image_dataset</title>
<polygon fill="white" stroke="transparent" points="-4,4 -4,-194 375.5,-194 375.5,4 -4,4"/>
<!-- basicsr.data.single_image_dataset.SingleImageDataset -->
<g id="node1" class="node">
<title>basicsr.data.single_image_dataset.SingleImageDataset</title>
<polygon fill="none" stroke="black" points="0,-15.5 0,-174.5 170,-174.5 170,-15.5 0,-15.5"/>
<text text-anchor="middle" x="85" y="-159.3" font-family="Times,serif" font-size="14.00">SingleImageDataset</text>
<polyline fill="none" stroke="black" points="0,-151.5 170,-151.5 "/>
<text text-anchor="start" x="8" y="-136.3" font-family="Times,serif" font-size="14.00">file_client : NoneType</text>
<text text-anchor="start" x="8" y="-121.3" font-family="Times,serif" font-size="14.00">io_backend_opt</text>
<text text-anchor="start" x="8" y="-106.3" font-family="Times,serif" font-size="14.00">lq_folder</text>
<text text-anchor="start" x="8" y="-91.3" font-family="Times,serif" font-size="14.00">mean : NoneType</text>
<text text-anchor="start" x="8" y="-76.3" font-family="Times,serif" font-size="14.00">opt</text>
<text text-anchor="start" x="8" y="-61.3" font-family="Times,serif" font-size="14.00">paths</text>
<text text-anchor="start" x="8" y="-46.3" font-family="Times,serif" font-size="14.00">std : NoneType</text>
<polyline fill="none" stroke="black" points="0,-38.5 170,-38.5 "/>
<text text-anchor="middle" x="85" y="-23.3" font-family="Times,serif" font-size="14.00"> </text>
</g>
<!-- basicsr.data.single_image_dataset.SingleImageNPDataset -->
<g id="node2" class="node">
<title>basicsr.data.single_image_dataset.SingleImageNPDataset</title>
<polygon fill="none" stroke="black" points="188.5,-0.5 188.5,-189.5 371.5,-189.5 371.5,-0.5 188.5,-0.5"/>
<text text-anchor="middle" x="280" y="-174.3" font-family="Times,serif" font-size="14.00">SingleImageNPDataset</text>
<polyline fill="none" stroke="black" points="188.5,-166.5 371.5,-166.5 "/>
<text text-anchor="start" x="196.5" y="-151.3" font-family="Times,serif" font-size="14.00">file_client : NoneType</text>
<text text-anchor="start" x="196.5" y="-136.3" font-family="Times,serif" font-size="14.00">gt_paths</text>
<text text-anchor="start" x="196.5" y="-121.3" font-family="Times,serif" font-size="14.00">io_backend_opt</text>
<text text-anchor="start" x="196.5" y="-106.3" font-family="Times,serif" font-size="14.00">lq_paths</text>
<text text-anchor="start" x="196.5" y="-91.3" font-family="Times,serif" font-size="14.00">mean : NoneType</text>
<text text-anchor="start" x="196.5" y="-76.3" font-family="Times,serif" font-size="14.00">np_paths</text>
<text text-anchor="start" x="196.5" y="-61.3" font-family="Times,serif" font-size="14.00">opt</text>
<text text-anchor="start" x="196.5" y="-46.3" font-family="Times,serif" font-size="14.00">sample_paths</text>
<text text-anchor="start" x="196.5" y="-31.3" font-family="Times,serif" font-size="14.00">std : NoneType</text>
<polyline fill="none" stroke="black" points="188.5,-23.5 371.5,-23.5 "/>
<text text-anchor="middle" x="280" y="-8.3" font-family="Times,serif" font-size="14.00"> </text>
</g>
</g>
</svg>
