<?xml version="1.0" encoding="UTF-8" standalone="no"?>
<!DOCTYPE svg PUBLIC "-//W3C//DTD SVG 1.1//EN"
 "http://www.w3.org/Graphics/SVG/1.1/DTD/svg11.dtd">
<!-- Generated by graphviz version 2.50.0 (0)
 -->
<!-- Title: classes_basicsr.data Pages: 1 -->
<svg width="3760pt" height="649pt"
 viewBox="0.00 0.00 3759.50 649.00" xmlns="http://www.w3.org/2000/svg" xmlns:xlink="http://www.w3.org/1999/xlink">
<g id="graph0" class="graph" transform="scale(1 1) rotate(0) translate(4 645)">
<title>classes_basicsr.data</title>
<polygon fill="white" stroke="transparent" points="-4,4 -4,-645 3755.5,-645 3755.5,4 -4,4"/>
<!-- basicsr.data.prefetch_dataloader.CPUPrefetcher -->
<g id="node1" class="node">
<title>basicsr.data.prefetch_dataloader.CPUPrefetcher</title>
<polygon fill="none" stroke="black" points="0,-158 0,-257 124,-257 124,-158 0,-158"/>
<text text-anchor="middle" x="62" y="-241.8" font-family="Times,serif" font-size="14.00">CPUPrefetcher</text>
<polyline fill="none" stroke="black" points="0,-234 124,-234 "/>
<text text-anchor="start" x="8" y="-218.8" font-family="Times,serif" font-size="14.00">loader</text>
<text text-anchor="start" x="8" y="-203.8" font-family="Times,serif" font-size="14.00">ori_loader</text>
<polyline fill="none" stroke="black" points="0,-196 124,-196 "/>
<text text-anchor="start" x="8" y="-180.8" font-family="Times,serif" font-size="14.00">next()</text>
<text text-anchor="start" x="8" y="-165.8" font-family="Times,serif" font-size="14.00">reset()</text>
</g>
<!-- basicsr.data.prefetch_dataloader.CUDAPrefetcher -->
<g id="node2" class="node">
<title>basicsr.data.prefetch_dataloader.CUDAPrefetcher</title>
<polygon fill="none" stroke="black" points="142,-120.5 142,-294.5 284,-294.5 284,-120.5 142,-120.5"/>
<text text-anchor="middle" x="213" y="-279.3" font-family="Times,serif" font-size="14.00">CUDAPrefetcher</text>
<polyline fill="none" stroke="black" points="142,-271.5 284,-271.5 "/>
<text text-anchor="start" x="150" y="-256.3" font-family="Times,serif" font-size="14.00">batch : NoneType</text>
<text text-anchor="start" x="150" y="-241.3" font-family="Times,serif" font-size="14.00">device</text>
<text text-anchor="start" x="150" y="-226.3" font-family="Times,serif" font-size="14.00">loader</text>
<text text-anchor="start" x="150" y="-211.3" font-family="Times,serif" font-size="14.00">opt</text>
<text text-anchor="start" x="150" y="-196.3" font-family="Times,serif" font-size="14.00">ori_loader</text>
<text text-anchor="start" x="150" y="-181.3" font-family="Times,serif" font-size="14.00">stream</text>
<polyline fill="none" stroke="black" points="142,-173.5 284,-173.5 "/>
<text text-anchor="start" x="150" y="-158.3" font-family="Times,serif" font-size="14.00">next()</text>
<text text-anchor="start" x="150" y="-143.3" font-family="Times,serif" font-size="14.00">preload()</text>
<text text-anchor="start" x="150" y="-128.3" font-family="Times,serif" font-size="14.00">reset()</text>
</g>
<!-- basicsr.data.data_sampler.EnlargedSampler -->
<g id="node3" class="node">
<title>basicsr.data.data_sampler.EnlargedSampler</title>
<polygon fill="none" stroke="black" points="302,-135.5 302,-279.5 444,-279.5 444,-135.5 302,-135.5"/>
<text text-anchor="middle" x="373" y="-264.3" font-family="Times,serif" font-size="14.00">EnlargedSampler</text>
<polyline fill="none" stroke="black" points="302,-256.5 444,-256.5 "/>
<text text-anchor="start" x="310" y="-241.3" font-family="Times,serif" font-size="14.00">dataset</text>
<text text-anchor="start" x="310" y="-226.3" font-family="Times,serif" font-size="14.00">epoch : int</text>
<text text-anchor="start" x="310" y="-211.3" font-family="Times,serif" font-size="14.00">num_replicas</text>
<text text-anchor="start" x="310" y="-196.3" font-family="Times,serif" font-size="14.00">num_samples</text>
<text text-anchor="start" x="310" y="-181.3" font-family="Times,serif" font-size="14.00">rank</text>
<text text-anchor="start" x="310" y="-166.3" font-family="Times,serif" font-size="14.00">total_size</text>
<polyline fill="none" stroke="black" points="302,-158.5 444,-158.5 "/>
<text text-anchor="start" x="310" y="-143.3" font-family="Times,serif" font-size="14.00">set_epoch(epoch)</text>
</g>
<!-- basicsr.data.ffhq_dataset.FFHQDataset -->
<g id="node4" class="node">
<title>basicsr.data.ffhq_dataset.FFHQDataset</title>
<polygon fill="none" stroke="black" points="462,-128 462,-287 632,-287 632,-128 462,-128"/>
<text text-anchor="middle" x="547" y="-271.8" font-family="Times,serif" font-size="14.00">FFHQDataset</text>
<polyline fill="none" stroke="black" points="462,-264 632,-264 "/>
<text text-anchor="start" x="470" y="-248.8" font-family="Times,serif" font-size="14.00">file_client : NoneType</text>
<text text-anchor="start" x="470" y="-233.8" font-family="Times,serif" font-size="14.00">gt_folder</text>
<text text-anchor="start" x="470" y="-218.8" font-family="Times,serif" font-size="14.00">io_backend_opt</text>
<text text-anchor="start" x="470" y="-203.8" font-family="Times,serif" font-size="14.00">mean</text>
<text text-anchor="start" x="470" y="-188.8" font-family="Times,serif" font-size="14.00">opt</text>
<text text-anchor="start" x="470" y="-173.8" font-family="Times,serif" font-size="14.00">paths</text>
<text text-anchor="start" x="470" y="-158.8" font-family="Times,serif" font-size="14.00">std</text>
<polyline fill="none" stroke="black" points="462,-151 632,-151 "/>
<text text-anchor="middle" x="547" y="-135.8" font-family="Times,serif" font-size="14.00"> </text>
</g>
<!-- basicsr.data.ffhq_degradation_dataset.FFHQDegradationDataset -->
<g id="node5" class="node">
<title>basicsr.data.ffhq_degradation_dataset.FFHQDegradationDataset</title>
<polygon fill="none" stroke="black" points="650.5,-0.5 650.5,-414.5 1075.5,-414.5 1075.5,-0.5 650.5,-0.5"/>
<text text-anchor="middle" x="863" y="-399.3" font-family="Times,serif" font-size="14.00">FFHQDegradationDataset</text>
<polyline fill="none" stroke="black" points="650.5,-391.5 1075.5,-391.5 "/>
<text text-anchor="start" x="658.5" y="-376.3" font-family="Times,serif" font-size="14.00">blur_kernel_size</text>
<text text-anchor="start" x="658.5" y="-361.3" font-family="Times,serif" font-size="14.00">blur_sigma</text>
<text text-anchor="start" x="658.5" y="-346.3" font-family="Times,serif" font-size="14.00">color_jitter_prob</text>
<text text-anchor="start" x="658.5" y="-331.3" font-family="Times,serif" font-size="14.00">color_jitter_pt_prob</text>
<text text-anchor="start" x="658.5" y="-316.3" font-family="Times,serif" font-size="14.00">color_jitter_shift</text>
<text text-anchor="start" x="658.5" y="-301.3" font-family="Times,serif" font-size="14.00">components_list</text>
<text text-anchor="start" x="658.5" y="-286.3" font-family="Times,serif" font-size="14.00">crop_components</text>
<text text-anchor="start" x="658.5" y="-271.3" font-family="Times,serif" font-size="14.00">downsample_range</text>
<text text-anchor="start" x="658.5" y="-256.3" font-family="Times,serif" font-size="14.00">eye_enlarge_ratio</text>
<text text-anchor="start" x="658.5" y="-241.3" font-family="Times,serif" font-size="14.00">file_client : NoneType</text>
<text text-anchor="start" x="658.5" y="-226.3" font-family="Times,serif" font-size="14.00">gray_prob</text>
<text text-anchor="start" x="658.5" y="-211.3" font-family="Times,serif" font-size="14.00">gt_folder</text>
<text text-anchor="start" x="658.5" y="-196.3" font-family="Times,serif" font-size="14.00">io_backend_opt</text>
<text text-anchor="start" x="658.5" y="-181.3" font-family="Times,serif" font-size="14.00">jpeg_range</text>
<text text-anchor="start" x="658.5" y="-166.3" font-family="Times,serif" font-size="14.00">kernel_list</text>
<text text-anchor="start" x="658.5" y="-151.3" font-family="Times,serif" font-size="14.00">kernel_prob</text>
<text text-anchor="start" x="658.5" y="-136.3" font-family="Times,serif" font-size="14.00">mean</text>
<text text-anchor="start" x="658.5" y="-121.3" font-family="Times,serif" font-size="14.00">noise_range</text>
<text text-anchor="start" x="658.5" y="-106.3" font-family="Times,serif" font-size="14.00">opt</text>
<text text-anchor="start" x="658.5" y="-91.3" font-family="Times,serif" font-size="14.00">out_size</text>
<text text-anchor="start" x="658.5" y="-76.3" font-family="Times,serif" font-size="14.00">paths</text>
<text text-anchor="start" x="658.5" y="-61.3" font-family="Times,serif" font-size="14.00">std</text>
<polyline fill="none" stroke="black" points="650.5,-53.5 1075.5,-53.5 "/>
<text text-anchor="start" x="658.5" y="-38.3" font-family="Times,serif" font-size="14.00">color_jitter(img, shift)</text>
<text text-anchor="start" x="658.5" y="-23.3" font-family="Times,serif" font-size="14.00">color_jitter_pt(img, brightness, contrast, saturation, hue)</text>
<text text-anchor="start" x="658.5" y="-8.3" font-family="Times,serif" font-size="14.00">get_component_coordinates(index, status)</text>
</g>
<!-- basicsr.data.paired_image_dataset.PairedImageDataset -->
<g id="node6" class="node">
<title>basicsr.data.paired_image_dataset.PairedImageDataset</title>
<polygon fill="none" stroke="black" points="1094,-113 1094,-302 1264,-302 1264,-113 1094,-113"/>
<text text-anchor="middle" x="1179" y="-286.8" font-family="Times,serif" font-size="14.00">PairedImageDataset</text>
<polyline fill="none" stroke="black" points="1094,-279 1264,-279 "/>
<text text-anchor="start" x="1102" y="-263.8" font-family="Times,serif" font-size="14.00">file_client : NoneType</text>
<text text-anchor="start" x="1102" y="-248.8" font-family="Times,serif" font-size="14.00">filename_tmpl : str</text>
<text text-anchor="start" x="1102" y="-233.8" font-family="Times,serif" font-size="14.00">gt_folder</text>
<text text-anchor="start" x="1102" y="-218.8" font-family="Times,serif" font-size="14.00">io_backend_opt</text>
<text text-anchor="start" x="1102" y="-203.8" font-family="Times,serif" font-size="14.00">lq_folder</text>
<text text-anchor="start" x="1102" y="-188.8" font-family="Times,serif" font-size="14.00">mean : NoneType</text>
<text text-anchor="start" x="1102" y="-173.8" font-family="Times,serif" font-size="14.00">opt</text>
<text text-anchor="start" x="1102" y="-158.8" font-family="Times,serif" font-size="14.00">paths : list</text>
<text text-anchor="start" x="1102" y="-143.8" font-family="Times,serif" font-size="14.00">std : NoneType</text>
<polyline fill="none" stroke="black" points="1094,-136 1264,-136 "/>
<text text-anchor="middle" x="1179" y="-120.8" font-family="Times,serif" font-size="14.00"> </text>
</g>
<!-- basicsr.data.prefetch_dataloader.PrefetchDataLoader -->
<g id="node7" class="node">
<title>basicsr.data.prefetch_dataloader.PrefetchDataLoader</title>
<polygon fill="none" stroke="black" points="1282.5,-173 1282.5,-242 1447.5,-242 1447.5,-173 1282.5,-173"/>
<text text-anchor="middle" x="1365" y="-226.8" font-family="Times,serif" font-size="14.00">PrefetchDataLoader</text>
<polyline fill="none" stroke="black" points="1282.5,-219 1447.5,-219 "/>
<text text-anchor="start" x="1290.5" y="-203.8" font-family="Times,serif" font-size="14.00">num_prefetch_queue</text>
<polyline fill="none" stroke="black" points="1282.5,-196 1447.5,-196 "/>
<text text-anchor="middle" x="1365" y="-180.8" font-family="Times,serif" font-size="14.00"> </text>
</g>
<!-- basicsr.data.prefetch_dataloader.PrefetchGenerator -->
<g id="node8" class="node">
<title>basicsr.data.prefetch_dataloader.PrefetchGenerator</title>
<polygon fill="none" stroke="black" points="1466,-158 1466,-257 1616,-257 1616,-158 1466,-158"/>
<text text-anchor="middle" x="1541" y="-241.8" font-family="Times,serif" font-size="14.00">PrefetchGenerator</text>
<polyline fill="none" stroke="black" points="1466,-234 1616,-234 "/>
<text text-anchor="start" x="1474" y="-218.8" font-family="Times,serif" font-size="14.00">daemon : bool</text>
<text text-anchor="start" x="1474" y="-203.8" font-family="Times,serif" font-size="14.00">generator</text>
<text text-anchor="start" x="1474" y="-188.8" font-family="Times,serif" font-size="14.00">queue : Queue</text>
<polyline fill="none" stroke="black" points="1466,-181 1616,-181 "/>
<text text-anchor="start" x="1474" y="-165.8" font-family="Times,serif" font-size="14.00">run()</text>
</g>
<!-- basicsr.data.reds_dataset.REDSDataset -->
<g id="node9" class="node">
<title>basicsr.data.reds_dataset.REDSDataset</title>
<polygon fill="none" stroke="black" points="1634.5,-90.5 1634.5,-324.5 1843.5,-324.5 1843.5,-90.5 1634.5,-90.5"/>
<text text-anchor="middle" x="1739" y="-309.3" font-family="Times,serif" font-size="14.00">REDSDataset</text>
<polyline fill="none" stroke="black" points="1634.5,-301.5 1843.5,-301.5 "/>
<text text-anchor="start" x="1642.5" y="-286.3" font-family="Times,serif" font-size="14.00">file_client : NoneType</text>
<text text-anchor="start" x="1642.5" y="-271.3" font-family="Times,serif" font-size="14.00">flow_root : Path, NoneType</text>
<text text-anchor="start" x="1642.5" y="-256.3" font-family="Times,serif" font-size="14.00">gt_root : Path</text>
<text text-anchor="start" x="1642.5" y="-241.3" font-family="Times,serif" font-size="14.00">interval_list</text>
<text text-anchor="start" x="1642.5" y="-226.3" font-family="Times,serif" font-size="14.00">io_backend_opt</text>
<text text-anchor="start" x="1642.5" y="-211.3" font-family="Times,serif" font-size="14.00">is_lmdb : bool</text>
<text text-anchor="start" x="1642.5" y="-196.3" font-family="Times,serif" font-size="14.00">keys : list</text>
<text text-anchor="start" x="1642.5" y="-181.3" font-family="Times,serif" font-size="14.00">lq_root : Path</text>
<text text-anchor="start" x="1642.5" y="-166.3" font-family="Times,serif" font-size="14.00">num_frame</text>
<text text-anchor="start" x="1642.5" y="-151.3" font-family="Times,serif" font-size="14.00">num_half_frames</text>
<text text-anchor="start" x="1642.5" y="-136.3" font-family="Times,serif" font-size="14.00">opt</text>
<text text-anchor="start" x="1642.5" y="-121.3" font-family="Times,serif" font-size="14.00">random_reverse</text>
<polyline fill="none" stroke="black" points="1634.5,-113.5 1843.5,-113.5 "/>
<text text-anchor="middle" x="1739" y="-98.3" font-family="Times,serif" font-size="14.00"> </text>
</g>
<!-- basicsr.data.reds_dataset.REDSRecurrentDataset -->
<g id="node10" class="node">
<title>basicsr.data.reds_dataset.REDSRecurrentDataset</title>
<polygon fill="none" stroke="black" points="1862,-105.5 1862,-309.5 2048,-309.5 2048,-105.5 1862,-105.5"/>
<text text-anchor="middle" x="1955" y="-294.3" font-family="Times,serif" font-size="14.00">REDSRecurrentDataset</text>
<polyline fill="none" stroke="black" points="1862,-286.5 2048,-286.5 "/>
<text text-anchor="start" x="1870" y="-271.3" font-family="Times,serif" font-size="14.00">file_client : NoneType</text>
<text text-anchor="start" x="1870" y="-256.3" font-family="Times,serif" font-size="14.00">gt_root : Path</text>
<text text-anchor="start" x="1870" y="-241.3" font-family="Times,serif" font-size="14.00">interval_list</text>
<text text-anchor="start" x="1870" y="-226.3" font-family="Times,serif" font-size="14.00">io_backend_opt</text>
<text text-anchor="start" x="1870" y="-211.3" font-family="Times,serif" font-size="14.00">is_lmdb : bool</text>
<text text-anchor="start" x="1870" y="-196.3" font-family="Times,serif" font-size="14.00">keys : list</text>
<text text-anchor="start" x="1870" y="-181.3" font-family="Times,serif" font-size="14.00">lq_root : Path</text>
<text text-anchor="start" x="1870" y="-166.3" font-family="Times,serif" font-size="14.00">num_frame</text>
<text text-anchor="start" x="1870" y="-151.3" font-family="Times,serif" font-size="14.00">opt</text>
<text text-anchor="start" x="1870" y="-136.3" font-family="Times,serif" font-size="14.00">random_reverse</text>
<polyline fill="none" stroke="black" points="1862,-128.5 2048,-128.5 "/>
<text text-anchor="middle" x="1955" y="-113.3" font-family="Times,serif" font-size="14.00"> </text>
</g>
<!-- basicsr.data.realesrgan_dataset.RealESRGANDataset -->
<g id="node11" class="node">
<title>basicsr.data.realesrgan_dataset.RealESRGANDataset</title>
<polygon fill="none" stroke="black" points="2066,-15.5 2066,-399.5 2236,-399.5 2236,-15.5 2066,-15.5"/>
<text text-anchor="middle" x="2151" y="-384.3" font-family="Times,serif" font-size="14.00">RealESRGANDataset</text>
<polyline fill="none" stroke="black" points="2066,-376.5 2236,-376.5 "/>
<text text-anchor="start" x="2074" y="-361.3" font-family="Times,serif" font-size="14.00">betag_range</text>
<text text-anchor="start" x="2074" y="-346.3" font-family="Times,serif" font-size="14.00">betag_range2</text>
<text text-anchor="start" x="2074" y="-331.3" font-family="Times,serif" font-size="14.00">betap_range</text>
<text text-anchor="start" x="2074" y="-316.3" font-family="Times,serif" font-size="14.00">betap_range2</text>
<text text-anchor="start" x="2074" y="-301.3" font-family="Times,serif" font-size="14.00">blur_kernel_size</text>
<text text-anchor="start" x="2074" y="-286.3" font-family="Times,serif" font-size="14.00">blur_kernel_size2</text>
<text text-anchor="start" x="2074" y="-271.3" font-family="Times,serif" font-size="14.00">blur_sigma</text>
<text text-anchor="start" x="2074" y="-256.3" font-family="Times,serif" font-size="14.00">blur_sigma2</text>
<text text-anchor="start" x="2074" y="-241.3" font-family="Times,serif" font-size="14.00">crop_size : int</text>
<text text-anchor="start" x="2074" y="-226.3" font-family="Times,serif" font-size="14.00">file_client : NoneType</text>
<text text-anchor="start" x="2074" y="-211.3" font-family="Times,serif" font-size="14.00">final_sinc_prob</text>
<text text-anchor="start" x="2074" y="-196.3" font-family="Times,serif" font-size="14.00">io_backend_opt</text>
<text text-anchor="start" x="2074" y="-181.3" font-family="Times,serif" font-size="14.00">kernel_list</text>
<text text-anchor="start" x="2074" y="-166.3" font-family="Times,serif" font-size="14.00">kernel_list2</text>
<text text-anchor="start" x="2074" y="-151.3" font-family="Times,serif" font-size="14.00">kernel_prob</text>
<text text-anchor="start" x="2074" y="-136.3" font-family="Times,serif" font-size="14.00">kernel_prob2</text>
<text text-anchor="start" x="2074" y="-121.3" font-family="Times,serif" font-size="14.00">kernel_range</text>
<text text-anchor="start" x="2074" y="-106.3" font-family="Times,serif" font-size="14.00">opt</text>
<text text-anchor="start" x="2074" y="-91.3" font-family="Times,serif" font-size="14.00">paths : list</text>
<text text-anchor="start" x="2074" y="-76.3" font-family="Times,serif" font-size="14.00">pulse_tensor</text>
<text text-anchor="start" x="2074" y="-61.3" font-family="Times,serif" font-size="14.00">sinc_prob</text>
<text text-anchor="start" x="2074" y="-46.3" font-family="Times,serif" font-size="14.00">sinc_prob2</text>
<polyline fill="none" stroke="black" points="2066,-38.5 2236,-38.5 "/>
<text text-anchor="middle" x="2151" y="-23.3" font-family="Times,serif" font-size="14.00"> </text>
</g>
<!-- basicsr.data.realesrgan_paired_dataset.RealESRGANPairedDataset -->
<g id="node12" class="node">
<title>basicsr.data.realesrgan_paired_dataset.RealESRGANPairedDataset</title>
<polygon fill="none" stroke="black" points="2254.5,-113 2254.5,-302 2467.5,-302 2467.5,-113 2254.5,-113"/>
<text text-anchor="middle" x="2361" y="-286.8" font-family="Times,serif" font-size="14.00">RealESRGANPairedDataset</text>
<polyline fill="none" stroke="black" points="2254.5,-279 2467.5,-279 "/>
<text text-anchor="start" x="2262.5" y="-263.8" font-family="Times,serif" font-size="14.00">file_client : NoneType</text>
<text text-anchor="start" x="2262.5" y="-248.8" font-family="Times,serif" font-size="14.00">filename_tmpl : str</text>
<text text-anchor="start" x="2262.5" y="-233.8" font-family="Times,serif" font-size="14.00">gt_folder</text>
<text text-anchor="start" x="2262.5" y="-218.8" font-family="Times,serif" font-size="14.00">io_backend_opt</text>
<text text-anchor="start" x="2262.5" y="-203.8" font-family="Times,serif" font-size="14.00">lq_folder</text>
<text text-anchor="start" x="2262.5" y="-188.8" font-family="Times,serif" font-size="14.00">mean : NoneType</text>
<text text-anchor="start" x="2262.5" y="-173.8" font-family="Times,serif" font-size="14.00">opt</text>
<text text-anchor="start" x="2262.5" y="-158.8" font-family="Times,serif" font-size="14.00">paths : list</text>
<text text-anchor="start" x="2262.5" y="-143.8" font-family="Times,serif" font-size="14.00">std : NoneType</text>
<polyline fill="none" stroke="black" points="2254.5,-136 2467.5,-136 "/>
<text text-anchor="middle" x="2361" y="-120.8" font-family="Times,serif" font-size="14.00"> </text>
</g>
<!-- basicsr.data.single_image_dataset.SingleImageDataset -->
<g id="node13" class="node">
<title>basicsr.data.single_image_dataset.SingleImageDataset</title>
<polygon fill="none" stroke="black" points="2486,-128 2486,-287 2656,-287 2656,-128 2486,-128"/>
<text text-anchor="middle" x="2571" y="-271.8" font-family="Times,serif" font-size="14.00">SingleImageDataset</text>
<polyline fill="none" stroke="black" points="2486,-264 2656,-264 "/>
<text text-anchor="start" x="2494" y="-248.8" font-family="Times,serif" font-size="14.00">file_client : NoneType</text>
<text text-anchor="start" x="2494" y="-233.8" font-family="Times,serif" font-size="14.00">io_backend_opt</text>
<text text-anchor="start" x="2494" y="-218.8" font-family="Times,serif" font-size="14.00">lq_folder</text>
<text text-anchor="start" x="2494" y="-203.8" font-family="Times,serif" font-size="14.00">mean : NoneType</text>
<text text-anchor="start" x="2494" y="-188.8" font-family="Times,serif" font-size="14.00">opt</text>
<text text-anchor="start" x="2494" y="-173.8" font-family="Times,serif" font-size="14.00">paths</text>
<text text-anchor="start" x="2494" y="-158.8" font-family="Times,serif" font-size="14.00">std : NoneType</text>
<polyline fill="none" stroke="black" points="2486,-151 2656,-151 "/>
<text text-anchor="middle" x="2571" y="-135.8" font-family="Times,serif" font-size="14.00"> </text>
</g>
<!-- basicsr.data.single_image_dataset.SingleImageNPDataset -->
<g id="node14" class="node">
<title>basicsr.data.single_image_dataset.SingleImageNPDataset</title>
<polygon fill="none" stroke="black" points="2674.5,-113 2674.5,-302 2857.5,-302 2857.5,-113 2674.5,-113"/>
<text text-anchor="middle" x="2766" y="-286.8" font-family="Times,serif" font-size="14.00">SingleImageNPDataset</text>
<polyline fill="none" stroke="black" points="2674.5,-279 2857.5,-279 "/>
<text text-anchor="start" x="2682.5" y="-263.8" font-family="Times,serif" font-size="14.00">file_client : NoneType</text>
<text text-anchor="start" x="2682.5" y="-248.8" font-family="Times,serif" font-size="14.00">gt_paths</text>
<text text-anchor="start" x="2682.5" y="-233.8" font-family="Times,serif" font-size="14.00">io_backend_opt</text>
<text text-anchor="start" x="2682.5" y="-218.8" font-family="Times,serif" font-size="14.00">lq_paths</text>
<text text-anchor="start" x="2682.5" y="-203.8" font-family="Times,serif" font-size="14.00">mean : NoneType</text>
<text text-anchor="start" x="2682.5" y="-188.8" font-family="Times,serif" font-size="14.00">np_paths</text>
<text text-anchor="start" x="2682.5" y="-173.8" font-family="Times,serif" font-size="14.00">opt</text>
<text text-anchor="start" x="2682.5" y="-158.8" font-family="Times,serif" font-size="14.00">sample_paths</text>
<text text-anchor="start" x="2682.5" y="-143.8" font-family="Times,serif" font-size="14.00">std : NoneType</text>
<polyline fill="none" stroke="black" points="2674.5,-136 2857.5,-136 "/>
<text text-anchor="middle" x="2766" y="-120.8" font-family="Times,serif" font-size="14.00"> </text>
</g>
<!-- basicsr.data.video_test_dataset.VideoRecurrentTestDataset -->
<g id="node15" class="node">
<title>basicsr.data.video_test_dataset.VideoRecurrentTestDataset</title>
<polygon fill="none" stroke="black" points="2876,-173 2876,-242 3090,-242 3090,-173 2876,-173"/>
<text text-anchor="middle" x="2983" y="-226.8" font-family="Times,serif" font-size="14.00">VideoRecurrentTestDataset</text>
<polyline fill="none" stroke="black" points="2876,-219 3090,-219 "/>
<text text-anchor="start" x="2884" y="-203.8" font-family="Times,serif" font-size="14.00">folders</text>
<polyline fill="none" stroke="black" points="2876,-196 3090,-196 "/>
<text text-anchor="middle" x="2983" y="-180.8" font-family="Times,serif" font-size="14.00"> </text>
</g>
<!-- basicsr.data.video_test_dataset.VideoTestDataset -->
<g id="node17" class="node">
<title>basicsr.data.video_test_dataset.VideoTestDataset</title>
<polygon fill="none" stroke="black" points="3005,-451.5 3005,-640.5 3175,-640.5 3175,-451.5 3005,-451.5"/>
<text text-anchor="middle" x="3090" y="-625.3" font-family="Times,serif" font-size="14.00">VideoTestDataset</text>
<polyline fill="none" stroke="black" points="3005,-617.5 3175,-617.5 "/>
<text text-anchor="start" x="3013" y="-602.3" font-family="Times,serif" font-size="14.00">cache_data</text>
<text text-anchor="start" x="3013" y="-587.3" font-family="Times,serif" font-size="14.00">data_info : dict</text>
<text text-anchor="start" x="3013" y="-572.3" font-family="Times,serif" font-size="14.00">file_client : NoneType</text>
<text text-anchor="start" x="3013" y="-557.3" font-family="Times,serif" font-size="14.00">gt_root</text>
<text text-anchor="start" x="3013" y="-542.3" font-family="Times,serif" font-size="14.00">imgs_gt : dict</text>
<text text-anchor="start" x="3013" y="-527.3" font-family="Times,serif" font-size="14.00">imgs_lq : dict</text>
<text text-anchor="start" x="3013" y="-512.3" font-family="Times,serif" font-size="14.00">io_backend_opt</text>
<text text-anchor="start" x="3013" y="-497.3" font-family="Times,serif" font-size="14.00">lq_root</text>
<text text-anchor="start" x="3013" y="-482.3" font-family="Times,serif" font-size="14.00">opt</text>
<polyline fill="none" stroke="black" points="3005,-474.5 3175,-474.5 "/>
<text text-anchor="middle" x="3090" y="-459.3" font-family="Times,serif" font-size="14.00"> </text>
</g>
<!-- basicsr.data.video_test_dataset.VideoRecurrentTestDataset&#45;&gt;basicsr.data.video_test_dataset.VideoTestDataset -->
<g id="edge1" class="edge">
<title>basicsr.data.video_test_dataset.VideoRecurrentTestDataset&#45;&gt;basicsr.data.video_test_dataset.VideoTestDataset</title>
<path fill="none" stroke="black" d="M2993.75,-242.31C3008.42,-288.45 3035.37,-373.21 3057.03,-441.32"/>
<polygon fill="none" stroke="black" points="3053.82,-442.78 3060.19,-451.25 3060.49,-440.66 3053.82,-442.78"/>
</g>
<!-- basicsr.data.video_test_dataset.VideoTestDUFDataset -->
<g id="node16" class="node">
<title>basicsr.data.video_test_dataset.VideoTestDUFDataset</title>
<polygon fill="none" stroke="black" points="3108.5,-172.5 3108.5,-242.5 3283.5,-242.5 3283.5,-172.5 3108.5,-172.5"/>
<text text-anchor="middle" x="3196" y="-227.3" font-family="Times,serif" font-size="14.00">VideoTestDUFDataset</text>
<polyline fill="none" stroke="black" points="3108.5,-219.5 3283.5,-219.5 "/>
<polyline fill="none" stroke="black" points="3108.5,-195.5 3283.5,-195.5 "/>
<text text-anchor="middle" x="3196" y="-180.3" font-family="Times,serif" font-size="14.00"> </text>
</g>
<!-- basicsr.data.video_test_dataset.VideoTestDUFDataset&#45;&gt;basicsr.data.video_test_dataset.VideoTestDataset -->
<g id="edge2" class="edge">
<title>basicsr.data.video_test_dataset.VideoTestDUFDataset&#45;&gt;basicsr.data.video_test_dataset.VideoTestDataset</title>
<path fill="none" stroke="black" d="M3185.25,-242.62C3170.68,-288.88 3144.01,-373.54 3122.59,-441.53"/>
<polygon fill="none" stroke="black" points="3119.14,-440.85 3119.47,-451.44 3125.82,-442.95 3119.14,-440.85"/>
</g>
<!-- basicsr.data.video_test_dataset.VideoTestVimeo90KDataset -->
<g id="node18" class="node">
<title>basicsr.data.video_test_dataset.VideoTestVimeo90KDataset</title>
<polygon fill="none" stroke="black" points="3301.5,-128 3301.5,-287 3516.5,-287 3516.5,-128 3301.5,-128"/>
<text text-anchor="middle" x="3409" y="-271.8" font-family="Times,serif" font-size="14.00">VideoTestVimeo90KDataset</text>
<polyline fill="none" stroke="black" points="3301.5,-264 3516.5,-264 "/>
<text text-anchor="start" x="3309.5" y="-248.8" font-family="Times,serif" font-size="14.00">cache_data</text>
<text text-anchor="start" x="3309.5" y="-233.8" font-family="Times,serif" font-size="14.00">data_info : dict</text>
<text text-anchor="start" x="3309.5" y="-218.8" font-family="Times,serif" font-size="14.00">file_client : NoneType</text>
<text text-anchor="start" x="3309.5" y="-203.8" font-family="Times,serif" font-size="14.00">gt_root</text>
<text text-anchor="start" x="3309.5" y="-188.8" font-family="Times,serif" font-size="14.00">io_backend_opt</text>
<text text-anchor="start" x="3309.5" y="-173.8" font-family="Times,serif" font-size="14.00">lq_root</text>
<text text-anchor="start" x="3309.5" y="-158.8" font-family="Times,serif" font-size="14.00">opt</text>
<polyline fill="none" stroke="black" points="3301.5,-151 3516.5,-151 "/>
<text text-anchor="middle" x="3409" y="-135.8" font-family="Times,serif" font-size="14.00"> </text>
</g>
<!-- basicsr.data.vimeo90k_dataset.Vimeo90KDataset -->
<g id="node19" class="node">
<title>basicsr.data.vimeo90k_dataset.Vimeo90KDataset</title>
<polygon fill="none" stroke="black" points="3558,-451.5 3558,-640.5 3728,-640.5 3728,-451.5 3558,-451.5"/>
<text text-anchor="middle" x="3643" y="-625.3" font-family="Times,serif" font-size="14.00">Vimeo90KDataset</text>
<polyline fill="none" stroke="black" points="3558,-617.5 3728,-617.5 "/>
<text text-anchor="start" x="3566" y="-602.3" font-family="Times,serif" font-size="14.00">file_client : NoneType</text>
<text text-anchor="start" x="3566" y="-587.3" font-family="Times,serif" font-size="14.00">gt_root : Path</text>
<text text-anchor="start" x="3566" y="-572.3" font-family="Times,serif" font-size="14.00">io_backend_opt</text>
<text text-anchor="start" x="3566" y="-557.3" font-family="Times,serif" font-size="14.00">is_lmdb : bool</text>
<text text-anchor="start" x="3566" y="-542.3" font-family="Times,serif" font-size="14.00">keys</text>
<text text-anchor="start" x="3566" y="-527.3" font-family="Times,serif" font-size="14.00">lq_root : Path</text>
<text text-anchor="start" x="3566" y="-512.3" font-family="Times,serif" font-size="14.00">neighbor_list</text>
<text text-anchor="start" x="3566" y="-497.3" font-family="Times,serif" font-size="14.00">opt</text>
<text text-anchor="start" x="3566" y="-482.3" font-family="Times,serif" font-size="14.00">random_reverse</text>
<polyline fill="none" stroke="black" points="3558,-474.5 3728,-474.5 "/>
<text text-anchor="middle" x="3643" y="-459.3" font-family="Times,serif" font-size="14.00"> </text>
</g>
<!-- basicsr.data.vimeo90k_dataset.Vimeo90KRecurrentDataset -->
<g id="node20" class="node">
<title>basicsr.data.vimeo90k_dataset.Vimeo90KRecurrentDataset</title>
<polygon fill="none" stroke="black" points="3534.5,-158 3534.5,-257 3751.5,-257 3751.5,-158 3534.5,-158"/>
<text text-anchor="middle" x="3643" y="-241.8" font-family="Times,serif" font-size="14.00">Vimeo90KRecurrentDataset</text>
<polyline fill="none" stroke="black" points="3534.5,-234 3751.5,-234 "/>
<text text-anchor="start" x="3542.5" y="-218.8" font-family="Times,serif" font-size="14.00">file_client</text>
<text text-anchor="start" x="3542.5" y="-203.8" font-family="Times,serif" font-size="14.00">flip_sequence</text>
<text text-anchor="start" x="3542.5" y="-188.8" font-family="Times,serif" font-size="14.00">neighbor_list : list</text>
<polyline fill="none" stroke="black" points="3534.5,-181 3751.5,-181 "/>
<text text-anchor="middle" x="3643" y="-165.8" font-family="Times,serif" font-size="14.00"> </text>
</g>
<!-- basicsr.data.vimeo90k_dataset.Vimeo90KRecurrentDataset&#45;&gt;basicsr.data.vimeo90k_dataset.Vimeo90KDataset -->
<g id="edge3" class="edge">
<title>basicsr.data.vimeo90k_dataset.Vimeo90KRecurrentDataset&#45;&gt;basicsr.data.vimeo90k_dataset.Vimeo90KDataset</title>
<path fill="none" stroke="black" d="M3643,-257.07C3643,-305 3643,-379.8 3643,-441.14"/>
<polygon fill="none" stroke="black" points="3639.5,-441.25 3643,-451.25 3646.5,-441.25 3639.5,-441.25"/>
</g>
</g>
</svg>
