<?xml version="1.0" encoding="UTF-8" standalone="no"?>
<!DOCTYPE svg PUBLIC "-//W3C//DTD SVG 1.1//EN"
 "http://www.w3.org/Graphics/SVG/1.1/DTD/svg11.dtd">
<!-- Generated by graphviz version 2.50.0 (0)
 -->
<!-- Title: classes_basicsr.data.prefetch_dataloader Pages: 1 -->
<svg width="644pt" height="183pt"
 viewBox="0.00 0.00 644.00 183.00" xmlns="http://www.w3.org/2000/svg" xmlns:xlink="http://www.w3.org/1999/xlink">
<g id="graph0" class="graph" transform="scale(1 1) rotate(0) translate(4 179)">
<title>classes_basicsr.data.prefetch_dataloader</title>
<polygon fill="white" stroke="transparent" points="-4,4 -4,-179 640,-179 640,4 -4,4"/>
<!-- basicsr.data.prefetch_dataloader.CPUPrefetcher -->
<g id="node1" class="node">
<title>basicsr.data.prefetch_dataloader.CPUPrefetcher</title>
<polygon fill="none" stroke="black" points="0,-38 0,-137 124,-137 124,-38 0,-38"/>
<text text-anchor="middle" x="62" y="-121.8" font-family="Times,serif" font-size="14.00">CPUPrefetcher</text>
<polyline fill="none" stroke="black" points="0,-114 124,-114 "/>
<text text-anchor="start" x="8" y="-98.8" font-family="Times,serif" font-size="14.00">loader</text>
<text text-anchor="start" x="8" y="-83.8" font-family="Times,serif" font-size="14.00">ori_loader</text>
<polyline fill="none" stroke="black" points="0,-76 124,-76 "/>
<text text-anchor="start" x="8" y="-60.8" font-family="Times,serif" font-size="14.00">next()</text>
<text text-anchor="start" x="8" y="-45.8" font-family="Times,serif" font-size="14.00">reset()</text>
</g>
<!-- basicsr.data.prefetch_dataloader.CUDAPrefetcher -->
<g id="node2" class="node">
<title>basicsr.data.prefetch_dataloader.CUDAPrefetcher</title>
<polygon fill="none" stroke="black" points="142,-0.5 142,-174.5 284,-174.5 284,-0.5 142,-0.5"/>
<text text-anchor="middle" x="213" y="-159.3" font-family="Times,serif" font-size="14.00">CUDAPrefetcher</text>
<polyline fill="none" stroke="black" points="142,-151.5 284,-151.5 "/>
<text text-anchor="start" x="150" y="-136.3" font-family="Times,serif" font-size="14.00">batch : NoneType</text>
<text text-anchor="start" x="150" y="-121.3" font-family="Times,serif" font-size="14.00">device</text>
<text text-anchor="start" x="150" y="-106.3" font-family="Times,serif" font-size="14.00">loader</text>
<text text-anchor="start" x="150" y="-91.3" font-family="Times,serif" font-size="14.00">opt</text>
<text text-anchor="start" x="150" y="-76.3" font-family="Times,serif" font-size="14.00">ori_loader</text>
<text text-anchor="start" x="150" y="-61.3" font-family="Times,serif" font-size="14.00">stream</text>
<polyline fill="none" stroke="black" points="142,-53.5 284,-53.5 "/>
<text text-anchor="start" x="150" y="-38.3" font-family="Times,serif" font-size="14.00">next()</text>
<text text-anchor="start" x="150" y="-23.3" font-family="Times,serif" font-size="14.00">preload()</text>
<text text-anchor="start" x="150" y="-8.3" font-family="Times,serif" font-size="14.00">reset()</text>
</g>
<!-- basicsr.data.prefetch_dataloader.PrefetchDataLoader -->
<g id="node3" class="node">
<title>basicsr.data.prefetch_dataloader.PrefetchDataLoader</title>
<polygon fill="none" stroke="black" points="302.5,-53 302.5,-122 467.5,-122 467.5,-53 302.5,-53"/>
<text text-anchor="middle" x="385" y="-106.8" font-family="Times,serif" font-size="14.00">PrefetchDataLoader</text>
<polyline fill="none" stroke="black" points="302.5,-99 467.5,-99 "/>
<text text-anchor="start" x="310.5" y="-83.8" font-family="Times,serif" font-size="14.00">num_prefetch_queue</text>
<polyline fill="none" stroke="black" points="302.5,-76 467.5,-76 "/>
<text text-anchor="middle" x="385" y="-60.8" font-family="Times,serif" font-size="14.00"> </text>
</g>
<!-- basicsr.data.prefetch_dataloader.PrefetchGenerator -->
<g id="node4" class="node">
<title>basicsr.data.prefetch_dataloader.PrefetchGenerator</title>
<polygon fill="none" stroke="black" points="486,-38 486,-137 636,-137 636,-38 486,-38"/>
<text text-anchor="middle" x="561" y="-121.8" font-family="Times,serif" font-size="14.00">PrefetchGenerator</text>
<polyline fill="none" stroke="black" points="486,-114 636,-114 "/>
<text text-anchor="start" x="494" y="-98.8" font-family="Times,serif" font-size="14.00">daemon : bool</text>
<text text-anchor="start" x="494" y="-83.8" font-family="Times,serif" font-size="14.00">generator</text>
<text text-anchor="start" x="494" y="-68.8" font-family="Times,serif" font-size="14.00">queue : Queue</text>
<polyline fill="none" stroke="black" points="486,-61 636,-61 "/>
<text text-anchor="start" x="494" y="-45.8" font-family="Times,serif" font-size="14.00">run()</text>
</g>
</g>
</svg>
