<?xml version="1.0" encoding="UTF-8" standalone="no"?>
<!DOCTYPE svg PUBLIC "-//W3C//DTD SVG 1.1//EN"
 "http://www.w3.org/Graphics/SVG/1.1/DTD/svg11.dtd">
<!-- Generated by graphviz version 2.50.0 (0)
 -->
<!-- Title: classes_basicsr.data.vimeo90k_dataset Pages: 1 -->
<svg width="225pt" height="334pt"
 viewBox="0.00 0.00 225.00 334.00" xmlns="http://www.w3.org/2000/svg" xmlns:xlink="http://www.w3.org/1999/xlink">
<g id="graph0" class="graph" transform="scale(1 1) rotate(0) translate(4 330)">
<title>classes_basicsr.data.vimeo90k_dataset</title>
<polygon fill="white" stroke="transparent" points="-4,4 -4,-330 221,-330 221,4 -4,4"/>
<!-- basicsr.data.vimeo90k_dataset.Vimeo90KDataset -->
<g id="node1" class="node">
<title>basicsr.data.vimeo90k_dataset.Vimeo90KDataset</title>
<polygon fill="none" stroke="black" points="23.5,-136.5 23.5,-325.5 193.5,-325.5 193.5,-136.5 23.5,-136.5"/>
<text text-anchor="middle" x="108.5" y="-310.3" font-family="Times,serif" font-size="14.00">Vimeo90KDataset</text>
<polyline fill="none" stroke="black" points="23.5,-302.5 193.5,-302.5 "/>
<text text-anchor="start" x="31.5" y="-287.3" font-family="Times,serif" font-size="14.00">file_client : NoneType</text>
<text text-anchor="start" x="31.5" y="-272.3" font-family="Times,serif" font-size="14.00">gt_root : Path</text>
<text text-anchor="start" x="31.5" y="-257.3" font-family="Times,serif" font-size="14.00">io_backend_opt</text>
<text text-anchor="start" x="31.5" y="-242.3" font-family="Times,serif" font-size="14.00">is_lmdb : bool</text>
<text text-anchor="start" x="31.5" y="-227.3" font-family="Times,serif" font-size="14.00">keys</text>
<text text-anchor="start" x="31.5" y="-212.3" font-family="Times,serif" font-size="14.00">lq_root : Path</text>
<text text-anchor="start" x="31.5" y="-197.3" font-family="Times,serif" font-size="14.00">neighbor_list</text>
<text text-anchor="start" x="31.5" y="-182.3" font-family="Times,serif" font-size="14.00">opt</text>
<text text-anchor="start" x="31.5" y="-167.3" font-family="Times,serif" font-size="14.00">random_reverse</text>
<polyline fill="none" stroke="black" points="23.5,-159.5 193.5,-159.5 "/>
<text text-anchor="middle" x="108.5" y="-144.3" font-family="Times,serif" font-size="14.00"> </text>
</g>
<!-- basicsr.data.vimeo90k_dataset.Vimeo90KRecurrentDataset -->
<g id="node2" class="node">
<title>basicsr.data.vimeo90k_dataset.Vimeo90KRecurrentDataset</title>
<polygon fill="none" stroke="black" points="0,-0.5 0,-99.5 217,-99.5 217,-0.5 0,-0.5"/>
<text text-anchor="middle" x="108.5" y="-84.3" font-family="Times,serif" font-size="14.00">Vimeo90KRecurrentDataset</text>
<polyline fill="none" stroke="black" points="0,-76.5 217,-76.5 "/>
<text text-anchor="start" x="8" y="-61.3" font-family="Times,serif" font-size="14.00">file_client</text>
<text text-anchor="start" x="8" y="-46.3" font-family="Times,serif" font-size="14.00">flip_sequence</text>
<text text-anchor="start" x="8" y="-31.3" font-family="Times,serif" font-size="14.00">neighbor_list : list</text>
<polyline fill="none" stroke="black" points="0,-23.5 217,-23.5 "/>
<text text-anchor="middle" x="108.5" y="-8.3" font-family="Times,serif" font-size="14.00"> </text>
</g>
<!-- basicsr.data.vimeo90k_dataset.Vimeo90KRecurrentDataset&#45;&gt;basicsr.data.vimeo90k_dataset.Vimeo90KDataset -->
<g id="edge1" class="edge">
<title>basicsr.data.vimeo90k_dataset.Vimeo90KRecurrentDataset&#45;&gt;basicsr.data.vimeo90k_dataset.Vimeo90KDataset</title>
<path fill="none" stroke="black" d="M108.5,-99.91C108.5,-108.27 108.5,-117.24 108.5,-126.4"/>
<polygon fill="none" stroke="black" points="105,-126.4 108.5,-136.4 112,-126.4 105,-126.4"/>
</g>
</g>
</svg>
