<?xml version="1.0" encoding="UTF-8" standalone="no"?>
<!DOCTYPE svg PUBLIC "-//W3C//DTD SVG 1.1//EN"
 "http://www.w3.org/Graphics/SVG/1.1/DTD/svg11.dtd">
<!-- Generated by graphviz version 2.50.0 (0)
 -->
<!-- Title: packages_basicsr.data Pages: 1 -->
<svg width="1816pt" height="188pt"
 viewBox="0.00 0.00 1815.50 188.00" xmlns="http://www.w3.org/2000/svg" xmlns:xlink="http://www.w3.org/1999/xlink">
<g id="graph0" class="graph" transform="scale(1 1) rotate(0) translate(4 184)">
<title>packages_basicsr.data</title>
<polygon fill="white" stroke="transparent" points="-4,4 -4,-184 1811.5,-184 1811.5,4 -4,4"/>
<!-- basicsr.data -->
<g id="node1" class="node">
<title>basicsr.data</title>
<polygon fill="none" stroke="black" points="176,-108 74,-108 74,-72 176,-72 176,-108"/>
<text text-anchor="middle" x="125" y="-86.3" font-family="Times,serif" font-size="14.00">basicsr.data</text>
</g>
<!-- basicsr.data.prefetch_dataloader -->
<g id="node8" class="node">
<title>basicsr.data.prefetch_dataloader</title>
<polygon fill="none" stroke="black" points="250,-180 0,-180 0,-144 250,-144 250,-180"/>
<text text-anchor="middle" x="125" y="-158.3" font-family="Times,serif" font-size="14.00">basicsr.data.prefetch_dataloader</text>
</g>
<!-- basicsr.data&#45;&gt;basicsr.data.prefetch_dataloader -->
<g id="edge1" class="edge">
<title>basicsr.data&#45;&gt;basicsr.data.prefetch_dataloader</title>
<path fill="none" stroke="black" d="M125,-108.3C125,-116.02 125,-125.29 125,-133.89"/>
<polygon fill="black" stroke="black" points="125,-143.9 120.5,-133.9 125,-138.9 125,-133.9 125,-133.9 125,-133.9 125,-138.9 129.5,-133.9 125,-143.9 125,-143.9"/>
</g>
<!-- basicsr.data.data_sampler -->
<g id="node2" class="node">
<title>basicsr.data.data_sampler</title>
<polygon fill="none" stroke="black" points="1807.5,-36 1604.5,-36 1604.5,0 1807.5,0 1807.5,-36"/>
<text text-anchor="middle" x="1706" y="-14.3" font-family="Times,serif" font-size="14.00">basicsr.data.data_sampler</text>
</g>
<!-- basicsr.data.data_util -->
<g id="node3" class="node">
<title>basicsr.data.data_util</title>
<polygon fill="none" stroke="black" points="1120.5,-108 951.5,-108 951.5,-72 1120.5,-72 1120.5,-108"/>
<text text-anchor="middle" x="1036" y="-86.3" font-family="Times,serif" font-size="14.00">basicsr.data.data_util</text>
</g>
<!-- basicsr.data.transforms -->
<g id="node13" class="node">
<title>basicsr.data.transforms</title>
<polygon fill="none" stroke="black" points="866.5,-180 681.5,-180 681.5,-144 866.5,-144 866.5,-180"/>
<text text-anchor="middle" x="774" y="-158.3" font-family="Times,serif" font-size="14.00">basicsr.data.transforms</text>
</g>
<!-- basicsr.data.data_util&#45;&gt;basicsr.data.transforms -->
<g id="edge2" class="edge">
<title>basicsr.data.data_util&#45;&gt;basicsr.data.transforms</title>
<path fill="none" stroke="black" d="M972.24,-108.03C934.68,-118.07 887,-130.81 847.81,-141.28"/>
<polygon fill="black" stroke="black" points="838.04,-143.89 846.54,-136.96 842.87,-142.6 847.7,-141.31 847.7,-141.31 847.7,-141.31 842.87,-142.6 848.87,-145.66 838.04,-143.89 838.04,-143.89"/>
</g>
<!-- basicsr.data.degradations -->
<g id="node4" class="node">
<title>basicsr.data.degradations</title>
<polygon fill="none" stroke="black" points="1398,-180 1198,-180 1198,-144 1398,-144 1398,-180"/>
<text text-anchor="middle" x="1298" y="-158.3" font-family="Times,serif" font-size="14.00">basicsr.data.degradations</text>
</g>
<!-- basicsr.data.ffhq_dataset -->
<g id="node5" class="node">
<title>basicsr.data.ffhq_dataset</title>
<polygon fill="none" stroke="black" points="934,-108 740,-108 740,-72 934,-72 934,-108"/>
<text text-anchor="middle" x="837" y="-86.3" font-family="Times,serif" font-size="14.00">basicsr.data.ffhq_dataset</text>
</g>
<!-- basicsr.data.ffhq_dataset&#45;&gt;basicsr.data.transforms -->
<g id="edge3" class="edge">
<title>basicsr.data.ffhq_dataset&#45;&gt;basicsr.data.transforms</title>
<path fill="none" stroke="black" d="M821.43,-108.3C813.8,-116.78 804.48,-127.14 796.12,-136.42"/>
<polygon fill="black" stroke="black" points="789.39,-143.9 792.74,-133.45 792.74,-140.18 796.08,-136.46 796.08,-136.46 796.08,-136.46 792.74,-140.18 799.43,-139.47 789.39,-143.9 789.39,-143.9"/>
</g>
<!-- basicsr.data.ffhq_degradation_dataset -->
<g id="node6" class="node">
<title>basicsr.data.ffhq_degradation_dataset</title>
<polygon fill="none" stroke="black" points="347.5,-36 60.5,-36 60.5,0 347.5,0 347.5,-36"/>
<text text-anchor="middle" x="204" y="-14.3" font-family="Times,serif" font-size="14.00">basicsr.data.ffhq_degradation_dataset</text>
</g>
<!-- basicsr.data.ffhq_degradation_dataset&#45;&gt;basicsr.data -->
<g id="edge4" class="edge">
<title>basicsr.data.ffhq_degradation_dataset&#45;&gt;basicsr.data</title>
<path fill="none" stroke="black" d="M184.47,-36.3C174.62,-45.03 162.51,-55.76 151.8,-65.25"/>
<polygon fill="black" stroke="black" points="144.3,-71.9 148.8,-61.9 148.05,-68.58 151.79,-65.26 151.79,-65.26 151.79,-65.26 148.05,-68.58 154.77,-68.63 144.3,-71.9 144.3,-71.9"/>
</g>
<!-- basicsr.data.ffhq_degradation_dataset&#45;&gt;basicsr.data.data_util -->
<g id="edge5" class="edge">
<title>basicsr.data.ffhq_degradation_dataset&#45;&gt;basicsr.data.data_util</title>
<path fill="none" stroke="black" d="M347.61,-28.45C537.41,-41.07 856.83,-62.77 941.47,-71.97"/>
<polygon fill="black" stroke="black" points="951.41,-73.13 940.96,-76.44 946.45,-72.55 941.48,-71.97 941.48,-71.97 941.48,-71.97 946.45,-72.55 942,-67.5 951.41,-73.13 951.41,-73.13"/>
</g>
<!-- basicsr.data.ffhq_degradation_dataset&#45;&gt;basicsr.data.transforms -->
<g id="edge6" class="edge">
<title>basicsr.data.ffhq_degradation_dataset&#45;&gt;basicsr.data.transforms</title>
<path fill="none" stroke="black" d="M202.2,-36.33C201.15,-56.74 202.95,-90.12 223,-108 255.67,-137.13 520.91,-151.64 671.15,-157.59"/>
<polygon fill="black" stroke="black" points="681.31,-157.98 671.15,-162.09 676.32,-157.79 671.32,-157.59 671.32,-157.59 671.32,-157.59 676.32,-157.79 671.5,-153.1 681.31,-157.98 681.31,-157.98"/>
</g>
<!-- basicsr.data.paired_image_dataset -->
<g id="node7" class="node">
<title>basicsr.data.paired_image_dataset</title>
<polygon fill="none" stroke="black" points="735.5,-36 472.5,-36 472.5,0 735.5,0 735.5,-36"/>
<text text-anchor="middle" x="604" y="-14.3" font-family="Times,serif" font-size="14.00">basicsr.data.paired_image_dataset</text>
</g>
<!-- basicsr.data.paired_image_dataset&#45;&gt;basicsr.data.data_util -->
<g id="edge7" class="edge">
<title>basicsr.data.paired_image_dataset&#45;&gt;basicsr.data.data_util</title>
<path fill="none" stroke="black" d="M717.5,-36C780.7,-45.64 861.07,-58.2 941.1,-71.7"/>
<polygon fill="black" stroke="black" points="951.37,-73.43 940.76,-76.2 946.44,-72.6 941.51,-71.77 941.51,-71.77 941.51,-71.77 946.44,-72.6 942.26,-67.33 951.37,-73.43 951.37,-73.43"/>
</g>
<!-- basicsr.data.paired_image_dataset&#45;&gt;basicsr.data.transforms -->
<g id="edge8" class="edge">
<title>basicsr.data.paired_image_dataset&#45;&gt;basicsr.data.transforms</title>
<path fill="none" stroke="black" d="M638.09,-36.19C655.34,-45.64 676.15,-58.24 693,-72 716.4,-91.11 739.21,-117.03 754.63,-135.96"/>
<polygon fill="black" stroke="black" points="760.97,-143.87 751.2,-138.88 757.84,-139.97 754.71,-136.07 754.71,-136.07 754.71,-136.07 757.84,-139.97 758.22,-133.25 760.97,-143.87 760.97,-143.87"/>
</g>
<!-- basicsr.data.realesrgan_dataset -->
<g id="node9" class="node">
<title>basicsr.data.realesrgan_dataset</title>
<polygon fill="none" stroke="black" points="1419.5,-108 1176.5,-108 1176.5,-72 1419.5,-72 1419.5,-108"/>
<text text-anchor="middle" x="1298" y="-86.3" font-family="Times,serif" font-size="14.00">basicsr.data.realesrgan_dataset</text>
</g>
<!-- basicsr.data.realesrgan_dataset&#45;&gt;basicsr.data.degradations -->
<g id="edge9" class="edge">
<title>basicsr.data.realesrgan_dataset&#45;&gt;basicsr.data.degradations</title>
<path fill="none" stroke="black" d="M1298,-108.3C1298,-116.02 1298,-125.29 1298,-133.89"/>
<polygon fill="black" stroke="black" points="1298,-143.9 1293.5,-133.9 1298,-138.9 1298,-133.9 1298,-133.9 1298,-133.9 1298,-138.9 1302.5,-133.9 1298,-143.9 1298,-143.9"/>
</g>
<!-- basicsr.data.realesrgan_dataset&#45;&gt;basicsr.data.transforms -->
<g id="edge10" class="edge">
<title>basicsr.data.realesrgan_dataset&#45;&gt;basicsr.data.transforms</title>
<path fill="none" stroke="black" d="M1176.47,-107.24C1085.59,-119.38 962.69,-135.79 876.7,-147.28"/>
<polygon fill="black" stroke="black" points="866.66,-148.62 875.98,-142.84 871.62,-147.96 876.57,-147.3 876.57,-147.3 876.57,-147.3 871.62,-147.96 877.17,-151.76 866.66,-148.62 866.66,-148.62"/>
</g>
<!-- basicsr.data.realesrgan_paired_dataset -->
<g id="node10" class="node">
<title>basicsr.data.realesrgan_paired_dataset</title>
<polygon fill="none" stroke="black" points="1586,-36 1290,-36 1290,0 1586,0 1586,-36"/>
<text text-anchor="middle" x="1438" y="-14.3" font-family="Times,serif" font-size="14.00">basicsr.data.realesrgan_paired_dataset</text>
</g>
<!-- basicsr.data.realesrgan_paired_dataset&#45;&gt;basicsr.data.data_util -->
<g id="edge11" class="edge">
<title>basicsr.data.realesrgan_paired_dataset&#45;&gt;basicsr.data.data_util</title>
<path fill="none" stroke="black" d="M1340.17,-36.03C1276.42,-47.14 1193.66,-61.55 1130.57,-72.53"/>
<polygon fill="black" stroke="black" points="1120.62,-74.27 1129.7,-68.12 1125.54,-73.41 1130.47,-72.55 1130.47,-72.55 1130.47,-72.55 1125.54,-73.41 1131.24,-76.98 1120.62,-74.27 1120.62,-74.27"/>
</g>
<!-- basicsr.data.realesrgan_paired_dataset&#45;&gt;basicsr.data.transforms -->
<g id="edge12" class="edge">
<title>basicsr.data.realesrgan_paired_dataset&#45;&gt;basicsr.data.transforms</title>
<path fill="none" stroke="black" d="M1316.95,-36.03C1257.98,-45.67 1194.22,-58.48 1168,-72 1147.32,-82.66 1150.92,-97.82 1130,-108 1086.59,-129.14 965.85,-144.07 876.97,-152.58"/>
<polygon fill="black" stroke="black" points="866.84,-153.54 876.37,-148.12 871.82,-153.07 876.8,-152.6 876.8,-152.6 876.8,-152.6 871.82,-153.07 877.22,-157.08 866.84,-153.54 866.84,-153.54"/>
</g>
<!-- basicsr.data.reds_dataset -->
<g id="node11" class="node">
<title>basicsr.data.reds_dataset</title>
<polygon fill="none" stroke="black" points="430,-108 232,-108 232,-72 430,-72 430,-108"/>
<text text-anchor="middle" x="331" y="-86.3" font-family="Times,serif" font-size="14.00">basicsr.data.reds_dataset</text>
</g>
<!-- basicsr.data.reds_dataset&#45;&gt;basicsr.data.transforms -->
<g id="edge13" class="edge">
<title>basicsr.data.reds_dataset&#45;&gt;basicsr.data.transforms</title>
<path fill="none" stroke="black" d="M430.14,-106.67C501.88,-118 598.57,-133.28 671.15,-144.75"/>
<polygon fill="black" stroke="black" points="681.23,-146.34 670.65,-149.22 676.29,-145.56 671.35,-144.78 671.35,-144.78 671.35,-144.78 676.29,-145.56 672.05,-140.34 681.23,-146.34 681.23,-146.34"/>
</g>
<!-- basicsr.data.single_image_dataset -->
<g id="node12" class="node">
<title>basicsr.data.single_image_dataset</title>
<polygon fill="none" stroke="black" points="1014,-36 754,-36 754,0 1014,0 1014,-36"/>
<text text-anchor="middle" x="884" y="-14.3" font-family="Times,serif" font-size="14.00">basicsr.data.single_image_dataset</text>
</g>
<!-- basicsr.data.single_image_dataset&#45;&gt;basicsr.data.data_util -->
<g id="edge14" class="edge">
<title>basicsr.data.single_image_dataset&#45;&gt;basicsr.data.data_util</title>
<path fill="none" stroke="black" d="M921.18,-36.12C941.87,-45.65 967.8,-57.59 989.78,-67.72"/>
<polygon fill="black" stroke="black" points="998.94,-71.93 987.97,-71.84 994.4,-69.84 989.85,-67.75 989.85,-67.75 989.85,-67.75 994.4,-69.84 991.74,-63.66 998.94,-71.93 998.94,-71.93"/>
</g>
<!-- basicsr.data.video_test_dataset -->
<g id="node14" class="node">
<title>basicsr.data.video_test_dataset</title>
<polygon fill="none" stroke="black" points="1271.5,-36 1032.5,-36 1032.5,0 1271.5,0 1271.5,-36"/>
<text text-anchor="middle" x="1152" y="-14.3" font-family="Times,serif" font-size="14.00">basicsr.data.video_test_dataset</text>
</g>
<!-- basicsr.data.video_test_dataset&#45;&gt;basicsr.data.data_util -->
<g id="edge15" class="edge">
<title>basicsr.data.video_test_dataset&#45;&gt;basicsr.data.data_util</title>
<path fill="none" stroke="black" d="M1123.62,-36.12C1108.46,-45.28 1089.59,-56.66 1073.26,-66.52"/>
<polygon fill="black" stroke="black" points="1064.49,-71.81 1070.72,-62.79 1068.77,-69.23 1073.05,-66.64 1073.05,-66.64 1073.05,-66.64 1068.77,-69.23 1075.37,-70.5 1064.49,-71.81 1064.49,-71.81"/>
</g>
<!-- basicsr.data.vimeo90k_dataset -->
<g id="node15" class="node">
<title>basicsr.data.vimeo90k_dataset</title>
<polygon fill="none" stroke="black" points="684,-108 448,-108 448,-72 684,-72 684,-108"/>
<text text-anchor="middle" x="566" y="-86.3" font-family="Times,serif" font-size="14.00">basicsr.data.vimeo90k_dataset</text>
</g>
<!-- basicsr.data.vimeo90k_dataset&#45;&gt;basicsr.data.transforms -->
<g id="edge16" class="edge">
<title>basicsr.data.vimeo90k_dataset&#45;&gt;basicsr.data.transforms</title>
<path fill="none" stroke="black" d="M616.62,-108.03C645.81,-117.86 682.69,-130.27 713.42,-140.61"/>
<polygon fill="black" stroke="black" points="723.16,-143.89 712.24,-144.96 718.42,-142.29 713.68,-140.7 713.68,-140.7 713.68,-140.7 718.42,-142.29 715.11,-136.43 723.16,-143.89 723.16,-143.89"/>
</g>
</g>
</svg>
