<?xml version="1.0" encoding="UTF-8" standalone="no"?>
<!DOCTYPE svg PUBLIC "-//W3C//DTD SVG 1.1//EN"
 "http://www.w3.org/Graphics/SVG/1.1/DTD/svg11.dtd">
<!-- Generated by graphviz version 2.50.0 (0)
 -->
<!-- Title: classes_basicsr.ops Pages: 1 -->
<svg width="3855pt" height="409pt"
 viewBox="0.00 0.00 3855.00 409.00" xmlns="http://www.w3.org/2000/svg" xmlns:xlink="http://www.w3.org/1999/xlink">
<g id="graph0" class="graph" transform="scale(1 1) rotate(0) translate(4 405)">
<title>classes_basicsr.ops</title>
<polygon fill="white" stroke="transparent" points="-4,4 -4,-405 3851,-405 3851,4 -4,4"/>
<!-- basicsr.ops.dcn.deform_conv.DeformConv -->
<g id="node1" class="node">
<title>basicsr.ops.dcn.deform_conv.DeformConv</title>
<polygon fill="none" stroke="black" points="0,-151.5 0,-385.5 187,-385.5 187,-151.5 0,-151.5"/>
<text text-anchor="middle" x="93.5" y="-370.3" font-family="Times,serif" font-size="14.00">DeformConv</text>
<polyline fill="none" stroke="black" points="0,-362.5 187,-362.5 "/>
<text text-anchor="start" x="8" y="-347.3" font-family="Times,serif" font-size="14.00">deformable_groups : int</text>
<text text-anchor="start" x="8" y="-332.3" font-family="Times,serif" font-size="14.00">dilation</text>
<text text-anchor="start" x="8" y="-317.3" font-family="Times,serif" font-size="14.00">groups : int</text>
<text text-anchor="start" x="8" y="-302.3" font-family="Times,serif" font-size="14.00">in_channels</text>
<text text-anchor="start" x="8" y="-287.3" font-family="Times,serif" font-size="14.00">kernel_size</text>
<text text-anchor="start" x="8" y="-272.3" font-family="Times,serif" font-size="14.00">out_channels</text>
<text text-anchor="start" x="8" y="-257.3" font-family="Times,serif" font-size="14.00">output_padding</text>
<text text-anchor="start" x="8" y="-242.3" font-family="Times,serif" font-size="14.00">padding</text>
<text text-anchor="start" x="8" y="-227.3" font-family="Times,serif" font-size="14.00">stride</text>
<text text-anchor="start" x="8" y="-212.3" font-family="Times,serif" font-size="14.00">transposed : bool</text>
<text text-anchor="start" x="8" y="-197.3" font-family="Times,serif" font-size="14.00">weight</text>
<polyline fill="none" stroke="black" points="0,-189.5 187,-189.5 "/>
<text text-anchor="start" x="8" y="-174.3" font-family="Times,serif" font-size="14.00">forward(x, offset)</text>
<text text-anchor="start" x="8" y="-159.3" font-family="Times,serif" font-size="14.00">reset_parameters()</text>
</g>
<!-- basicsr.ops.dcn.deform_conv.DeformConvFunction -->
<g id="node2" class="node">
<title>basicsr.ops.dcn.deform_conv.DeformConvFunction</title>
<polygon fill="none" stroke="black" points="181,-7.5 181,-92.5 918,-92.5 918,-7.5 181,-7.5"/>
<text text-anchor="middle" x="549.5" y="-77.3" font-family="Times,serif" font-size="14.00">DeformConvFunction</text>
<polyline fill="none" stroke="black" points="181,-69.5 918,-69.5 "/>
<polyline fill="none" stroke="black" points="181,-45.5 918,-45.5 "/>
<text text-anchor="start" x="189" y="-30.3" font-family="Times,serif" font-size="14.00">backward(ctx, grad_output)</text>
<text text-anchor="start" x="189" y="-15.3" font-family="Times,serif" font-size="14.00">forward(ctx, input, offset, weight, stride, padding, dilation, groups, deformable_groups, im2col_step)</text>
</g>
<!-- basicsr.ops.dcn.deform_conv.DeformConvPack -->
<g id="node3" class="node">
<title>basicsr.ops.dcn.deform_conv.DeformConvPack</title>
<polygon fill="none" stroke="black" points="24,-8 24,-92 163,-92 163,-8 24,-8"/>
<text text-anchor="middle" x="93.5" y="-76.8" font-family="Times,serif" font-size="14.00">DeformConvPack</text>
<polyline fill="none" stroke="black" points="24,-69 163,-69 "/>
<text text-anchor="start" x="32" y="-53.8" font-family="Times,serif" font-size="14.00">conv_offset</text>
<polyline fill="none" stroke="black" points="24,-46 163,-46 "/>
<text text-anchor="start" x="32" y="-30.8" font-family="Times,serif" font-size="14.00">forward(x)</text>
<text text-anchor="start" x="32" y="-15.8" font-family="Times,serif" font-size="14.00">init_offset()</text>
</g>
<!-- basicsr.ops.dcn.deform_conv.DeformConvPack&#45;&gt;basicsr.ops.dcn.deform_conv.DeformConv -->
<g id="edge1" class="edge">
<title>basicsr.ops.dcn.deform_conv.DeformConvPack&#45;&gt;basicsr.ops.dcn.deform_conv.DeformConv</title>
<path fill="none" stroke="black" d="M93.5,-92.23C93.5,-106.49 93.5,-123.3 93.5,-140.77"/>
<polygon fill="none" stroke="black" points="90,-141.12 93.5,-151.12 97,-141.12 90,-141.12"/>
</g>
<!-- basicsr.ops.fused_act.fused_act.FusedLeakyReLU -->
<g id="node4" class="node">
<title>basicsr.ops.fused_act.fused_act.FusedLeakyReLU</title>
<polygon fill="none" stroke="black" points="936,-0.5 936,-99.5 1103,-99.5 1103,-0.5 936,-0.5"/>
<text text-anchor="middle" x="1019.5" y="-84.3" font-family="Times,serif" font-size="14.00">FusedLeakyReLU</text>
<polyline fill="none" stroke="black" points="936,-76.5 1103,-76.5 "/>
<text text-anchor="start" x="944" y="-61.3" font-family="Times,serif" font-size="14.00">bias</text>
<text text-anchor="start" x="944" y="-46.3" font-family="Times,serif" font-size="14.00">negative_slope : float</text>
<text text-anchor="start" x="944" y="-31.3" font-family="Times,serif" font-size="14.00">scale : float</text>
<polyline fill="none" stroke="black" points="936,-23.5 1103,-23.5 "/>
<text text-anchor="start" x="944" y="-8.3" font-family="Times,serif" font-size="14.00">forward(input)</text>
</g>
<!-- basicsr.ops.fused_act.fused_act.FusedLeakyReLUFunction -->
<g id="node5" class="node">
<title>basicsr.ops.fused_act.fused_act.FusedLeakyReLUFunction</title>
<polygon fill="none" stroke="black" points="1121.5,-7.5 1121.5,-92.5 1471.5,-92.5 1471.5,-7.5 1121.5,-7.5"/>
<text text-anchor="middle" x="1296.5" y="-77.3" font-family="Times,serif" font-size="14.00">FusedLeakyReLUFunction</text>
<polyline fill="none" stroke="black" points="1121.5,-69.5 1471.5,-69.5 "/>
<polyline fill="none" stroke="black" points="1121.5,-45.5 1471.5,-45.5 "/>
<text text-anchor="start" x="1129.5" y="-30.3" font-family="Times,serif" font-size="14.00">backward(ctx, grad_output)</text>
<text text-anchor="start" x="1129.5" y="-15.3" font-family="Times,serif" font-size="14.00">forward(ctx, input, bias, negative_slope, scale)</text>
</g>
<!-- basicsr.ops.fused_act.fused_act.FusedLeakyReLUFunctionBackward -->
<g id="node6" class="node">
<title>basicsr.ops.fused_act.fused_act.FusedLeakyReLUFunctionBackward</title>
<polygon fill="none" stroke="black" points="1490,-7.5 1490,-92.5 1883,-92.5 1883,-7.5 1490,-7.5"/>
<text text-anchor="middle" x="1686.5" y="-77.3" font-family="Times,serif" font-size="14.00">FusedLeakyReLUFunctionBackward</text>
<polyline fill="none" stroke="black" points="1490,-69.5 1883,-69.5 "/>
<polyline fill="none" stroke="black" points="1490,-45.5 1883,-45.5 "/>
<text text-anchor="start" x="1498" y="-30.3" font-family="Times,serif" font-size="14.00">backward(ctx, gradgrad_input, gradgrad_bias)</text>
<text text-anchor="start" x="1498" y="-15.3" font-family="Times,serif" font-size="14.00">forward(ctx, grad_output, out, negative_slope, scale)</text>
</g>
<!-- basicsr.ops.dcn.deform_conv.ModulatedDeformConv -->
<g id="node7" class="node">
<title>basicsr.ops.dcn.deform_conv.ModulatedDeformConv</title>
<polygon fill="none" stroke="black" points="1915,-136.5 1915,-400.5 2102,-400.5 2102,-136.5 1915,-136.5"/>
<text text-anchor="middle" x="2008.5" y="-385.3" font-family="Times,serif" font-size="14.00">ModulatedDeformConv</text>
<polyline fill="none" stroke="black" points="1915,-377.5 2102,-377.5 "/>
<text text-anchor="start" x="1923" y="-362.3" font-family="Times,serif" font-size="14.00">bias</text>
<text text-anchor="start" x="1923" y="-347.3" font-family="Times,serif" font-size="14.00">deformable_groups : int</text>
<text text-anchor="start" x="1923" y="-332.3" font-family="Times,serif" font-size="14.00">dilation : int</text>
<text text-anchor="start" x="1923" y="-317.3" font-family="Times,serif" font-size="14.00">groups : int</text>
<text text-anchor="start" x="1923" y="-302.3" font-family="Times,serif" font-size="14.00">in_channels</text>
<text text-anchor="start" x="1923" y="-287.3" font-family="Times,serif" font-size="14.00">kernel_size</text>
<text text-anchor="start" x="1923" y="-272.3" font-family="Times,serif" font-size="14.00">out_channels</text>
<text text-anchor="start" x="1923" y="-257.3" font-family="Times,serif" font-size="14.00">output_padding</text>
<text text-anchor="start" x="1923" y="-242.3" font-family="Times,serif" font-size="14.00">padding : int</text>
<text text-anchor="start" x="1923" y="-227.3" font-family="Times,serif" font-size="14.00">stride : int</text>
<text text-anchor="start" x="1923" y="-212.3" font-family="Times,serif" font-size="14.00">transposed : bool</text>
<text text-anchor="start" x="1923" y="-197.3" font-family="Times,serif" font-size="14.00">weight</text>
<text text-anchor="start" x="1923" y="-182.3" font-family="Times,serif" font-size="14.00">with_bias : bool</text>
<polyline fill="none" stroke="black" points="1915,-174.5 2102,-174.5 "/>
<text text-anchor="start" x="1923" y="-159.3" font-family="Times,serif" font-size="14.00">forward(x, offset, mask)</text>
<text text-anchor="start" x="1923" y="-144.3" font-family="Times,serif" font-size="14.00">init_weights()</text>
</g>
<!-- basicsr.ops.dcn.deform_conv.ModulatedDeformConvFunction -->
<g id="node8" class="node">
<title>basicsr.ops.dcn.deform_conv.ModulatedDeformConvFunction</title>
<polygon fill="none" stroke="black" points="2134.5,-7.5 2134.5,-92.5 2862.5,-92.5 2862.5,-7.5 2134.5,-7.5"/>
<text text-anchor="middle" x="2498.5" y="-77.3" font-family="Times,serif" font-size="14.00">ModulatedDeformConvFunction</text>
<polyline fill="none" stroke="black" points="2134.5,-69.5 2862.5,-69.5 "/>
<polyline fill="none" stroke="black" points="2134.5,-45.5 2862.5,-45.5 "/>
<text text-anchor="start" x="2142.5" y="-30.3" font-family="Times,serif" font-size="14.00">backward(ctx, grad_output)</text>
<text text-anchor="start" x="2142.5" y="-15.3" font-family="Times,serif" font-size="14.00">forward(ctx, input, offset, mask, weight, bias, stride, padding, dilation, groups, deformable_groups)</text>
</g>
<!-- basicsr.ops.dcn.deform_conv.ModulatedDeformConvPack -->
<g id="node9" class="node">
<title>basicsr.ops.dcn.deform_conv.ModulatedDeformConvPack</title>
<polygon fill="none" stroke="black" points="1901,-8 1901,-92 2116,-92 2116,-8 1901,-8"/>
<text text-anchor="middle" x="2008.5" y="-76.8" font-family="Times,serif" font-size="14.00">ModulatedDeformConvPack</text>
<polyline fill="none" stroke="black" points="1901,-69 2116,-69 "/>
<text text-anchor="start" x="1909" y="-53.8" font-family="Times,serif" font-size="14.00">conv_offset</text>
<polyline fill="none" stroke="black" points="1901,-46 2116,-46 "/>
<text text-anchor="start" x="1909" y="-30.8" font-family="Times,serif" font-size="14.00">forward(x)</text>
<text text-anchor="start" x="1909" y="-15.8" font-family="Times,serif" font-size="14.00">init_weights()</text>
</g>
<!-- basicsr.ops.dcn.deform_conv.ModulatedDeformConvPack&#45;&gt;basicsr.ops.dcn.deform_conv.ModulatedDeformConv -->
<g id="edge2" class="edge">
<title>basicsr.ops.dcn.deform_conv.ModulatedDeformConvPack&#45;&gt;basicsr.ops.dcn.deform_conv.ModulatedDeformConv</title>
<path fill="none" stroke="black" d="M2008.5,-92.23C2008.5,-102.39 2008.5,-113.85 2008.5,-125.92"/>
<polygon fill="none" stroke="black" points="2005,-126.19 2008.5,-136.19 2012,-126.19 2005,-126.19"/>
</g>
<!-- basicsr.ops.upfirdn2d.upfirdn2d.UpFirDn2d -->
<g id="node10" class="node">
<title>basicsr.ops.upfirdn2d.upfirdn2d.UpFirDn2d</title>
<polygon fill="none" stroke="black" points="2881,-7.5 2881,-92.5 3196,-92.5 3196,-7.5 2881,-7.5"/>
<text text-anchor="middle" x="3038.5" y="-77.3" font-family="Times,serif" font-size="14.00">UpFirDn2d</text>
<polyline fill="none" stroke="black" points="2881,-69.5 3196,-69.5 "/>
<polyline fill="none" stroke="black" points="2881,-45.5 3196,-45.5 "/>
<text text-anchor="start" x="2889" y="-30.3" font-family="Times,serif" font-size="14.00">backward(ctx, grad_output)</text>
<text text-anchor="start" x="2889" y="-15.3" font-family="Times,serif" font-size="14.00">forward(ctx, input, kernel, up, down, pad)</text>
</g>
<!-- basicsr.ops.upfirdn2d.upfirdn2d.UpFirDn2dBackward -->
<g id="node11" class="node">
<title>basicsr.ops.upfirdn2d.upfirdn2d.UpFirDn2dBackward</title>
<polygon fill="none" stroke="black" points="3214,-7.5 3214,-92.5 3847,-92.5 3847,-7.5 3214,-7.5"/>
<text text-anchor="middle" x="3530.5" y="-77.3" font-family="Times,serif" font-size="14.00">UpFirDn2dBackward</text>
<polyline fill="none" stroke="black" points="3214,-69.5 3847,-69.5 "/>
<polyline fill="none" stroke="black" points="3214,-45.5 3847,-45.5 "/>
<text text-anchor="start" x="3222" y="-30.3" font-family="Times,serif" font-size="14.00">backward(ctx, gradgrad_input)</text>
<text text-anchor="start" x="3222" y="-15.3" font-family="Times,serif" font-size="14.00">forward(ctx, grad_output, kernel, grad_kernel, up, down, pad, g_pad, in_size, out_size)</text>
</g>
</g>
</svg>
