<?xml version="1.0" encoding="UTF-8" standalone="no"?>
<!DOCTYPE svg PUBLIC "-//W3C//DTD SVG 1.1//EN"
 "http://www.w3.org/Graphics/SVG/1.1/DTD/svg11.dtd">
<!-- Generated by graphviz version 2.50.0 (0)
 -->
<!-- Title: packages_basicsr.ops Pages: 1 -->
<svg width="1175pt" height="116pt"
 viewBox="0.00 0.00 1174.50 116.00" xmlns="http://www.w3.org/2000/svg" xmlns:xlink="http://www.w3.org/1999/xlink">
<g id="graph0" class="graph" transform="scale(1 1) rotate(0) translate(4 112)">
<title>packages_basicsr.ops</title>
<polygon fill="white" stroke="transparent" points="-4,4 -4,-112 1170.5,-112 1170.5,4 -4,4"/>
<!-- basicsr.ops -->
<g id="node1" class="node">
<title>basicsr.ops</title>
<polygon fill="none" stroke="black" points="95,-36 0,-36 0,0 95,0 95,-36"/>
<text text-anchor="middle" x="47.5" y="-14.3" font-family="Times,serif" font-size="14.00">basicsr.ops</text>
</g>
<!-- basicsr.ops.dcn -->
<g id="node2" class="node">
<title>basicsr.ops.dcn</title>
<polygon fill="none" stroke="black" points="238,-36 113,-36 113,0 238,0 238,-36"/>
<text text-anchor="middle" x="175.5" y="-14.3" font-family="Times,serif" font-size="14.00">basicsr.ops.dcn</text>
</g>
<!-- basicsr.ops.dcn.deform_conv -->
<g id="node3" class="node">
<title>basicsr.ops.dcn.deform_conv</title>
<polygon fill="none" stroke="black" points="286,-108 65,-108 65,-72 286,-72 286,-108"/>
<text text-anchor="middle" x="175.5" y="-86.3" font-family="Times,serif" font-size="14.00">basicsr.ops.dcn.deform_conv</text>
</g>
<!-- basicsr.ops.dcn&#45;&gt;basicsr.ops.dcn.deform_conv -->
<g id="edge1" class="edge">
<title>basicsr.ops.dcn&#45;&gt;basicsr.ops.dcn.deform_conv</title>
<path fill="none" stroke="black" d="M175.5,-36.3C175.5,-44.02 175.5,-53.29 175.5,-61.89"/>
<polygon fill="black" stroke="black" points="175.5,-71.9 171,-61.9 175.5,-66.9 175.5,-61.9 175.5,-61.9 175.5,-61.9 175.5,-66.9 180,-61.9 175.5,-71.9 175.5,-71.9"/>
</g>
<!-- basicsr.ops.fused_act -->
<g id="node4" class="node">
<title>basicsr.ops.fused_act</title>
<polygon fill="none" stroke="black" points="423,-36 256,-36 256,0 423,0 423,-36"/>
<text text-anchor="middle" x="339.5" y="-14.3" font-family="Times,serif" font-size="14.00">basicsr.ops.fused_act</text>
</g>
<!-- basicsr.ops.fused_act&#45;&gt;basicsr.ops.fused_act -->
<g id="edge2" class="edge">
<title>basicsr.ops.fused_act&#45;&gt;basicsr.ops.fused_act</title>
<path fill="none" stroke="black" d="M423.12,-6.17C433.89,-8.22 441,-12.16 441,-18 441,-21.83 437.94,-24.84 432.79,-27.04"/>
<polygon fill="black" stroke="black" points="423.12,-29.83 431.48,-22.74 427.92,-28.45 432.73,-27.06 432.73,-27.06 432.73,-27.06 427.92,-28.45 433.98,-31.39 423.12,-29.83 423.12,-29.83"/>
</g>
<!-- basicsr.ops.fused_act.fused_act -->
<g id="node5" class="node">
<title>basicsr.ops.fused_act.fused_act</title>
<polygon fill="none" stroke="black" points="698,-36 459,-36 459,0 698,0 698,-36"/>
<text text-anchor="middle" x="578.5" y="-14.3" font-family="Times,serif" font-size="14.00">basicsr.ops.fused_act.fused_act</text>
</g>
<!-- basicsr.ops.upfirdn2d -->
<g id="node6" class="node">
<title>basicsr.ops.upfirdn2d</title>
<polygon fill="none" stroke="black" points="886.5,-36 716.5,-36 716.5,0 886.5,0 886.5,-36"/>
<text text-anchor="middle" x="801.5" y="-14.3" font-family="Times,serif" font-size="14.00">basicsr.ops.upfirdn2d</text>
</g>
<!-- basicsr.ops.upfirdn2d&#45;&gt;basicsr.ops.upfirdn2d -->
<g id="edge3" class="edge">
<title>basicsr.ops.upfirdn2d&#45;&gt;basicsr.ops.upfirdn2d</title>
<path fill="none" stroke="black" d="M886.75,-6.24C897.45,-8.32 904.5,-12.23 904.5,-18 904.5,-21.78 901.47,-24.77 896.35,-26.97"/>
<polygon fill="black" stroke="black" points="886.75,-29.76 895.1,-22.64 891.55,-28.36 896.35,-26.97 896.35,-26.97 896.35,-26.97 891.55,-28.36 897.61,-31.29 886.75,-29.76 886.75,-29.76"/>
</g>
<!-- basicsr.ops.upfirdn2d.upfirdn2d -->
<g id="node7" class="node">
<title>basicsr.ops.upfirdn2d.upfirdn2d</title>
<polygon fill="none" stroke="black" points="1166.5,-36 922.5,-36 922.5,0 1166.5,0 1166.5,-36"/>
<text text-anchor="middle" x="1044.5" y="-14.3" font-family="Times,serif" font-size="14.00">basicsr.ops.upfirdn2d.upfirdn2d</text>
</g>
</g>
</svg>
