<?xml version="1.0" encoding="UTF-8" standalone="no"?>
<!DOCTYPE svg PUBLIC "-//W3C//DTD SVG 1.1//EN"
 "http://www.w3.org/Graphics/SVG/1.1/DTD/svg11.dtd">
<!-- Generated by graphviz version 2.50.0 (0)
 -->
<!-- Title: classes_basicsr.ops.dcn Pages: 1 -->
<svg width="1906pt" height="395pt"
 viewBox="0.00 0.00 1905.50 395.00" xmlns="http://www.w3.org/2000/svg" xmlns:xlink="http://www.w3.org/1999/xlink">
<g id="graph0" class="graph" transform="scale(1 1) rotate(0) translate(4 391)">
<title>classes_basicsr.ops.dcn</title>
<polygon fill="white" stroke="transparent" points="-4,4 -4,-391 1901.5,-391 1901.5,4 -4,4"/>
<!-- basicsr.ops.dcn.deform_conv.DeformConv -->
<g id="node1" class="node">
<title>basicsr.ops.dcn.deform_conv.DeformConv</title>
<polygon fill="none" stroke="black" points="0,-137.5 0,-371.5 187,-371.5 187,-137.5 0,-137.5"/>
<text text-anchor="middle" x="93.5" y="-356.3" font-family="Times,serif" font-size="14.00">DeformConv</text>
<polyline fill="none" stroke="black" points="0,-348.5 187,-348.5 "/>
<text text-anchor="start" x="8" y="-333.3" font-family="Times,serif" font-size="14.00">deformable_groups : int</text>
<text text-anchor="start" x="8" y="-318.3" font-family="Times,serif" font-size="14.00">dilation</text>
<text text-anchor="start" x="8" y="-303.3" font-family="Times,serif" font-size="14.00">groups : int</text>
<text text-anchor="start" x="8" y="-288.3" font-family="Times,serif" font-size="14.00">in_channels</text>
<text text-anchor="start" x="8" y="-273.3" font-family="Times,serif" font-size="14.00">kernel_size</text>
<text text-anchor="start" x="8" y="-258.3" font-family="Times,serif" font-size="14.00">out_channels</text>
<text text-anchor="start" x="8" y="-243.3" font-family="Times,serif" font-size="14.00">output_padding</text>
<text text-anchor="start" x="8" y="-228.3" font-family="Times,serif" font-size="14.00">padding</text>
<text text-anchor="start" x="8" y="-213.3" font-family="Times,serif" font-size="14.00">stride</text>
<text text-anchor="start" x="8" y="-198.3" font-family="Times,serif" font-size="14.00">transposed : bool</text>
<text text-anchor="start" x="8" y="-183.3" font-family="Times,serif" font-size="14.00">weight</text>
<polyline fill="none" stroke="black" points="0,-175.5 187,-175.5 "/>
<text text-anchor="start" x="8" y="-160.3" font-family="Times,serif" font-size="14.00">forward(x, offset)</text>
<text text-anchor="start" x="8" y="-145.3" font-family="Times,serif" font-size="14.00">reset_parameters()</text>
</g>
<!-- basicsr.ops.dcn.deform_conv.DeformConvFunction -->
<g id="node2" class="node">
<title>basicsr.ops.dcn.deform_conv.DeformConvFunction</title>
<polygon fill="none" stroke="black" points="181,-0.5 181,-85.5 918,-85.5 918,-0.5 181,-0.5"/>
<text text-anchor="middle" x="549.5" y="-70.3" font-family="Times,serif" font-size="14.00">DeformConvFunction</text>
<polyline fill="none" stroke="black" points="181,-62.5 918,-62.5 "/>
<polyline fill="none" stroke="black" points="181,-38.5 918,-38.5 "/>
<text text-anchor="start" x="189" y="-23.3" font-family="Times,serif" font-size="14.00">backward(ctx, grad_output)</text>
<text text-anchor="start" x="189" y="-8.3" font-family="Times,serif" font-size="14.00">forward(ctx, input, offset, weight, stride, padding, dilation, groups, deformable_groups, im2col_step)</text>
</g>
<!-- basicsr.ops.dcn.deform_conv.DeformConvPack -->
<g id="node3" class="node">
<title>basicsr.ops.dcn.deform_conv.DeformConvPack</title>
<polygon fill="none" stroke="black" points="24,-1 24,-85 163,-85 163,-1 24,-1"/>
<text text-anchor="middle" x="93.5" y="-69.8" font-family="Times,serif" font-size="14.00">DeformConvPack</text>
<polyline fill="none" stroke="black" points="24,-62 163,-62 "/>
<text text-anchor="start" x="32" y="-46.8" font-family="Times,serif" font-size="14.00">conv_offset</text>
<polyline fill="none" stroke="black" points="24,-39 163,-39 "/>
<text text-anchor="start" x="32" y="-23.8" font-family="Times,serif" font-size="14.00">forward(x)</text>
<text text-anchor="start" x="32" y="-8.8" font-family="Times,serif" font-size="14.00">init_offset()</text>
</g>
<!-- basicsr.ops.dcn.deform_conv.DeformConvPack&#45;&gt;basicsr.ops.dcn.deform_conv.DeformConv -->
<g id="edge1" class="edge">
<title>basicsr.ops.dcn.deform_conv.DeformConvPack&#45;&gt;basicsr.ops.dcn.deform_conv.DeformConv</title>
<path fill="none" stroke="black" d="M93.5,-85.39C93.5,-97.79 93.5,-112.09 93.5,-127.01"/>
<polygon fill="none" stroke="black" points="90,-127.41 93.5,-137.42 97,-127.42 90,-127.41"/>
</g>
<!-- basicsr.ops.dcn.deform_conv.ModulatedDeformConv -->
<g id="node4" class="node">
<title>basicsr.ops.dcn.deform_conv.ModulatedDeformConv</title>
<polygon fill="none" stroke="black" points="950,-122.5 950,-386.5 1137,-386.5 1137,-122.5 950,-122.5"/>
<text text-anchor="middle" x="1043.5" y="-371.3" font-family="Times,serif" font-size="14.00">ModulatedDeformConv</text>
<polyline fill="none" stroke="black" points="950,-363.5 1137,-363.5 "/>
<text text-anchor="start" x="958" y="-348.3" font-family="Times,serif" font-size="14.00">bias</text>
<text text-anchor="start" x="958" y="-333.3" font-family="Times,serif" font-size="14.00">deformable_groups : int</text>
<text text-anchor="start" x="958" y="-318.3" font-family="Times,serif" font-size="14.00">dilation : int</text>
<text text-anchor="start" x="958" y="-303.3" font-family="Times,serif" font-size="14.00">groups : int</text>
<text text-anchor="start" x="958" y="-288.3" font-family="Times,serif" font-size="14.00">in_channels</text>
<text text-anchor="start" x="958" y="-273.3" font-family="Times,serif" font-size="14.00">kernel_size</text>
<text text-anchor="start" x="958" y="-258.3" font-family="Times,serif" font-size="14.00">out_channels</text>
<text text-anchor="start" x="958" y="-243.3" font-family="Times,serif" font-size="14.00">output_padding</text>
<text text-anchor="start" x="958" y="-228.3" font-family="Times,serif" font-size="14.00">padding : int</text>
<text text-anchor="start" x="958" y="-213.3" font-family="Times,serif" font-size="14.00">stride : int</text>
<text text-anchor="start" x="958" y="-198.3" font-family="Times,serif" font-size="14.00">transposed : bool</text>
<text text-anchor="start" x="958" y="-183.3" font-family="Times,serif" font-size="14.00">weight</text>
<text text-anchor="start" x="958" y="-168.3" font-family="Times,serif" font-size="14.00">with_bias : bool</text>
<polyline fill="none" stroke="black" points="950,-160.5 1137,-160.5 "/>
<text text-anchor="start" x="958" y="-145.3" font-family="Times,serif" font-size="14.00">forward(x, offset, mask)</text>
<text text-anchor="start" x="958" y="-130.3" font-family="Times,serif" font-size="14.00">init_weights()</text>
</g>
<!-- basicsr.ops.dcn.deform_conv.ModulatedDeformConvFunction -->
<g id="node5" class="node">
<title>basicsr.ops.dcn.deform_conv.ModulatedDeformConvFunction</title>
<polygon fill="none" stroke="black" points="1169.5,-0.5 1169.5,-85.5 1897.5,-85.5 1897.5,-0.5 1169.5,-0.5"/>
<text text-anchor="middle" x="1533.5" y="-70.3" font-family="Times,serif" font-size="14.00">ModulatedDeformConvFunction</text>
<polyline fill="none" stroke="black" points="1169.5,-62.5 1897.5,-62.5 "/>
<polyline fill="none" stroke="black" points="1169.5,-38.5 1897.5,-38.5 "/>
<text text-anchor="start" x="1177.5" y="-23.3" font-family="Times,serif" font-size="14.00">backward(ctx, grad_output)</text>
<text text-anchor="start" x="1177.5" y="-8.3" font-family="Times,serif" font-size="14.00">forward(ctx, input, offset, mask, weight, bias, stride, padding, dilation, groups, deformable_groups)</text>
</g>
<!-- basicsr.ops.dcn.deform_conv.ModulatedDeformConvPack -->
<g id="node6" class="node">
<title>basicsr.ops.dcn.deform_conv.ModulatedDeformConvPack</title>
<polygon fill="none" stroke="black" points="936,-1 936,-85 1151,-85 1151,-1 936,-1"/>
<text text-anchor="middle" x="1043.5" y="-69.8" font-family="Times,serif" font-size="14.00">ModulatedDeformConvPack</text>
<polyline fill="none" stroke="black" points="936,-62 1151,-62 "/>
<text text-anchor="start" x="944" y="-46.8" font-family="Times,serif" font-size="14.00">conv_offset</text>
<polyline fill="none" stroke="black" points="936,-39 1151,-39 "/>
<text text-anchor="start" x="944" y="-23.8" font-family="Times,serif" font-size="14.00">forward(x)</text>
<text text-anchor="start" x="944" y="-8.8" font-family="Times,serif" font-size="14.00">init_weights()</text>
</g>
<!-- basicsr.ops.dcn.deform_conv.ModulatedDeformConvPack&#45;&gt;basicsr.ops.dcn.deform_conv.ModulatedDeformConv -->
<g id="edge2" class="edge">
<title>basicsr.ops.dcn.deform_conv.ModulatedDeformConvPack&#45;&gt;basicsr.ops.dcn.deform_conv.ModulatedDeformConv</title>
<path fill="none" stroke="black" d="M1043.5,-85.39C1043.5,-93.62 1043.5,-102.69 1043.5,-112.22"/>
<polygon fill="none" stroke="black" points="1040,-112.3 1043.5,-122.3 1047,-112.3 1040,-112.3"/>
</g>
</g>
</svg>
