<?xml version="1.0" encoding="UTF-8" standalone="no"?>
<!DOCTYPE svg PUBLIC "-//W3C//DTD SVG 1.1//EN"
 "http://www.w3.org/Graphics/SVG/1.1/DTD/svg11.dtd">
<!-- Generated by graphviz version 2.50.0 (0)
 -->
<!-- Title: packages_basicsr.ops.dcn Pages: 1 -->
<svg width="229pt" height="116pt"
 viewBox="0.00 0.00 229.00 116.00" xmlns="http://www.w3.org/2000/svg" xmlns:xlink="http://www.w3.org/1999/xlink">
<g id="graph0" class="graph" transform="scale(1 1) rotate(0) translate(4 112)">
<title>packages_basicsr.ops.dcn</title>
<polygon fill="white" stroke="transparent" points="-4,4 -4,-112 225,-112 225,4 -4,4"/>
<!-- basicsr.ops.dcn -->
<g id="node1" class="node">
<title>basicsr.ops.dcn</title>
<polygon fill="none" stroke="black" points="173,-36 48,-36 48,0 173,0 173,-36"/>
<text text-anchor="middle" x="110.5" y="-14.3" font-family="Times,serif" font-size="14.00">basicsr.ops.dcn</text>
</g>
<!-- basicsr.ops.dcn.deform_conv -->
<g id="node2" class="node">
<title>basicsr.ops.dcn.deform_conv</title>
<polygon fill="none" stroke="black" points="221,-108 0,-108 0,-72 221,-72 221,-108"/>
<text text-anchor="middle" x="110.5" y="-86.3" font-family="Times,serif" font-size="14.00">basicsr.ops.dcn.deform_conv</text>
</g>
<!-- basicsr.ops.dcn&#45;&gt;basicsr.ops.dcn.deform_conv -->
<g id="edge1" class="edge">
<title>basicsr.ops.dcn&#45;&gt;basicsr.ops.dcn.deform_conv</title>
<path fill="none" stroke="black" d="M110.5,-36.3C110.5,-44.02 110.5,-53.29 110.5,-61.89"/>
<polygon fill="black" stroke="black" points="110.5,-71.9 106,-61.9 110.5,-66.9 110.5,-61.9 110.5,-61.9 110.5,-61.9 110.5,-66.9 115,-61.9 110.5,-71.9 110.5,-71.9"/>
</g>
</g>
</svg>
