<?xml version="1.0" encoding="UTF-8" standalone="no"?>
<!DOCTYPE svg PUBLIC "-//W3C//DTD SVG 1.1//EN"
 "http://www.w3.org/Graphics/SVG/1.1/DTD/svg11.dtd">
<!-- Generated by graphviz version 2.50.0 (0)
 -->
<!-- Title: classes_basicsr.losses.basic_loss Pages: 1 -->
<svg width="886pt" height="274pt"
 viewBox="0.00 0.00 885.50 274.00" xmlns="http://www.w3.org/2000/svg" xmlns:xlink="http://www.w3.org/1999/xlink">
<g id="graph0" class="graph" transform="scale(1 1) rotate(0) translate(4 270)">
<title>classes_basicsr.losses.basic_loss</title>
<polygon fill="white" stroke="transparent" points="-4,4 -4,-270 881.5,-270 881.5,4 -4,4"/>
<!-- basicsr.losses.basic_loss.CharbonnierLoss -->
<g id="node1" class="node">
<title>basicsr.losses.basic_loss.CharbonnierLoss</title>
<polygon fill="none" stroke="black" points="0,-23 0,-122 227,-122 227,-23 0,-23"/>
<text text-anchor="middle" x="113.5" y="-106.8" font-family="Times,serif" font-size="14.00">CharbonnierLoss</text>
<polyline fill="none" stroke="black" points="0,-99 227,-99 "/>
<text text-anchor="start" x="8" y="-83.8" font-family="Times,serif" font-size="14.00">eps : float</text>
<text text-anchor="start" x="8" y="-68.8" font-family="Times,serif" font-size="14.00">loss_weight : float</text>
<text text-anchor="start" x="8" y="-53.8" font-family="Times,serif" font-size="14.00">reduction : str</text>
<polyline fill="none" stroke="black" points="0,-46 227,-46 "/>
<text text-anchor="start" x="8" y="-30.8" font-family="Times,serif" font-size="14.00">forward(pred, target, weight)</text>
</g>
<!-- basicsr.losses.basic_loss.L1Loss -->
<g id="node2" class="node">
<title>basicsr.losses.basic_loss.L1Loss</title>
<polygon fill="none" stroke="black" points="219,-181.5 219,-265.5 446,-265.5 446,-181.5 219,-181.5"/>
<text text-anchor="middle" x="332.5" y="-250.3" font-family="Times,serif" font-size="14.00">L1Loss</text>
<polyline fill="none" stroke="black" points="219,-242.5 446,-242.5 "/>
<text text-anchor="start" x="227" y="-227.3" font-family="Times,serif" font-size="14.00">loss_weight : float</text>
<text text-anchor="start" x="227" y="-212.3" font-family="Times,serif" font-size="14.00">reduction : str</text>
<polyline fill="none" stroke="black" points="219,-204.5 446,-204.5 "/>
<text text-anchor="start" x="227" y="-189.3" font-family="Times,serif" font-size="14.00">forward(pred, target, weight)</text>
</g>
<!-- basicsr.losses.basic_loss.MSELoss -->
<g id="node3" class="node">
<title>basicsr.losses.basic_loss.MSELoss</title>
<polygon fill="none" stroke="black" points="438,-30.5 438,-114.5 665,-114.5 665,-30.5 438,-30.5"/>
<text text-anchor="middle" x="551.5" y="-99.3" font-family="Times,serif" font-size="14.00">MSELoss</text>
<polyline fill="none" stroke="black" points="438,-91.5 665,-91.5 "/>
<text text-anchor="start" x="446" y="-76.3" font-family="Times,serif" font-size="14.00">loss_weight : float</text>
<text text-anchor="start" x="446" y="-61.3" font-family="Times,serif" font-size="14.00">reduction : str</text>
<polyline fill="none" stroke="black" points="438,-53.5 665,-53.5 "/>
<text text-anchor="start" x="446" y="-38.3" font-family="Times,serif" font-size="14.00">forward(pred, target, weight)</text>
</g>
<!-- basicsr.losses.basic_loss.PerceptualLoss -->
<g id="node4" class="node">
<title>basicsr.losses.basic_loss.PerceptualLoss</title>
<polygon fill="none" stroke="black" points="683.5,-0.5 683.5,-144.5 877.5,-144.5 877.5,-0.5 683.5,-0.5"/>
<text text-anchor="middle" x="780.5" y="-129.3" font-family="Times,serif" font-size="14.00">PerceptualLoss</text>
<polyline fill="none" stroke="black" points="683.5,-121.5 877.5,-121.5 "/>
<text text-anchor="start" x="691.5" y="-106.3" font-family="Times,serif" font-size="14.00">criterion : NoneType</text>
<text text-anchor="start" x="691.5" y="-91.3" font-family="Times,serif" font-size="14.00">criterion_type : str</text>
<text text-anchor="start" x="691.5" y="-76.3" font-family="Times,serif" font-size="14.00">layer_weights</text>
<text text-anchor="start" x="691.5" y="-61.3" font-family="Times,serif" font-size="14.00">perceptual_weight : float</text>
<text text-anchor="start" x="691.5" y="-46.3" font-family="Times,serif" font-size="14.00">style_weight : float</text>
<text text-anchor="start" x="691.5" y="-31.3" font-family="Times,serif" font-size="14.00">vgg</text>
<polyline fill="none" stroke="black" points="683.5,-23.5 877.5,-23.5 "/>
<text text-anchor="start" x="691.5" y="-8.3" font-family="Times,serif" font-size="14.00">forward(x, gt)</text>
</g>
<!-- basicsr.losses.basic_loss.WeightedTVLoss -->
<g id="node5" class="node">
<title>basicsr.losses.basic_loss.WeightedTVLoss</title>
<polygon fill="none" stroke="black" points="245.5,-37.5 245.5,-107.5 419.5,-107.5 419.5,-37.5 245.5,-37.5"/>
<text text-anchor="middle" x="332.5" y="-92.3" font-family="Times,serif" font-size="14.00">WeightedTVLoss</text>
<polyline fill="none" stroke="black" points="245.5,-84.5 419.5,-84.5 "/>
<polyline fill="none" stroke="black" points="245.5,-60.5 419.5,-60.5 "/>
<text text-anchor="start" x="253.5" y="-45.3" font-family="Times,serif" font-size="14.00">forward(pred, weight)</text>
</g>
<!-- basicsr.losses.basic_loss.WeightedTVLoss&#45;&gt;basicsr.losses.basic_loss.L1Loss -->
<g id="edge1" class="edge">
<title>basicsr.losses.basic_loss.WeightedTVLoss&#45;&gt;basicsr.losses.basic_loss.L1Loss</title>
<path fill="none" stroke="black" d="M332.5,-107.68C332.5,-126.51 332.5,-150.26 332.5,-171.26"/>
<polygon fill="none" stroke="black" points="329,-171.32 332.5,-181.32 336,-171.32 329,-171.32"/>
</g>
</g>
</svg>
