<?xml version="1.0" encoding="UTF-8" standalone="no"?>
<!DOCTYPE svg PUBLIC "-//W3C//DTD SVG 1.1//EN"
 "http://www.w3.org/Graphics/SVG/1.1/DTD/svg11.dtd">
<!-- Generated by graphviz version 2.50.0 (0)
 -->
<!-- Title: classes_basicsr.losses Pages: 1 -->
<svg width="1216pt" height="334pt"
 viewBox="0.00 0.00 1215.50 334.00" xmlns="http://www.w3.org/2000/svg" xmlns:xlink="http://www.w3.org/1999/xlink">
<g id="graph0" class="graph" transform="scale(1 1) rotate(0) translate(4 330)">
<title>classes_basicsr.losses</title>
<polygon fill="white" stroke="transparent" points="-4,4 -4,-330 1211.5,-330 1211.5,4 -4,4"/>
<!-- basicsr.losses.basic_loss.CharbonnierLoss -->
<g id="node1" class="node">
<title>basicsr.losses.basic_loss.CharbonnierLoss</title>
<polygon fill="none" stroke="black" points="0,-23 0,-122 227,-122 227,-23 0,-23"/>
<text text-anchor="middle" x="113.5" y="-106.8" font-family="Times,serif" font-size="14.00">CharbonnierLoss</text>
<polyline fill="none" stroke="black" points="0,-99 227,-99 "/>
<text text-anchor="start" x="8" y="-83.8" font-family="Times,serif" font-size="14.00">eps : float</text>
<text text-anchor="start" x="8" y="-68.8" font-family="Times,serif" font-size="14.00">loss_weight : float</text>
<text text-anchor="start" x="8" y="-53.8" font-family="Times,serif" font-size="14.00">reduction : str</text>
<polyline fill="none" stroke="black" points="0,-46 227,-46 "/>
<text text-anchor="start" x="8" y="-30.8" font-family="Times,serif" font-size="14.00">forward(pred, target, weight)</text>
</g>
<!-- basicsr.losses.gan_loss.GANLoss -->
<g id="node2" class="node">
<title>basicsr.losses.gan_loss.GANLoss</title>
<polygon fill="none" stroke="black" points="244,-181.5 244,-325.5 531,-325.5 531,-181.5 244,-181.5"/>
<text text-anchor="middle" x="387.5" y="-310.3" font-family="Times,serif" font-size="14.00">GANLoss</text>
<polyline fill="none" stroke="black" points="244,-302.5 531,-302.5 "/>
<text text-anchor="start" x="252" y="-287.3" font-family="Times,serif" font-size="14.00">fake_label_val : float</text>
<text text-anchor="start" x="252" y="-272.3" font-family="Times,serif" font-size="14.00">gan_type</text>
<text text-anchor="start" x="252" y="-257.3" font-family="Times,serif" font-size="14.00">loss</text>
<text text-anchor="start" x="252" y="-242.3" font-family="Times,serif" font-size="14.00">loss_weight : float</text>
<text text-anchor="start" x="252" y="-227.3" font-family="Times,serif" font-size="14.00">real_label_val : float</text>
<polyline fill="none" stroke="black" points="244,-219.5 531,-219.5 "/>
<text text-anchor="start" x="252" y="-204.3" font-family="Times,serif" font-size="14.00">forward(input, target_is_real, is_disc)</text>
<text text-anchor="start" x="252" y="-189.3" font-family="Times,serif" font-size="14.00">get_target_label(input, target_is_real)</text>
</g>
<!-- basicsr.losses.basic_loss.L1Loss -->
<g id="node3" class="node">
<title>basicsr.losses.basic_loss.L1Loss</title>
<polygon fill="none" stroke="black" points="549,-211.5 549,-295.5 776,-295.5 776,-211.5 549,-211.5"/>
<text text-anchor="middle" x="662.5" y="-280.3" font-family="Times,serif" font-size="14.00">L1Loss</text>
<polyline fill="none" stroke="black" points="549,-272.5 776,-272.5 "/>
<text text-anchor="start" x="557" y="-257.3" font-family="Times,serif" font-size="14.00">loss_weight : float</text>
<text text-anchor="start" x="557" y="-242.3" font-family="Times,serif" font-size="14.00">reduction : str</text>
<polyline fill="none" stroke="black" points="549,-234.5 776,-234.5 "/>
<text text-anchor="start" x="557" y="-219.3" font-family="Times,serif" font-size="14.00">forward(pred, target, weight)</text>
</g>
<!-- basicsr.losses.basic_loss.MSELoss -->
<g id="node4" class="node">
<title>basicsr.losses.basic_loss.MSELoss</title>
<polygon fill="none" stroke="black" points="768,-30.5 768,-114.5 995,-114.5 995,-30.5 768,-30.5"/>
<text text-anchor="middle" x="881.5" y="-99.3" font-family="Times,serif" font-size="14.00">MSELoss</text>
<polyline fill="none" stroke="black" points="768,-91.5 995,-91.5 "/>
<text text-anchor="start" x="776" y="-76.3" font-family="Times,serif" font-size="14.00">loss_weight : float</text>
<text text-anchor="start" x="776" y="-61.3" font-family="Times,serif" font-size="14.00">reduction : str</text>
<polyline fill="none" stroke="black" points="768,-53.5 995,-53.5 "/>
<text text-anchor="start" x="776" y="-38.3" font-family="Times,serif" font-size="14.00">forward(pred, target, weight)</text>
</g>
<!-- basicsr.losses.gan_loss.MultiScaleGANLoss -->
<g id="node5" class="node">
<title>basicsr.losses.gan_loss.MultiScaleGANLoss</title>
<polygon fill="none" stroke="black" points="245.5,-37.5 245.5,-107.5 529.5,-107.5 529.5,-37.5 245.5,-37.5"/>
<text text-anchor="middle" x="387.5" y="-92.3" font-family="Times,serif" font-size="14.00">MultiScaleGANLoss</text>
<polyline fill="none" stroke="black" points="245.5,-84.5 529.5,-84.5 "/>
<polyline fill="none" stroke="black" points="245.5,-60.5 529.5,-60.5 "/>
<text text-anchor="start" x="253.5" y="-45.3" font-family="Times,serif" font-size="14.00">forward(input, target_is_real, is_disc)</text>
</g>
<!-- basicsr.losses.gan_loss.MultiScaleGANLoss&#45;&gt;basicsr.losses.gan_loss.GANLoss -->
<g id="edge2" class="edge">
<title>basicsr.losses.gan_loss.MultiScaleGANLoss&#45;&gt;basicsr.losses.gan_loss.GANLoss</title>
<path fill="none" stroke="black" d="M387.5,-107.59C387.5,-125.71 387.5,-148.83 387.5,-171.25"/>
<polygon fill="none" stroke="black" points="384,-171.48 387.5,-181.48 391,-171.48 384,-171.48"/>
</g>
<!-- basicsr.losses.basic_loss.PerceptualLoss -->
<g id="node6" class="node">
<title>basicsr.losses.basic_loss.PerceptualLoss</title>
<polygon fill="none" stroke="black" points="1013.5,-0.5 1013.5,-144.5 1207.5,-144.5 1207.5,-0.5 1013.5,-0.5"/>
<text text-anchor="middle" x="1110.5" y="-129.3" font-family="Times,serif" font-size="14.00">PerceptualLoss</text>
<polyline fill="none" stroke="black" points="1013.5,-121.5 1207.5,-121.5 "/>
<text text-anchor="start" x="1021.5" y="-106.3" font-family="Times,serif" font-size="14.00">criterion : NoneType</text>
<text text-anchor="start" x="1021.5" y="-91.3" font-family="Times,serif" font-size="14.00">criterion_type : str</text>
<text text-anchor="start" x="1021.5" y="-76.3" font-family="Times,serif" font-size="14.00">layer_weights</text>
<text text-anchor="start" x="1021.5" y="-61.3" font-family="Times,serif" font-size="14.00">perceptual_weight : float</text>
<text text-anchor="start" x="1021.5" y="-46.3" font-family="Times,serif" font-size="14.00">style_weight : float</text>
<text text-anchor="start" x="1021.5" y="-31.3" font-family="Times,serif" font-size="14.00">vgg</text>
<polyline fill="none" stroke="black" points="1013.5,-23.5 1207.5,-23.5 "/>
<text text-anchor="start" x="1021.5" y="-8.3" font-family="Times,serif" font-size="14.00">forward(x, gt)</text>
</g>
<!-- basicsr.losses.basic_loss.WeightedTVLoss -->
<g id="node7" class="node">
<title>basicsr.losses.basic_loss.WeightedTVLoss</title>
<polygon fill="none" stroke="black" points="575.5,-37.5 575.5,-107.5 749.5,-107.5 749.5,-37.5 575.5,-37.5"/>
<text text-anchor="middle" x="662.5" y="-92.3" font-family="Times,serif" font-size="14.00">WeightedTVLoss</text>
<polyline fill="none" stroke="black" points="575.5,-84.5 749.5,-84.5 "/>
<polyline fill="none" stroke="black" points="575.5,-60.5 749.5,-60.5 "/>
<text text-anchor="start" x="583.5" y="-45.3" font-family="Times,serif" font-size="14.00">forward(pred, weight)</text>
</g>
<!-- basicsr.losses.basic_loss.WeightedTVLoss&#45;&gt;basicsr.losses.basic_loss.L1Loss -->
<g id="edge1" class="edge">
<title>basicsr.losses.basic_loss.WeightedTVLoss&#45;&gt;basicsr.losses.basic_loss.L1Loss</title>
<path fill="none" stroke="black" d="M662.5,-107.59C662.5,-133.99 662.5,-171.01 662.5,-201.02"/>
<polygon fill="none" stroke="black" points="659,-201.31 662.5,-211.31 666,-201.31 659,-201.31"/>
</g>
</g>
</svg>
