<?xml version="1.0" encoding="UTF-8" standalone="no"?>
<!DOCTYPE svg PUBLIC "-//W3C//DTD SVG 1.1//EN"
 "http://www.w3.org/Graphics/SVG/1.1/DTD/svg11.dtd">
<!-- Generated by graphviz version 2.50.0 (0)
 -->
<!-- Title: classes_basicsr.losses.gan_loss Pages: 1 -->
<svg width="295pt" height="260pt"
 viewBox="0.00 0.00 295.00 260.00" xmlns="http://www.w3.org/2000/svg" xmlns:xlink="http://www.w3.org/1999/xlink">
<g id="graph0" class="graph" transform="scale(1 1) rotate(0) translate(4 256)">
<title>classes_basicsr.losses.gan_loss</title>
<polygon fill="white" stroke="transparent" points="-4,4 -4,-256 291,-256 291,4 -4,4"/>
<!-- basicsr.losses.gan_loss.GANLoss -->
<g id="node1" class="node">
<title>basicsr.losses.gan_loss.GANLoss</title>
<polygon fill="none" stroke="black" points="0,-107.5 0,-251.5 287,-251.5 287,-107.5 0,-107.5"/>
<text text-anchor="middle" x="143.5" y="-236.3" font-family="Times,serif" font-size="14.00">GANLoss</text>
<polyline fill="none" stroke="black" points="0,-228.5 287,-228.5 "/>
<text text-anchor="start" x="8" y="-213.3" font-family="Times,serif" font-size="14.00">fake_label_val : float</text>
<text text-anchor="start" x="8" y="-198.3" font-family="Times,serif" font-size="14.00">gan_type</text>
<text text-anchor="start" x="8" y="-183.3" font-family="Times,serif" font-size="14.00">loss</text>
<text text-anchor="start" x="8" y="-168.3" font-family="Times,serif" font-size="14.00">loss_weight : float</text>
<text text-anchor="start" x="8" y="-153.3" font-family="Times,serif" font-size="14.00">real_label_val : float</text>
<polyline fill="none" stroke="black" points="0,-145.5 287,-145.5 "/>
<text text-anchor="start" x="8" y="-130.3" font-family="Times,serif" font-size="14.00">forward(input, target_is_real, is_disc)</text>
<text text-anchor="start" x="8" y="-115.3" font-family="Times,serif" font-size="14.00">get_target_label(input, target_is_real)</text>
</g>
<!-- basicsr.losses.gan_loss.MultiScaleGANLoss -->
<g id="node2" class="node">
<title>basicsr.losses.gan_loss.MultiScaleGANLoss</title>
<polygon fill="none" stroke="black" points="1.5,-0.5 1.5,-70.5 285.5,-70.5 285.5,-0.5 1.5,-0.5"/>
<text text-anchor="middle" x="143.5" y="-55.3" font-family="Times,serif" font-size="14.00">MultiScaleGANLoss</text>
<polyline fill="none" stroke="black" points="1.5,-47.5 285.5,-47.5 "/>
<polyline fill="none" stroke="black" points="1.5,-23.5 285.5,-23.5 "/>
<text text-anchor="start" x="9.5" y="-8.3" font-family="Times,serif" font-size="14.00">forward(input, target_is_real, is_disc)</text>
</g>
<!-- basicsr.losses.gan_loss.MultiScaleGANLoss&#45;&gt;basicsr.losses.gan_loss.GANLoss -->
<g id="edge1" class="edge">
<title>basicsr.losses.gan_loss.MultiScaleGANLoss&#45;&gt;basicsr.losses.gan_loss.GANLoss</title>
<path fill="none" stroke="black" d="M143.5,-70.51C143.5,-78.71 143.5,-87.81 143.5,-97.17"/>
<polygon fill="none" stroke="black" points="140,-97.38 143.5,-107.38 147,-97.38 140,-97.38"/>
</g>
</g>
</svg>
