<?xml version="1.0" encoding="UTF-8" standalone="no"?>
<!DOCTYPE svg PUBLIC "-//W3C//DTD SVG 1.1//EN"
 "http://www.w3.org/Graphics/SVG/1.1/DTD/svg11.dtd">
<!-- Generated by graphviz version 2.50.0 (0)
 -->
<!-- Title: packages_basicsr.losses Pages: 1 -->
<svg width="389pt" height="116pt"
 viewBox="0.00 0.00 388.50 116.00" xmlns="http://www.w3.org/2000/svg" xmlns:xlink="http://www.w3.org/1999/xlink">
<g id="graph0" class="graph" transform="scale(1 1) rotate(0) translate(4 112)">
<title>packages_basicsr.losses</title>
<polygon fill="white" stroke="transparent" points="-4,4 -4,-112 384.5,-112 384.5,4 -4,4"/>
<!-- basicsr.losses -->
<g id="node1" class="node">
<title>basicsr.losses</title>
<polygon fill="none" stroke="black" points="146.5,-36 32.5,-36 32.5,0 146.5,0 146.5,-36"/>
<text text-anchor="middle" x="89.5" y="-14.3" font-family="Times,serif" font-size="14.00">basicsr.losses</text>
</g>
<!-- basicsr.losses.gan_loss -->
<g id="node3" class="node">
<title>basicsr.losses.gan_loss</title>
<polygon fill="none" stroke="black" points="179,-108 0,-108 0,-72 179,-72 179,-108"/>
<text text-anchor="middle" x="89.5" y="-86.3" font-family="Times,serif" font-size="14.00">basicsr.losses.gan_loss</text>
</g>
<!-- basicsr.losses&#45;&gt;basicsr.losses.gan_loss -->
<g id="edge1" class="edge">
<title>basicsr.losses&#45;&gt;basicsr.losses.gan_loss</title>
<path fill="none" stroke="black" d="M89.5,-36.3C89.5,-44.02 89.5,-53.29 89.5,-61.89"/>
<polygon fill="black" stroke="black" points="89.5,-71.9 85,-61.9 89.5,-66.9 89.5,-61.9 89.5,-61.9 89.5,-61.9 89.5,-66.9 94,-61.9 89.5,-71.9 89.5,-71.9"/>
</g>
<!-- basicsr.losses.basic_loss -->
<g id="node2" class="node">
<title>basicsr.losses.basic_loss</title>
<polygon fill="none" stroke="black" points="380.5,-36 190.5,-36 190.5,0 380.5,0 380.5,-36"/>
<text text-anchor="middle" x="285.5" y="-14.3" font-family="Times,serif" font-size="14.00">basicsr.losses.basic_loss</text>
</g>
<!-- basicsr.losses.loss_util -->
<g id="node4" class="node">
<title>basicsr.losses.loss_util</title>
<polygon fill="none" stroke="black" points="374,-108 197,-108 197,-72 374,-72 374,-108"/>
<text text-anchor="middle" x="285.5" y="-86.3" font-family="Times,serif" font-size="14.00">basicsr.losses.loss_util</text>
</g>
<!-- basicsr.losses.basic_loss&#45;&gt;basicsr.losses.loss_util -->
<g id="edge2" class="edge">
<title>basicsr.losses.basic_loss&#45;&gt;basicsr.losses.loss_util</title>
<path fill="none" stroke="black" d="M285.5,-36.3C285.5,-44.02 285.5,-53.29 285.5,-61.89"/>
<polygon fill="black" stroke="black" points="285.5,-71.9 281,-61.9 285.5,-66.9 285.5,-61.9 285.5,-61.9 285.5,-61.9 285.5,-66.9 290,-61.9 285.5,-71.9 285.5,-71.9"/>
</g>
</g>
</svg>
