<?xml version="1.0" encoding="UTF-8" standalone="no"?>
<!DOCTYPE svg PUBLIC "-//W3C//DTD SVG 1.1//EN"
 "http://www.w3.org/Graphics/SVG/1.1/DTD/svg11.dtd">
<!-- Generated by graphviz version 2.50.0 (0)
 -->
<!-- Title: classes_basicsr.ops.upfirdn2d Pages: 1 -->
<svg width="974pt" height="94pt"
 viewBox="0.00 0.00 974.00 94.00" xmlns="http://www.w3.org/2000/svg" xmlns:xlink="http://www.w3.org/1999/xlink">
<g id="graph0" class="graph" transform="scale(1 1) rotate(0) translate(4 90)">
<title>classes_basicsr.ops.upfirdn2d</title>
<polygon fill="white" stroke="transparent" points="-4,4 -4,-90 970,-90 970,4 -4,4"/>
<!-- basicsr.ops.upfirdn2d.upfirdn2d.UpFirDn2d -->
<g id="node1" class="node">
<title>basicsr.ops.upfirdn2d.upfirdn2d.UpFirDn2d</title>
<polygon fill="none" stroke="black" points="0,-0.5 0,-85.5 315,-85.5 315,-0.5 0,-0.5"/>
<text text-anchor="middle" x="157.5" y="-70.3" font-family="Times,serif" font-size="14.00">UpFirDn2d</text>
<polyline fill="none" stroke="black" points="0,-62.5 315,-62.5 "/>
<polyline fill="none" stroke="black" points="0,-38.5 315,-38.5 "/>
<text text-anchor="start" x="8" y="-23.3" font-family="Times,serif" font-size="14.00">backward(ctx, grad_output)</text>
<text text-anchor="start" x="8" y="-8.3" font-family="Times,serif" font-size="14.00">forward(ctx, input, kernel, up, down, pad)</text>
</g>
<!-- basicsr.ops.upfirdn2d.upfirdn2d.UpFirDn2dBackward -->
<g id="node2" class="node">
<title>basicsr.ops.upfirdn2d.upfirdn2d.UpFirDn2dBackward</title>
<polygon fill="none" stroke="black" points="333,-0.5 333,-85.5 966,-85.5 966,-0.5 333,-0.5"/>
<text text-anchor="middle" x="649.5" y="-70.3" font-family="Times,serif" font-size="14.00">UpFirDn2dBackward</text>
<polyline fill="none" stroke="black" points="333,-62.5 966,-62.5 "/>
<polyline fill="none" stroke="black" points="333,-38.5 966,-38.5 "/>
<text text-anchor="start" x="341" y="-23.3" font-family="Times,serif" font-size="14.00">backward(ctx, gradgrad_input)</text>
<text text-anchor="start" x="341" y="-8.3" font-family="Times,serif" font-size="14.00">forward(ctx, grad_output, kernel, grad_kernel, up, down, pad, g_pad, in_size, out_size)</text>
</g>
</g>
</svg>
