<?xml version="1.0" encoding="UTF-8" standalone="no"?>
<!DOCTYPE svg PUBLIC "-//W3C//DTD SVG 1.1//EN"
 "http://www.w3.org/Graphics/SVG/1.1/DTD/svg11.dtd">
<!-- Generated by graphviz version 2.50.0 (0)
 -->
<!-- Title: packages_basicsr.ops.upfirdn2d Pages: 1 -->
<svg width="458pt" height="44pt"
 viewBox="0.00 0.00 458.00 44.00" xmlns="http://www.w3.org/2000/svg" xmlns:xlink="http://www.w3.org/1999/xlink">
<g id="graph0" class="graph" transform="scale(1 1) rotate(0) translate(4 40)">
<title>packages_basicsr.ops.upfirdn2d</title>
<polygon fill="white" stroke="transparent" points="-4,4 -4,-40 454,-40 454,4 -4,4"/>
<!-- basicsr.ops.upfirdn2d -->
<g id="node1" class="node">
<title>basicsr.ops.upfirdn2d</title>
<polygon fill="none" stroke="black" points="170,-36 0,-36 0,0 170,0 170,-36"/>
<text text-anchor="middle" x="85" y="-14.3" font-family="Times,serif" font-size="14.00">basicsr.ops.upfirdn2d</text>
</g>
<!-- basicsr.ops.upfirdn2d&#45;&gt;basicsr.ops.upfirdn2d -->
<g id="edge1" class="edge">
<title>basicsr.ops.upfirdn2d&#45;&gt;basicsr.ops.upfirdn2d</title>
<path fill="none" stroke="black" d="M170.25,-12.12C180.95,-13.16 188,-15.12 188,-18 188,-19.85 185.11,-21.31 180.22,-22.4"/>
<polygon fill="black" stroke="black" points="170.25,-23.88 179.48,-17.96 175.2,-23.15 180.14,-22.41 180.14,-22.41 180.14,-22.41 175.2,-23.15 180.8,-26.87 170.25,-23.88 170.25,-23.88"/>
</g>
<!-- basicsr.ops.upfirdn2d.upfirdn2d -->
<g id="node2" class="node">
<title>basicsr.ops.upfirdn2d.upfirdn2d</title>
<polygon fill="none" stroke="black" points="450,-36 206,-36 206,0 450,0 450,-36"/>
<text text-anchor="middle" x="328" y="-14.3" font-family="Times,serif" font-size="14.00">basicsr.ops.upfirdn2d.upfirdn2d</text>
</g>
</g>
</svg>
