<?xml version="1.0" encoding="UTF-8" standalone="no"?>
<!DOCTYPE svg PUBLIC "-//W3C//DTD SVG 1.1//EN"
 "http://www.w3.org/Graphics/SVG/1.1/DTD/svg11.dtd">
<!-- Generated by graphviz version 2.50.0 (0)
 -->
<!-- Title: classes_basicsr.ops.fused_act Pages: 1 -->
<svg width="955pt" height="108pt"
 viewBox="0.00 0.00 955.00 108.00" xmlns="http://www.w3.org/2000/svg" xmlns:xlink="http://www.w3.org/1999/xlink">
<g id="graph0" class="graph" transform="scale(1 1) rotate(0) translate(4 104)">
<title>classes_basicsr.ops.fused_act</title>
<polygon fill="white" stroke="transparent" points="-4,4 -4,-104 951,-104 951,4 -4,4"/>
<!-- basicsr.ops.fused_act.fused_act.FusedLeakyReLU -->
<g id="node1" class="node">
<title>basicsr.ops.fused_act.fused_act.FusedLeakyReLU</title>
<polygon fill="none" stroke="black" points="0,-0.5 0,-99.5 167,-99.5 167,-0.5 0,-0.5"/>
<text text-anchor="middle" x="83.5" y="-84.3" font-family="Times,serif" font-size="14.00">FusedLeakyReLU</text>
<polyline fill="none" stroke="black" points="0,-76.5 167,-76.5 "/>
<text text-anchor="start" x="8" y="-61.3" font-family="Times,serif" font-size="14.00">bias</text>
<text text-anchor="start" x="8" y="-46.3" font-family="Times,serif" font-size="14.00">negative_slope : float</text>
<text text-anchor="start" x="8" y="-31.3" font-family="Times,serif" font-size="14.00">scale : float</text>
<polyline fill="none" stroke="black" points="0,-23.5 167,-23.5 "/>
<text text-anchor="start" x="8" y="-8.3" font-family="Times,serif" font-size="14.00">forward(input)</text>
</g>
<!-- basicsr.ops.fused_act.fused_act.FusedLeakyReLUFunction -->
<g id="node2" class="node">
<title>basicsr.ops.fused_act.fused_act.FusedLeakyReLUFunction</title>
<polygon fill="none" stroke="black" points="185.5,-7.5 185.5,-92.5 535.5,-92.5 535.5,-7.5 185.5,-7.5"/>
<text text-anchor="middle" x="360.5" y="-77.3" font-family="Times,serif" font-size="14.00">FusedLeakyReLUFunction</text>
<polyline fill="none" stroke="black" points="185.5,-69.5 535.5,-69.5 "/>
<polyline fill="none" stroke="black" points="185.5,-45.5 535.5,-45.5 "/>
<text text-anchor="start" x="193.5" y="-30.3" font-family="Times,serif" font-size="14.00">backward(ctx, grad_output)</text>
<text text-anchor="start" x="193.5" y="-15.3" font-family="Times,serif" font-size="14.00">forward(ctx, input, bias, negative_slope, scale)</text>
</g>
<!-- basicsr.ops.fused_act.fused_act.FusedLeakyReLUFunctionBackward -->
<g id="node3" class="node">
<title>basicsr.ops.fused_act.fused_act.FusedLeakyReLUFunctionBackward</title>
<polygon fill="none" stroke="black" points="554,-7.5 554,-92.5 947,-92.5 947,-7.5 554,-7.5"/>
<text text-anchor="middle" x="750.5" y="-77.3" font-family="Times,serif" font-size="14.00">FusedLeakyReLUFunctionBackward</text>
<polyline fill="none" stroke="black" points="554,-69.5 947,-69.5 "/>
<polyline fill="none" stroke="black" points="554,-45.5 947,-45.5 "/>
<text text-anchor="start" x="562" y="-30.3" font-family="Times,serif" font-size="14.00">backward(ctx, gradgrad_input, gradgrad_bias)</text>
<text text-anchor="start" x="562" y="-15.3" font-family="Times,serif" font-size="14.00">forward(ctx, grad_output, out, negative_slope, scale)</text>
</g>
</g>
</svg>
