<?xml version="1.0" encoding="UTF-8" standalone="no"?>
<!DOCTYPE svg PUBLIC "-//W3C//DTD SVG 1.1//EN"
 "http://www.w3.org/Graphics/SVG/1.1/DTD/svg11.dtd">
<!-- Generated by graphviz version 2.50.0 (0)
 -->
<!-- Title: packages_basicsr.ops.fused_act Pages: 1 -->
<svg width="450pt" height="44pt"
 viewBox="0.00 0.00 450.00 44.00" xmlns="http://www.w3.org/2000/svg" xmlns:xlink="http://www.w3.org/1999/xlink">
<g id="graph0" class="graph" transform="scale(1 1) rotate(0) translate(4 40)">
<title>packages_basicsr.ops.fused_act</title>
<polygon fill="white" stroke="transparent" points="-4,4 -4,-40 446,-40 446,4 -4,4"/>
<!-- basicsr.ops.fused_act -->
<g id="node1" class="node">
<title>basicsr.ops.fused_act</title>
<polygon fill="none" stroke="black" points="167,-36 0,-36 0,0 167,0 167,-36"/>
<text text-anchor="middle" x="83.5" y="-14.3" font-family="Times,serif" font-size="14.00">basicsr.ops.fused_act</text>
</g>
<!-- basicsr.ops.fused_act&#45;&gt;basicsr.ops.fused_act -->
<g id="edge1" class="edge">
<title>basicsr.ops.fused_act&#45;&gt;basicsr.ops.fused_act</title>
<path fill="none" stroke="black" d="M167.12,-12.08C177.89,-13.11 185,-15.08 185,-18 185,-19.87 182.08,-21.35 177.15,-22.44"/>
<polygon fill="black" stroke="black" points="167.12,-23.92 176.36,-18.01 172.07,-23.19 177.01,-22.46 177.01,-22.46 177.01,-22.46 172.07,-23.19 177.67,-26.92 167.12,-23.92 167.12,-23.92"/>
</g>
<!-- basicsr.ops.fused_act.fused_act -->
<g id="node2" class="node">
<title>basicsr.ops.fused_act.fused_act</title>
<polygon fill="none" stroke="black" points="442,-36 203,-36 203,0 442,0 442,-36"/>
<text text-anchor="middle" x="322.5" y="-14.3" font-family="Times,serif" font-size="14.00">basicsr.ops.fused_act.fused_act</text>
</g>
</g>
</svg>
