<?xml version="1.0" encoding="UTF-8" standalone="no"?>
<!DOCTYPE svg PUBLIC "-//W3C//DTD SVG 1.1//EN"
 "http://www.w3.org/Graphics/SVG/1.1/DTD/svg11.dtd">
<!-- Generated by graphviz version 2.50.0 (0)
 -->
<!-- Title: classes_ldm.modules.encoders.modules Pages: 1 -->
<svg width="1839pt" height="532pt"
 viewBox="0.00 0.00 1838.50 532.00" xmlns="http://www.w3.org/2000/svg" xmlns:xlink="http://www.w3.org/1999/xlink">
<g id="graph0" class="graph" transform="scale(1 1) rotate(0) translate(4 528)">
<title>classes_ldm.modules.encoders.modules</title>
<polygon fill="white" stroke="transparent" points="-4,4 -4,-528 1834.5,-528 1834.5,4 -4,4"/>
<!-- encoders.modules.AbstractEncoder -->
<g id="node1" class="node">
<title>encoders.modules.AbstractEncoder</title>
<polygon fill="none" stroke="black" points="383.5,-453.5 383.5,-523.5 520.5,-523.5 520.5,-453.5 383.5,-453.5"/>
<text text-anchor="middle" x="452" y="-508.3" font-family="Times,serif" font-size="14.00">AbstractEncoder</text>
<polyline fill="none" stroke="black" points="383.5,-500.5 520.5,-500.5 "/>
<polyline fill="none" stroke="black" points="383.5,-476.5 520.5,-476.5 "/>
<text text-anchor="start" x="391.5" y="-461.3" font-family="Times,serif" font-size="14.00">encode()</text>
</g>
<!-- encoders.modules.BERTEmbedder -->
<g id="node2" class="node">
<title>encoders.modules.BERTEmbedder</title>
<polygon fill="none" stroke="black" points="86.5,-249 86.5,-378 229.5,-378 229.5,-249 86.5,-249"/>
<text text-anchor="middle" x="158" y="-362.8" font-family="Times,serif" font-size="14.00">BERTEmbedder</text>
<polyline fill="none" stroke="black" points="86.5,-355 229.5,-355 "/>
<text text-anchor="start" x="94.5" y="-339.8" font-family="Times,serif" font-size="14.00">device : str</text>
<text text-anchor="start" x="94.5" y="-324.8" font-family="Times,serif" font-size="14.00">tknz_fn</text>
<text text-anchor="start" x="94.5" y="-309.8" font-family="Times,serif" font-size="14.00">transformer</text>
<text text-anchor="start" x="94.5" y="-294.8" font-family="Times,serif" font-size="14.00">use_tknz_fn : bool</text>
<polyline fill="none" stroke="black" points="86.5,-287 229.5,-287 "/>
<text text-anchor="start" x="94.5" y="-271.8" font-family="Times,serif" font-size="14.00">encode(text)</text>
<text text-anchor="start" x="94.5" y="-256.8" font-family="Times,serif" font-size="14.00">forward(text)</text>
</g>
<!-- encoders.modules.BERTEmbedder&#45;&gt;encoders.modules.AbstractEncoder -->
<g id="edge1" class="edge">
<title>encoders.modules.BERTEmbedder&#45;&gt;encoders.modules.AbstractEncoder</title>
<path fill="none" stroke="black" d="M198.84,-378.08C210.17,-392.06 223.41,-405.74 238,-416 278.28,-444.33 330.6,-462.07 373.43,-472.8"/>
<polygon fill="none" stroke="black" points="372.71,-476.23 383.25,-475.18 374.36,-469.43 372.71,-476.23"/>
</g>
<!-- encoders.modules.BERTTokenizer -->
<g id="node3" class="node">
<title>encoders.modules.BERTTokenizer</title>
<polygon fill="none" stroke="black" points="0,-8 0,-152 148,-152 148,-8 0,-8"/>
<text text-anchor="middle" x="74" y="-136.8" font-family="Times,serif" font-size="14.00">BERTTokenizer</text>
<polyline fill="none" stroke="black" points="0,-129 148,-129 "/>
<text text-anchor="start" x="8" y="-113.8" font-family="Times,serif" font-size="14.00">device : str</text>
<text text-anchor="start" x="8" y="-98.8" font-family="Times,serif" font-size="14.00">max_length : int</text>
<text text-anchor="start" x="8" y="-83.8" font-family="Times,serif" font-size="14.00">tokenizer</text>
<text text-anchor="start" x="8" y="-68.8" font-family="Times,serif" font-size="14.00">vq_interface : bool</text>
<polyline fill="none" stroke="black" points="0,-61 148,-61 "/>
<text text-anchor="start" x="8" y="-45.8" font-family="Times,serif" font-size="14.00">decode(text)</text>
<text text-anchor="start" x="8" y="-30.8" font-family="Times,serif" font-size="14.00">encode(text)</text>
<text text-anchor="start" x="8" y="-15.8" font-family="Times,serif" font-size="14.00">forward(text)</text>
</g>
<!-- encoders.modules.BERTTokenizer&#45;&gt;encoders.modules.AbstractEncoder -->
<g id="edge2" class="edge">
<title>encoders.modules.BERTTokenizer&#45;&gt;encoders.modules.AbstractEncoder</title>
<path fill="none" stroke="black" d="M51.02,-152.01C31.73,-226.6 16.05,-343 77,-416 114.03,-460.35 274.52,-477.45 373.16,-483.85"/>
<polygon fill="none" stroke="black" points="373.19,-487.36 383.39,-484.49 373.63,-480.37 373.19,-487.36"/>
</g>
<!-- encoders.modules.BERTTokenizer&#45;&gt;encoders.modules.BERTEmbedder -->
<g id="edge7" class="edge">
<title>encoders.modules.BERTTokenizer&#45;&gt;encoders.modules.BERTEmbedder</title>
<path fill="none" stroke="black" d="M99.77,-152.03C109.56,-179.01 120.74,-209.82 130.67,-237.19"/>
<polygon fill="black" stroke="black" points="130.75,-237.4 136.56,-241.68 134.84,-248.68 129.04,-244.41 130.75,-237.4"/>
<text text-anchor="middle" x="140" y="-181.8" font-family="Times,serif" font-size="14.00" fill="green">tknz_fn</text>
</g>
<!-- encoders.modules.ClassEmbedder -->
<g id="node4" class="node">
<title>encoders.modules.ClassEmbedder</title>
<polygon fill="none" stroke="black" points="166.5,-38 166.5,-122 323.5,-122 323.5,-38 166.5,-38"/>
<text text-anchor="middle" x="245" y="-106.8" font-family="Times,serif" font-size="14.00">ClassEmbedder</text>
<polyline fill="none" stroke="black" points="166.5,-99 323.5,-99 "/>
<text text-anchor="start" x="174.5" y="-83.8" font-family="Times,serif" font-size="14.00">embedding</text>
<text text-anchor="start" x="174.5" y="-68.8" font-family="Times,serif" font-size="14.00">key : str</text>
<polyline fill="none" stroke="black" points="166.5,-61 323.5,-61 "/>
<text text-anchor="start" x="174.5" y="-45.8" font-family="Times,serif" font-size="14.00">forward(batch, key)</text>
</g>
<!-- encoders.modules.ClipImage2TextEmbedder -->
<g id="node5" class="node">
<title>encoders.modules.ClipImage2TextEmbedder</title>
<polygon fill="none" stroke="black" points="341.5,-30.5 341.5,-129.5 544.5,-129.5 544.5,-30.5 341.5,-30.5"/>
<text text-anchor="middle" x="443" y="-114.3" font-family="Times,serif" font-size="14.00">ClipImage2TextEmbedder</text>
<polyline fill="none" stroke="black" points="341.5,-106.5 544.5,-106.5 "/>
<text text-anchor="start" x="349.5" y="-91.3" font-family="Times,serif" font-size="14.00">antialias : bool</text>
<text text-anchor="start" x="349.5" y="-76.3" font-family="Times,serif" font-size="14.00">model</text>
<polyline fill="none" stroke="black" points="341.5,-68.5 544.5,-68.5 "/>
<text text-anchor="start" x="349.5" y="-53.3" font-family="Times,serif" font-size="14.00">forward(x)</text>
<text text-anchor="start" x="349.5" y="-38.3" font-family="Times,serif" font-size="14.00">preprocess(x)</text>
</g>
<!-- encoders.modules.ClipImageEmbedder -->
<g id="node6" class="node">
<title>encoders.modules.ClipImageEmbedder</title>
<polygon fill="none" stroke="black" points="563,-45.5 563,-114.5 727,-114.5 727,-45.5 563,-45.5"/>
<text text-anchor="middle" x="645" y="-99.3" font-family="Times,serif" font-size="14.00">ClipImageEmbedder</text>
<polyline fill="none" stroke="black" points="563,-91.5 727,-91.5 "/>
<text text-anchor="start" x="571" y="-76.3" font-family="Times,serif" font-size="14.00">encoder</text>
<polyline fill="none" stroke="black" points="563,-68.5 727,-68.5 "/>
<text text-anchor="start" x="571" y="-53.3" font-family="Times,serif" font-size="14.00">forward(x)</text>
</g>
<!-- encoders.modules.ClipImageEmbedderOri -->
<g id="node7" class="node">
<title>encoders.modules.ClipImageEmbedderOri</title>
<polygon fill="none" stroke="black" points="745,-15.5 745,-144.5 931,-144.5 931,-15.5 745,-15.5"/>
<text text-anchor="middle" x="838" y="-129.3" font-family="Times,serif" font-size="14.00">ClipImageEmbedderOri</text>
<polyline fill="none" stroke="black" points="745,-121.5 931,-121.5 "/>
<text text-anchor="start" x="753" y="-106.3" font-family="Times,serif" font-size="14.00">antialias : bool</text>
<text text-anchor="start" x="753" y="-91.3" font-family="Times,serif" font-size="14.00">final_projector</text>
<text text-anchor="start" x="753" y="-76.3" font-family="Times,serif" font-size="14.00">model</text>
<polyline fill="none" stroke="black" points="745,-68.5 931,-68.5 "/>
<text text-anchor="start" x="753" y="-53.3" font-family="Times,serif" font-size="14.00">forward(x)</text>
<text text-anchor="start" x="753" y="-38.3" font-family="Times,serif" font-size="14.00">freeze()</text>
<text text-anchor="start" x="753" y="-23.3" font-family="Times,serif" font-size="14.00">preprocess(x)</text>
</g>
<!-- encoders.modules.FinetuningCLIPEmbedder -->
<g id="node8" class="node">
<title>encoders.modules.FinetuningCLIPEmbedder</title>
<polygon fill="none" stroke="black" points="247.5,-241.5 247.5,-385.5 450.5,-385.5 450.5,-241.5 247.5,-241.5"/>
<text text-anchor="middle" x="349" y="-370.3" font-family="Times,serif" font-size="14.00">FinetuningCLIPEmbedder</text>
<polyline fill="none" stroke="black" points="247.5,-362.5 450.5,-362.5 "/>
<text text-anchor="start" x="255.5" y="-347.3" font-family="Times,serif" font-size="14.00">device : str</text>
<text text-anchor="start" x="255.5" y="-332.3" font-family="Times,serif" font-size="14.00">max_length : int</text>
<text text-anchor="start" x="255.5" y="-317.3" font-family="Times,serif" font-size="14.00">tokenizer</text>
<text text-anchor="start" x="255.5" y="-302.3" font-family="Times,serif" font-size="14.00">transformer</text>
<polyline fill="none" stroke="black" points="247.5,-294.5 450.5,-294.5 "/>
<text text-anchor="start" x="255.5" y="-279.3" font-family="Times,serif" font-size="14.00">encode(text)</text>
<text text-anchor="start" x="255.5" y="-264.3" font-family="Times,serif" font-size="14.00">forward(text)</text>
<text text-anchor="start" x="255.5" y="-249.3" font-family="Times,serif" font-size="14.00">freeze()</text>
</g>
<!-- encoders.modules.FinetuningCLIPEmbedder&#45;&gt;encoders.modules.AbstractEncoder -->
<g id="edge3" class="edge">
<title>encoders.modules.FinetuningCLIPEmbedder&#45;&gt;encoders.modules.AbstractEncoder</title>
<path fill="none" stroke="black" d="M391.49,-385.86C403.29,-405.68 415.73,-426.59 426.25,-444.26"/>
<polygon fill="none" stroke="black" points="423.44,-446.37 431.56,-453.18 429.46,-442.79 423.44,-446.37"/>
</g>
<!-- encoders.modules.FrozenCLIPEmbedder -->
<g id="node9" class="node">
<title>encoders.modules.FrozenCLIPEmbedder</title>
<polygon fill="none" stroke="black" points="468.5,-241.5 468.5,-385.5 643.5,-385.5 643.5,-241.5 468.5,-241.5"/>
<text text-anchor="middle" x="556" y="-370.3" font-family="Times,serif" font-size="14.00">FrozenCLIPEmbedder</text>
<polyline fill="none" stroke="black" points="468.5,-362.5 643.5,-362.5 "/>
<text text-anchor="start" x="476.5" y="-347.3" font-family="Times,serif" font-size="14.00">device : str</text>
<text text-anchor="start" x="476.5" y="-332.3" font-family="Times,serif" font-size="14.00">max_length : int</text>
<text text-anchor="start" x="476.5" y="-317.3" font-family="Times,serif" font-size="14.00">tokenizer</text>
<text text-anchor="start" x="476.5" y="-302.3" font-family="Times,serif" font-size="14.00">transformer</text>
<polyline fill="none" stroke="black" points="468.5,-294.5 643.5,-294.5 "/>
<text text-anchor="start" x="476.5" y="-279.3" font-family="Times,serif" font-size="14.00">encode(text)</text>
<text text-anchor="start" x="476.5" y="-264.3" font-family="Times,serif" font-size="14.00">forward(text)</text>
<text text-anchor="start" x="476.5" y="-249.3" font-family="Times,serif" font-size="14.00">freeze()</text>
</g>
<!-- encoders.modules.FrozenCLIPEmbedder&#45;&gt;encoders.modules.AbstractEncoder -->
<g id="edge4" class="edge">
<title>encoders.modules.FrozenCLIPEmbedder&#45;&gt;encoders.modules.AbstractEncoder</title>
<path fill="none" stroke="black" d="M513.1,-385.86C501.19,-405.68 488.62,-426.59 478,-444.26"/>
<polygon fill="none" stroke="black" points="474.79,-442.8 472.63,-453.18 480.79,-446.41 474.79,-442.8"/>
</g>
<!-- encoders.modules.FrozenCLIPTextEmbedder -->
<g id="node10" class="node">
<title>encoders.modules.FrozenCLIPTextEmbedder</title>
<polygon fill="none" stroke="black" points="949,-0.5 949,-159.5 1155,-159.5 1155,-0.5 949,-0.5"/>
<text text-anchor="middle" x="1052" y="-144.3" font-family="Times,serif" font-size="14.00">FrozenCLIPTextEmbedder</text>
<polyline fill="none" stroke="black" points="949,-136.5 1155,-136.5 "/>
<text text-anchor="start" x="957" y="-121.3" font-family="Times,serif" font-size="14.00">device : str</text>
<text text-anchor="start" x="957" y="-106.3" font-family="Times,serif" font-size="14.00">max_length : int</text>
<text text-anchor="start" x="957" y="-91.3" font-family="Times,serif" font-size="14.00">model</text>
<text text-anchor="start" x="957" y="-76.3" font-family="Times,serif" font-size="14.00">n_repeat : int</text>
<text text-anchor="start" x="957" y="-61.3" font-family="Times,serif" font-size="14.00">normalize : bool</text>
<polyline fill="none" stroke="black" points="949,-53.5 1155,-53.5 "/>
<text text-anchor="start" x="957" y="-38.3" font-family="Times,serif" font-size="14.00">encode(text)</text>
<text text-anchor="start" x="957" y="-23.3" font-family="Times,serif" font-size="14.00">forward(text)</text>
<text text-anchor="start" x="957" y="-8.3" font-family="Times,serif" font-size="14.00">freeze()</text>
</g>
<!-- encoders.modules.FrozenClipImageEmbedder -->
<g id="node11" class="node">
<title>encoders.modules.FrozenClipImageEmbedder</title>
<polygon fill="none" stroke="black" points="1173.5,-30.5 1173.5,-129.5 1386.5,-129.5 1386.5,-30.5 1173.5,-30.5"/>
<text text-anchor="middle" x="1280" y="-114.3" font-family="Times,serif" font-size="14.00">FrozenClipImageEmbedder</text>
<polyline fill="none" stroke="black" points="1173.5,-106.5 1386.5,-106.5 "/>
<text text-anchor="start" x="1181.5" y="-91.3" font-family="Times,serif" font-size="14.00">antialias : bool</text>
<text text-anchor="start" x="1181.5" y="-76.3" font-family="Times,serif" font-size="14.00">model</text>
<polyline fill="none" stroke="black" points="1173.5,-68.5 1386.5,-68.5 "/>
<text text-anchor="start" x="1181.5" y="-53.3" font-family="Times,serif" font-size="14.00">forward(x)</text>
<text text-anchor="start" x="1181.5" y="-38.3" font-family="Times,serif" font-size="14.00">preprocess(x)</text>
</g>
<!-- encoders.modules.FrozenClipImageEmbedderNew -->
<g id="node12" class="node">
<title>encoders.modules.FrozenClipImageEmbedderNew</title>
<polygon fill="none" stroke="black" points="1404.5,-23 1404.5,-137 1649.5,-137 1649.5,-23 1404.5,-23"/>
<text text-anchor="middle" x="1527" y="-121.8" font-family="Times,serif" font-size="14.00">FrozenClipImageEmbedderNew</text>
<polyline fill="none" stroke="black" points="1404.5,-114 1649.5,-114 "/>
<text text-anchor="start" x="1412.5" y="-98.8" font-family="Times,serif" font-size="14.00">antialias : bool</text>
<text text-anchor="start" x="1412.5" y="-83.8" font-family="Times,serif" font-size="14.00">encoder</text>
<text text-anchor="start" x="1412.5" y="-68.8" font-family="Times,serif" font-size="14.00">linear</text>
<polyline fill="none" stroke="black" points="1404.5,-61 1649.5,-61 "/>
<text text-anchor="start" x="1412.5" y="-45.8" font-family="Times,serif" font-size="14.00">forward(x)</text>
<text text-anchor="start" x="1412.5" y="-30.8" font-family="Times,serif" font-size="14.00">preprocess(x)</text>
</g>
<!-- encoders.modules.FrozenOpenCLIPEmbedder -->
<g id="node13" class="node">
<title>encoders.modules.FrozenOpenCLIPEmbedder</title>
<polygon fill="none" stroke="black" points="662,-211.5 662,-415.5 964,-415.5 964,-211.5 662,-211.5"/>
<text text-anchor="middle" x="813" y="-400.3" font-family="Times,serif" font-size="14.00">FrozenOpenCLIPEmbedder</text>
<polyline fill="none" stroke="black" points="662,-392.5 964,-392.5 "/>
<text text-anchor="start" x="670" y="-377.3" font-family="Times,serif" font-size="14.00">LAYERS : list</text>
<text text-anchor="start" x="670" y="-362.3" font-family="Times,serif" font-size="14.00">device : str</text>
<text text-anchor="start" x="670" y="-347.3" font-family="Times,serif" font-size="14.00">layer : str</text>
<text text-anchor="start" x="670" y="-332.3" font-family="Times,serif" font-size="14.00">layer_idx : int</text>
<text text-anchor="start" x="670" y="-317.3" font-family="Times,serif" font-size="14.00">max_length : int</text>
<text text-anchor="start" x="670" y="-302.3" font-family="Times,serif" font-size="14.00">model</text>
<polyline fill="none" stroke="black" points="662,-294.5 964,-294.5 "/>
<text text-anchor="start" x="670" y="-279.3" font-family="Times,serif" font-size="14.00">encode(text)</text>
<text text-anchor="start" x="670" y="-264.3" font-family="Times,serif" font-size="14.00">encode_with_transformer(text)</text>
<text text-anchor="start" x="670" y="-249.3" font-family="Times,serif" font-size="14.00">forward(text)</text>
<text text-anchor="start" x="670" y="-234.3" font-family="Times,serif" font-size="14.00">freeze()</text>
<text text-anchor="start" x="670" y="-219.3" font-family="Times,serif" font-size="14.00">text_transformer_forward(x, attn_mask)</text>
</g>
<!-- encoders.modules.FrozenOpenCLIPEmbedder&#45;&gt;encoders.modules.AbstractEncoder -->
<g id="edge5" class="edge">
<title>encoders.modules.FrozenOpenCLIPEmbedder&#45;&gt;encoders.modules.AbstractEncoder</title>
<path fill="none" stroke="black" d="M661.85,-411.08C658.55,-412.77 655.27,-414.41 652,-416 613.19,-434.89 568.07,-451.45 530.51,-463.86"/>
<polygon fill="none" stroke="black" points="529.05,-460.66 520.63,-467.09 531.22,-467.31 529.05,-460.66"/>
</g>
<!-- encoders.modules.SpatialRescaler -->
<g id="node14" class="node">
<title>encoders.modules.SpatialRescaler</title>
<polygon fill="none" stroke="black" points="1667.5,-8 1667.5,-152 1830.5,-152 1830.5,-8 1667.5,-8"/>
<text text-anchor="middle" x="1749" y="-136.8" font-family="Times,serif" font-size="14.00">SpatialRescaler</text>
<polyline fill="none" stroke="black" points="1667.5,-129 1830.5,-129 "/>
<text text-anchor="start" x="1675.5" y="-113.8" font-family="Times,serif" font-size="14.00">channel_mapper</text>
<text text-anchor="start" x="1675.5" y="-98.8" font-family="Times,serif" font-size="14.00">interpolator : partial</text>
<text text-anchor="start" x="1675.5" y="-83.8" font-family="Times,serif" font-size="14.00">multiplier : float</text>
<text text-anchor="start" x="1675.5" y="-68.8" font-family="Times,serif" font-size="14.00">n_stages : int</text>
<text text-anchor="start" x="1675.5" y="-53.8" font-family="Times,serif" font-size="14.00">remap_output</text>
<polyline fill="none" stroke="black" points="1667.5,-46 1830.5,-46 "/>
<text text-anchor="start" x="1675.5" y="-30.8" font-family="Times,serif" font-size="14.00">encode(x)</text>
<text text-anchor="start" x="1675.5" y="-15.8" font-family="Times,serif" font-size="14.00">forward(x)</text>
</g>
<!-- encoders.modules.TransformerEmbedder -->
<g id="node15" class="node">
<title>encoders.modules.TransformerEmbedder</title>
<polygon fill="none" stroke="black" points="982,-264 982,-363 1162,-363 1162,-264 982,-264"/>
<text text-anchor="middle" x="1072" y="-347.8" font-family="Times,serif" font-size="14.00">TransformerEmbedder</text>
<polyline fill="none" stroke="black" points="982,-340 1162,-340 "/>
<text text-anchor="start" x="990" y="-324.8" font-family="Times,serif" font-size="14.00">device : str</text>
<text text-anchor="start" x="990" y="-309.8" font-family="Times,serif" font-size="14.00">transformer</text>
<polyline fill="none" stroke="black" points="982,-302 1162,-302 "/>
<text text-anchor="start" x="990" y="-286.8" font-family="Times,serif" font-size="14.00">encode(x)</text>
<text text-anchor="start" x="990" y="-271.8" font-family="Times,serif" font-size="14.00">forward(tokens)</text>
</g>
<!-- encoders.modules.TransformerEmbedder&#45;&gt;encoders.modules.AbstractEncoder -->
<g id="edge6" class="edge">
<title>encoders.modules.TransformerEmbedder&#45;&gt;encoders.modules.AbstractEncoder</title>
<path fill="none" stroke="black" d="M1036.41,-363.19C1019.45,-382.79 997.51,-403.64 973,-416 897.28,-454.19 657.08,-474.61 531.01,-482.93"/>
<polygon fill="none" stroke="black" points="530.4,-479.46 520.65,-483.61 530.86,-486.45 530.4,-479.46"/>
</g>
</g>
</svg>
