<?xml version="1.0" encoding="UTF-8" standalone="no"?>
<!DOCTYPE svg PUBLIC "-//W3C//DTD SVG 1.1//EN"
 "http://www.w3.org/Graphics/SVG/1.1/DTD/svg11.dtd">
<!-- Generated by graphviz version 2.50.0 (0)
 -->
<!-- Title: packages_ldm.modules.encoders Pages: 1 -->
<svg width="286pt" height="116pt"
 viewBox="0.00 0.00 285.50 116.00" xmlns="http://www.w3.org/2000/svg" xmlns:xlink="http://www.w3.org/1999/xlink">
<g id="graph0" class="graph" transform="scale(1 1) rotate(0) translate(4 112)">
<title>packages_ldm.modules.encoders</title>
<polygon fill="white" stroke="transparent" points="-4,4 -4,-112 281.5,-112 281.5,4 -4,4"/>
<!-- encoders -->
<g id="node1" class="node">
<title>encoders</title>
<polygon fill="none" stroke="black" points="81,-36 0,-36 0,0 81,0 81,-36"/>
<text text-anchor="middle" x="40.5" y="-14.3" font-family="Times,serif" font-size="14.00">encoders</text>
</g>
<!-- encoders.modules -->
<g id="node2" class="node">
<title>encoders.modules</title>
<polygon fill="none" stroke="black" points="245.5,-36 99.5,-36 99.5,0 245.5,0 245.5,-36"/>
<text text-anchor="middle" x="172.5" y="-14.3" font-family="Times,serif" font-size="14.00">encoders.modules</text>
</g>
<!-- encoders.transformer_utils -->
<g id="node3" class="node">
<title>encoders.transformer_utils</title>
<polygon fill="none" stroke="black" points="277.5,-108 67.5,-108 67.5,-72 277.5,-72 277.5,-108"/>
<text text-anchor="middle" x="172.5" y="-86.3" font-family="Times,serif" font-size="14.00">encoders.transformer_utils</text>
</g>
<!-- encoders.modules&#45;&gt;encoders.transformer_utils -->
<g id="edge1" class="edge">
<title>encoders.modules&#45;&gt;encoders.transformer_utils</title>
<path fill="none" stroke="black" d="M172.5,-36.3C172.5,-44.02 172.5,-53.29 172.5,-61.89"/>
<polygon fill="black" stroke="black" points="172.5,-71.9 168,-61.9 172.5,-66.9 172.5,-61.9 172.5,-61.9 172.5,-61.9 172.5,-66.9 177,-61.9 172.5,-71.9 172.5,-71.9"/>
</g>
</g>
</svg>
