<?xml version="1.0" encoding="UTF-8" standalone="no"?>
<!DOCTYPE svg PUBLIC "-//W3C//DTD SVG 1.1//EN"
 "http://www.w3.org/Graphics/SVG/1.1/DTD/svg11.dtd">
<!-- Generated by graphviz version 2.50.0 (0)
 -->
<!-- Title: classes_ldm.lr_scheduler Pages: 1 -->
<svg width="512pt" height="394pt"
 viewBox="0.00 0.00 511.50 394.00" xmlns="http://www.w3.org/2000/svg" xmlns:xlink="http://www.w3.org/1999/xlink">
<g id="graph0" class="graph" transform="scale(1 1) rotate(0) translate(4 390)">
<title>classes_ldm.lr_scheduler</title>
<polygon fill="white" stroke="transparent" points="-4,4 -4,-390 507.5,-390 507.5,4 -4,4"/>
<!-- lr_scheduler.LambdaLinearScheduler -->
<g id="node1" class="node">
<title>lr_scheduler.LambdaLinearScheduler</title>
<polygon fill="none" stroke="black" points="37.5,-45.5 37.5,-114.5 228.5,-114.5 228.5,-45.5 37.5,-45.5"/>
<text text-anchor="middle" x="133" y="-99.3" font-family="Times,serif" font-size="14.00">LambdaLinearScheduler</text>
<polyline fill="none" stroke="black" points="37.5,-91.5 228.5,-91.5 "/>
<text text-anchor="start" x="45.5" y="-76.3" font-family="Times,serif" font-size="14.00">last_f</text>
<polyline fill="none" stroke="black" points="37.5,-68.5 228.5,-68.5 "/>
<text text-anchor="start" x="45.5" y="-53.3" font-family="Times,serif" font-size="14.00">schedule(n)</text>
</g>
<!-- lr_scheduler.LambdaWarmUpCosineScheduler2 -->
<g id="node3" class="node">
<title>lr_scheduler.LambdaWarmUpCosineScheduler2</title>
<polygon fill="none" stroke="black" points="0,-196.5 0,-385.5 266,-385.5 266,-196.5 0,-196.5"/>
<text text-anchor="middle" x="133" y="-370.3" font-family="Times,serif" font-size="14.00">LambdaWarmUpCosineScheduler2</text>
<polyline fill="none" stroke="black" points="0,-362.5 266,-362.5 "/>
<text text-anchor="start" x="8" y="-347.3" font-family="Times,serif" font-size="14.00">cum_cycles</text>
<text text-anchor="start" x="8" y="-332.3" font-family="Times,serif" font-size="14.00">cycle_lengths</text>
<text text-anchor="start" x="8" y="-317.3" font-family="Times,serif" font-size="14.00">f_max</text>
<text text-anchor="start" x="8" y="-302.3" font-family="Times,serif" font-size="14.00">f_min</text>
<text text-anchor="start" x="8" y="-287.3" font-family="Times,serif" font-size="14.00">f_start</text>
<text text-anchor="start" x="8" y="-272.3" font-family="Times,serif" font-size="14.00">last_f : float</text>
<text text-anchor="start" x="8" y="-257.3" font-family="Times,serif" font-size="14.00">lr_warm_up_steps</text>
<text text-anchor="start" x="8" y="-242.3" font-family="Times,serif" font-size="14.00">verbosity_interval : int</text>
<polyline fill="none" stroke="black" points="0,-234.5 266,-234.5 "/>
<text text-anchor="start" x="8" y="-219.3" font-family="Times,serif" font-size="14.00">find_in_interval(n)</text>
<text text-anchor="start" x="8" y="-204.3" font-family="Times,serif" font-size="14.00">schedule(n)</text>
</g>
<!-- lr_scheduler.LambdaLinearScheduler&#45;&gt;lr_scheduler.LambdaWarmUpCosineScheduler2 -->
<g id="edge1" class="edge">
<title>lr_scheduler.LambdaLinearScheduler&#45;&gt;lr_scheduler.LambdaWarmUpCosineScheduler2</title>
<path fill="none" stroke="black" d="M133,-114.58C133,-134.14 133,-159.97 133,-185.78"/>
<polygon fill="none" stroke="black" points="129.5,-186.05 133,-196.05 136.5,-186.05 129.5,-186.05"/>
</g>
<!-- lr_scheduler.LambdaWarmUpCosineScheduler -->
<g id="node2" class="node">
<title>lr_scheduler.LambdaWarmUpCosineScheduler</title>
<polygon fill="none" stroke="black" points="246.5,-0.5 246.5,-159.5 503.5,-159.5 503.5,-0.5 246.5,-0.5"/>
<text text-anchor="middle" x="375" y="-144.3" font-family="Times,serif" font-size="14.00">LambdaWarmUpCosineScheduler</text>
<polyline fill="none" stroke="black" points="246.5,-136.5 503.5,-136.5 "/>
<text text-anchor="start" x="254.5" y="-121.3" font-family="Times,serif" font-size="14.00">last_lr : float</text>
<text text-anchor="start" x="254.5" y="-106.3" font-family="Times,serif" font-size="14.00">lr_max</text>
<text text-anchor="start" x="254.5" y="-91.3" font-family="Times,serif" font-size="14.00">lr_max_decay_steps</text>
<text text-anchor="start" x="254.5" y="-76.3" font-family="Times,serif" font-size="14.00">lr_min</text>
<text text-anchor="start" x="254.5" y="-61.3" font-family="Times,serif" font-size="14.00">lr_start</text>
<text text-anchor="start" x="254.5" y="-46.3" font-family="Times,serif" font-size="14.00">lr_warm_up_steps</text>
<text text-anchor="start" x="254.5" y="-31.3" font-family="Times,serif" font-size="14.00">verbosity_interval : int</text>
<polyline fill="none" stroke="black" points="246.5,-23.5 503.5,-23.5 "/>
<text text-anchor="start" x="254.5" y="-8.3" font-family="Times,serif" font-size="14.00">schedule(n)</text>
</g>
</g>
</svg>
