<?xml version="1.0" encoding="UTF-8" standalone="no"?>
<!DOCTYPE svg PUBLIC "-//W3C//DTD SVG 1.1//EN"
 "http://www.w3.org/Graphics/SVG/1.1/DTD/svg11.dtd">
<!-- Generated by graphviz version 2.50.0 (0)
 -->
<!-- Title: classes_ldm.modules.diffusionmodules.util Pages: 1 -->
<svg width="767pt" height="94pt"
 viewBox="0.00 0.00 766.50 94.00" xmlns="http://www.w3.org/2000/svg" xmlns:xlink="http://www.w3.org/1999/xlink">
<g id="graph0" class="graph" transform="scale(1 1) rotate(0) translate(4 90)">
<title>classes_ldm.modules.diffusionmodules.util</title>
<polygon fill="white" stroke="transparent" points="-4,4 -4,-90 762.5,-90 762.5,4 -4,4"/>
<!-- diffusionmodules.util.CheckpointFunction -->
<g id="node1" class="node">
<title>diffusionmodules.util.CheckpointFunction</title>
<polygon fill="none" stroke="black" points="0,-0.5 0,-85.5 259,-85.5 259,-0.5 0,-0.5"/>
<text text-anchor="middle" x="129.5" y="-70.3" font-family="Times,serif" font-size="14.00">CheckpointFunction</text>
<polyline fill="none" stroke="black" points="0,-62.5 259,-62.5 "/>
<polyline fill="none" stroke="black" points="0,-38.5 259,-38.5 "/>
<text text-anchor="start" x="8" y="-23.3" font-family="Times,serif" font-size="14.00">backward(ctx)</text>
<text text-anchor="start" x="8" y="-8.3" font-family="Times,serif" font-size="14.00">forward(ctx, run_function, length)</text>
</g>
<!-- diffusionmodules.util.GroupNorm32 -->
<g id="node2" class="node">
<title>diffusionmodules.util.GroupNorm32</title>
<polygon fill="none" stroke="black" points="277,-8 277,-78 396,-78 396,-8 277,-8"/>
<text text-anchor="middle" x="336.5" y="-62.8" font-family="Times,serif" font-size="14.00">GroupNorm32</text>
<polyline fill="none" stroke="black" points="277,-55 396,-55 "/>
<polyline fill="none" stroke="black" points="277,-31 396,-31 "/>
<text text-anchor="start" x="285" y="-15.8" font-family="Times,serif" font-size="14.00">forward(x)</text>
</g>
<!-- diffusionmodules.util.HybridConditioner -->
<g id="node3" class="node">
<title>diffusionmodules.util.HybridConditioner</title>
<polygon fill="none" stroke="black" points="414.5,-1 414.5,-85 648.5,-85 648.5,-1 414.5,-1"/>
<text text-anchor="middle" x="531.5" y="-69.8" font-family="Times,serif" font-size="14.00">HybridConditioner</text>
<polyline fill="none" stroke="black" points="414.5,-62 648.5,-62 "/>
<text text-anchor="start" x="422.5" y="-46.8" font-family="Times,serif" font-size="14.00">concat_conditioner</text>
<text text-anchor="start" x="422.5" y="-31.8" font-family="Times,serif" font-size="14.00">crossattn_conditioner</text>
<polyline fill="none" stroke="black" points="414.5,-24 648.5,-24 "/>
<text text-anchor="start" x="422.5" y="-8.8" font-family="Times,serif" font-size="14.00">forward(c_concat, c_crossattn)</text>
</g>
<!-- diffusionmodules.util.SiLU -->
<g id="node4" class="node">
<title>diffusionmodules.util.SiLU</title>
<polygon fill="none" stroke="black" points="666.5,-8 666.5,-78 758.5,-78 758.5,-8 666.5,-8"/>
<text text-anchor="middle" x="712.5" y="-62.8" font-family="Times,serif" font-size="14.00">SiLU</text>
<polyline fill="none" stroke="black" points="666.5,-55 758.5,-55 "/>
<polyline fill="none" stroke="black" points="666.5,-31 758.5,-31 "/>
<text text-anchor="start" x="674.5" y="-15.8" font-family="Times,serif" font-size="14.00">forward(x)</text>
</g>
</g>
</svg>
