<?xml version="1.0" encoding="UTF-8" standalone="no"?>
<!DOCTYPE svg PUBLIC "-//W3C//DTD SVG 1.1//EN"
 "http://www.w3.org/Graphics/SVG/1.1/DTD/svg11.dtd">
<!-- Generated by graphviz version 2.50.0 (0)
 -->
<!-- Title: packages_ldm.modules.diffusionmodules Pages: 1 -->
<svg width="786pt" height="44pt"
 viewBox="0.00 0.00 785.50 44.00" xmlns="http://www.w3.org/2000/svg" xmlns:xlink="http://www.w3.org/1999/xlink">
<g id="graph0" class="graph" transform="scale(1 1) rotate(0) translate(4 40)">
<title>packages_ldm.modules.diffusionmodules</title>
<polygon fill="white" stroke="transparent" points="-4,4 -4,-40 781.5,-40 781.5,4 -4,4"/>
<!-- diffusionmodules -->
<g id="node1" class="node">
<title>diffusionmodules</title>
<polygon fill="none" stroke="black" points="138,-36 0,-36 0,0 138,0 138,-36"/>
<text text-anchor="middle" x="69" y="-14.3" font-family="Times,serif" font-size="14.00">diffusionmodules</text>
</g>
<!-- diffusionmodules.model -->
<g id="node2" class="node">
<title>diffusionmodules.model</title>
<polygon fill="none" stroke="black" points="342,-36 156,-36 156,0 342,0 342,-36"/>
<text text-anchor="middle" x="249" y="-14.3" font-family="Times,serif" font-size="14.00">diffusionmodules.model</text>
</g>
<!-- diffusionmodules.openaimodel -->
<g id="node3" class="node">
<title>diffusionmodules.openaimodel</title>
<polygon fill="none" stroke="black" points="592.5,-36 359.5,-36 359.5,0 592.5,0 592.5,-36"/>
<text text-anchor="middle" x="476" y="-14.3" font-family="Times,serif" font-size="14.00">diffusionmodules.openaimodel</text>
</g>
<!-- diffusionmodules.util -->
<g id="node4" class="node">
<title>diffusionmodules.util</title>
<polygon fill="none" stroke="black" points="777.5,-36 610.5,-36 610.5,0 777.5,0 777.5,-36"/>
<text text-anchor="middle" x="694" y="-14.3" font-family="Times,serif" font-size="14.00">diffusionmodules.util</text>
</g>
</g>
</svg>
